%FSTAX23Y23*%
%MOIN*%
%SFA1B1*%

%IPPOS*%
%ADD55C,0.005000*%
%ADD56C,0.008000*%
%ADD70C,0.003940*%
%ADD71C,0.001970*%
%ADD89C,0.007870*%
%ADD92C,0.003000*%
%ADD155C,0.004000*%
%ADD156C,0.005910*%
%LNmb1137-1*%
%LPD*%
G54D55*
X01577Y-00727D02*
X01599Y-00705D01*
X00622Y-01255D02*
X01322D01*
Y-0144D02*
Y-01255D01*
X00622Y-0144D02*
X01322D01*
X00622D02*
Y-01255D01*
X01723Y00558D02*
X01726D01*
X00415Y01065D02*
X00435D01*
X00425Y01055D02*
Y01075D01*
X01403Y00922D02*
Y00942D01*
X01393Y00932D02*
X01413D01*
X01545Y-00738D02*
X01552Y-00732D01*
X01565*
X01572Y-00738*
Y-00745*
X01565Y-00752*
X01552*
X01545Y-00758*
Y-00765*
X01552Y-00772*
X01565*
X01572Y-00765*
X01532Y-00732D02*
Y-00772D01*
X01512*
X01505Y-00765*
Y-00758*
X01512Y-00752*
X01532*
X01512*
X01505Y-00745*
Y-00738*
X01512Y-00732*
X01532*
X01492Y-00772D02*
X01478D01*
X01485*
Y-00732*
X01492Y-00738*
X01458Y-00732D02*
X01432D01*
Y-00738*
X01458Y-00765*
Y-00772*
X01418Y-00765D02*
X01412Y-00772D01*
X01398*
X01392Y-00765*
Y-00738*
X01398Y-00732*
X01412*
X01418Y-00738*
Y-00745*
X01412Y-00752*
X01392*
X01656Y01425D02*
X0165Y01432D01*
Y01445*
X01656Y01452*
X01663*
X0167Y01445*
Y01432*
X01676Y01425*
X01683*
X0169Y01432*
Y01445*
X01683Y01452*
X0165Y01412D02*
X0169D01*
Y01392*
X01683Y01385*
X01676*
X0167Y01392*
Y01412*
Y01392*
X01663Y01385*
X01656*
X0165Y01392*
Y01412*
X0169Y01372D02*
Y01358D01*
Y01365*
X0165*
X01656Y01372*
X0169Y01312D02*
Y01338D01*
X01663Y01312*
X01656*
X0165Y01318*
Y01332*
X01656Y01338*
Y01298D02*
X0165Y01292D01*
Y01278*
X01656Y01272*
X01683*
X0169Y01278*
Y01292*
X01683Y01298*
X01656*
X01451Y01398D02*
X01444Y01405D01*
Y01418*
X01451Y01425*
X01457*
X01464Y01418*
Y01405*
X01471Y01398*
X01477*
X01484Y01405*
Y01418*
X01477Y01425*
X01444Y01385D02*
X01484D01*
Y01365*
X01477Y01358*
X01471*
X01464Y01365*
Y01385*
Y01365*
X01457Y01358*
X01451*
X01444Y01365*
Y01385*
X01484Y01345D02*
Y01331D01*
Y01338*
X01444*
X01451Y01345*
X01484Y01311D02*
Y01298D01*
Y01305*
X01444*
X01451Y01311*
X01477Y01278D02*
X01484Y01271D01*
Y01258*
X01477Y01251*
X01451*
X01444Y01258*
Y01271*
X01451Y01278*
X01457*
X01464Y01271*
Y01251*
X00561Y-01534D02*
X00555Y-01527D01*
Y-01514*
X00561Y-01508*
X00568*
X00575Y-01514*
Y-01527*
X00581Y-01534*
X00588*
X00595Y-01527*
Y-01514*
X00588Y-01508*
X00555Y-01547D02*
X00595D01*
Y-01567*
X00588Y-01574*
X00581*
X00575Y-01567*
Y-01547*
Y-01567*
X00568Y-01574*
X00561*
X00555Y-01567*
Y-01547*
X00595Y-01587D02*
Y-01601D01*
Y-01594*
X00555*
X00561Y-01587*
Y-01621D02*
X00555Y-01627D01*
Y-01641*
X00561Y-01647*
X00568*
X00575Y-01641*
X00581Y-01647*
X00588*
X00595Y-01641*
Y-01627*
X00588Y-01621*
X00581*
X00575Y-01627*
X00568Y-01621*
X00561*
X00575Y-01627D02*
Y-01641D01*
X00595Y-01681D02*
X00555D01*
X00575Y-01661*
Y-01687*
X00622Y-01534D02*
X00616Y-01527D01*
Y-01514*
X00622Y-01508*
X00629*
X00636Y-01514*
Y-01527*
X00642Y-01534*
X00649*
X00656Y-01527*
Y-01514*
X00649Y-01508*
X00616Y-01547D02*
X00656D01*
Y-01567*
X00649Y-01574*
X00642*
X00636Y-01567*
Y-01547*
Y-01567*
X00629Y-01574*
X00622*
X00616Y-01567*
Y-01547*
X00656Y-01587D02*
Y-01601D01*
Y-01594*
X00616*
X00622Y-01587*
Y-01621D02*
X00616Y-01627D01*
Y-01641*
X00622Y-01647*
X00629*
X00636Y-01641*
X00642Y-01647*
X00649*
X00656Y-01641*
Y-01627*
X00649Y-01621*
X00642*
X00636Y-01627*
X00629Y-01621*
X00622*
X00636Y-01627D02*
Y-01641D01*
X00616Y-01687D02*
Y-01661D01*
X00636*
X00629Y-01674*
Y-01681*
X00636Y-01687*
X00649*
X00656Y-01681*
Y-01667*
X00649Y-01661*
X00226Y-01859D02*
X00219Y-01852D01*
Y-01839*
X00226Y-01833*
X00232*
X00239Y-01839*
Y-01852*
X00246Y-01859*
X00252*
X00259Y-01852*
Y-01839*
X00252Y-01833*
X00219Y-01872D02*
X00259D01*
Y-01892*
X00252Y-01899*
X00246*
X00239Y-01892*
Y-01872*
Y-01892*
X00232Y-01899*
X00226*
X00219Y-01892*
Y-01872*
X00259Y-01912D02*
Y-01926D01*
Y-01919*
X00219*
X00226Y-01912*
Y-01946D02*
X00219Y-01952D01*
Y-01966*
X00226Y-01972*
X00232*
X00239Y-01966*
X00246Y-01972*
X00252*
X00259Y-01966*
Y-01952*
X00252Y-01946*
X00246*
X00239Y-01952*
X00232Y-01946*
X00226*
X00239Y-01952D02*
Y-01966D01*
X00219Y-02012D02*
X00226Y-01999D01*
X00239Y-01986*
X00252*
X00259Y-01992*
Y-02006*
X00252Y-02012*
X00246*
X00239Y-02006*
Y-01986*
X00208Y01595D02*
X00215Y01601D01*
X00228*
X00235Y01595*
Y01588*
X00228Y01581*
X00215*
X00208Y01575*
Y01568*
X00215Y01562*
X00228*
X00235Y01568*
X00195Y01601D02*
Y01562D01*
X00175*
X00168Y01568*
Y01575*
X00175Y01581*
X00195*
X00175*
X00168Y01588*
Y01595*
X00175Y01601*
X00195*
X00155Y01562D02*
X00141D01*
X00148*
Y01601*
X00155Y01595*
X00121Y01562D02*
X00108D01*
X00115*
Y01601*
X00121Y01595*
X00088D02*
X00081Y01601D01*
X00068*
X00061Y01595*
Y01588*
X00068Y01581*
X00075*
X00068*
X00061Y01575*
Y01568*
X00068Y01562*
X00081*
X00088Y01568*
X00208Y01526D02*
X00215Y01532D01*
X00228*
X00235Y01526*
Y01519*
X00228Y01512*
X00215*
X00208Y01506*
Y01499*
X00215Y01493*
X00228*
X00235Y01499*
X00195Y01532D02*
Y01493D01*
X00175*
X00168Y01499*
Y01506*
X00175Y01512*
X00195*
X00175*
X00168Y01519*
Y01526*
X00175Y01532*
X00195*
X00155Y01493D02*
X00141D01*
X00148*
Y01532*
X00155Y01526*
X00121Y01493D02*
X00108D01*
X00115*
Y01532*
X00121Y01526*
X00068Y01493D02*
Y01532D01*
X00088Y01512*
X00061*
X0067Y-0063D02*
X00677Y-00624D01*
X0069*
X00697Y-0063*
Y-00637*
X0069Y-00644*
X00677*
X0067Y-0065*
Y-00657*
X00677Y-00664*
X0069*
X00697Y-00657*
X00657Y-00624D02*
Y-00664D01*
X00637*
X0063Y-00657*
Y-0065*
X00637Y-00644*
X00657*
X00637*
X0063Y-00637*
Y-0063*
X00637Y-00624*
X00657*
X00617Y-00664D02*
X00603D01*
X0061*
Y-00624*
X00617Y-0063*
X00583Y-00624D02*
X00557D01*
Y-0063*
X00583Y-00657*
Y-00664*
X00543Y-00624D02*
X00517D01*
Y-0063*
X00543Y-00657*
Y-00664*
X00789Y01075D02*
X00783Y01082D01*
Y01095*
X00789Y01102*
X00796*
X00803Y01095*
Y01082*
X00809Y01075*
X00816*
X00823Y01082*
Y01095*
X00816Y01102*
X00783Y01062D02*
X00823D01*
Y01042*
X00816Y01035*
X00809*
X00803Y01042*
Y01062*
Y01042*
X00796Y01035*
X00789*
X00783Y01042*
Y01062*
X00823Y01022D02*
Y01008D01*
Y01015*
X00783*
X00789Y01022*
X00823Y00962D02*
Y00988D01*
X00796Y00962*
X00789*
X00783Y00968*
Y00982*
X00789Y00988*
X00783Y00948D02*
Y00922D01*
X00789*
X00816Y00948*
X00823*
X00621Y00502D02*
X00628Y00508D01*
X00641*
X00648Y00502*
Y00495*
X00641Y00488*
X00628*
X00621Y00482*
Y00475*
X00628Y00469*
X00641*
X00648Y00475*
X00608Y00508D02*
Y00469D01*
X00588*
X00581Y00475*
Y00482*
X00588Y00488*
X00608*
X00588*
X00581Y00495*
Y00502*
X00588Y00508*
X00608*
X00568Y00469D02*
X00554D01*
X00561*
Y00508*
X00568Y00502*
X00534D02*
X00528Y00508D01*
X00514*
X00508Y00502*
Y00495*
X00514Y00488*
X00521*
X00514*
X00508Y00482*
Y00475*
X00514Y00469*
X00528*
X00534Y00475*
X00468Y00508D02*
X00481Y00502D01*
X00494Y00488*
Y00475*
X00488Y00469*
X00474*
X00468Y00475*
Y00482*
X00474Y00488*
X00494*
X00707Y01361D02*
X00714Y01367D01*
X00727*
X00734Y01361*
Y01354*
X00727Y01347*
X00714*
X00707Y01341*
Y01334*
X00714Y01328*
X00727*
X00734Y01334*
X00694Y01367D02*
Y01328D01*
X00674*
X00667Y01334*
Y01341*
X00674Y01347*
X00694*
X00674*
X00667Y01354*
Y01361*
X00674Y01367*
X00694*
X00654Y01328D02*
X0064D01*
X00647*
Y01367*
X00654Y01361*
X0062Y01328D02*
X00607D01*
X00614*
Y01367*
X0062Y01361*
X00587Y01367D02*
X0056D01*
Y01361*
X00587Y01334*
Y01328*
X01106Y-00055D02*
X011Y-00048D01*
Y-00035*
X01106Y-00029*
X01113*
X0112Y-00035*
Y-00048*
X01126Y-00055*
X01133*
X0114Y-00048*
Y-00035*
X01133Y-00029*
X011Y-00068D02*
X0114D01*
Y-00088*
X01133Y-00095*
X01126*
X0112Y-00088*
Y-00068*
Y-00088*
X01113Y-00095*
X01106*
X011Y-00088*
Y-00068*
X0114Y-00108D02*
Y-00122D01*
Y-00115*
X011*
X01106Y-00108*
X011Y-00168D02*
X01106Y-00155D01*
X0112Y-00142*
X01133*
X0114Y-00148*
Y-00162*
X01133Y-00168*
X01126*
X0112Y-00162*
Y-00142*
X0114Y-00202D02*
X011D01*
X0112Y-00182*
Y-00208*
X01041Y-00055D02*
X01035Y-00048D01*
Y-00035*
X01041Y-00029*
X01048*
X01055Y-00035*
Y-00048*
X01061Y-00055*
X01068*
X01075Y-00048*
Y-00035*
X01068Y-00029*
X01035Y-00068D02*
X01075D01*
Y-00088*
X01068Y-00095*
X01061*
X01055Y-00088*
Y-00068*
Y-00088*
X01048Y-00095*
X01041*
X01035Y-00088*
Y-00068*
X01075Y-00108D02*
Y-00122D01*
Y-00115*
X01035*
X01041Y-00108*
X01035Y-00168D02*
X01041Y-00155D01*
X01055Y-00142*
X01068*
X01075Y-00148*
Y-00162*
X01068Y-00168*
X01061*
X01055Y-00162*
Y-00142*
X01041Y-00182D02*
X01035Y-00188D01*
Y-00202*
X01041Y-00208*
X01068*
X01075Y-00202*
Y-00188*
X01068Y-00182*
X01041*
X01364Y01291D02*
X01371Y01297D01*
X01384*
X01391Y01291*
Y01284*
X01384Y01277*
X01371*
X01364Y01271*
Y01264*
X01371Y01258*
X01384*
X01391Y01264*
X01351Y01297D02*
Y01258D01*
X01331*
X01324Y01264*
Y01271*
X01331Y01277*
X01351*
X01331*
X01324Y01284*
Y01291*
X01331Y01297*
X01351*
X01311Y01258D02*
X01297D01*
X01304*
Y01297*
X01311Y01291*
X01277Y01258D02*
X01264D01*
X01271*
Y01297*
X01277Y01291*
X01244D02*
X01237Y01297D01*
X01224*
X01217Y01291*
Y01284*
X01224Y01277*
X01217Y01271*
Y01264*
X01224Y01258*
X01237*
X01244Y01264*
Y01271*
X01237Y01277*
X01244Y01284*
Y01291*
X01237Y01277D02*
X01224D01*
X01721Y-00254D02*
X01715Y-00247D01*
Y-00234*
X01721Y-00228*
X01728*
X01735Y-00234*
Y-00247*
X01741Y-00254*
X01748*
X01755Y-00247*
Y-00234*
X01748Y-00228*
X01715Y-00267D02*
X01755D01*
Y-00287*
X01748Y-00294*
X01741*
X01735Y-00287*
Y-00267*
Y-00287*
X01728Y-00294*
X01721*
X01715Y-00287*
Y-00267*
X01755Y-00307D02*
Y-00321D01*
Y-00314*
X01715*
X01721Y-00307*
X01715Y-00341D02*
Y-00367D01*
X01721*
X01748Y-00341*
X01755*
Y-00407D02*
Y-00381D01*
X01728Y-00407*
X01721*
X01715Y-00401*
Y-00387*
X01721Y-00381*
Y00198D02*
X01715Y00205D01*
Y00218*
X01721Y00225*
X01728*
X01735Y00218*
Y00205*
X01741Y00198*
X01748*
X01755Y00205*
Y00218*
X01748Y00225*
X01715Y00185D02*
X01755D01*
Y00165*
X01748Y00158*
X01741*
X01735Y00165*
Y00185*
Y00165*
X01728Y00158*
X01721*
X01715Y00165*
Y00185*
X01755Y00145D02*
Y00131D01*
Y00138*
X01715*
X01721Y00145*
X01715Y00085D02*
Y00111D01*
X01735*
X01728Y00098*
Y00091*
X01735Y00085*
X01748*
X01755Y00091*
Y00105*
X01748Y00111*
Y00071D02*
X01755Y00065D01*
Y00051*
X01748Y00045*
X01721*
X01715Y00051*
Y00065*
X01721Y00071*
X01728*
X01735Y00065*
Y00045*
X01552Y00198D02*
X01546Y00205D01*
Y00218*
X01552Y00225*
X01559*
X01566Y00218*
Y00205*
X01572Y00198*
X01579*
X01586Y00205*
Y00218*
X01579Y00225*
X01546Y00185D02*
X01586D01*
Y00165*
X01579Y00158*
X01572*
X01566Y00165*
Y00185*
Y00165*
X01559Y00158*
X01552*
X01546Y00165*
Y00185*
X01586Y00145D02*
Y00131D01*
Y00138*
X01546*
X01552Y00145*
X01546Y00085D02*
Y00111D01*
X01566*
X01559Y00098*
Y00091*
X01566Y00085*
X01579*
X01586Y00091*
Y00105*
X01579Y00111*
X01552Y00071D02*
X01546Y00065D01*
Y00051*
X01552Y00045*
X01559*
X01566Y00051*
X01572Y00045*
X01579*
X01586Y00051*
Y00065*
X01579Y00071*
X01572*
X01566Y00065*
X01559Y00071*
X01552*
X01566Y00065D02*
Y00051D01*
X00705Y01419D02*
X00712Y01425D01*
X00725*
X00732Y01419*
Y01412*
X00725Y01405*
X00712*
X00705Y01399*
Y01392*
X00712Y01386*
X00725*
X00732Y01392*
X00692Y01425D02*
Y01386D01*
X00672*
X00665Y01392*
Y01399*
X00672Y01405*
X00692*
X00672*
X00665Y01412*
Y01419*
X00672Y01425*
X00692*
X00652Y01386D02*
X00638D01*
X00645*
Y01425*
X00652Y01419*
X00618Y01386D02*
X00605D01*
X00612*
Y01425*
X00618Y01419*
X00558Y01425D02*
X00572Y01419D01*
X00585Y01405*
Y01392*
X00578Y01386*
X00565*
X00558Y01392*
Y01399*
X00565Y01405*
X00585*
X01264Y00539D02*
X01271Y00545D01*
X01284*
X01291Y00539*
Y00532*
X01284Y00525*
X01271*
X01264Y00519*
Y00512*
X01271Y00506*
X01284*
X01291Y00512*
X01251Y00545D02*
Y00506D01*
X01231*
X01224Y00512*
Y00519*
X01231Y00525*
X01251*
X01231*
X01224Y00532*
Y00539*
X01231Y00545*
X01251*
X01211Y00506D02*
X01197D01*
X01204*
Y00545*
X01211Y00539*
X01177D02*
X01171Y00545D01*
X01157*
X01151Y00539*
Y00532*
X01157Y00525*
X01164*
X01157*
X01151Y00519*
Y00512*
X01157Y00506*
X01171*
X01177Y00512*
X01137Y00545D02*
X01111D01*
Y00539*
X01137Y00512*
Y00506*
X01719Y-0006D02*
X01713Y-00053D01*
Y-0004*
X01719Y-00034*
X01726*
X01733Y-0004*
Y-00053*
X01739Y-0006*
X01746*
X01753Y-00053*
Y-0004*
X01746Y-00034*
X01713Y-00073D02*
X01753D01*
Y-00093*
X01746Y-001*
X01739*
X01733Y-00093*
Y-00073*
Y-00093*
X01726Y-001*
X01719*
X01713Y-00093*
Y-00073*
X01753Y-00113D02*
Y-00127D01*
Y-0012*
X01713*
X01719Y-00113*
X01713Y-00173D02*
X01719Y-0016D01*
X01733Y-00147*
X01746*
X01753Y-00153*
Y-00167*
X01746Y-00173*
X01739*
X01733Y-00167*
Y-00147*
X01719Y-00187D02*
X01713Y-00193D01*
Y-00207*
X01719Y-00213*
X01726*
X01733Y-00207*
X01739Y-00213*
X01746*
X01753Y-00207*
Y-00193*
X01746Y-00187*
X01739*
X01733Y-00193*
X01726Y-00187*
X01719*
X01733Y-00193D02*
Y-00207D01*
X01718Y-00445D02*
X01712Y-00438D01*
Y-00425*
X01718Y-00419*
X01725*
X01732Y-00425*
Y-00438*
X01738Y-00445*
X01745*
X01752Y-00438*
Y-00425*
X01745Y-00419*
X01712Y-00458D02*
X01752D01*
Y-00478*
X01745Y-00485*
X01738*
X01732Y-00478*
Y-00458*
Y-00478*
X01725Y-00485*
X01718*
X01712Y-00478*
Y-00458*
X01752Y-00498D02*
Y-00512D01*
Y-00505*
X01712*
X01718Y-00498*
X01712Y-00532D02*
Y-00558D01*
X01718*
X01745Y-00532*
X01752*
X01712Y-00598D02*
Y-00572D01*
X01732*
X01725Y-00585*
Y-00592*
X01732Y-00598*
X01745*
X01752Y-00592*
Y-00578*
X01745Y-00572*
X00442Y0143D02*
X00449Y01436D01*
X00462*
X00469Y0143*
Y01423*
X00462Y01416*
X00449*
X00442Y0141*
Y01403*
X00449Y01397*
X00462*
X00469Y01403*
X00429Y01436D02*
Y01397D01*
X00409*
X00402Y01403*
Y0141*
X00409Y01416*
X00429*
X00409*
X00402Y01423*
Y0143*
X00409Y01436*
X00429*
X00389Y01397D02*
X00376D01*
X00382*
Y01436*
X00389Y0143*
X00356Y01397D02*
X00342D01*
X00349*
Y01436*
X00356Y0143*
X00296Y01436D02*
X00322D01*
Y01416*
X00309Y01423*
X00302*
X00296Y01416*
Y01403*
X00302Y01397*
X00316*
X00322Y01403*
X00462Y-00282D02*
X00469Y-00276D01*
X00482*
X00489Y-00282*
Y-00289*
X00482Y-00296*
X00469*
X00462Y-00302*
Y-00309*
X00469Y-00316*
X00482*
X00489Y-00309*
X00449Y-00276D02*
Y-00316D01*
X00429*
X00422Y-00309*
Y-00302*
X00429Y-00296*
X00449*
X00429*
X00422Y-00289*
Y-00282*
X00429Y-00276*
X00449*
X00409Y-00316D02*
X00395D01*
X00402*
Y-00276*
X00409Y-00282*
X00349Y-00276D02*
X00362Y-00282D01*
X00375Y-00296*
Y-00309*
X00369Y-00316*
X00355*
X00349Y-00309*
Y-00302*
X00355Y-00296*
X00375*
X00335Y-00309D02*
X00329Y-00316D01*
X00315*
X00309Y-00309*
Y-00282*
X00315Y-00276*
X00329*
X00335Y-00282*
Y-00289*
X00329Y-00296*
X00309*
X0067Y0108D02*
X00665Y01086D01*
Y01097*
X0067Y01103*
X00676*
X00682Y01097*
Y01086*
X00687Y0108*
X00693*
X00699Y01086*
Y01097*
X00693Y01103*
X00665Y01069D02*
X00699D01*
Y01052*
X00693Y01046*
X00687*
X00682Y01052*
Y01069*
Y01052*
X00676Y01046*
X0067*
X00665Y01052*
Y01069*
X00699Y01035D02*
Y01023D01*
Y01029*
X00665*
X0067Y01035*
X00699Y00984D02*
Y01006D01*
X00676Y00984*
X0067*
X00665Y00989*
Y01001*
X0067Y01006*
X00665Y0095D02*
X0067Y00961D01*
X00682Y00972*
X00693*
X00699Y00967*
Y00955*
X00693Y0095*
X00687*
X00682Y00955*
Y00972*
X00462Y-00584D02*
X00469Y-00578D01*
X00482*
X00489Y-00584*
Y-00591*
X00482Y-00598*
X00469*
X00462Y-00604*
Y-00611*
X00469Y-00618*
X00482*
X00489Y-00611*
X00449Y-00578D02*
Y-00618D01*
X00429*
X00422Y-00611*
Y-00604*
X00429Y-00598*
X00449*
X00429*
X00422Y-00591*
Y-00584*
X00429Y-00578*
X00449*
X00409Y-00618D02*
X00395D01*
X00402*
Y-00578*
X00409Y-00584*
X00375Y-00578D02*
X00349D01*
Y-00584*
X00375Y-00611*
Y-00618*
X00309Y-00578D02*
X00322Y-00584D01*
X00335Y-00598*
Y-00611*
X00329Y-00618*
X00315*
X00309Y-00611*
Y-00604*
X00315Y-00598*
X00335*
X00739Y0108D02*
X00734Y01086D01*
Y01097*
X00739Y01103*
X00745*
X00751Y01097*
Y01086*
X00756Y0108*
X00762*
X00768Y01086*
Y01097*
X00762Y01103*
X00734Y01069D02*
X00768D01*
Y01052*
X00762Y01046*
X00756*
X00751Y01052*
Y01069*
Y01052*
X00745Y01046*
X00739*
X00734Y01052*
Y01069*
X00768Y01035D02*
Y01023D01*
Y01029*
X00734*
X00739Y01035*
X00768Y00984D02*
Y01006D01*
X00745Y00984*
X00739*
X00734Y00989*
Y01001*
X00739Y01006*
Y00972D02*
X00734Y00967D01*
Y00955*
X00739Y0095*
X00745*
X00751Y00955*
X00756Y0095*
X00762*
X00768Y00955*
Y00967*
X00762Y00972*
X00756*
X00751Y00967*
X00745Y00972*
X00739*
X00751Y00967D02*
Y00955D01*
X00462Y-00384D02*
X00469Y-00378D01*
X00482*
X00489Y-00384*
Y-00391*
X00482Y-00398*
X00469*
X00462Y-00404*
Y-00411*
X00469Y-00418*
X00482*
X00489Y-00411*
X00449Y-00378D02*
Y-00418D01*
X00429*
X00422Y-00411*
Y-00404*
X00429Y-00398*
X00449*
X00429*
X00422Y-00391*
Y-00384*
X00429Y-00378*
X00449*
X00409Y-00418D02*
X00395D01*
X00402*
Y-00378*
X00409Y-00384*
X00375Y-00378D02*
X00349D01*
Y-00384*
X00375Y-00411*
Y-00418*
X00335Y-00384D02*
X00329Y-00378D01*
X00315*
X00309Y-00384*
Y-00411*
X00315Y-00418*
X00329*
X00335Y-00411*
Y-00384*
X00462Y-0049D02*
X00469Y-00484D01*
X00482*
X00489Y-0049*
Y-00497*
X00482Y-00504*
X00469*
X00462Y-0051*
Y-00517*
X00469Y-00524*
X00482*
X00489Y-00517*
X00449Y-00484D02*
Y-00524D01*
X00429*
X00422Y-00517*
Y-0051*
X00429Y-00504*
X00449*
X00429*
X00422Y-00497*
Y-0049*
X00429Y-00484*
X00449*
X00409Y-00524D02*
X00395D01*
X00402*
Y-00484*
X00409Y-0049*
X00375Y-00484D02*
X00349D01*
Y-0049*
X00375Y-00517*
Y-00524*
X00335Y-0049D02*
X00329Y-00484D01*
X00315*
X00309Y-0049*
Y-00497*
X00315Y-00504*
X00322*
X00315*
X00309Y-0051*
Y-00517*
X00315Y-00524*
X00329*
X00335Y-00517*
X00758Y00524D02*
X00752Y00531D01*
Y00544*
X00758Y00551*
X00765*
X00772Y00544*
Y00531*
X00778Y00524*
X00785*
X00792Y00531*
Y00544*
X00785Y00551*
X00752Y00511D02*
X00792D01*
Y00491*
X00785Y00484*
X00778*
X00772Y00491*
Y00511*
Y00491*
X00765Y00484*
X00758*
X00752Y00491*
Y00511*
X00792Y00471D02*
Y00457D01*
Y00464*
X00752*
X00758Y00471*
X00792Y00417D02*
X00752D01*
X00772Y00437*
Y00411*
X00752Y00371D02*
Y00397D01*
X00772*
X00765Y00384*
Y00377*
X00772Y00371*
X00785*
X00792Y00377*
Y00391*
X00785Y00397*
X00729Y00608D02*
X00736Y00614D01*
X00749*
X00756Y00608*
Y00601*
X00749Y00594*
X00736*
X00729Y00588*
Y00581*
X00736Y00575*
X00749*
X00756Y00581*
X00716Y00614D02*
Y00575D01*
X00696*
X00689Y00581*
Y00588*
X00696Y00594*
X00716*
X00696*
X00689Y00601*
Y00608*
X00696Y00614*
X00716*
X00676Y00575D02*
X00662D01*
X00669*
Y00614*
X00676Y00608*
X00642D02*
X00636Y00614D01*
X00622*
X00616Y00608*
Y00601*
X00622Y00594*
X00629*
X00622*
X00616Y00588*
Y00581*
X00622Y00575*
X00636*
X00642Y00581*
X00576Y00614D02*
X00602D01*
Y00594*
X00589Y00601*
X00582*
X00576Y00594*
Y00581*
X00582Y00575*
X00596*
X00602Y00581*
X01529Y00502D02*
X01536Y00508D01*
X01549*
X01556Y00502*
Y00495*
X01549Y00488*
X01536*
X01529Y00482*
Y00475*
X01536Y00469*
X01549*
X01556Y00475*
X01516Y00508D02*
Y00469D01*
X01496*
X01489Y00475*
Y00482*
X01496Y00488*
X01516*
X01496*
X01489Y00495*
Y00502*
X01496Y00508*
X01516*
X01476Y00469D02*
X01462D01*
X01469*
Y00508*
X01476Y00502*
X01422Y00469D02*
Y00508D01*
X01442Y00488*
X01416*
X01402Y00469D02*
X01389D01*
X01396*
Y00508*
X01402Y00502*
X00414Y00617D02*
X00421Y00623D01*
X00434*
X00441Y00617*
Y0061*
X00434Y00603*
X00421*
X00414Y00597*
Y0059*
X00421Y00584*
X00434*
X00441Y0059*
X00401Y00623D02*
Y00584D01*
X00381*
X00374Y0059*
Y00597*
X00381Y00603*
X00401*
X00381*
X00374Y0061*
Y00617*
X00381Y00623*
X00401*
X00361Y00584D02*
X00348D01*
X00354*
Y00623*
X00361Y00617*
X00328D02*
X00321Y00623D01*
X00308*
X00301Y00617*
Y0061*
X00308Y00603*
X00314*
X00308*
X00301Y00597*
Y0059*
X00308Y00584*
X00321*
X00328Y0059*
X00268Y00584D02*
Y00623D01*
X00288Y00603*
X00261*
X00366Y00839D02*
X0036Y00846D01*
Y00859*
X00366Y00866*
X00373*
X0038Y00859*
Y00846*
X00386Y00839*
X00393*
X004Y00846*
Y00859*
X00393Y00866*
X0036Y00826D02*
X004D01*
Y00806*
X00393Y00799*
X00386*
X0038Y00806*
Y00826*
Y00806*
X00373Y00799*
X00366*
X0036Y00806*
Y00826*
X004Y00786D02*
Y00772D01*
Y00779*
X0036*
X00366Y00786*
Y00752D02*
X0036Y00746D01*
Y00732*
X00366Y00726*
X00373*
X0038Y00732*
Y00739*
Y00732*
X00386Y00726*
X00393*
X004Y00732*
Y00746*
X00393Y00752*
X00366Y00712D02*
X0036Y00706D01*
Y00692*
X00366Y00686*
X00393*
X004Y00692*
Y00706*
X00393Y00712*
X00366*
X01525Y00317D02*
X01532Y00323D01*
X01545*
X01552Y00317*
Y0031*
X01545Y00303*
X01532*
X01525Y00297*
Y0029*
X01532Y00283*
X01545*
X01552Y0029*
X01512Y00323D02*
Y00283D01*
X01492*
X01485Y0029*
Y00297*
X01492Y00303*
X01512*
X01492*
X01485Y0031*
Y00317*
X01492Y00323*
X01512*
X01472Y00283D02*
X01458D01*
X01465*
Y00323*
X01472Y00317*
X01412Y00323D02*
X01438D01*
Y00303*
X01425Y0031*
X01418*
X01412Y00303*
Y0029*
X01418Y00283*
X01432*
X01438Y0029*
X01398Y00283D02*
X01385D01*
X01392*
Y00323*
X01398Y00317*
X00473Y0083D02*
X00467Y00837D01*
Y0085*
X00473Y00857*
X0048*
X00487Y0085*
Y00837*
X00493Y0083*
X005*
X00507Y00837*
Y0085*
X005Y00857*
X00467Y00817D02*
X00507D01*
Y00797*
X005Y0079*
X00493*
X00487Y00797*
Y00817*
Y00797*
X0048Y0079*
X00473*
X00467Y00797*
Y00817*
X00507Y00777D02*
Y00763D01*
Y0077*
X00467*
X00473Y00777*
Y00743D02*
X00467Y00737D01*
Y00723*
X00473Y00717*
X0048*
X00487Y00723*
Y0073*
Y00723*
X00493Y00717*
X005*
X00507Y00723*
Y00737*
X005Y00743*
X00507Y00703D02*
Y0069D01*
Y00697*
X00467*
X00473Y00703*
X0168Y-00797D02*
X01687Y-00791D01*
X017*
X01707Y-00797*
Y-00804*
X017Y-00811*
X01687*
X0168Y-00817*
Y-00824*
X01687Y-00831*
X017*
X01707Y-00824*
X01667Y-00791D02*
Y-00831D01*
X01647*
X0164Y-00824*
Y-00817*
X01647Y-00811*
X01667*
X01647*
X0164Y-00804*
Y-00797*
X01647Y-00791*
X01667*
X01627Y-00831D02*
X01614D01*
X0162*
Y-00791*
X01627Y-00797*
X01594D02*
X01587Y-00791D01*
X01574*
X01567Y-00797*
Y-00804*
X01574Y-00811*
X01567Y-00817*
Y-00824*
X01574Y-00831*
X01587*
X01594Y-00824*
Y-00817*
X01587Y-00811*
X01594Y-00804*
Y-00797*
X01587Y-00811D02*
X01574D01*
X01554Y-00831D02*
X0154D01*
X01547*
Y-00791*
X01554Y-00797*
X01505Y-00594D02*
X01512Y-00588D01*
X01525*
X01532Y-00594*
Y-00601*
X01525Y-00608*
X01512*
X01505Y-00614*
Y-00621*
X01512Y-00628*
X01525*
X01532Y-00621*
X01492Y-00588D02*
Y-00628D01*
X01472*
X01465Y-00621*
Y-00614*
X01472Y-00608*
X01492*
X01472*
X01465Y-00601*
Y-00594*
X01472Y-00588*
X01492*
X01452Y-00628D02*
X01438D01*
X01445*
Y-00588*
X01452Y-00594*
X01418Y-00588D02*
X01392D01*
Y-00594*
X01418Y-00621*
Y-00628*
X01378Y-00594D02*
X01372Y-00588D01*
X01358*
X01352Y-00594*
Y-00601*
X01358Y-00608*
X01352Y-00614*
Y-00621*
X01358Y-00628*
X01372*
X01378Y-00621*
Y-00614*
X01372Y-00608*
X01378Y-00601*
Y-00594*
X01372Y-00608D02*
X01358D01*
X01389Y00428D02*
X01396Y00435D01*
X01409*
X01416Y00428*
Y00421*
X01409Y00415*
X01396*
X01389Y00408*
Y00401*
X01396Y00395*
X01409*
X01416Y00401*
X01376Y00435D02*
Y00395D01*
X01356*
X01349Y00401*
Y00408*
X01356Y00415*
X01376*
X01356*
X01349Y00421*
Y00428*
X01356Y00435*
X01376*
X01336Y00395D02*
X01322D01*
X01329*
Y00435*
X01336Y00428*
X01282Y00395D02*
Y00435D01*
X01302Y00415*
X01276*
X01262Y00428D02*
X01256Y00435D01*
X01242*
X01236Y00428*
Y00401*
X01242Y00395*
X01256*
X01262Y00401*
Y00428*
X01554Y-0006D02*
X01548Y-00053D01*
Y-0004*
X01554Y-00034*
X01561*
X01568Y-0004*
Y-00053*
X01574Y-0006*
X01581*
X01588Y-00053*
Y-0004*
X01581Y-00034*
X01548Y-00073D02*
X01588D01*
Y-00093*
X01581Y-001*
X01574*
X01568Y-00093*
Y-00073*
Y-00093*
X01561Y-001*
X01554*
X01548Y-00093*
Y-00073*
X01588Y-00113D02*
Y-00127D01*
Y-0012*
X01548*
X01554Y-00113*
X01548Y-00173D02*
X01554Y-0016D01*
X01568Y-00147*
X01581*
X01588Y-00153*
Y-00167*
X01581Y-00173*
X01574*
X01568Y-00167*
Y-00147*
X01548Y-00187D02*
Y-00213D01*
X01554*
X01581Y-00187*
X01588*
X0098Y00214D02*
X00987Y0022D01*
X01*
X01007Y00214*
Y00207*
X01Y002*
X00987*
X0098Y00194*
Y00187*
X00987Y0018*
X01*
X01007Y00187*
X00967Y0022D02*
Y0018D01*
X00947*
X0094Y00187*
Y00194*
X00947Y002*
X00967*
X00947*
X0094Y00207*
Y00214*
X00947Y0022*
X00967*
X00927Y0018D02*
X00913D01*
X0092*
Y0022*
X00927Y00214*
X00867Y0022D02*
X00893D01*
Y002*
X0088Y00207*
X00873*
X00867Y002*
Y00187*
X00873Y0018*
X00887*
X00893Y00187*
X00853Y0022D02*
X00827D01*
Y00214*
X00853Y00187*
Y0018*
X01389Y0037D02*
X01396Y00376D01*
X01409*
X01416Y0037*
Y00363*
X01409Y00356*
X01396*
X01389Y0035*
Y00343*
X01396Y00337*
X01409*
X01416Y00343*
X01376Y00376D02*
Y00337D01*
X01356*
X01349Y00343*
Y0035*
X01356Y00356*
X01376*
X01356*
X01349Y00363*
Y0037*
X01356Y00376*
X01376*
X01336Y00337D02*
X01322D01*
X01329*
Y00376*
X01336Y0037*
X01276Y00376D02*
X01302D01*
Y00356*
X01289Y00363*
X01282*
X01276Y00356*
Y00343*
X01282Y00337*
X01296*
X01302Y00343*
X01262Y0037D02*
X01256Y00376D01*
X01242*
X01236Y0037*
Y00343*
X01242Y00337*
X01256*
X01262Y00343*
Y0037*
X01554Y-00254D02*
X01548Y-00247D01*
Y-00234*
X01554Y-00228*
X01561*
X01568Y-00234*
Y-00247*
X01574Y-00254*
X01581*
X01588Y-00247*
Y-00234*
X01581Y-00228*
X01548Y-00267D02*
X01588D01*
Y-00287*
X01581Y-00294*
X01574*
X01568Y-00287*
Y-00267*
Y-00287*
X01561Y-00294*
X01554*
X01548Y-00287*
Y-00267*
X01588Y-00307D02*
Y-00321D01*
Y-00314*
X01548*
X01554Y-00307*
X01548Y-00341D02*
Y-00367D01*
X01554*
X01581Y-00341*
X01588*
Y-00381D02*
Y-00394D01*
Y-00387*
X01548*
X01554Y-00381*
X00881Y00524D02*
X00875Y00531D01*
Y00544*
X00881Y00551*
X00888*
X00895Y00544*
Y00531*
X00901Y00524*
X00908*
X00915Y00531*
Y00544*
X00908Y00551*
X00875Y00511D02*
X00915D01*
Y00491*
X00908Y00484*
X00901*
X00895Y00491*
Y00511*
Y00491*
X00888Y00484*
X00881*
X00875Y00491*
Y00511*
X00915Y00471D02*
Y00457D01*
Y00464*
X00875*
X00881Y00471*
X00915Y00417D02*
X00875D01*
X00895Y00437*
Y00411*
X00875Y00397D02*
Y00371D01*
X00881*
X00908Y00397*
X00915*
X01167Y-00055D02*
X01161Y-00048D01*
Y-00035*
X01167Y-00029*
X01174*
X01181Y-00035*
Y-00048*
X01187Y-00055*
X01194*
X01201Y-00048*
Y-00035*
X01194Y-00029*
X01161Y-00068D02*
X01201D01*
Y-00088*
X01194Y-00095*
X01187*
X01181Y-00088*
Y-00068*
Y-00088*
X01174Y-00095*
X01167*
X01161Y-00088*
Y-00068*
X01201Y-00108D02*
Y-00122D01*
Y-00115*
X01161*
X01167Y-00108*
X01161Y-00168D02*
X01167Y-00155D01*
X01181Y-00142*
X01194*
X01201Y-00148*
Y-00162*
X01194Y-00168*
X01187*
X01181Y-00162*
Y-00142*
X01161Y-00208D02*
Y-00182D01*
X01181*
X01174Y-00195*
Y-00202*
X01181Y-00208*
X01194*
X01201Y-00202*
Y-00188*
X01194Y-00182*
X01266Y00236D02*
X01273Y00242D01*
X01286*
X01293Y00236*
Y00229*
X01286Y00222*
X01273*
X01266Y00216*
Y00209*
X01273Y00203*
X01286*
X01293Y00209*
X01253Y00242D02*
Y00203D01*
X01233*
X01226Y00209*
Y00216*
X01233Y00222*
X01253*
X01233*
X01226Y00229*
Y00236*
X01233Y00242*
X01253*
X01213Y00203D02*
X01199D01*
X01206*
Y00242*
X01213Y00236*
X01153Y00242D02*
X01179D01*
Y00222*
X01166Y00229*
X01159*
X01153Y00222*
Y00209*
X01159Y00203*
X01173*
X01179Y00209*
X01113Y00242D02*
X01139D01*
Y00222*
X01126Y00229*
X01119*
X01113Y00222*
Y00209*
X01119Y00203*
X01133*
X01139Y00209*
X01554Y-00445D02*
X01548Y-00438D01*
Y-00425*
X01554Y-00419*
X01561*
X01568Y-00425*
Y-00438*
X01574Y-00445*
X01581*
X01588Y-00438*
Y-00425*
X01581Y-00419*
X01548Y-00458D02*
X01588D01*
Y-00478*
X01581Y-00485*
X01574*
X01568Y-00478*
Y-00458*
Y-00478*
X01561Y-00485*
X01554*
X01548Y-00478*
Y-00458*
X01588Y-00498D02*
Y-00512D01*
Y-00505*
X01548*
X01554Y-00498*
X01548Y-00532D02*
Y-00558D01*
X01554*
X01581Y-00532*
X01588*
Y-00592D02*
X01548D01*
X01568Y-00572*
Y-00598*
X00816Y00524D02*
X0081Y00531D01*
Y00544*
X00816Y00551*
X00823*
X0083Y00544*
Y00531*
X00836Y00524*
X00843*
X0085Y00531*
Y00544*
X00843Y00551*
X0081Y00511D02*
X0085D01*
Y00491*
X00843Y00484*
X00836*
X0083Y00491*
Y00511*
Y00491*
X00823Y00484*
X00816*
X0081Y00491*
Y00511*
X0085Y00471D02*
Y00457D01*
Y00464*
X0081*
X00816Y00471*
X0085Y00417D02*
X0081D01*
X0083Y00437*
Y00411*
X0081Y00371D02*
X00816Y00384D01*
X0083Y00397*
X00843*
X0085Y00391*
Y00377*
X00843Y00371*
X00836*
X0083Y00377*
Y00397*
X00621Y00324D02*
X00628Y0033D01*
X00641*
X00648Y00324*
Y00317*
X00641Y0031*
X00628*
X00621Y00304*
Y00297*
X00628Y0029*
X00641*
X00648Y00297*
X00608Y0033D02*
Y0029D01*
X00588*
X00581Y00297*
Y00304*
X00588Y0031*
X00608*
X00588*
X00581Y00317*
Y00324*
X00588Y0033*
X00608*
X00568Y0029D02*
X00554D01*
X00561*
Y0033*
X00568Y00324*
X00514Y0029D02*
Y0033D01*
X00534Y0031*
X00508*
X00494Y00324D02*
X00488Y0033D01*
X00474*
X00468Y00324*
Y00317*
X00474Y0031*
X00481*
X00474*
X00468Y00304*
Y00297*
X00474Y0029*
X00488*
X00494Y00297*
X00621Y00387D02*
X00628Y00393D01*
X00641*
X00648Y00387*
Y0038*
X00641Y00373*
X00628*
X00621Y00367*
Y0036*
X00628Y00354*
X00641*
X00648Y0036*
X00608Y00393D02*
Y00354D01*
X00588*
X00581Y0036*
Y00367*
X00588Y00373*
X00608*
X00588*
X00581Y0038*
Y00387*
X00588Y00393*
X00608*
X00568Y00354D02*
X00554D01*
X00561*
Y00393*
X00568Y00387*
X00534D02*
X00528Y00393D01*
X00514*
X00508Y00387*
Y0038*
X00514Y00373*
X00521*
X00514*
X00508Y00367*
Y0036*
X00514Y00354*
X00528*
X00534Y0036*
X00494Y00387D02*
X00488Y00393D01*
X00474*
X00468Y00387*
Y0038*
X00474Y00373*
X00468Y00367*
Y0036*
X00474Y00354*
X00488*
X00494Y0036*
Y00367*
X00488Y00373*
X00494Y0038*
Y00387*
X00488Y00373D02*
X00474D01*
X00988Y-00055D02*
X00982Y-00048D01*
Y-00035*
X00988Y-00029*
X00995*
X01002Y-00035*
Y-00048*
X01008Y-00055*
X01015*
X01022Y-00048*
Y-00035*
X01015Y-00029*
X00982Y-00068D02*
X01022D01*
Y-00088*
X01015Y-00095*
X01008*
X01002Y-00088*
Y-00068*
Y-00088*
X00995Y-00095*
X00988*
X00982Y-00088*
Y-00068*
X01022Y-00108D02*
Y-00122D01*
Y-00115*
X00982*
X00988Y-00108*
X00982Y-00168D02*
X00988Y-00155D01*
X01002Y-00142*
X01015*
X01022Y-00148*
Y-00162*
X01015Y-00168*
X01008*
X01002Y-00162*
Y-00142*
X00988Y-00182D02*
X00982Y-00188D01*
Y-00202*
X00988Y-00208*
X00995*
X01002Y-00202*
Y-00195*
Y-00202*
X01008Y-00208*
X01015*
X01022Y-00202*
Y-00188*
X01015Y-00182*
X00998Y00524D02*
X00992Y00531D01*
Y00544*
X00998Y00551*
X01005*
X01012Y00544*
Y00531*
X01018Y00524*
X01025*
X01032Y00531*
Y00544*
X01025Y00551*
X00992Y00511D02*
X01032D01*
Y00491*
X01025Y00484*
X01018*
X01012Y00491*
Y00511*
Y00491*
X01005Y00484*
X00998*
X00992Y00491*
Y00511*
X01032Y00471D02*
Y00457D01*
Y00464*
X00992*
X00998Y00471*
X01032Y00417D02*
X00992D01*
X01012Y00437*
Y00411*
X00998Y00397D02*
X00992Y00391D01*
Y00377*
X00998Y00371*
X01005*
X01012Y00377*
X01018Y00371*
X01025*
X01032Y00377*
Y00391*
X01025Y00397*
X01018*
X01012Y00391*
X01005Y00397*
X00998*
X01012Y00391D02*
Y00377D01*
X00695Y00524D02*
X00689Y00531D01*
Y00544*
X00695Y00551*
X00702*
X00709Y00544*
Y00531*
X00715Y00524*
X00722*
X00729Y00531*
Y00544*
X00722Y00551*
X00689Y00511D02*
X00729D01*
Y00491*
X00722Y00484*
X00715*
X00709Y00491*
Y00511*
Y00491*
X00702Y00484*
X00695*
X00689Y00491*
Y00511*
X00729Y00471D02*
Y00457D01*
Y00464*
X00689*
X00695Y00471*
X00729Y00417D02*
X00689D01*
X00709Y00437*
Y00411*
X00729Y00377D02*
X00689D01*
X00709Y00397*
Y00371*
X0021Y-01488D02*
X00217Y-01482D01*
X0023*
X00237Y-01488*
Y-01495*
X0023Y-01502*
X00217*
X0021Y-01508*
Y-01515*
X00217Y-01522*
X0023*
X00237Y-01515*
X00197Y-01482D02*
Y-01522D01*
X00177*
X0017Y-01515*
Y-01508*
X00177Y-01502*
X00197*
X00177*
X0017Y-01495*
Y-01488*
X00177Y-01482*
X00197*
X00157Y-01522D02*
X00143D01*
X0015*
Y-01482*
X00157Y-01488*
X00123D02*
X00117Y-01482D01*
X00103*
X00097Y-01488*
Y-01495*
X00103Y-01502*
X00097Y-01508*
Y-01515*
X00103Y-01522*
X00117*
X00123Y-01515*
Y-01508*
X00117Y-01502*
X00123Y-01495*
Y-01488*
X00117Y-01502D02*
X00103D01*
X00057Y-01522D02*
X00083D01*
X00057Y-01495*
Y-01488*
X00063Y-01482*
X00077*
X00083Y-01488*
X0021Y-01589D02*
X00217Y-01583D01*
X0023*
X00237Y-01589*
Y-01596*
X0023Y-01603*
X00217*
X0021Y-01609*
Y-01616*
X00217Y-01623*
X0023*
X00237Y-01616*
X00197Y-01583D02*
Y-01623D01*
X00177*
X0017Y-01616*
Y-01609*
X00177Y-01603*
X00197*
X00177*
X0017Y-01596*
Y-01589*
X00177Y-01583*
X00197*
X00157Y-01623D02*
X00143D01*
X0015*
Y-01583*
X00157Y-01589*
X00123D02*
X00117Y-01583D01*
X00103*
X00097Y-01589*
Y-01596*
X00103Y-01603*
X00097Y-01609*
Y-01616*
X00103Y-01623*
X00117*
X00123Y-01616*
Y-01609*
X00117Y-01603*
X00123Y-01596*
Y-01589*
X00117Y-01603D02*
X00103D01*
X00083Y-01589D02*
X00077Y-01583D01*
X00063*
X00057Y-01589*
Y-01596*
X00063Y-01603*
X0007*
X00063*
X00057Y-01609*
Y-01616*
X00063Y-01623*
X00077*
X00083Y-01616*
X00621Y00271D02*
X00628Y00278D01*
X00641*
X00648Y00271*
Y00264*
X00641Y00258*
X00628*
X00621Y00251*
Y00244*
X00628Y00238*
X00641*
X00648Y00244*
X00608Y00278D02*
Y00238D01*
X00588*
X00581Y00244*
Y00251*
X00588Y00258*
X00608*
X00588*
X00581Y00264*
Y00271*
X00588Y00278*
X00608*
X00568Y00238D02*
X00554D01*
X00561*
Y00278*
X00568Y00271*
X00508Y00278D02*
X00534D01*
Y00258*
X00521Y00264*
X00514*
X00508Y00258*
Y00244*
X00514Y00238*
X00528*
X00534Y00244*
X00494Y00271D02*
X00488Y00278D01*
X00474*
X00468Y00271*
Y00264*
X00474Y00258*
X00481*
X00474*
X00468Y00251*
Y00244*
X00474Y00238*
X00488*
X00494Y00244*
X00621Y00212D02*
X00628Y00218D01*
X00641*
X00648Y00212*
Y00205*
X00641Y00198*
X00628*
X00621Y00192*
Y00185*
X00628Y00178*
X00641*
X00648Y00185*
X00608Y00218D02*
Y00178D01*
X00588*
X00581Y00185*
Y00192*
X00588Y00198*
X00608*
X00588*
X00581Y00205*
Y00212*
X00588Y00218*
X00608*
X00568Y00178D02*
X00554D01*
X00561*
Y00218*
X00568Y00212*
X00508Y00218D02*
X00534D01*
Y00198*
X00521Y00205*
X00514*
X00508Y00198*
Y00185*
X00514Y00178*
X00528*
X00534Y00185*
X00474Y00178D02*
Y00218D01*
X00494Y00198*
X00468*
X01411Y00869D02*
X01418Y00875D01*
X01431*
X01438Y00869*
Y00862*
X01431Y00855*
X01418*
X01411Y00849*
Y00842*
X01418Y00836*
X01431*
X01438Y00842*
X01398Y00875D02*
Y00836D01*
X01378*
X01371Y00842*
Y00849*
X01378Y00855*
X01398*
X01378*
X01371Y00862*
Y00869*
X01378Y00875*
X01398*
X01358Y00836D02*
X01344D01*
X01351*
Y00875*
X01358Y00869*
X01298Y00836D02*
X01324D01*
X01298Y00862*
Y00869*
X01304Y00875*
X01318*
X01324Y00869*
X01284Y00842D02*
X01278Y00836D01*
X01264*
X01258Y00842*
Y00869*
X01264Y00875*
X01278*
X01284Y00869*
Y00862*
X01278Y00855*
X01258*
X00683Y00151D02*
X0069Y00157D01*
X00703*
X0071Y00151*
Y00144*
X00703Y00137*
X0069*
X00683Y00131*
Y00124*
X0069Y00118*
X00703*
X0071Y00124*
X0067Y00157D02*
Y00118D01*
X0065*
X00643Y00124*
Y00131*
X0065Y00137*
X0067*
X0065*
X00643Y00144*
Y00151*
X0065Y00157*
X0067*
X0063Y00118D02*
X00616D01*
X00623*
Y00157*
X0063Y00151*
X0057Y00157D02*
X00596D01*
Y00137*
X00583Y00144*
X00576*
X0057Y00137*
Y00124*
X00576Y00118*
X0059*
X00596Y00124*
X0053Y00157D02*
X00543Y00151D01*
X00556Y00137*
Y00124*
X0055Y00118*
X00536*
X0053Y00124*
Y00131*
X00536Y00137*
X00556*
X00549Y01076D02*
X00543Y01083D01*
Y01096*
X00549Y01103*
X00556*
X00563Y01096*
Y01083*
X00569Y01076*
X00576*
X00583Y01083*
Y01096*
X00576Y01103*
X00543Y01063D02*
X00583D01*
Y01043*
X00576Y01036*
X00569*
X00563Y01043*
Y01063*
Y01043*
X00556Y01036*
X00549*
X00543Y01043*
Y01063*
X00583Y01023D02*
Y01009D01*
Y01016*
X00543*
X00549Y01023*
X00583Y00963D02*
Y00989D01*
X00556Y00963*
X00549*
X00543Y00969*
Y00983*
X00549Y00989*
X00583Y00929D02*
X00543D01*
X00563Y00949*
Y00923*
X00493Y01076D02*
X00487Y01083D01*
Y01096*
X00493Y01103*
X005*
X00507Y01096*
Y01083*
X00513Y01076*
X0052*
X00527Y01083*
Y01096*
X0052Y01103*
X00487Y01063D02*
X00527D01*
Y01043*
X0052Y01036*
X00513*
X00507Y01043*
Y01063*
Y01043*
X005Y01036*
X00493*
X00487Y01043*
Y01063*
X00527Y01023D02*
Y01009D01*
Y01016*
X00487*
X00493Y01023*
X00527Y00963D02*
Y00989D01*
X005Y00963*
X00493*
X00487Y00969*
Y00983*
X00493Y00989*
Y00949D02*
X00487Y00943D01*
Y00929*
X00493Y00923*
X005*
X00507Y00929*
Y00936*
Y00929*
X00513Y00923*
X0052*
X00527Y00929*
Y00943*
X0052Y00949*
X01058Y00524D02*
X01052Y00531D01*
Y00544*
X01058Y00551*
X01065*
X01072Y00544*
Y00531*
X01078Y00524*
X01085*
X01092Y00531*
Y00544*
X01085Y00551*
X01052Y00511D02*
X01092D01*
Y00491*
X01085Y00484*
X01078*
X01072Y00491*
Y00511*
Y00491*
X01065Y00484*
X01058*
X01052Y00491*
Y00511*
X01092Y00471D02*
Y00457D01*
Y00464*
X01052*
X01058Y00471*
X01092Y00417D02*
X01052D01*
X01072Y00437*
Y00411*
X01085Y00397D02*
X01092Y00391D01*
Y00377*
X01085Y00371*
X01058*
X01052Y00377*
Y00391*
X01058Y00397*
X01065*
X01072Y00391*
Y00371*
X00654Y00796D02*
X00648Y00803D01*
Y00816*
X00654Y00823*
X00661*
X00668Y00816*
Y00803*
X00674Y00796*
X00681*
X00688Y00803*
Y00816*
X00681Y00823*
X00648Y00783D02*
X00688D01*
Y00763*
X00681Y00756*
X00674*
X00668Y00763*
Y00783*
Y00763*
X00661Y00756*
X00654*
X00648Y00763*
Y00783*
X00688Y00743D02*
Y0073D01*
Y00736*
X00648*
X00654Y00743*
Y0071D02*
X00648Y00703D01*
Y0069*
X00654Y00683*
X00661*
X00668Y0069*
Y00696*
Y0069*
X00674Y00683*
X00681*
X00688Y0069*
Y00703*
X00681Y0071*
X00688Y00643D02*
Y0067D01*
X00661Y00643*
X00654*
X00648Y0065*
Y00663*
X00654Y0067*
X00717Y00798D02*
X00711Y00805D01*
Y00818*
X00717Y00825*
X00724*
X00731Y00818*
Y00805*
X00737Y00798*
X00744*
X00751Y00805*
Y00818*
X00744Y00825*
X00711Y00785D02*
X00751D01*
Y00765*
X00744Y00758*
X00737*
X00731Y00765*
Y00785*
Y00765*
X00724Y00758*
X00717*
X00711Y00765*
Y00785*
X00751Y00745D02*
Y00731D01*
Y00738*
X00711*
X00717Y00745*
Y00711D02*
X00711Y00705D01*
Y00691*
X00717Y00685*
X00724*
X00731Y00691*
Y00698*
Y00691*
X00737Y00685*
X00744*
X00751Y00691*
Y00705*
X00744Y00711*
X00717Y00671D02*
X00711Y00665D01*
Y00651*
X00717Y00645*
X00724*
X00731Y00651*
Y00658*
Y00651*
X00737Y00645*
X00744*
X00751Y00651*
Y00665*
X00744Y00671*
X00604Y01076D02*
X00598Y01083D01*
Y01096*
X00604Y01103*
X00611*
X00618Y01096*
Y01083*
X00624Y01076*
X00631*
X00638Y01083*
Y01096*
X00631Y01103*
X00598Y01063D02*
X00638D01*
Y01043*
X00631Y01036*
X00624*
X00618Y01043*
Y01063*
Y01043*
X00611Y01036*
X00604*
X00598Y01043*
Y01063*
X00638Y01023D02*
Y01009D01*
Y01016*
X00598*
X00604Y01023*
X00638Y00963D02*
Y00989D01*
X00611Y00963*
X00604*
X00598Y00969*
Y00983*
X00604Y00989*
X00598Y00923D02*
Y00949D01*
X00618*
X00611Y00936*
Y00929*
X00618Y00923*
X00631*
X00638Y00929*
Y00943*
X00631Y00949*
X00906Y02818D02*
X00913Y02824D01*
X00926*
X00933Y02818*
Y02811*
X00926Y02804*
X00913*
X00906Y02798*
Y02791*
X00913Y02785*
X00926*
X00933Y02791*
X00893Y02824D02*
Y02785D01*
X00873*
X00866Y02791*
Y02798*
X00873Y02804*
X00893*
X00873*
X00866Y02811*
Y02818*
X00873Y02824*
X00893*
X00853Y02785D02*
X00839D01*
X00846*
Y02824*
X00853Y02818*
X00819D02*
X00813Y02824D01*
X00799*
X00793Y02818*
Y02791*
X00799Y02785*
X00813*
X00819Y02791*
Y02818*
X00779Y02824D02*
X00753D01*
Y02818*
X00779Y02791*
Y02785*
X01447Y02248D02*
X01454Y02255D01*
X01467*
X01474Y02248*
Y02242*
X01467Y02235*
X01454*
X01447Y02228*
Y02222*
X01454Y02215*
X01467*
X01474Y02222*
X01434Y02255D02*
Y02215D01*
X01414*
X01407Y02222*
Y02228*
X01414Y02235*
X01434*
X01414*
X01407Y02242*
Y02248*
X01414Y02255*
X01434*
X01394Y02215D02*
X0138D01*
X01387*
Y02255*
X01394Y02248*
X0136Y02215D02*
X01347D01*
X01354*
Y02255*
X0136Y02248*
X013Y02215D02*
X01327D01*
X013Y02242*
Y02248*
X01307Y02255*
X0132*
X01327Y02248*
X0064Y02611D02*
X00646Y02617D01*
X00658*
X00664Y02611*
Y02605*
X00658Y02599*
X00646*
X0064Y02593*
Y02587*
X00646Y02581*
X00658*
X00664Y02587*
X00628Y02617D02*
Y02581D01*
X0061*
X00604Y02587*
Y02593*
X0061Y02599*
X00628*
X0061*
X00604Y02605*
Y02611*
X0061Y02617*
X00628*
X00592Y02581D02*
X0058D01*
X00586*
Y02617*
X00592Y02611*
X00562D02*
X00556Y02617D01*
X00544*
X00538Y02611*
Y02587*
X00544Y02581*
X00556*
X00562Y02587*
Y02611*
X00526Y02587D02*
X0052Y02581D01*
X00508*
X00502Y02587*
Y02611*
X00508Y02617*
X0052*
X00526Y02611*
Y02605*
X0052Y02599*
X00502*
X00077Y02613D02*
X00083Y02619D01*
X00095*
X00101Y02613*
Y02607*
X00095Y02601*
X00083*
X00077Y02596*
Y0259*
X00083Y02584*
X00095*
X00101Y0259*
X00065Y02619D02*
Y02584D01*
X00047*
X00041Y0259*
Y02596*
X00047Y02601*
X00065*
X00047*
X00041Y02607*
Y02613*
X00047Y02619*
X00065*
X00029Y02584D02*
X00017D01*
X00023*
Y02619*
X00029Y02613*
X0D02*
X-00006Y02619D01*
X-00018*
X-00024Y02613*
Y0259*
X-00018Y02584*
X-00006*
X0Y0259*
Y02613*
X-00036D02*
X-00042Y02619D01*
X-00054*
X-0006Y02613*
Y02607*
X-00054Y02601*
X-0006Y02596*
Y0259*
X-00054Y02584*
X-00042*
X-00036Y0259*
Y02596*
X-00042Y02601*
X-00036Y02607*
Y02613*
X-00042Y02601D02*
X-00054D01*
X0064Y02716D02*
X00646Y02722D01*
X00658*
X00664Y02716*
Y0271*
X00658Y02704*
X00646*
X0064Y02699*
Y02693*
X00646Y02687*
X00658*
X00664Y02693*
X00628Y02722D02*
Y02687D01*
X0061*
X00604Y02693*
Y02699*
X0061Y02704*
X00628*
X0061*
X00604Y0271*
Y02716*
X0061Y02722*
X00628*
X00592Y02687D02*
X0058D01*
X00586*
Y02722*
X00592Y02716*
X00562D02*
X00556Y02722D01*
X00544*
X00538Y02716*
Y02693*
X00544Y02687*
X00556*
X00562Y02693*
Y02716*
X00502Y02722D02*
X00514Y02716D01*
X00526Y02704*
Y02693*
X0052Y02687*
X00508*
X00502Y02693*
Y02699*
X00508Y02704*
X00526*
X00077Y02709D02*
X00083Y02715D01*
X00095*
X00101Y02709*
Y02703*
X00095Y02697*
X00083*
X00077Y02692*
Y02686*
X00083Y0268*
X00095*
X00101Y02686*
X00065Y02715D02*
Y0268D01*
X00047*
X00041Y02686*
Y02692*
X00047Y02697*
X00065*
X00047*
X00041Y02703*
Y02709*
X00047Y02715*
X00065*
X00029Y0268D02*
X00017D01*
X00023*
Y02715*
X00029Y02709*
X0D02*
X-00006Y02715D01*
X-00018*
X-00024Y02709*
Y02686*
X-00018Y0268*
X-00006*
X0Y02686*
Y02709*
X-0006Y02715D02*
X-00036D01*
Y02697*
X-00048Y02703*
X-00054*
X-0006Y02697*
Y02686*
X-00054Y0268*
X-00042*
X-00036Y02686*
X0064Y02806D02*
X00646Y02812D01*
X00658*
X00664Y02806*
Y028*
X00658Y02794*
X00646*
X0064Y02788*
Y02782*
X00646Y02776*
X00658*
X00664Y02782*
X00628Y02812D02*
Y02776D01*
X0061*
X00604Y02782*
Y02788*
X0061Y02794*
X00628*
X0061*
X00604Y028*
Y02806*
X0061Y02812*
X00628*
X00592Y02776D02*
X0058D01*
X00586*
Y02812*
X00592Y02806*
X00562D02*
X00556Y02812D01*
X00544*
X00538Y02806*
Y02782*
X00544Y02776*
X00556*
X00562Y02782*
Y02806*
X00508Y02776D02*
Y02812D01*
X00526Y02794*
X00502*
X00077Y02818D02*
X00083Y02824D01*
X00095*
X00101Y02818*
Y02812*
X00095Y02806*
X00083*
X00077Y028*
Y02794*
X00083Y02788*
X00095*
X00101Y02794*
X00065Y02824D02*
Y02788D01*
X00047*
X00041Y02794*
Y028*
X00047Y02806*
X00065*
X00047*
X00041Y02812*
Y02818*
X00047Y02824*
X00065*
X00029Y02788D02*
X00017D01*
X00023*
Y02824*
X00029Y02818*
X0D02*
X-00006Y02824D01*
X-00018*
X-00024Y02818*
Y02794*
X-00018Y02788*
X-00006*
X0Y02794*
Y02818*
X-00036D02*
X-00042Y02824D01*
X-00054*
X-0006Y02818*
Y02812*
X-00054Y02806*
X-00048*
X-00054*
X-0006Y028*
Y02794*
X-00054Y02788*
X-00042*
X-00036Y02794*
X0064Y02913D02*
X00646Y02919D01*
X00658*
X00664Y02913*
Y02907*
X00658Y02901*
X00646*
X0064Y02896*
Y0289*
X00646Y02884*
X00658*
X00664Y0289*
X00628Y02919D02*
Y02884D01*
X0061*
X00604Y0289*
Y02896*
X0061Y02901*
X00628*
X0061*
X00604Y02907*
Y02913*
X0061Y02919*
X00628*
X00592Y02884D02*
X0058D01*
X00586*
Y02919*
X00592Y02913*
X00562D02*
X00556Y02919D01*
X00544*
X00538Y02913*
Y0289*
X00544Y02884*
X00556*
X00562Y0289*
Y02913*
X00502Y02884D02*
X00526D01*
X00502Y02907*
Y02913*
X00508Y02919*
X0052*
X00526Y02913*
X00077Y02916D02*
X00083Y02922D01*
X00095*
X00101Y02916*
Y0291*
X00095Y02904*
X00083*
X00077Y02899*
Y02893*
X00083Y02887*
X00095*
X00101Y02893*
X00065Y02922D02*
Y02887D01*
X00047*
X00041Y02893*
Y02899*
X00047Y02904*
X00065*
X00047*
X00041Y0291*
Y02916*
X00047Y02922*
X00065*
X00029Y02887D02*
X00017D01*
X00023*
Y02922*
X00029Y02916*
X0D02*
X-00006Y02922D01*
X-00018*
X-00024Y02916*
Y02893*
X-00018Y02887*
X-00006*
X0Y02893*
Y02916*
X-00036Y02887D02*
X-00048D01*
X-00042*
Y02922*
X-00036Y02916*
X01448Y02469D02*
X01455Y02476D01*
X01468*
X01475Y02469*
Y02463*
X01468Y02456*
X01455*
X01448Y02449*
Y02443*
X01455Y02436*
X01468*
X01475Y02443*
X01435Y02476D02*
Y02436D01*
X01415*
X01408Y02443*
Y02449*
X01415Y02456*
X01435*
X01415*
X01408Y02463*
Y02469*
X01415Y02476*
X01435*
X01395Y02436D02*
X01381D01*
X01388*
Y02476*
X01395Y02469*
X01361Y02436D02*
X01348D01*
X01355*
Y02476*
X01361Y02469*
X01328D02*
X01321Y02476D01*
X01308*
X01301Y02469*
Y02443*
X01308Y02436*
X01321*
X01328Y02443*
Y02469*
X0101Y02205D02*
X01017Y02211D01*
X0103*
X01037Y02205*
Y02198*
X0103Y02191*
X01017*
X0101Y02185*
Y02178*
X01017Y02171*
X0103*
X01037Y02178*
X00997Y02211D02*
Y02171D01*
X00977*
X0097Y02178*
Y02185*
X00977Y02191*
X00997*
X00977*
X0097Y02198*
Y02205*
X00977Y02211*
X00997*
X00957Y02171D02*
X00943D01*
X0095*
Y02211*
X00957Y02205*
X00923Y02171D02*
X0091D01*
X00917*
Y02211*
X00923Y02205*
X0089Y02171D02*
X00877D01*
X00883*
Y02211*
X0089Y02205*
X00902Y-00057D02*
X00896Y-0005D01*
Y-00037*
X00902Y-00031*
X00929*
X00936Y-00037*
Y-0005*
X00929Y-00057*
X00896Y-00097D02*
Y-0007D01*
X00916*
X00909Y-00084*
Y-0009*
X00916Y-00097*
X00929*
X00936Y-0009*
Y-00077*
X00929Y-0007*
X00902Y-0011D02*
X00896Y-00117D01*
Y-0013*
X00902Y-00137*
X00909*
X00916Y-0013*
X00922Y-00137*
X00929*
X00936Y-0013*
Y-00117*
X00929Y-0011*
X00922*
X00916Y-00117*
X00909Y-0011*
X00902*
X00916Y-00117D02*
Y-0013D01*
X00683Y00091D02*
X0069Y00098D01*
X00703*
X0071Y00091*
Y00064*
X00703Y00058*
X0069*
X00683Y00064*
X00643Y00098D02*
X0067D01*
Y00078*
X00657Y00084*
X0065*
X00643Y00078*
Y00064*
X0065Y00058*
X00663*
X0067Y00064*
X0063Y00098D02*
X00603D01*
Y00091*
X0063Y00064*
Y00058*
X00327Y01202D02*
X00321Y01209D01*
Y01222*
X00327Y01229*
X00354*
X00361Y01222*
Y01209*
X00354Y01202*
X00321Y01162D02*
Y01189D01*
X00341*
X00334Y01175*
Y01169*
X00341Y01162*
X00354*
X00361Y01169*
Y01182*
X00354Y01189*
X00321Y01122D02*
Y01149D01*
X00341*
X00334Y01135*
Y01129*
X00341Y01122*
X00354*
X00361Y01129*
Y01142*
X00354Y01149*
X01433Y-00059D02*
X01427Y-00052D01*
Y-00039*
X01433Y-00033*
X0144*
X01447Y-00039*
Y-00052*
X01453Y-00059*
X0146*
X01467Y-00052*
Y-00039*
X0146Y-00033*
X01427Y-00072D02*
X01467D01*
Y-00092*
X0146Y-00099*
X01453*
X01447Y-00092*
Y-00072*
Y-00092*
X0144Y-00099*
X01433*
X01427Y-00092*
Y-00072*
X01467Y-00112D02*
Y-00126D01*
Y-00119*
X01427*
X01433Y-00112*
X01427Y-00172D02*
X01433Y-00159D01*
X01447Y-00146*
X0146*
X01467Y-00152*
Y-00166*
X0146Y-00172*
X01453*
X01447Y-00166*
Y-00146*
X01467Y-00186D02*
Y-00199D01*
Y-00192*
X01427*
X01433Y-00186*
X01496Y-00059D02*
X0149Y-00052D01*
Y-00039*
X01496Y-00033*
X01503*
X0151Y-00039*
Y-00052*
X01516Y-00059*
X01523*
X0153Y-00052*
Y-00039*
X01523Y-00033*
X0149Y-00072D02*
X0153D01*
Y-00092*
X01523Y-00099*
X01516*
X0151Y-00092*
Y-00072*
Y-00092*
X01503Y-00099*
X01496*
X0149Y-00092*
Y-00072*
X0153Y-00112D02*
Y-00126D01*
Y-00119*
X0149*
X01496Y-00112*
X0149Y-00172D02*
X01496Y-00159D01*
X0151Y-00146*
X01523*
X0153Y-00152*
Y-00166*
X01523Y-00172*
X01516*
X0151Y-00166*
Y-00146*
X0149Y-00212D02*
X01496Y-00199D01*
X0151Y-00186*
X01523*
X0153Y-00192*
Y-00206*
X01523Y-00212*
X01516*
X0151Y-00206*
Y-00186*
X01708Y0002D02*
X01715Y00027D01*
X01728*
X01735Y0002*
Y00013*
X01728Y00007*
X01715*
X01708Y0*
Y-00006*
X01715Y-00012*
X01728*
X01735Y-00006*
X01695Y00027D02*
Y-00012D01*
X01675*
X01668Y-00006*
Y0*
X01675Y00007*
X01695*
X01675*
X01668Y00013*
Y0002*
X01675Y00027*
X01695*
X01655Y-00012D02*
X01641D01*
X01648*
Y00027*
X01655Y0002*
X01595Y00027D02*
X01608Y0002D01*
X01621Y00007*
Y-00006*
X01615Y-00012*
X01601*
X01595Y-00006*
Y0*
X01601Y00007*
X01621*
X01555Y-00012D02*
X01581D01*
X01555Y00013*
Y0002*
X01561Y00027*
X01575*
X01581Y0002*
X00621Y00445D02*
X00628Y00451D01*
X00641*
X00648Y00445*
Y00438*
X00641Y00431*
X00628*
X00621Y00425*
Y00418*
X00628Y00412*
X00641*
X00648Y00418*
X00608Y00451D02*
Y00412D01*
X00588*
X00581Y00418*
Y00425*
X00588Y00431*
X00608*
X00588*
X00581Y00438*
Y00445*
X00588Y00451*
X00608*
X00568Y00412D02*
X00554D01*
X00561*
Y00451*
X00568Y00445*
X00534D02*
X00528Y00451D01*
X00514*
X00508Y00445*
Y00438*
X00514Y00431*
X00521*
X00514*
X00508Y00425*
Y00418*
X00514Y00412*
X00528*
X00534Y00418*
X00494D02*
X00488Y00412D01*
X00474*
X00468Y00418*
Y00445*
X00474Y00451*
X00488*
X00494Y00445*
Y00438*
X00488Y00431*
X00468*
X01733Y00424D02*
X01693D01*
Y00404*
X017Y00397*
X01713*
X0172Y00404*
Y00424*
Y0041D02*
X01733Y00397D01*
X01693Y00384D02*
Y00357D01*
X017*
X01726Y00384*
X01733*
X017Y00344D02*
X01693Y00337D01*
Y00324*
X017Y00317*
X01706*
X01713Y00324*
Y0033*
Y00324*
X0172Y00317*
X01726*
X01733Y00324*
Y00337*
X01726Y00344*
X01722Y00501D02*
X01728Y00507D01*
X01742*
X01748Y00501*
Y00494*
X01742Y00487*
X01728*
X01722Y00481*
Y00474*
X01728Y00468*
X01742*
X01748Y00474*
X01708Y00507D02*
Y00468D01*
X01688*
X01682Y00474*
Y00481*
X01688Y00487*
X01708*
X01688*
X01682Y00494*
Y00501*
X01688Y00507*
X01708*
X01668Y00468D02*
X01655D01*
X01662*
Y00507*
X01668Y00501*
X01615Y00468D02*
Y00507D01*
X01635Y00487*
X01608*
X01568Y00468D02*
X01595D01*
X01568Y00494*
Y00501*
X01575Y00507*
X01588*
X01595Y00501*
X01716Y00269D02*
X01723Y00275D01*
X01736*
X01743Y00269*
Y00262*
X01736Y00255*
X01723*
X01716Y00249*
Y00242*
X01723Y00236*
X01736*
X01743Y00242*
X01703Y00275D02*
Y00236D01*
X01683*
X01676Y00242*
Y00249*
X01683Y00255*
X01703*
X01683*
X01676Y00262*
Y00269*
X01683Y00275*
X01703*
X01663Y00236D02*
X0165D01*
X01656*
Y00275*
X01663Y00269*
X01603Y00275D02*
X0163D01*
Y00255*
X01616Y00262*
X0161*
X01603Y00255*
Y00242*
X0161Y00236*
X01623*
X0163Y00242*
X01563Y00236D02*
X0159D01*
X01563Y00262*
Y00269*
X0157Y00275*
X01583*
X0159Y00269*
X01349Y00949D02*
X01356Y00955D01*
X01369*
X01376Y00949*
Y00922*
X01369Y00916*
X01356*
X01349Y00922*
X01309Y00955D02*
X01336D01*
Y00935*
X01322Y00942*
X01316*
X01309Y00935*
Y00922*
X01316Y00916*
X01329*
X01336Y00922*
X01269Y00955D02*
X01282Y00949D01*
X01296Y00935*
Y00922*
X01289Y00916*
X01276*
X01269Y00922*
Y00929*
X01276Y00935*
X01296*
X00136Y-01845D02*
X00129Y-01839D01*
Y-01825*
X00136Y-01819*
X00142*
X00149Y-01825*
Y-01839*
X00156Y-01845*
X00162*
X00169Y-01839*
Y-01825*
X00162Y-01819*
X00129Y-01859D02*
X00169D01*
Y-01879*
X00162Y-01885*
X00156*
X00149Y-01879*
Y-01859*
Y-01879*
X00142Y-01885*
X00136*
X00129Y-01879*
Y-01859*
X00169Y-01899D02*
Y-01912D01*
Y-01905*
X00129*
X00136Y-01899*
Y-01932D02*
X00129Y-01939D01*
Y-01952*
X00136Y-01959*
X00142*
X00149Y-01952*
X00156Y-01959*
X00162*
X00169Y-01952*
Y-01939*
X00162Y-01932*
X00156*
X00149Y-01939*
X00142Y-01932*
X00136*
X00149Y-01939D02*
Y-01952D01*
X00129Y-01972D02*
Y-01999D01*
X00136*
X00162Y-01972*
X00169*
X01446Y01185D02*
X0144Y01192D01*
Y01205*
X01446Y01212*
X01453*
X0146Y01205*
Y01192*
X01466Y01185*
X01473*
X0148Y01192*
Y01205*
X01473Y01212*
X0144Y01172D02*
X0148D01*
Y01152*
X01473Y01145*
X01466*
X0146Y01152*
Y01172*
Y01152*
X01453Y01145*
X01446*
X0144Y01152*
Y01172*
X0148Y01132D02*
Y01118D01*
Y01125*
X0144*
X01446Y01132*
X0148Y01072D02*
Y01098D01*
X01453Y01072*
X01446*
X0144Y01078*
Y01092*
X01446Y01098*
X0148Y01058D02*
Y01045D01*
Y01052*
X0144*
X01446Y01058*
X01661Y01185D02*
X01655Y01192D01*
Y01205*
X01661Y01212*
X01668*
X01675Y01205*
Y01192*
X01681Y01185*
X01688*
X01695Y01192*
Y01205*
X01688Y01212*
X01655Y01172D02*
X01695D01*
Y01152*
X01688Y01145*
X01681*
X01675Y01152*
Y01172*
Y01152*
X01668Y01145*
X01661*
X01655Y01152*
Y01172*
X01695Y01132D02*
Y01118D01*
Y01125*
X01655*
X01661Y01132*
X01695Y01072D02*
Y01098D01*
X01668Y01072*
X01661*
X01655Y01078*
Y01092*
X01661Y01098*
X01695Y01032D02*
Y01058D01*
X01668Y01032*
X01661*
X01655Y01038*
Y01052*
X01661Y01058*
X01431Y-00657D02*
X01438Y-0065D01*
X01451*
X01458Y-00657*
Y-00664*
X01451Y-0067*
X01438*
X01431Y-00677*
Y-00684*
X01438Y-0069*
X01451*
X01458Y-00684*
X01418Y-0065D02*
Y-0069D01*
X01398*
X01391Y-00684*
Y-00677*
X01398Y-0067*
X01418*
X01398*
X01391Y-00664*
Y-00657*
X01398Y-0065*
X01418*
X01378Y-0069D02*
X01364D01*
X01371*
Y-0065*
X01378Y-00657*
X01344D02*
X01338Y-0065D01*
X01324*
X01318Y-00657*
Y-00664*
X01324Y-0067*
X01318Y-00677*
Y-00684*
X01324Y-0069*
X01338*
X01344Y-00684*
Y-00677*
X01338Y-0067*
X01344Y-00664*
Y-00657*
X01338Y-0067D02*
X01324D01*
X01304Y-00657D02*
X01298Y-0065D01*
X01284*
X01278Y-00657*
Y-00684*
X01284Y-0069*
X01298*
X01304Y-00684*
Y-00657*
X00646Y03013D02*
Y02974D01*
Y03013D02*
X00628D01*
X00623Y03012*
X00621Y0301*
X00619Y03006*
Y03002*
X00621Y02998*
X00623Y02996*
X00628Y02994*
X00646*
X00632D02*
X00619Y02974D01*
X00585Y03013D02*
X0061D01*
Y02974*
X00585*
X0061Y02994D02*
X00595D01*
X00552Y03008D02*
X00556Y03012D01*
X00561Y03013*
X00569*
X00575Y03012*
X00578Y03008*
Y03004*
X00577Y03*
X00575Y02998*
X00571Y02996*
X00559Y02993*
X00556Y02991*
X00554Y02989*
X00552Y02985*
Y02979*
X00556Y02975*
X00561Y02974*
X00569*
X00575Y02975*
X00578Y02979*
X00518Y03013D02*
X00543D01*
Y02974*
X00518*
X00543Y02994D02*
X00528D01*
X00511Y03013D02*
Y02974D01*
Y03013D02*
X00494D01*
X00489Y03012*
X00487Y0301*
X00485Y03006*
Y03002*
X00487Y02998*
X00489Y02996*
X00494Y02994*
X00511*
X00498D02*
X00485Y02974D01*
X00476Y03013D02*
X00461Y02974D01*
X00445Y03013D02*
X00461Y02974D01*
X00415Y03013D02*
X0044D01*
Y02974*
X00415*
X0044Y02994D02*
X00425D01*
X00409Y03013D02*
Y02974D01*
Y03013D02*
X00395D01*
X0039Y03012*
X00386Y03008*
X00384Y03004*
X00382Y02998*
Y02989*
X00384Y02983*
X00386Y02979*
X0039Y02975*
X00395Y02974*
X00409*
X00215Y03011D02*
Y02972D01*
Y03011D02*
X00201D01*
X00195Y0301*
X00192Y03006*
X0019Y03002*
X00188Y02996*
Y02987*
X0019Y02981*
X00192Y02977*
X00195Y02973*
X00201Y02972*
X00215*
X00154Y03011D02*
X00179D01*
Y02972*
X00154*
X00179Y02992D02*
X00164D01*
X00147Y03011D02*
Y02972D01*
Y03011D02*
X00123D01*
X00147Y02992D02*
X00132D01*
X00088Y02972D02*
X00103Y03011D01*
X00118Y02972*
X00112Y02985D02*
X00093D01*
X00078Y03011D02*
Y02983D01*
X00076Y02977*
X00073Y02973*
X00067Y02972*
X00063*
X00057Y02973*
X00054Y02977*
X00052Y02983*
Y03011*
X00041D02*
Y02972D01*
X00018*
X0Y03011D02*
Y02972D01*
X00013Y03011D02*
X-00012D01*
X01051Y00233D02*
X01091D01*
X01051D02*
X01091Y00217D01*
X01051Y00202D02*
X01091Y00217D01*
X01051Y00202D02*
X01091D01*
X0106Y00162D02*
X01056Y00164D01*
X01052Y00168*
X01051Y00172*
Y00179*
X01052Y00183*
X01056Y00187*
X0106Y00189*
X01066Y00191*
X01075*
X01081Y00189*
X01085Y00187*
X01089Y00183*
X01091Y00179*
Y00172*
X01089Y00168*
X01085Y00164*
X01081Y00162*
X01051Y00139D02*
X01052Y00143D01*
X01056Y00147*
X0106Y00149*
X01066Y00151*
X01075*
X01081Y00149*
X01085Y00147*
X01089Y00143*
X01091Y00139*
Y00132*
X01089Y00128*
X01085Y00124*
X01081Y00122*
X01075Y0012*
X01066*
X0106Y00122*
X01056Y00124*
X01052Y00128*
X01051Y00132*
Y00139*
X00228Y0223D02*
Y02191D01*
Y0223D02*
X0021D01*
X00205Y02229*
X00203Y02227*
X00201Y02223*
Y02219*
X00203Y02215*
X00205Y02213*
X0021Y02211*
X00228*
X00214D02*
X00201Y02191D01*
X00192Y0223D02*
X00165Y02191D01*
Y0223D02*
X00192Y02191D01*
X0022Y02322D02*
Y02283D01*
X00234Y02322D02*
X00207D01*
X00202D02*
X00175Y02283D01*
Y02322D02*
X00202Y02283D01*
X01172Y02269D02*
Y0223D01*
Y02269D02*
X01145Y0223D01*
Y02269D02*
Y0223D01*
X01134Y02269D02*
Y0223D01*
Y02269D02*
X01117D01*
X01111Y02268*
X01109Y02266*
X01107Y02262*
Y02258*
X01109Y02254*
X01111Y02252*
X01117Y0225*
X01134*
X0112D02*
X01107Y0223D01*
X01072Y02264D02*
X01075Y02268D01*
X01081Y02269*
X01089*
X01094Y02268*
X01098Y02264*
Y0226*
X01096Y02256*
X01094Y02254*
X01091Y02252*
X01079Y02249*
X01075Y02247*
X01073Y02245*
X01072Y02241*
Y02235*
X01075Y02231*
X01081Y0223*
X01089*
X01094Y02231*
X01098Y02235*
X01049Y02269D02*
Y0223D01*
X01063Y02269D02*
X01036D01*
X00914Y02262D02*
Y02222D01*
Y02262D02*
X00897D01*
X00892Y0226*
X0089Y02258*
X00888Y02254*
Y02251*
X0089Y02247*
X00892Y02245*
X00897Y02243*
X00914*
X00901D02*
X00888Y02222D01*
X00852Y02256D02*
X00856Y0226D01*
X00862Y02262*
X00869*
X00875Y0226*
X00879Y02256*
Y02252*
X00877Y02249*
X00875Y02247*
X00871Y02245*
X0086Y02241*
X00856Y02239*
X00854Y02237*
X00852Y02233*
Y02228*
X00856Y02224*
X00862Y02222*
X00869*
X00875Y02224*
X00879Y02228*
X0083Y02262D02*
Y02222D01*
X00843Y02262D02*
X00817D01*
X01146Y02473D02*
X0115Y02477D01*
X01155Y02479*
X01163*
X01169Y02477*
X01172Y02473*
Y02469*
X01171Y02466*
X01169Y02464*
X01165Y02462*
X01153Y02458*
X0115Y02456*
X01148Y02454*
X01146Y0245*
Y02445*
X0115Y02441*
X01155Y02439*
X01163*
X01169Y02441*
X01172Y02445*
X01137Y02479D02*
X01127Y02439D01*
X01118Y02479D02*
X01127Y02439D01*
X01118Y02479D02*
X01108Y02439D01*
X01099Y02479D02*
X01108Y02439D01*
X01079Y02479D02*
X01083Y02477D01*
X01087Y02473*
X01089Y02469*
X01091Y02464*
Y02454*
X01089Y02449*
X01087Y02445*
X01083Y02441*
X01079Y02439*
X01072*
X01068Y02441*
X01064Y02445*
X01062Y02449*
X0106Y02454*
Y02464*
X01062Y02469*
X01064Y02473*
X01068Y02477*
X01072Y02479*
X01079*
X01293Y02313D02*
Y02273D01*
Y02313D02*
X01277Y02273D01*
X01262Y02313D02*
X01277Y02273D01*
X01262Y02313D02*
Y02273D01*
X01222Y02303D02*
X01224Y02307D01*
X01228Y02311*
X01232Y02313*
X01239*
X01243Y02311*
X01247Y02307*
X01249Y02303*
X01251Y02297*
Y02288*
X01249Y02282*
X01247Y02278*
X01243Y02275*
X01239Y02273*
X01232*
X01228Y02275*
X01224Y02278*
X01222Y02282*
X01199Y02313D02*
X01203Y02311D01*
X01207Y02307*
X01209Y02303*
X01211Y02297*
Y02288*
X01209Y02282*
X01207Y02278*
X01203Y02275*
X01199Y02273*
X01192*
X01188Y02275*
X01184Y02278*
X01182Y02282*
X0118Y02288*
Y02297*
X01182Y02303*
X01184Y02307*
X01188Y02311*
X01192Y02313*
X01199*
X-00427Y-02121D02*
D01*
X-00427Y-02126*
X-00427Y-02132*
X-00426Y-02137*
X-00424Y-02142*
X-00423Y-02148*
X-0042Y-02153*
X-00418Y-02158*
X-00415Y-02162*
X-00412Y-02167*
X-00409Y-02171*
X-00405Y-02175*
X-00401Y-02179*
X-00397Y-02183*
X-00393Y-02186*
X-00388Y-02189*
X-00383Y-02191*
X-00378Y-02194*
X-00373Y-02196*
X-00368Y-02197*
X-00362Y-02198*
X-00357Y-02199*
X-00351Y-02199*
X-00349Y-02199*
X02249Y-02199D02*
D01*
X02254Y-02199*
X0226Y-02199*
X02265Y-02198*
X0227Y-02196*
X02276Y-02195*
X02281Y-02192*
X02286Y-0219*
X0229Y-02187*
X02295Y-02184*
X02299Y-02181*
X02303Y-02177*
X02307Y-02173*
X02311Y-02169*
X02314Y-02165*
X02317Y-0216*
X02319Y-02155*
X02322Y-0215*
X02324Y-02145*
X02325Y-0214*
X02326Y-02134*
X02327Y-02129*
X02327Y-02123*
X02327Y-02121*
X01698Y02085D02*
D01*
X01696Y02084*
X01695Y02084*
X01693Y02084*
X01692Y02084*
X01691Y02083*
X0169Y02083*
X01688Y02082*
X01687Y02082*
X01686Y02081*
X01685Y0208*
X01684Y02079*
X01683Y02078*
X01682Y02077*
X01681Y02076*
X0168Y02075*
X0168Y02073*
X01679Y02072*
X01679Y02071*
X01678Y0207*
X01678Y02068*
X01678Y02067*
X01678Y02066*
Y02064*
X01678Y02063*
X01678Y02061*
X01678Y0206*
X01679Y02059*
X01679Y02057*
X0168Y02056*
X0168Y02055*
X01681Y02054*
X01682Y02053*
X01683Y02052*
X01684Y02051*
X01685Y0205*
X01686Y02049*
X01687Y02048*
X01688Y02047*
X0169Y02047*
X01691Y02046*
X01692Y02046*
X01693Y02046*
X01695Y02045*
X01696Y02045*
X01698Y02045*
X0125Y02085D02*
D01*
X01248Y02084*
X01247Y02084*
X01245Y02084*
X01244Y02084*
X01243Y02083*
X01241Y02083*
X0124Y02082*
X01239Y02082*
X01238Y02081*
X01237Y0208*
X01236Y02079*
X01235Y02078*
X01234Y02077*
X01233Y02076*
X01232Y02075*
X01232Y02073*
X01231Y02072*
X01231Y02071*
X0123Y0207*
X0123Y02068*
X0123Y02067*
X0123Y02066*
Y02064*
X0123Y02063*
X0123Y02061*
X0123Y0206*
X01231Y02059*
X01231Y02057*
X01232Y02056*
X01232Y02055*
X01233Y02054*
X01234Y02053*
X01235Y02052*
X01236Y02051*
X01237Y0205*
X01238Y02049*
X01239Y02048*
X0124Y02047*
X01241Y02047*
X01243Y02046*
X01244Y02046*
X01245Y02046*
X01247Y02045*
X01248Y02045*
X0125Y02045*
X01538D02*
D01*
X01539Y02045*
X01541Y02045*
X01542Y02046*
X01544Y02046*
X01545Y02046*
X01546Y02047*
X01547Y02047*
X01549Y02048*
X0155Y02049*
X01551Y0205*
X01552Y02051*
X01553Y02052*
X01554Y02053*
X01554Y02054*
X01555Y02055*
X01556Y02056*
X01556Y02057*
X01557Y02059*
X01557Y0206*
X01557Y02061*
X01558Y02063*
X01558Y02064*
Y02066*
X01558Y02067*
X01557Y02068*
X01557Y0207*
X01557Y02071*
X01556Y02072*
X01556Y02073*
X01555Y02075*
X01554Y02076*
X01554Y02077*
X01553Y02078*
X01552Y02079*
X01551Y0208*
X0155Y02081*
X01549Y02082*
X01547Y02082*
X01546Y02083*
X01545Y02083*
X01544Y02084*
X01542Y02084*
X01541Y02084*
X01539Y02084*
X01538Y02085*
X00182Y02045D02*
D01*
X00183Y02045*
X00185Y02045*
X00186Y02046*
X00187Y02046*
X00189Y02046*
X0019Y02047*
X00191Y02047*
X00192Y02048*
X00193Y02049*
X00194Y0205*
X00195Y02051*
X00196Y02052*
X00197Y02053*
X00198Y02054*
X00199Y02055*
X00199Y02056*
X002Y02057*
X00201Y02059*
X00201Y0206*
X00201Y02061*
X00201Y02063*
X00201Y02064*
Y02066*
X00201Y02067*
X00201Y02068*
X00201Y0207*
X00201Y02071*
X002Y02072*
X00199Y02073*
X00199Y02075*
X00198Y02076*
X00197Y02077*
X00196Y02078*
X00195Y02079*
X00194Y0208*
X00193Y02081*
X00192Y02082*
X00191Y02082*
X0019Y02083*
X00189Y02083*
X00187Y02084*
X00186Y02084*
X00185Y02084*
X00183Y02084*
X00182Y02085*
X0032D02*
D01*
X00318Y02084*
X00317Y02084*
X00315Y02084*
X00314Y02084*
X00313Y02083*
X00312Y02083*
X0031Y02082*
X00309Y02082*
X00308Y02081*
X00307Y0208*
X00306Y02079*
X00305Y02078*
X00304Y02077*
X00303Y02076*
X00303Y02075*
X00302Y02073*
X00301Y02072*
X00301Y02071*
X003Y0207*
X003Y02068*
X003Y02067*
X003Y02066*
Y02064*
X003Y02063*
X003Y02061*
X003Y0206*
X00301Y02059*
X00301Y02057*
X00302Y02056*
X00303Y02055*
X00303Y02054*
X00304Y02053*
X00305Y02052*
X00306Y02051*
X00307Y0205*
X00308Y02049*
X00309Y02048*
X0031Y02047*
X00312Y02047*
X00313Y02046*
X00314Y02046*
X00315Y02046*
X00317Y02045*
X00318Y02045*
X0032Y02045*
X01068D02*
D01*
X01069Y02045*
X0107Y02045*
X01072Y02046*
X01073Y02046*
X01074Y02046*
X01076Y02047*
X01077Y02047*
X01078Y02048*
X01079Y02049*
X0108Y0205*
X01081Y02051*
X01082Y02052*
X01083Y02053*
X01084Y02054*
X01085Y02055*
X01085Y02056*
X01086Y02057*
X01086Y02059*
X01087Y0206*
X01087Y02061*
X01087Y02063*
X01087Y02064*
Y02066*
X01087Y02067*
X01087Y02068*
X01087Y0207*
X01086Y02071*
X01086Y02072*
X01085Y02073*
X01085Y02075*
X01084Y02076*
X01083Y02077*
X01082Y02078*
X01081Y02079*
X0108Y0208*
X01079Y02081*
X01078Y02082*
X01077Y02082*
X01076Y02083*
X01074Y02083*
X01073Y02084*
X01072Y02084*
X0107Y02084*
X01069Y02084*
X01068Y02085*
X-00349Y03049D02*
D01*
X-00354Y03049*
X-0036Y03048*
X-00365Y03047*
X-0037Y03046*
X-00376Y03044*
X-00381Y03042*
X-00386Y0304*
X-0039Y03037*
X-00395Y03034*
X-00399Y03031*
X-00403Y03027*
X-00407Y03023*
X-00411Y03019*
X-00414Y03014*
X-00417Y0301*
X-00419Y03005*
X-00422Y03*
X-00424Y02995*
X-00425Y02989*
X-00426Y02984*
X-00427Y02979*
X-00427Y02973*
X-00427Y0297*
X02327D02*
D01*
X02327Y02976*
X02327Y02981*
X02326Y02987*
X02324Y02992*
X02323Y02997*
X02321Y03002*
X02318Y03007*
X02315Y03012*
X02312Y03017*
X02309Y03021*
X02305Y03025*
X02301Y03029*
X02297Y03032*
X02293Y03036*
X02288Y03039*
X02283Y03041*
X02278Y03043*
X02273Y03045*
X02268Y03047*
X02262Y03048*
X02257Y03049*
X02251Y03049*
X02249Y03049*
X-00349Y-022D02*
X02249D01*
X0125Y02045D02*
X01538D01*
X0125Y02085D02*
X01538D01*
X-00349Y03049D02*
X02249D01*
X0032Y02045D02*
X01068D01*
X0032Y02085D02*
X01068D01*
X01698Y02045D02*
X02327D01*
X01698Y02085D02*
X02327D01*
X-00427D02*
X00182D01*
X-00427Y02045D02*
X00182D01*
X-00427Y02085D02*
Y0297D01*
X02327Y-02121D02*
Y02045D01*
Y02085D02*
Y0297D01*
D01*
X-00427Y-02121D02*
Y02045D01*
X01043Y-01825D02*
X01594D01*
X01043Y-02297D02*
Y-01825D01*
X01594Y-02297D02*
Y-01825D01*
X01043Y-02297D02*
X01594D01*
X01043Y-02199D02*
X01594D01*
G54D56*
X0038Y0109D02*
X0047D01*
X0038Y0123D02*
Y0128D01*
X0047*
Y0123D02*
Y0128D01*
Y0109D02*
Y01135D01*
X0038Y0109D02*
Y01135D01*
X01428Y00887D02*
Y00977D01*
X01568D02*
X01618D01*
Y00887D02*
Y00977D01*
X01568Y00887D02*
X01618D01*
X01428D02*
X01473D01*
X01428Y00977D02*
X01473D01*
G54D70*
X00155Y-02199D02*
X0028D01*
Y-02125*
X00316*
Y-02199D02*
Y-02125D01*
Y-02199D02*
X00392D01*
X00467*
Y-02125*
X00503*
Y-02199D02*
Y-02125D01*
Y-02199D02*
X00628D01*
X01263Y03047D02*
X01388D01*
Y02973D02*
Y03047D01*
Y02973D02*
X01424D01*
Y03047*
X015*
X01575*
Y02973D02*
Y03047D01*
Y02973D02*
X01611D01*
Y03047*
X01736*
G54D71*
X00612Y-02186D02*
Y-02194D01*
X00615*
X00617Y-02193*
Y-02192*
X00615Y-0219*
X00612*
X00615*
X00617Y-02189*
Y-02188*
X00615Y-02186*
X00612*
X00621Y-02194D02*
X00623D01*
X00625Y-02193*
Y-0219*
X00623Y-02189*
X00621*
X00619Y-0219*
Y-02193*
X00621Y-02194*
X00629Y-02189D02*
X00631D01*
X00632Y-0219*
Y-02194*
X00629*
X00627Y-02193*
X00629Y-02192*
X00632*
X00635Y-02189D02*
Y-02194D01*
Y-02192*
X00636Y-0219*
X00638Y-02189*
X00639*
X00648Y-02186D02*
Y-02194D01*
X00644*
X00643Y-02193*
Y-0219*
X00644Y-02189*
X00648*
X00663Y-02194D02*
X0066D01*
X00659Y-02193*
Y-0219*
X0066Y-02189*
X00663*
X00664Y-0219*
Y-02192*
X00659*
X00672Y-02186D02*
Y-02194D01*
X00668*
X00667Y-02193*
Y-0219*
X00668Y-02189*
X00672*
X00677Y-02197D02*
X00678D01*
X0068Y-02195*
Y-02189*
X00676*
X00674Y-0219*
Y-02193*
X00676Y-02194*
X0068*
X00686D02*
X00684D01*
X00682Y-02193*
Y-0219*
X00684Y-02189*
X00686*
X00688Y-0219*
Y-02192*
X00682*
X0128Y03034D02*
Y03042D01*
X01276*
X01274Y03041*
Y0304*
X01276Y03038*
X0128*
X01276*
X01274Y03037*
Y03036*
X01276Y03034*
X0128*
X0127Y03042D02*
X01268D01*
X01266Y03041*
Y03038*
X01268Y03037*
X0127*
X01272Y03038*
Y03041*
X0127Y03042*
X01262Y03037D02*
X0126D01*
X01259Y03038*
Y03042*
X01262*
X01264Y03041*
X01262Y0304*
X01259*
X01256Y03037D02*
Y03042D01*
Y0304*
X01255Y03038*
X01253Y03037*
X01252*
X01243Y03034D02*
Y03042D01*
X01247*
X01248Y03041*
Y03038*
X01247Y03037*
X01243*
X01228Y03042D02*
X01231D01*
X01232Y03041*
Y03038*
X01231Y03037*
X01228*
X01227Y03038*
Y0304*
X01232*
X01219Y03034D02*
Y03042D01*
X01223*
X01224Y03041*
Y03038*
X01223Y03037*
X01219*
X01214Y03045D02*
X01213D01*
X01211Y03043*
Y03037*
X01215*
X01217Y03038*
Y03041*
X01215Y03042*
X01211*
X01205D02*
X01207D01*
X01209Y03041*
Y03038*
X01207Y03037*
X01205*
X01203Y03038*
Y0304*
X01209*
G54D89*
X00931Y00035D02*
Y00038D01*
X009Y00035D02*
Y00038D01*
X00777Y00093D02*
X00781D01*
X00777Y00062D02*
X00781D01*
X01632Y00388D02*
X01635D01*
X01632Y00357D02*
X01635D01*
G54D92*
X0035Y02545D02*
X0049D01*
X0035D02*
Y02955D01*
X0049*
Y02545D02*
Y02955D01*
X0024Y02545D02*
Y02955D01*
X0011D02*
X0024D01*
X0011Y02545D02*
Y02955D01*
Y02545D02*
X0024D01*
G54D155*
X-00362Y-00848D02*
X-00342Y-00828D01*
X-00352Y-00818*
X-00358*
X-00365Y-00824*
Y-00831*
X-00355Y-00841*
X-00362Y-00808D02*
X-00381Y-00828D01*
X-00371Y-00818*
X-00385Y-00805*
X-00375Y-00795*
X-00394Y-00815*
X-00385Y-00791D02*
Y-00785D01*
X-00391Y-00778*
X-00398*
X-00411Y-00791*
Y-00798*
X-00404Y-00805*
X-00398*
X-00385Y-00791*
X-00362Y-00728D02*
X-00342Y-00708D01*
X-00352Y-00698*
X-00358*
X-00365Y-00704*
Y-00711*
X-00355Y-00721*
X-00362Y-00688D02*
X-00381Y-00708D01*
X-00371Y-00698*
X-00385Y-00685*
X-00375Y-00675*
X-00394Y-00695*
X-00401Y-00688D02*
X-00408Y-00681D01*
X-00404Y-00685*
X-00385Y-00665*
Y-00671*
X-00336Y00374D02*
X-00329Y00368D01*
Y00361*
X-00342Y00348*
X-00349*
X-00355Y00354*
Y00361*
X-00342Y00374*
X-00336*
X-00362Y00394D02*
X-00355D01*
X-00349Y00387*
Y00381*
X-00352Y00377*
X-00359*
X-00365Y00384*
X-00372*
X-00375Y00381*
Y00374*
X-00369Y00368*
X-00362*
X-00382Y00414D02*
X-00375D01*
X-00369Y00407*
Y00401*
X-00382Y00387*
X-00388*
X-00395Y00394*
Y00401*
X-00385Y00424D02*
X-00392Y0043D01*
X-00388Y00427*
X-00408Y00407*
X-00405Y00404*
X-00411Y0041*
X02312Y01836D02*
X02292Y01855D01*
X02282Y01845*
Y01839*
X02288Y01832*
X02295*
X02305Y01842*
X02262Y01819D02*
Y01826D01*
X02269Y01832*
X02275*
X02288Y01819*
Y01812*
X02282Y01806*
X02275*
X02255Y01812D02*
X02249D01*
X02242Y01806*
Y01799*
X02246Y01796*
X02252*
Y01789*
X02255Y01786*
X02262*
X02269Y01793*
Y01799*
X02265Y01803*
X02259*
Y01809*
X02255Y01812*
X02259Y01803D02*
X02252Y01796D01*
X02318Y0174D02*
X02298Y01759D01*
X02288Y01749*
Y01743*
X02294Y01736*
X02301*
X02311Y01746*
X02268Y01723D02*
Y0173D01*
X02275Y01736*
X02281*
X02294Y01723*
Y01716*
X02288Y0171*
X02281*
X02245Y01707D02*
X02255Y0171D01*
X02268*
X02275Y01703*
Y01697*
X02268Y0169*
X02261*
X02258Y01693*
Y017*
X02268Y0171*
X02319Y01636D02*
X02299Y01655D01*
X02289Y01645*
Y01639*
X02295Y01632*
X02302*
X02312Y01642*
X02269Y01619D02*
Y01626D01*
X02276Y01632*
X02282*
X02295Y01619*
Y01612*
X02289Y01606*
X02282*
X02246Y01603D02*
X02259Y01616D01*
X02269Y01606*
X02259Y01603*
X02256Y01599*
Y01593*
X02262Y01586*
X02269*
X02276Y01593*
Y01599*
X02295Y0155D02*
X02311Y01534D01*
Y01527*
X02305Y01521*
X02298*
X02282Y01537*
X02262Y01517D02*
X02275Y01531D01*
X02285Y01521*
X02275Y01517*
X02272Y01514*
Y01507*
X02278Y01501*
X02285*
X02291Y01507*
Y01514*
X02255Y01511D02*
X02268Y01498D01*
Y01484*
X02255*
X02242Y01498*
X02315Y01434D02*
X02295Y01453D01*
X02285Y01443*
Y01437*
X02291Y0143*
X02298*
X02308Y0144*
X02275Y01434D02*
X02295Y01414D01*
X02285Y01404*
X02278*
X02265Y01417*
Y01424*
X02275Y01434*
X02258Y0141D02*
X02252D01*
X02245Y01404*
Y01397*
X02249Y01394*
X02255*
Y01387*
X02258Y01384*
X02265*
X02272Y01391*
Y01397*
X02268Y01401*
X02262*
Y01407*
X02258Y0141*
X02262Y01401D02*
X02255Y01394D01*
X02308Y01202D02*
X02288Y01221D01*
X02278Y01211*
Y01205*
X02284Y01198*
X02291*
X02301Y01208*
X02288Y01182D02*
X02275Y01195D01*
X02261*
Y01182*
X02275Y01169*
X02265Y01178*
X02278Y01192*
X02268Y01162D02*
X02261Y01155D01*
X02265Y01159*
X02245Y01178*
X02251*
Y01145D02*
X02245Y01139D01*
X02248Y01142*
X02228Y01162*
X02235*
X02312Y01103D02*
X02292Y01122D01*
X02282Y01112*
Y01106*
X02288Y01099*
X02295*
X02305Y01109*
X02272Y01103D02*
X02292Y01083D01*
X02282Y01073*
X02275*
X02272Y01076*
Y01083*
X02282Y01093*
X02272Y01083*
X02265*
X02262Y01086*
Y01093*
X02272Y01103*
Y01063D02*
X02265Y01056D01*
X02269Y0106*
X02249Y01079*
X02255*
X02242Y01033D02*
X02255Y01046D01*
X02229*
X02226Y0105*
Y01056*
X02232Y01063*
X02239*
X02314Y01004D02*
X02294Y01023D01*
X02284Y01013*
Y01007*
X0229Y01*
X02297*
X02307Y0101*
X02274Y01004D02*
X02294Y00984D01*
X02284Y00974*
X02277*
X02274Y00977*
Y00984*
X02284Y00994*
X02274Y00984*
X02267*
X02264Y00987*
Y00994*
X02274Y01004*
Y00964D02*
X02267Y00957D01*
X02271Y00961*
X02251Y0098*
X02257*
Y00947D02*
X02251Y00941D01*
X02254Y00944*
X02234Y00964*
X02241*
X02289Y00934D02*
Y0094D01*
X02295Y00947*
X02302*
X02315Y00934*
Y00927*
X02309Y00921*
X02302*
X02295Y00927*
X02302Y00934*
X02299Y00911D02*
X02279Y00931D01*
X02286Y00898*
X02266Y00917*
X02259Y00911D02*
X02279Y00891D01*
X02269Y00881*
X02262*
X02249Y00894*
Y00901*
X02259Y00911*
X02314Y00837D02*
X02294Y00856D01*
X02284Y00846*
Y0084*
X0229Y00833*
X02297*
X02307Y00843*
X02274Y00837D02*
X02294Y00817D01*
X02284Y00807*
X02277*
X02274Y0081*
Y00817*
X02284Y00827*
X02274Y00817*
X02267*
X02264Y0082*
Y00827*
X02274Y00837*
X02261Y00784D02*
X02274Y00797D01*
X02248*
X02244Y008*
Y00807*
X02251Y00813*
X02257*
X02313Y00229D02*
X02293Y00248D01*
X02283Y00238*
Y00232*
X02289Y00225*
X02296*
X02306Y00235*
X02263Y00212D02*
Y00219D01*
X0227Y00225*
X02276*
X02289Y00212*
Y00205*
X02283Y00199*
X02276*
X02263Y00179D02*
X02243Y00199D01*
X02263*
X0225Y00186*
X02322Y0032D02*
X02309Y00333D01*
X02296*
Y0032*
X02309Y00306*
X02299Y00316*
X02312Y00329*
X02273Y00303D02*
Y0031D01*
X02279Y00316*
X02286*
X02299Y00303*
Y00296*
X02292Y0029*
X02286*
X02279Y00296*
X02286Y00303*
X02283Y0028D02*
X02263Y003D01*
X02269Y00267*
X0225Y00287*
X02243Y0028D02*
X02263Y0026D01*
X02253Y0025*
X02246*
X02233Y00263*
Y0027*
X02243Y0028*
X0232Y00412D02*
X023Y00431D01*
X0229Y00421*
Y00415*
X02296Y00408*
X02303*
X02313Y00418*
X0228Y00412D02*
X023Y00392D01*
X0229Y00382*
X02283*
X0228Y00385*
Y00392*
X0229Y00402*
X0228Y00392*
X02273*
X0227Y00395*
Y00402*
X0228Y00412*
Y00372D02*
X02273Y00365D01*
X02277Y00369*
X02257Y00388*
X02263*
X02247Y00372D02*
X0224D01*
X02234Y00365*
Y00359*
X02237Y00355*
X02244*
X02247Y00359*
X02244Y00355*
Y00349*
X02247Y00346*
X02254*
X0226Y00352*
Y00359*
X02314Y00507D02*
X02294Y00526D01*
X02284Y00516*
Y0051*
X0229Y00503*
X02297*
X02307Y00513*
X02274Y00507D02*
X02294Y00487D01*
X02284Y00477*
X02277*
X02274Y0048*
Y00487*
X02284Y00497*
X02274Y00487*
X02267*
X02264Y0049*
Y00497*
X02274Y00507*
Y00467D02*
X02267Y0046D01*
X02271Y00464*
X02251Y00483*
X02257*
X02248Y00441D02*
X02228Y0046D01*
X02248*
X02234Y00447*
X02308Y00731D02*
X02288Y0075D01*
X02278Y0074*
Y00734*
X02284Y00727*
X02291*
X02301Y00737*
X02268Y00731D02*
X02288Y00711D01*
X02278Y00701*
X02271*
X02268Y00704*
Y00711*
X02278Y00721*
X02268Y00711*
X02261*
X02258Y00714*
Y00721*
X02268Y00731*
Y00691D02*
X02261Y00684D01*
X02265Y00688*
X02245Y00707*
X02251*
X02321Y-00382D02*
X02301Y-00362D01*
X02291Y-00372*
Y-00378*
X02297Y-00385*
X02304*
X02314Y-00375*
X02281Y-00382D02*
X02301Y-00401D01*
X02291Y-00411*
X02284*
X02271Y-00398*
Y-00391*
X02281Y-00382*
Y-00421D02*
X02274Y-00428D01*
X02278Y-00424*
X02258Y-00405*
X02264*
X02255Y-00447D02*
X02235Y-00428D01*
X02255*
X02241Y-00441*
X02315Y-00275D02*
X02295Y-00255D01*
X02285Y-00265*
Y-00271*
X02291Y-00278*
X02298*
X02308Y-00268*
X02262Y-00288D02*
X02275Y-00275D01*
X02295Y-00294*
X02282Y-00307*
X02285Y-00284D02*
X02278Y-00291D01*
X02255Y-00294D02*
X02242Y-00307D01*
X02245Y-00311*
X02272*
X02275Y-00314*
X02323Y-00179D02*
X02303Y-00159D01*
X02293Y-00169*
Y-00175*
X02299Y-00182*
X02306*
X02316Y-00172*
X0227Y-00192D02*
X02283Y-00179D01*
X02293Y-00188*
X02286Y-00195*
X02293Y-00188*
X02303Y-00198*
X02283Y-00218D02*
X02276Y-00225D01*
X0228Y-00221*
X0226Y-00202*
X02266*
X0225Y-00218D02*
X02243D01*
X02237Y-00225*
Y-00231*
X0225Y-00244*
X02257*
X02263Y-00238*
Y-00231*
X0225Y-00218*
X02313Y-00064D02*
X02293Y-00044D01*
X02283Y-00054*
Y-0006*
X02289Y-00067*
X02296*
X02306Y-00057*
X0226Y-00077D02*
X02273Y-00064D01*
X02293Y-00083*
X0228Y-00096*
X02283Y-00073D02*
X02276Y-0008D01*
X02256Y-00087D02*
X0225D01*
X02243Y-00093*
Y-001*
X02247Y-00103*
X02253*
Y-0011*
X02256Y-00113*
X02263*
X0227Y-00106*
Y-001*
X02266Y-00096*
X0226*
Y-0009*
X02256Y-00087*
X0226Y-00096D02*
X02253Y-00103D01*
X02315Y00033D02*
X02295Y00052D01*
X02285Y00042*
Y00036*
X02291Y00029*
X02298*
X02308Y00039*
X02262Y00019D02*
X02275Y00033D01*
X02285Y00023*
X02278Y00016*
X02285Y00023*
X02295Y00013*
X02265Y-00016D02*
X02245Y00003D01*
X02265*
X02252Y-00009*
X02317Y00135D02*
X02297Y00154D01*
X02287Y00144*
Y00138*
X02293Y00131*
X023*
X0231Y00141*
X02264Y00121D02*
X02277Y00135D01*
X02287Y00125*
X0228Y00118*
X02287Y00125*
X02297Y00115*
X02244Y00102D02*
X02257Y00115D01*
X02267Y00105*
X02257Y00102*
X02254Y00098*
Y00092*
X0226Y00085*
X02267*
X02274Y00092*
Y00098*
X02312Y0061D02*
X02292Y00629D01*
X02282Y00619*
Y00613*
X02288Y00606*
X02295*
X02305Y00616*
X02272Y0061D02*
X02292Y0059D01*
X02282Y0058*
X02275*
X02272Y00583*
Y0059*
X02282Y006*
X02272Y0059*
X02265*
X02262Y00593*
Y006*
X02272Y0061*
Y0057D02*
X02265Y00563D01*
X02269Y00567*
X02249Y00586*
X02255*
X02222Y0056D02*
X02236Y00573D01*
X02246Y00563*
X02236Y0056*
X02232Y00557*
Y0055*
X02239Y00544*
X02246*
X02252Y0055*
Y00557*
X02318Y-00972D02*
X02298Y-00952D01*
X02288Y-00962*
Y-00968*
X02294Y-00975*
X02301*
X02311Y-00965*
X02265Y-00985D02*
X02278Y-00972D01*
X02288Y-00981*
X02281Y-00988*
X02288Y-00981*
X02298Y-00991*
X02261Y-00995D02*
X02255D01*
X02248Y-01001*
Y-01008*
X02252Y-01011*
X02258*
X02261Y-01008*
X02258Y-01011*
Y-01018*
X02261Y-01021*
X02268*
X02275Y-01014*
Y-01008*
X0232Y-00878D02*
X023Y-00858D01*
X0229Y-00868*
Y-00874*
X02296Y-00881*
X02303*
X02313Y-00871*
X02267Y-00891D02*
X0228Y-00878D01*
X023Y-00897*
X02287Y-0091*
X0229Y-00887D02*
X02283Y-00894D01*
X0228Y-00917D02*
X02273Y-00924D01*
X02277Y-0092*
X02257Y-00901*
X02263*
Y-00934D02*
X02257Y-0094D01*
X0226Y-00937*
X0224Y-00917*
X02247*
X02285Y-00761D02*
Y-00755D01*
X02291Y-00748*
X02298*
X02311Y-00761*
Y-00768*
X02305Y-00774*
X02298*
X02291Y-00768*
X02298Y-00761*
X02295Y-00784D02*
X02275Y-00765D01*
X02282Y-00797*
X02262Y-00778*
X02255Y-00784D02*
X02275Y-00804D01*
X02265Y-00814*
X02258*
X02245Y-00801*
Y-00794*
X02255Y-00784*
X02315Y-00666D02*
X02295Y-00646D01*
X02285Y-00656*
Y-00662*
X02291Y-00669*
X02298*
X02308Y-00659*
X02262Y-00679D02*
X02275Y-00666D01*
X02295Y-00685*
X02282Y-00698*
X02285Y-00675D02*
X02278Y-00682D01*
X02272Y-00702D02*
Y-00708D01*
X02265Y-00715*
X02258*
X02245Y-00702*
Y-00695*
X02252Y-00689*
X02258*
X02262Y-00692*
Y-00698*
X02252Y-00708*
X02315Y-00487D02*
X02295Y-00467D01*
X02285Y-00477*
Y-00483*
X02291Y-0049*
X02298*
X02308Y-0048*
X02275Y-00487D02*
X02295Y-00506D01*
X02285Y-00516*
X02278*
X02265Y-00503*
Y-00496*
X02275Y-00487*
Y-00526D02*
X02268Y-00533D01*
X02272Y-00529*
X02252Y-0051*
X02258*
X02225Y-00536D02*
X02239Y-00523D01*
X02249Y-00533*
X02239Y-00536*
X02235Y-00539*
Y-00546*
X02242Y-00552*
X02249*
X02255Y-00546*
Y-00539*
X02318Y-01565D02*
X02298Y-01545D01*
X02288Y-01555*
Y-01561*
X02294Y-01568*
X02301*
X02311Y-01558*
X02268Y-01581D02*
Y-01574D01*
X02275Y-01568*
X02281*
X02294Y-01581*
Y-01588*
X02288Y-01594*
X02281*
X02275Y-01588*
X02281Y-01581*
X02245Y-01597D02*
X02255Y-01594D01*
X02268*
X02275Y-01601*
Y-01607*
X02268Y-01614*
X02261*
X02258Y-01611*
Y-01604*
X02268Y-01594*
X02319Y-01472D02*
X02299Y-01452D01*
X02289Y-01462*
Y-01468*
X02295Y-01475*
X02302*
X02312Y-01465*
X02269Y-01488D02*
Y-01481D01*
X02276Y-01475*
X02282*
X02295Y-01488*
Y-01495*
X02289Y-01501*
X02282*
X02276Y-01495*
X02282Y-01488*
X02246Y-01504D02*
X02259Y-01491D01*
X02269Y-01501*
X02259Y-01504*
X02256Y-01508*
Y-01514*
X02262Y-01521*
X02269*
X02276Y-01514*
Y-01508*
X02313Y-01366D02*
X02293Y-01346D01*
X02283Y-01356*
Y-01362*
X02289Y-01369*
X02296*
X02306Y-01359*
X02263Y-01382D02*
Y-01375D01*
X0227Y-01369*
X02276*
X02289Y-01382*
Y-01389*
X02283Y-01395*
X02276*
X0227Y-01389*
X02276Y-01382*
X02256Y-01389D02*
X0225D01*
X02243Y-01395*
Y-01402*
X02247Y-01405*
X02253*
Y-01412*
X02256Y-01415*
X02263*
X0227Y-01408*
Y-01402*
X02266Y-01398*
X0226*
Y-01392*
X02256Y-01389*
X0226Y-01398D02*
X02253Y-01405D01*
X02315Y-01268D02*
X02295Y-01248D01*
X02285Y-01258*
Y-01264*
X02291Y-01271*
X02298*
X02308Y-01261*
X02262Y-01281D02*
X02275Y-01268D01*
X02295Y-01287*
X02282Y-013*
X02285Y-01277D02*
X02278Y-01284D01*
X02258Y-01291D02*
X02252D01*
X02245Y-01297*
Y-01304*
X02258Y-01317*
X02265*
X02272Y-0131*
Y-01304*
X02258Y-01291*
X02314Y-01188D02*
X02294Y-01168D01*
X02284Y-01178*
Y-01184*
X0229Y-01191*
X02297*
X02307Y-01181*
X02261Y-01201D02*
X02274Y-01188D01*
X02284Y-01197*
X02277Y-01204*
X02284Y-01197*
X02294Y-01207*
X02274Y-01227D02*
X02267Y-01234D01*
X02271Y-0123*
X02251Y-01211*
X02257*
Y-01244D02*
X02251Y-0125D01*
X02254Y-01247*
X02234Y-01227*
X02241*
X02321Y-01085D02*
X02301Y-01065D01*
X02291Y-01075*
Y-01081*
X02297Y-01088*
X02304*
X02314Y-01078*
X02268Y-01098D02*
X02281Y-01085D01*
X02291Y-01094*
X02284Y-01101*
X02291Y-01094*
X02301Y-01104*
X02281Y-01124D02*
X02274Y-01131D01*
X02278Y-01127*
X02258Y-01108*
X02264*
X02231Y-01134D02*
X02245Y-01121D01*
X02255Y-01131*
X02245Y-01134*
X02241Y-01137*
Y-01144*
X02248Y-0115*
X02255*
X02261Y-01144*
Y-01137*
X02317Y-00586D02*
X02297Y-00566D01*
X02287Y-00576*
Y-00582*
X02293Y-00589*
X023*
X0231Y-00579*
X02264Y-00599D02*
X02277Y-00586D01*
X02287Y-00595*
X0228Y-00602*
X02287Y-00595*
X02297Y-00605*
X02277Y-00625D02*
X0227Y-00632D01*
X02274Y-00628*
X02254Y-00609*
X0226*
X02251Y-00651D02*
X02231Y-00632D01*
X02251*
X02237Y-00645*
X02051Y-01618D02*
Y-0159D01*
X02037*
X02032Y-01594*
Y-01604*
X02037Y-01608*
X02051*
X02004Y-01594D02*
X02009Y-0159D01*
X02018*
X02023Y-01594*
Y-01613*
X02018Y-01618*
X02009*
X02004Y-01613*
Y-01604*
X02013*
X01981Y-01618D02*
Y-0159D01*
X01995Y-01604*
X01976*
X02051Y-01518D02*
Y-0149D01*
X02037*
X02032Y-01494*
Y-01504*
X02037Y-01508*
X02051*
X02004Y-01494D02*
X02009Y-0149D01*
X02018*
X02023Y-01494*
Y-01513*
X02018Y-01518*
X02009*
X02004Y-01513*
Y-01504*
X02013*
X01995Y-0149D02*
X01976D01*
Y-01494*
X01995Y-01513*
Y-01518*
X02051Y-01418D02*
Y-0139D01*
X02037*
X02032Y-01394*
Y-01404*
X02037Y-01408*
X02051*
X02023Y-0139D02*
Y-01418D01*
X02009*
X02004Y-01413*
Y-01394*
X02009Y-0139*
X02023*
X01995Y-01418D02*
X01985D01*
X0199*
Y-0139*
X01995Y-01394*
X01971D02*
X01967Y-0139D01*
X01957*
X01953Y-01394*
Y-01413*
X01957Y-01418*
X01967*
X01971Y-01413*
Y-01394*
X02032Y-01294D02*
X02037Y-0129D01*
X02046*
X02051Y-01294*
Y-01313*
X02046Y-01318*
X02037*
X02032Y-01313*
Y-01304*
X02041*
X02023Y-01318D02*
Y-0129D01*
X02004Y-01318*
Y-0129*
X01995D02*
Y-01318D01*
X01981*
X01976Y-01313*
Y-01294*
X01981Y-0129*
X01995*
X02051Y-01218D02*
Y-0119D01*
X02037*
X02032Y-01194*
Y-01204*
X02037Y-01208*
X02051*
X02004Y-01194D02*
X02009Y-0119D01*
X02018*
X02023Y-01194*
Y-01213*
X02018Y-01218*
X02009*
X02004Y-01213*
Y-01204*
X02013*
X01995Y-01218D02*
X01985D01*
X0199*
Y-0119*
X01995Y-01194*
X01957Y-01218D02*
Y-0119D01*
X01971Y-01204*
X01953*
X02051Y-00718D02*
Y-0069D01*
X02037*
X02032Y-00694*
Y-00704*
X02037Y-00708*
X02051*
X02004Y-0069D02*
X02023D01*
Y-00718*
X02004*
X02023Y-00704D02*
X02013D01*
X01995Y-00718D02*
X01985D01*
X0199*
Y-0069*
X01995Y-00694*
X01957Y-00718D02*
Y-0069D01*
X01971Y-00704*
X01953*
X02051Y-00818D02*
Y-0079D01*
X02037*
X02032Y-00794*
Y-00804*
X02037Y-00808*
X02051*
X02004Y-0079D02*
X02023D01*
Y-00818*
X02004*
X02023Y-00804D02*
X02013D01*
X01995Y-00818D02*
X01985D01*
X0199*
Y-0079*
X01995Y-00794*
X01953Y-0079D02*
X01971D01*
Y-00804*
X01962Y-00799*
X01957*
X01953Y-00804*
Y-00813*
X01957Y-00818*
X01967*
X01971Y-00813*
X02051Y-00918D02*
Y-0089D01*
X02037*
X02032Y-00894*
Y-00904*
X02037Y-00908*
X02051*
X02004Y-0089D02*
X02023D01*
Y-00918*
X02004*
X02023Y-00904D02*
X02013D01*
X01995Y-00918D02*
X01985D01*
X0199*
Y-0089*
X01995Y-00894*
X01971D02*
X01967Y-0089D01*
X01957*
X01953Y-00894*
Y-00899*
X01957Y-00904*
X01962*
X01957*
X01953Y-00908*
Y-00913*
X01957Y-00918*
X01967*
X01971Y-00913*
X02051Y-01018D02*
Y-0099D01*
X02037*
X02032Y-00994*
Y-01004*
X02037Y-01008*
X02051*
X02004Y-0099D02*
X02023D01*
Y-01004*
X02013*
X02023*
Y-01018*
X01995D02*
X01985D01*
X0199*
Y-0099*
X01995Y-00994*
X01971D02*
X01967Y-0099D01*
X01957*
X01953Y-00994*
Y-00999*
X01957Y-01004*
X01962*
X01957*
X01953Y-01008*
Y-01013*
X01957Y-01018*
X01967*
X01971Y-01013*
X02051Y-01118D02*
Y-0109D01*
X02037*
X02032Y-01094*
Y-01104*
X02037Y-01108*
X02051*
X02004Y-0109D02*
X02023D01*
Y-01104*
X02013*
X02023*
Y-01118*
X01995D02*
X01985D01*
X0199*
Y-0109*
X01995Y-01094*
X01953Y-01118D02*
X01971D01*
X01953Y-01099*
Y-01094*
X01957Y-0109*
X01967*
X01971Y-01094*
X02051Y-00218D02*
Y-0019D01*
X02037*
X02032Y-00194*
Y-00204*
X02037Y-00208*
X02051*
X02023Y-0019D02*
Y-00218D01*
X02009*
X02004Y-00213*
Y-00194*
X02009Y-0019*
X02023*
X01995Y-00218D02*
X01985D01*
X0199*
Y-0019*
X01995Y-00194*
X01971D02*
X01967Y-0019D01*
X01957*
X01953Y-00194*
Y-00199*
X01957Y-00204*
X01962*
X01957*
X01953Y-00208*
Y-00213*
X01957Y-00218*
X01967*
X01971Y-00213*
X02051Y-00318D02*
Y-0029D01*
X02037*
X02032Y-00294*
Y-00304*
X02037Y-00308*
X02051*
X02023Y-0029D02*
Y-00318D01*
X02009*
X02004Y-00313*
Y-00294*
X02009Y-0029*
X02023*
X01995Y-00318D02*
X01985D01*
X0199*
Y-0029*
X01995Y-00294*
X01953Y-00318D02*
X01971D01*
X01953Y-00299*
Y-00294*
X01957Y-0029*
X01967*
X01971Y-00294*
X02051Y-00418D02*
Y-0039D01*
X02037*
X02032Y-00394*
Y-00404*
X02037Y-00408*
X02051*
X02023Y-0039D02*
Y-00418D01*
X02009*
X02004Y-00413*
Y-00394*
X02009Y-0039*
X02023*
X01995Y-00418D02*
X01985D01*
X0199*
Y-0039*
X01995Y-00394*
X01971Y-00418D02*
X01962D01*
X01967*
Y-0039*
X01971Y-00394*
X02051Y-00518D02*
Y-0049D01*
X02037*
X02032Y-00494*
Y-00504*
X02037Y-00508*
X02051*
X02004Y-0049D02*
X02023D01*
Y-00518*
X02004*
X02023Y-00504D02*
X02013D01*
X01995Y-00518D02*
X01985D01*
X0199*
Y-0049*
X01995Y-00494*
X01971D02*
X01967Y-0049D01*
X01957*
X01953Y-00494*
Y-00513*
X01957Y-00518*
X01967*
X01971Y-00513*
Y-00494*
X02051Y-00618D02*
Y-0059D01*
X02037*
X02032Y-00594*
Y-00604*
X02037Y-00608*
X02051*
X02004Y-0059D02*
X02023D01*
Y-00618*
X02004*
X02023Y-00604D02*
X02013D01*
X01995Y-00618D02*
X01985D01*
X0199*
Y-0059*
X01995Y-00594*
X01953Y-00618D02*
X01971D01*
X01953Y-00599*
Y-00594*
X01957Y-0059*
X01967*
X01971Y-00594*
X02051Y00282D02*
Y00309D01*
X02037*
X02032Y00305*
Y00295*
X02037Y00291*
X02051*
X02023Y00309D02*
Y00282D01*
X02009*
X02004Y00286*
Y00291*
X02009Y00295*
X02023*
X02009*
X02004Y003*
Y00305*
X02009Y00309*
X02023*
X01995Y00305D02*
X0199Y00309D01*
X01981*
X01976Y00305*
Y003*
X01981Y00295*
X01985*
X01981*
X01976Y00291*
Y00286*
X01981Y00282*
X0199*
X01995Y00286*
X02051Y00182D02*
Y00209D01*
X02037*
X02032Y00205*
Y00196*
X02037Y00191*
X02051*
X02023Y00182D02*
Y002D01*
X02013Y00209*
X02004Y002*
Y00182*
Y00196*
X02023*
X01995Y00182D02*
X01985D01*
X0199*
Y00209*
X01995Y00205*
X01971D02*
X01967Y00209D01*
X01957*
X01953Y00205*
Y00186*
X01957Y00182*
X01967*
X01971Y00186*
Y00205*
X02051Y00082D02*
Y00109D01*
X02037*
X02032Y00105*
Y00096*
X02037Y00091*
X02051*
X02023Y00082D02*
Y001D01*
X02013Y00109*
X02004Y001*
Y00082*
Y00096*
X02023*
X01976Y00082D02*
X01995D01*
X01976Y001*
Y00105*
X01981Y00109*
X0199*
X01995Y00105*
X02051Y-00018D02*
Y00009D01*
X02037*
X02032Y00005*
Y-00004*
X02037Y-00008*
X02051*
X02023Y-00018D02*
Y0D01*
X02013Y00009*
X02004Y0*
Y-00018*
Y-00004*
X02023*
X01995Y00005D02*
X0199Y00009D01*
X01981*
X01976Y00005*
Y0*
X01981Y-00004*
X01985*
X01981*
X01976Y-00008*
Y-00013*
X01981Y-00018*
X0199*
X01995Y-00013*
X02032Y-00094D02*
X02037Y-0009D01*
X02046*
X02051Y-00094*
Y-00113*
X02046Y-00118*
X02037*
X02032Y-00113*
Y-00104*
X02041*
X02023Y-00118D02*
Y-0009D01*
X02004Y-00118*
Y-0009*
X01995D02*
Y-00118D01*
X01981*
X01976Y-00113*
Y-00094*
X01981Y-0009*
X01995*
X02051Y00782D02*
Y00809D01*
X02037*
X02032Y00805*
Y00795*
X02037Y00791*
X02051*
X02023Y00782D02*
Y008D01*
X02013Y00809*
X02004Y008*
Y00782*
Y00795*
X02023*
X01995Y00786D02*
X0199Y00782D01*
X01981*
X01976Y00786*
Y00805*
X01981Y00809*
X0199*
X01995Y00805*
Y008*
X0199Y00795*
X01976*
X02051Y00682D02*
Y00709D01*
X02037*
X02032Y00705*
Y00695*
X02037Y00691*
X02051*
X02023Y00682D02*
Y007D01*
X02013Y00709*
X02004Y007*
Y00682*
Y00695*
X02023*
X01995Y00705D02*
X0199Y00709D01*
X01981*
X01976Y00705*
Y007*
X01981Y00695*
X01976Y00691*
Y00686*
X01981Y00682*
X0199*
X01995Y00686*
Y00691*
X0199Y00695*
X01995Y007*
Y00705*
X0199Y00695D02*
X01981D01*
X02051Y00582D02*
Y00609D01*
X02037*
X02032Y00605*
Y00596*
X02037Y00591*
X02051*
X02023Y00609D02*
Y00582D01*
X02009*
X02004Y00586*
Y00591*
X02009Y00596*
X02023*
X02009*
X02004Y006*
Y00605*
X02009Y00609*
X02023*
X01995Y00582D02*
X01985D01*
X0199*
Y00609*
X01995Y00605*
X01971D02*
X01967Y00609D01*
X01957*
X01953Y00605*
Y00586*
X01957Y00582*
X01967*
X01971Y00586*
Y00605*
X02051Y00482D02*
Y00509D01*
X02037*
X02032Y00505*
Y00495*
X02037Y00491*
X02051*
X02023Y00509D02*
Y00482D01*
X02009*
X02004Y00486*
Y00491*
X02009Y00495*
X02023*
X02009*
X02004Y005*
Y00505*
X02009Y00509*
X02023*
X01981Y00482D02*
Y00509D01*
X01995Y00495*
X01976*
X02051Y00382D02*
Y00409D01*
X02037*
X02032Y00405*
Y00395*
X02037Y00391*
X02051*
X02023Y00409D02*
Y00382D01*
X02009*
X02004Y00386*
Y00391*
X02009Y00395*
X02023*
X02009*
X02004Y004*
Y00405*
X02009Y00409*
X02023*
X01976D02*
X01995D01*
Y00395*
X01985Y004*
X01981*
X01976Y00395*
Y00386*
X01981Y00382*
X0199*
X01995Y00386*
X02051Y01282D02*
Y01309D01*
X02037*
X02032Y01305*
Y01295*
X02037Y01291*
X02051*
X02023Y01282D02*
Y013D01*
X02013Y01309*
X02004Y013*
Y01282*
Y01295*
X02023*
X01976Y01309D02*
X01995D01*
Y01295*
X01985Y013*
X01981*
X01976Y01295*
Y01286*
X01981Y01282*
X0199*
X01995Y01286*
X02051Y01182D02*
Y01209D01*
X02037*
X02032Y01205*
Y01195*
X02037Y01191*
X02051*
X02023Y01182D02*
Y012D01*
X02013Y01209*
X02004Y012*
Y01182*
Y01195*
X02023*
X01976Y01209D02*
X01985Y01205D01*
X01995Y01195*
Y01186*
X0199Y01182*
X01981*
X01976Y01186*
Y01191*
X01981Y01195*
X01995*
X02051Y01082D02*
Y01109D01*
X02037*
X02032Y01105*
Y01095*
X02037Y01091*
X02051*
X02023Y01082D02*
Y011D01*
X02013Y01109*
X02004Y011*
Y01082*
Y01095*
X02023*
X01995Y01109D02*
X01976D01*
Y01105*
X01995Y01086*
Y01082*
X02051Y00982D02*
Y01009D01*
X02037*
X02032Y01005*
Y00995*
X02037Y00991*
X02051*
X02023Y01009D02*
Y00982D01*
X02009*
X02004Y00986*
Y00991*
X02009Y00995*
X02023*
X02009*
X02004Y01*
Y01005*
X02009Y01009*
X02023*
X01976D02*
X01985Y01005D01*
X01995Y00995*
Y00986*
X0199Y00982*
X01981*
X01976Y00986*
Y00991*
X01981Y00995*
X01995*
X02051Y00882D02*
Y00909D01*
X02037*
X02032Y00905*
Y00896*
X02037Y00891*
X02051*
X02004Y00905D02*
X02009Y00909D01*
X02018*
X02023Y00905*
Y00886*
X02018Y00882*
X02009*
X02004Y00886*
X01995Y00909D02*
X01976D01*
Y00905*
X01995Y00886*
Y00882*
X02051Y01782D02*
Y01809D01*
X02037*
X02032Y01805*
Y01795*
X02037Y01791*
X02051*
X02004Y01805D02*
X02009Y01809D01*
X02018*
X02023Y01805*
Y01786*
X02018Y01782*
X02009*
X02004Y01786*
X01995D02*
X0199Y01782D01*
X01981*
X01976Y01786*
Y01805*
X01981Y01809*
X0199*
X01995Y01805*
Y018*
X0199Y01795*
X01976*
X02051Y01682D02*
Y01709D01*
X02037*
X02032Y01705*
Y01695*
X02037Y01691*
X02051*
X02023Y01709D02*
Y01682D01*
X02009*
X02004Y01686*
Y01691*
X02009Y01695*
X02023*
X02009*
X02004Y017*
Y01705*
X02009Y01709*
X02023*
X01995Y01705D02*
X0199Y01709D01*
X01981*
X01976Y01705*
Y017*
X01981Y01695*
X01976Y01691*
Y01686*
X01981Y01682*
X0199*
X01995Y01686*
Y01691*
X0199Y01695*
X01995Y017*
Y01705*
X0199Y01695D02*
X01981D01*
X02051Y01582D02*
Y01609D01*
X02037*
X02032Y01605*
Y01595*
X02037Y01591*
X02051*
X02023Y01609D02*
Y01582D01*
X02009*
X02004Y01586*
Y01591*
X02009Y01595*
X02023*
X02009*
X02004Y016*
Y01605*
X02009Y01609*
X02023*
X01995Y01586D02*
X0199Y01582D01*
X01981*
X01976Y01586*
Y01605*
X01981Y01609*
X0199*
X01995Y01605*
Y016*
X0199Y01595*
X01976*
X02051Y01482D02*
Y015D01*
X02041Y01509*
X02032Y015*
Y01482*
Y01496*
X02051*
X02023Y01509D02*
Y01491D01*
X02013Y01482*
X02004Y01491*
Y01509*
X01995D02*
Y01482D01*
X01981*
X01976Y01486*
Y01505*
X01981Y01509*
X01995*
X01967D02*
Y01482D01*
X01953*
X01948Y01486*
Y01505*
X01953Y01509*
X01967*
X02032Y01405D02*
X02037Y01409D01*
X02046*
X02051Y01405*
Y01386*
X02046Y01382*
X02037*
X02032Y01386*
Y01396*
X02041*
X02023Y01382D02*
Y01409D01*
X02004Y01382*
Y01409*
X01995D02*
Y01382D01*
X01981*
X01976Y01386*
Y01405*
X01981Y01409*
X01995*
X-00362Y01382D02*
X-00342Y01401D01*
X-00352Y01411*
X-00358*
X-00365Y01405*
Y01398*
X-00355Y01388*
X-00375Y01434D02*
X-00362Y01421D01*
X-00371Y01411*
X-00378Y01418*
X-00371Y01411*
X-00381Y01401*
X-00394Y01454D02*
X-00391Y01444D01*
Y01431*
X-00398Y01424*
X-00404*
X-00411Y01431*
Y01438*
X-00408Y01441*
X-00401*
X-00391Y01431*
X-00345Y01501D02*
X-00365Y01482D01*
X-00374Y01491*
Y01498*
X-00371Y01501*
X-00365*
X-00355Y01491*
X-00365Y01501*
Y01508*
X-00361Y01511*
X-00355*
X-00345Y01501*
X-00365Y01521D02*
X-00378Y01534D01*
X-00371Y01528*
X-00391Y01508*
X-00388Y01538D02*
Y01544D01*
X-00394Y01551*
X-00401*
X-00414Y01538*
Y01531*
X-00407Y01524*
X-00401*
X-00388Y01538*
X-00342Y01603D02*
X-00355Y0159D01*
X-00368*
Y01603*
X-00355Y01616*
X-00362Y01623D02*
X-00381Y01603D01*
X-00391Y01613*
Y0162*
X-00378Y01633*
X-00371*
X-00362Y01623*
X-00381Y01643D02*
X-00401Y01623D01*
X-00411Y01633*
Y0164*
X-00398Y01653*
X-00391*
X-00381Y01643*
X-00346Y01646D02*
X-00326Y01665D01*
X-00336Y01675*
X-00342*
X-00349Y01669*
Y01662*
X-00339Y01652*
X-00362Y01695D02*
X-00355D01*
X-00349Y01688*
Y01682*
X-00362Y01669*
X-00369*
X-00375Y01675*
Y01682*
X-00385Y01685D02*
X-00392Y01692D01*
X-00388Y01688*
X-00369Y01708*
Y01702*
X-00415Y01715D02*
X-00402Y01702D01*
Y01728*
X-00398Y01731*
X-00392*
X-00385Y01725*
Y01718*
X-00346Y01729D02*
X-00326Y01748D01*
X-00336Y01758*
X-00342*
X-00349Y01752*
Y01745*
X-00339Y01735*
X-00362Y01778D02*
X-00355D01*
X-00349Y01771*
Y01765*
X-00362Y01752*
X-00369*
X-00375Y01758*
Y01765*
X-00385Y01768D02*
X-00392Y01775D01*
X-00388Y01771*
X-00369Y01791*
Y01785*
X-00385Y01801D02*
Y01808D01*
X-00392Y01814*
X-00398*
X-00411Y01801*
Y01794*
X-00405Y01788*
X-00398*
X-00385Y01801*
X-00358Y00912D02*
X-00352D01*
X-00345Y00906*
Y00899*
X-00358Y00886*
X-00365*
X-00371Y00892*
Y00899*
X-00365Y00906*
X-00358Y00899*
X-00381Y00902D02*
X-00362Y00922D01*
X-00394Y00915*
X-00375Y00935*
X-00381Y00942D02*
X-00401Y00922D01*
X-00411Y00932*
Y00939*
X-00398Y00952*
X-00391*
X-00381Y00942*
X-00346Y00944D02*
X-00326Y00963D01*
X-00336Y00973*
X-00342*
X-00349Y00967*
Y0096*
X-00339Y0095*
X-00365Y00963D02*
X-00352Y00976D01*
Y0099*
X-00365*
X-00378Y00976*
X-00369Y00986*
X-00355Y00973*
X-00385Y00983D02*
X-00392Y0099D01*
X-00388Y00986*
X-00369Y01006*
Y01*
X-00395Y01033D02*
X-00382Y01019D01*
X-00392Y01009*
X-00395Y01019*
X-00398Y01023*
X-00405*
X-00411Y01016*
Y01009*
X-00405Y01003*
X-00398*
X-00346Y01042D02*
X-00326Y01061D01*
X-00336Y01071*
X-00342*
X-00349Y01065*
Y01058*
X-00339Y01048*
X-00365Y01061D02*
X-00352Y01074D01*
Y01088*
X-00365*
X-00378Y01074*
X-00369Y01084*
X-00355Y01071*
X-00385Y01081D02*
X-00392Y01088D01*
X-00388Y01084*
X-00369Y01104*
Y01098*
X-00411Y01107D02*
X-00392Y01127D01*
Y01107*
X-00405Y01121*
X-00346Y01143D02*
X-00326Y01162D01*
X-00336Y01172*
X-00342*
X-00349Y01166*
Y01159*
X-00339Y01149*
X-00365Y01162D02*
X-00352Y01175D01*
Y01189*
X-00365*
X-00378Y01175*
X-00369Y01185*
X-00355Y01172*
X-00385Y01182D02*
X-00392Y01189D01*
X-00388Y01185*
X-00369Y01205*
Y01199*
X-00385Y01215D02*
Y01222D01*
X-00392Y01228*
X-00398*
X-00402Y01225*
Y01218*
X-00398Y01215*
X-00402Y01218*
X-00408*
X-00411Y01215*
Y01208*
X-00405Y01202*
X-00398*
X-00362Y01278D02*
X-00342Y01297D01*
X-00352Y01307*
X-00358*
X-00365Y01301*
Y01294*
X-00355Y01284*
X-00375Y0133D02*
X-00362Y01317D01*
X-00371Y01307*
X-00378Y01314*
X-00371Y01307*
X-00381Y01297*
Y01337D02*
X-00394Y0135D01*
X-00398Y01347*
Y0132*
X-00401Y01317*
X-00353Y00452D02*
X-00333Y00471D01*
X-00343Y00481*
X-00349*
X-00356Y00475*
Y00468*
X-00346Y00458*
X-00369Y00501D02*
X-00362D01*
X-00356Y00494*
Y00488*
X-00369Y00475*
X-00376*
X-00382Y00481*
Y00488*
X-00392Y00491D02*
X-00399Y00498D01*
X-00395Y00494*
X-00376Y00514*
Y00508*
X-00402Y00541D02*
X-00389Y00527D01*
X-00399Y00517*
X-00402Y00527*
X-00405Y00531*
X-00412*
X-00418Y00524*
Y00517*
X-00412Y00511*
X-00405*
X-00346Y00544D02*
X-00326Y00563D01*
X-00336Y00573*
X-00342*
X-00349Y00567*
Y0056*
X-00339Y0055*
X-00362Y00593D02*
X-00355D01*
X-00349Y00586*
Y0058*
X-00362Y00567*
X-00369*
X-00375Y00573*
Y0058*
X-00385Y00583D02*
X-00392Y0059D01*
X-00388Y00586*
X-00369Y00606*
Y006*
X-00411Y00609D02*
X-00392Y00629D01*
Y00609*
X-00405Y00623*
X-00346Y00647D02*
X-00326Y00666D01*
X-00336Y00676*
X-00342*
X-00349Y0067*
Y00663*
X-00339Y00653*
X-00362Y00696D02*
X-00355D01*
X-00349Y00689*
Y00683*
X-00362Y0067*
X-00369*
X-00375Y00676*
Y00683*
X-00385Y00686D02*
X-00392Y00693D01*
X-00388Y00689*
X-00369Y00709*
Y00703*
X-00385Y00719D02*
Y00726D01*
X-00392Y00732*
X-00398*
X-00402Y00729*
Y00722*
X-00398Y00719*
X-00402Y00722*
X-00408*
X-00411Y00719*
Y00712*
X-00405Y00706*
X-00398*
X-00362Y00782D02*
X-00342Y00801D01*
X-00352Y00811*
X-00358*
X-00365Y00805*
Y00798*
X-00355Y00788*
X-00362Y00821D02*
X-00381Y00801D01*
X-00391Y00811*
Y00818*
X-00388Y00821*
X-00381*
X-00371Y00811*
X-00381Y00821*
Y00828*
X-00378Y00831*
X-00371*
X-00362Y00821*
X-00381Y00841D02*
X-00394Y00854D01*
X-00398Y00851*
Y00824*
X-00401Y00821*
X-00365Y-00118D02*
X-00345Y-00098D01*
X-00355Y-00088*
X-00361*
X-00368Y-00094*
Y-00101*
X-00358Y-00111*
X-00365Y-00078D02*
X-00384Y-00098D01*
X-00394Y-00088*
Y-00081*
X-00381Y-00068*
X-00374*
X-00365Y-00078*
X-00414Y-00068D02*
X-00394Y-00048D01*
Y-00068*
X-00407Y-00055*
X-00362Y-0004D02*
X-00342Y-0002D01*
X-00352Y-0001*
X-00358*
X-00365Y-00016*
Y-00023*
X-00355Y-00033*
X-00378Y00009D02*
X-00371D01*
X-00365Y00002*
Y-00003*
X-00378Y-00016*
X-00385*
X-00391Y-0001*
Y-00003*
X-00385Y00016D02*
Y00022D01*
X-00391Y00029*
X-00398*
X-00401Y00025*
Y00019*
X-00398Y00016*
X-00401Y00019*
X-00408*
X-00411Y00016*
Y00009*
X-00404Y00002*
X-00398*
X-00362Y00062D02*
X-00342Y00081D01*
X-00352Y00091*
X-00358*
X-00365Y00085*
Y00078*
X-00355Y00068*
X-00378Y00111D02*
X-00371D01*
X-00365Y00104*
Y00098*
X-00378Y00085*
X-00385*
X-00391Y00091*
Y00098*
X-00414Y00114D02*
X-00401Y00101D01*
Y00127*
X-00398Y00131*
X-00391*
X-00385Y00124*
Y00118*
X-00326Y00163D02*
X-00339Y0015D01*
X-00352*
Y00163*
X-00339Y00176*
X-00346Y00183D02*
X-00365Y00163D01*
X-00375Y00173*
Y0018*
X-00372Y00183*
X-00365*
X-00355Y00173*
X-00365Y00183*
Y0019*
X-00362Y00193*
X-00355*
X-00346Y00183*
X-00385D02*
X-00372Y00196D01*
Y00209*
X-00385*
X-00398Y00196*
X-00388Y00206*
X-00375Y00193*
X-00385Y00223D02*
X-00398Y00236D01*
X-00392Y00229*
X-00411Y00209*
X-00336Y00274D02*
X-00329Y00268D01*
Y00261*
X-00342Y00248*
X-00349*
X-00355Y00254*
Y00261*
X-00342Y00274*
X-00336*
X-00362Y00294D02*
X-00355D01*
X-00349Y00287*
Y00281*
X-00352Y00277*
X-00359*
X-00365Y00284*
X-00372*
X-00375Y00281*
Y00274*
X-00369Y00268*
X-00362*
X-00382Y00314D02*
X-00375D01*
X-00369Y00307*
Y00301*
X-00382Y00287*
X-00388*
X-00395Y00294*
Y00301*
Y00334D02*
X-00388Y00327D01*
Y0032*
X-00402Y00307*
X-00408*
X-00415Y00314*
Y0032*
X-00402Y00334*
X-00395*
X-00358Y-00578D02*
X-00352D01*
X-00345Y-00584*
Y-00591*
X-00358Y-00604*
X-00365*
X-00371Y-00598*
Y-00591*
X-00365Y-00584*
X-00358Y-00591*
X-00381Y-00588D02*
X-00362Y-00568D01*
X-00394Y-00575*
X-00375Y-00555*
X-00381Y-00548D02*
X-00401Y-00568D01*
X-00411Y-00558*
Y-00551*
X-00398Y-00538*
X-00391*
X-00381Y-00548*
X-00367Y-00518D02*
X-00347Y-00498D01*
X-00357Y-00488*
X-00363*
X-0037Y-00494*
Y-00501*
X-0036Y-00511*
X-0038Y-00465D02*
X-00367Y-00478D01*
X-00386Y-00498*
X-00399Y-00485*
X-00376Y-00488D02*
X-00383Y-00481D01*
X-0039Y-00461D02*
Y-00455D01*
X-00396Y-00448*
X-00403*
X-00406Y-00452*
Y-00458*
X-00403Y-00461*
X-00406Y-00458*
X-00413*
X-00416Y-00461*
Y-00468*
X-00409Y-00475*
X-00403*
X-00368Y-00419D02*
X-00348Y-00399D01*
X-00358Y-00389*
X-00364*
X-00371Y-00395*
Y-00402*
X-00361Y-00412*
X-00368Y-00379D02*
X-00387Y-00399D01*
X-00397Y-00389*
Y-00382*
X-00384Y-00369*
X-00377*
X-00368Y-00379*
X-00387Y-00359D02*
X-004Y-00346D01*
X-00404Y-00349*
Y-00376*
X-00407Y-00379*
X-00366Y-0032D02*
X-00346Y-003D01*
X-00356Y-0029*
X-00362*
X-00369Y-00296*
Y-00303*
X-00359Y-00313*
X-00366Y-0028D02*
X-00385Y-003D01*
X-00395Y-0029*
Y-00283*
X-00382Y-0027*
X-00375*
X-00366Y-0028*
X-00398Y-00247D02*
X-00395Y-00257D01*
Y-0027*
X-00402Y-00277*
X-00408*
X-00415Y-0027*
Y-00263*
X-00412Y-0026*
X-00405*
X-00395Y-0027*
X-00366Y-00217D02*
X-00346Y-00197D01*
X-00356Y-00187*
X-00362*
X-00369Y-00193*
Y-002*
X-00359Y-0021*
X-00366Y-00177D02*
X-00385Y-00197D01*
X-00395Y-00187*
Y-0018*
X-00382Y-00167*
X-00375*
X-00366Y-00177*
X-00398Y-00144D02*
X-00385Y-00157D01*
X-00395Y-00167*
X-00398Y-00157*
X-00402Y-00154*
X-00408*
X-00415Y-0016*
Y-00167*
X-00408Y-00174*
X-00402*
X-00364Y-01118D02*
X-00344Y-01098D01*
X-00354Y-01088*
X-0036*
X-00367Y-01094*
Y-01101*
X-00357Y-01111*
X-0038Y-01068D02*
X-00373D01*
X-00367Y-01075*
Y-01081*
X-0038Y-01094*
X-00387*
X-00393Y-01088*
Y-01081*
X-00387Y-01075*
X-0038Y-01081*
X-00387Y-01061D02*
Y-01055D01*
X-00393Y-01048*
X-004*
X-00413Y-01061*
Y-01068*
X-00406Y-01075*
X-004*
X-00387Y-01061*
X-00362Y-01011D02*
X-00342Y-00991D01*
X-00352Y-00981*
X-00358*
X-00365Y-00987*
Y-00994*
X-00355Y-01004*
X-00362Y-00971D02*
X-00381Y-00991D01*
X-00391Y-00981*
Y-00974*
X-00378Y-00961*
X-00371*
X-00362Y-00971*
X-00385Y-00954D02*
Y-00948D01*
X-00391Y-00941*
X-00398*
X-00411Y-00954*
Y-00961*
X-00404Y-00968*
X-00398*
X-00385Y-00954*
X-00362Y-0092D02*
X-00342Y-009D01*
X-00352Y-0089*
X-00358*
X-00365Y-00896*
Y-00903*
X-00355Y-00913*
X-00362Y-0088D02*
X-00381Y-009D01*
X-00391Y-0089*
Y-00883*
X-00378Y-0087*
X-00371*
X-00362Y-0088*
X-00401D02*
X-00408Y-00873D01*
X-00404Y-00877*
X-00385Y-00857*
Y-00863*
X-00362Y-00796D02*
X-00342Y-00776D01*
X-00352Y-00766*
X-00358*
X-00365Y-00772*
Y-00779*
X-00355Y-00789*
X-00375Y-00743D02*
X-00362Y-00756D01*
X-00371Y-00766*
X-00378Y-00759*
X-00371Y-00766*
X-00381Y-00776*
X-00385Y-00739D02*
Y-00733D01*
X-00391Y-00726*
X-00398*
X-00411Y-00739*
Y-00746*
X-00404Y-00753*
X-00398*
X-00385Y-00739*
X-00362Y-00675D02*
X-00342Y-00655D01*
X-00352Y-00645*
X-00358*
X-00365Y-00651*
Y-00658*
X-00355Y-00668*
X-00375Y-00622D02*
X-00362Y-00635D01*
X-00371Y-00645*
X-00378Y-00638*
X-00371Y-00645*
X-00381Y-00655*
X-00401Y-00635D02*
X-00408Y-00628D01*
X-00404Y-00632*
X-00385Y-00612*
Y-00618*
X-00365Y-01219D02*
X-00345Y-01199D01*
X-00355Y-01189*
X-00361*
X-00368Y-01195*
Y-01202*
X-00358Y-01212*
X-00378Y-01166D02*
X-00365Y-01179D01*
X-00384Y-01199*
X-00397Y-01186*
X-00374Y-01189D02*
X-00381Y-01182D01*
X-00404Y-01179D02*
X-00411Y-01172D01*
X-00407Y-01176*
X-00388Y-01156*
Y-01162*
X-00364Y-0132D02*
X-00344Y-013D01*
X-00354Y-0129*
X-0036*
X-00367Y-01296*
Y-01303*
X-00357Y-01313*
X-0038Y-0127D02*
X-00373D01*
X-00367Y-01277*
Y-01283*
X-0038Y-01296*
X-00387*
X-00393Y-0129*
Y-01283*
X-00387Y-01277*
X-0038Y-01283*
X-004Y-01277D02*
X-00406D01*
X-00413Y-0127*
Y-01263*
X-004Y-0125*
X-00393*
X-00387Y-01257*
Y-01263*
X-0039Y-01267*
X-00396*
X-00406Y-01257*
X-00346Y-01457D02*
X-00326Y-01437D01*
X-00336Y-01427*
X-00342*
X-00349Y-01433*
Y-0144*
X-00339Y-0145*
X-00362Y-01407D02*
X-00355D01*
X-00349Y-01414*
Y-0142*
X-00362Y-01433*
X-00369*
X-00375Y-01427*
Y-0142*
X-00369Y-01414*
X-00362Y-0142*
X-00385Y-01417D02*
X-00392Y-0141D01*
X-00388Y-01414*
X-00369Y-01394*
Y-014*
X-00415Y-01387D02*
X-00402Y-014D01*
Y-01374*
X-00398Y-01371*
X-00392*
X-00385Y-01377*
Y-01384*
X-00362Y-01516D02*
X-00342Y-01496D01*
X-00352Y-01486*
X-00358*
X-00365Y-01492*
Y-01499*
X-00355Y-01509*
X-00362Y-01476D02*
X-00381Y-01496D01*
X-00371Y-01486*
X-00385Y-01473*
X-00375Y-01463*
X-00394Y-01483*
X-00414Y-01463D02*
X-00401Y-01476D01*
Y-0145*
X-00398Y-01446*
X-00391*
X-00385Y-01453*
Y-01459*
X-00362Y-01623D02*
X-00342Y-01603D01*
X-00352Y-01593*
X-00358*
X-00365Y-01599*
Y-01606*
X-00355Y-01616*
X-00362Y-01583D02*
X-00381Y-01603D01*
X-00391Y-01593*
Y-01586*
X-00378Y-01573*
X-00371*
X-00362Y-01583*
X-00398Y-0158D02*
X-00404D01*
X-00411Y-01573*
Y-01566*
X-00398Y-01553*
X-00391*
X-00385Y-0156*
Y-01566*
X-00388Y-0157*
X-00394*
X-00404Y-0156*
X-00069Y-00617D02*
Y-00589D01*
X-00083*
X-00088Y-00593*
Y-00603*
X-00083Y-00607*
X-00069*
X-00116Y-00589D02*
X-00097D01*
Y-00617*
X-00116*
X-00097Y-00603D02*
X-00107D01*
X-00144Y-00589D02*
X-00125D01*
Y-00603*
X-00135Y-00598*
X-00139*
X-00144Y-00603*
Y-00612*
X-00139Y-00617*
X-0013*
X-00125Y-00612*
X-00088Y-01093D02*
X-00083Y-01089D01*
X-00074*
X-00069Y-01093*
Y-01112*
X-00074Y-01117*
X-00083*
X-00088Y-01112*
Y-01103*
X-00079*
X-00097Y-01117D02*
Y-01089D01*
X-00116Y-01117*
Y-01089*
X-00125D02*
Y-01117D01*
X-00139*
X-00144Y-01112*
Y-01093*
X-00139Y-01089*
X-00125*
X-00069Y-01217D02*
Y-01189D01*
X-00083*
X-00088Y-01193*
Y-01203*
X-00083Y-01207*
X-00069*
X-00116Y-01189D02*
X-00097D01*
Y-01217*
X-00116*
X-00097Y-01203D02*
X-00107D01*
X-00144Y-01189D02*
X-00135Y-01193D01*
X-00125Y-01203*
Y-01212*
X-0013Y-01217*
X-00139*
X-00144Y-01212*
Y-01207*
X-00139Y-01203*
X-00125*
X-0004Y-01317D02*
Y-01289D01*
X-00054*
X-00059Y-01293*
Y-01303*
X-00054Y-01307*
X-0004*
X-00087Y-01293D02*
X-00082Y-01289D01*
X-00073*
X-00068Y-01293*
Y-01312*
X-00073Y-01317*
X-00082*
X-00087Y-01312*
Y-01303*
X-00078*
X-00096Y-01317D02*
X-00106D01*
X-00101*
Y-01289*
X-00096Y-01293*
X-00138Y-01289D02*
X-0012D01*
Y-01303*
X-00129Y-01298*
X-00134*
X-00138Y-01303*
Y-01312*
X-00134Y-01317*
X-00124*
X-0012Y-01312*
X-0004Y-01417D02*
Y-01389D01*
X-00054*
X-00059Y-01393*
Y-01403*
X-00054Y-01407*
X-0004*
X-00087Y-01393D02*
X-00082Y-01389D01*
X-00073*
X-00068Y-01393*
Y-01412*
X-00073Y-01417*
X-00082*
X-00087Y-01412*
Y-01403*
X-00078*
X-00096Y-01417D02*
X-00106D01*
X-00101*
Y-01389*
X-00096Y-01393*
X-0012D02*
X-00124Y-01389D01*
X-00134*
X-00138Y-01393*
Y-01412*
X-00134Y-01417*
X-00124*
X-0012Y-01412*
Y-01393*
X-00094Y-01432D02*
X-00121D01*
Y-01445*
X-00117Y-0145*
X-00108*
X-00103Y-01445*
Y-01432*
X-00117Y-01478D02*
X-00121Y-01473D01*
Y-01464*
X-00117Y-01459*
X-00098*
X-00094Y-01464*
Y-01473*
X-00098Y-01478*
X-00108*
Y-01469*
X-00094Y-01487D02*
Y-01497D01*
Y-01492*
X-00121*
X-00117Y-01487*
Y-01511D02*
X-00121Y-01515D01*
Y-01525*
X-00117Y-01529*
X-00112*
X-00108Y-01525*
Y-0152*
Y-01525*
X-00103Y-01529*
X-00098*
X-00094Y-01525*
Y-01515*
X-00098Y-01511*
X-00093Y-01566D02*
X-0012D01*
Y-0158*
X-00116Y-01584*
X-00107*
X-00102Y-0158*
Y-01566*
X-00116Y-01612D02*
X-0012Y-01607D01*
Y-01598*
X-00116Y-01593*
X-00097*
X-00093Y-01598*
Y-01607*
X-00097Y-01612*
X-00107*
Y-01603*
X-00093Y-01621D02*
Y-01631D01*
Y-01626*
X-0012*
X-00116Y-01621*
X-00093Y-01645D02*
Y-01654D01*
Y-01649*
X-0012*
X-00116Y-01645*
X-00069Y-00517D02*
Y-00489D01*
X-00083*
X-00088Y-00493*
Y-00503*
X-00083Y-00507*
X-00069*
X-00116Y-00489D02*
X-00097D01*
Y-00517*
X-00116*
X-00097Y-00503D02*
X-00107D01*
X-00139Y-00517D02*
Y-00489D01*
X-00125Y-00503*
X-00144*
X-00069Y-00717D02*
Y-00689D01*
X-00083*
X-00088Y-00693*
Y-00703*
X-00083Y-00707*
X-00069*
X-00116Y-00689D02*
X-00097D01*
Y-00703*
X-00107*
X-00097*
Y-00717*
X-00144D02*
X-00125D01*
X-00144Y-00698*
Y-00693*
X-00139Y-00689*
X-0013*
X-00125Y-00693*
X-00069Y-00817D02*
Y-00789D01*
X-00083*
X-00088Y-00793*
Y-00803*
X-00083Y-00807*
X-00069*
X-00116Y-00789D02*
X-00097D01*
Y-00803*
X-00107*
X-00097*
Y-00817*
X-00125Y-00793D02*
X-0013Y-00789D01*
X-00139*
X-00144Y-00793*
Y-00798*
X-00139Y-00803*
X-00144Y-00807*
Y-00812*
X-00139Y-00817*
X-0013*
X-00125Y-00812*
Y-00807*
X-0013Y-00803*
X-00125Y-00798*
Y-00793*
X-0013Y-00803D02*
X-00139D01*
X-00069Y-00917D02*
Y-00889D01*
X-00083*
X-00088Y-00893*
Y-00903*
X-00083Y-00907*
X-00069*
X-00116Y-00889D02*
X-00097D01*
Y-00903*
X-00107*
X-00097*
Y-00917*
X-00125Y-00912D02*
X-0013Y-00917D01*
X-00139*
X-00144Y-00912*
Y-00893*
X-00139Y-00889*
X-0013*
X-00125Y-00893*
Y-00898*
X-0013Y-00903*
X-00144*
X-00081Y-01017D02*
Y-00989D01*
X-00095*
X-001Y-00993*
Y-01003*
X-00095Y-01007*
X-00081*
X-00128Y-00993D02*
X-00123Y-00989D01*
X-00114*
X-00109Y-00993*
Y-01012*
X-00114Y-01017*
X-00123*
X-00128Y-01012*
Y-01003*
X-00118*
X-00137Y-01017D02*
X-00146D01*
X-00142*
Y-00989*
X-00137Y-00993*
X-00081Y00083D02*
Y0011D01*
X-00095*
X-001Y00106*
Y00097*
X-00095Y00092*
X-00081*
X-00128Y00106D02*
X-00123Y0011D01*
X-00114*
X-00109Y00106*
Y00087*
X-00114Y00083*
X-00123*
X-00128Y00087*
X-00137Y00083D02*
X-00146D01*
X-00142*
Y0011*
X-00137Y00106*
X-00069Y-00017D02*
Y0001D01*
X-00083*
X-00088Y00006*
Y-00003*
X-00083Y-00007*
X-00069*
X-00116Y00006D02*
X-00111Y0001D01*
X-00102*
X-00097Y00006*
Y-00012*
X-00102Y-00017*
X-00111*
X-00116Y-00012*
X-00125Y00006D02*
X-0013Y0001D01*
X-00139*
X-00144Y00006*
Y-00012*
X-00139Y-00017*
X-0013*
X-00125Y-00012*
Y00006*
X-00069Y-00117D02*
Y-00089D01*
X-00083*
X-00088Y-00093*
Y-00103*
X-00083Y-00107*
X-00069*
X-00097Y-00089D02*
Y-00117D01*
X-00111*
X-00116Y-00112*
Y-00093*
X-00111Y-00089*
X-00097*
X-00125Y-00093D02*
X-0013Y-00089D01*
X-00139*
X-00144Y-00093*
Y-00098*
X-00139Y-00103*
X-00135*
X-00139*
X-00144Y-00107*
Y-00112*
X-00139Y-00117*
X-0013*
X-00125Y-00112*
X-00069Y-00217D02*
Y-00189D01*
X-00083*
X-00088Y-00193*
Y-00203*
X-00083Y-00207*
X-00069*
X-00116Y-00193D02*
X-00111Y-00189D01*
X-00102*
X-00097Y-00193*
Y-00212*
X-00102Y-00217*
X-00111*
X-00116Y-00212*
Y-00203*
X-00107*
X-00144Y-00217D02*
X-00125D01*
X-00144Y-00198*
Y-00193*
X-00139Y-00189*
X-0013*
X-00125Y-00193*
X-00069Y-00317D02*
Y-00289D01*
X-00083*
X-00088Y-00293*
Y-00303*
X-00083Y-00307*
X-00069*
X-00116Y-00293D02*
X-00111Y-00289D01*
X-00102*
X-00097Y-00293*
Y-00312*
X-00102Y-00317*
X-00111*
X-00116Y-00312*
Y-00303*
X-00107*
X-00125Y-00293D02*
X-0013Y-00289D01*
X-00139*
X-00144Y-00293*
Y-00298*
X-00139Y-00303*
X-00135*
X-00139*
X-00144Y-00307*
Y-00312*
X-00139Y-00317*
X-0013*
X-00125Y-00312*
X-00069Y-00417D02*
Y-00389D01*
X-00083*
X-00088Y-00393*
Y-00403*
X-00083Y-00407*
X-00069*
X-00116Y-00389D02*
X-00097D01*
Y-00417*
X-00116*
X-00097Y-00403D02*
X-00107D01*
X-00144Y-00417D02*
X-00125D01*
X-00144Y-00398*
Y-00393*
X-00139Y-00389*
X-0013*
X-00125Y-00393*
X-00075Y0071D02*
Y00692D01*
X-00085Y00683*
X-00094Y00692*
Y0071*
X-00103D02*
X-00113D01*
X-00108*
Y00683*
X-00103*
X-00113*
X-00127D02*
Y0071D01*
X-00145Y00683*
Y0071*
X-00069Y00483D02*
Y0051D01*
X-00083*
X-00088Y00506*
Y00497*
X-00083Y00492*
X-00069*
X-00097Y00483D02*
Y00501D01*
X-00107Y0051*
X-00116Y00501*
Y00483*
Y00497*
X-00097*
X-00125Y00506D02*
X-0013Y0051D01*
X-00139*
X-00144Y00506*
Y00487*
X-00139Y00483*
X-0013*
X-00125Y00487*
Y00506*
X-00081Y00383D02*
Y0041D01*
X-00095*
X-001Y00406*
Y00397*
X-00095Y00392*
X-00081*
X-00109Y00383D02*
Y00401D01*
X-00118Y0041*
X-00128Y00401*
Y00383*
Y00397*
X-00109*
X-00137Y00383D02*
X-00146D01*
X-00142*
Y0041*
X-00137Y00406*
X-00069Y00283D02*
Y0031D01*
X-00083*
X-00088Y00306*
Y00297*
X-00083Y00292*
X-00069*
X-00097Y00283D02*
Y00301D01*
X-00107Y0031*
X-00116Y00301*
Y00283*
Y00297*
X-00097*
X-00139Y00283D02*
Y0031D01*
X-00125Y00297*
X-00144*
X-00069Y00183D02*
Y0021D01*
X-00083*
X-00088Y00206*
Y00197*
X-00083Y00192*
X-00069*
X-00097Y0021D02*
Y00183D01*
X-00111*
X-00116Y00187*
Y00192*
X-00111Y00197*
X-00097*
X-00111*
X-00116Y00201*
Y00206*
X-00111Y0021*
X-00097*
X-00125Y00206D02*
X-0013Y0021D01*
X-00139*
X-00144Y00206*
Y00187*
X-00139Y00183*
X-0013*
X-00125Y00187*
Y00206*
X-00088Y00806D02*
X-00083Y0081D01*
X-00074*
X-00069Y00806*
Y00787*
X-00074Y00783*
X-00083*
X-00088Y00787*
Y00796*
X-00079*
X-00097Y00783D02*
Y0081D01*
X-00116Y00783*
Y0081*
X-00125D02*
Y00783D01*
X-00139*
X-00144Y00787*
Y00806*
X-00139Y0081*
X-00125*
X-00088Y00906D02*
X-00083Y0091D01*
X-00074*
X-00069Y00906*
Y00887*
X-00074Y00883*
X-00083*
X-00088Y00887*
Y00897*
X-00079*
X-00097Y00883D02*
Y0091D01*
X-00116Y00883*
Y0091*
X-00125D02*
Y00883D01*
X-00139*
X-00144Y00887*
Y00906*
X-00139Y0091*
X-00125*
X-00069Y00996D02*
X-00088D01*
X-00079Y01006D02*
Y00987D01*
X-00116Y0101D02*
X-00097D01*
Y00996*
X-00107Y01001*
X-00111*
X-00116Y00996*
Y00987*
X-00111Y00983*
X-00102*
X-00097Y00987*
X-00125Y0101D02*
Y00992D01*
X-00135Y00983*
X-00144Y00992*
Y0101*
X-00069Y01106D02*
X-00074Y0111D01*
X-00083*
X-00088Y01106*
Y01101*
X-00083Y01096*
X-00079*
X-00083*
X-00088Y01092*
Y01087*
X-00083Y01083*
X-00074*
X-00069Y01087*
X-00097Y0111D02*
Y01092D01*
X-00107Y01083*
X-00116Y01092*
Y0111*
X-00125Y01106D02*
X-0013Y0111D01*
X-00139*
X-00144Y01106*
Y01101*
X-00139Y01096*
X-00135*
X-00139*
X-00144Y01092*
Y01087*
X-00139Y01083*
X-0013*
X-00125Y01087*
X-00046Y01186D02*
Y01213D01*
X-00064Y01186*
Y01213*
X-00073Y01186D02*
Y01213D01*
X-00087*
X-00092Y01209*
Y012*
X-00087Y01195*
X-00073*
X-00083D02*
X-00092Y01186D01*
X-0012Y01209D02*
X-00115Y01213D01*
X-00106*
X-00101Y01209*
Y01204*
X-00106Y012*
X-00115*
X-0012Y01195*
Y0119*
X-00115Y01186*
X-00106*
X-00101Y0119*
X-00129Y01213D02*
X-00148D01*
X-00139*
Y01186*
X-00044Y01297D02*
X-00062D01*
X-00053Y01306D02*
Y01287D01*
X-00071Y01306D02*
X-00076Y0131D01*
X-00085*
X-0009Y01306*
Y01301*
X-00085Y01297*
X-00081*
X-00085*
X-0009Y01292*
Y01287*
X-00085Y01283*
X-00076*
X-00071Y01287*
X-00099Y0131D02*
Y01292D01*
X-00109Y01283*
X-00118Y01292*
Y0131*
X-00127Y01306D02*
X-00132Y0131D01*
X-00141*
X-00146Y01306*
Y01301*
X-00141Y01297*
X-00137*
X-00141*
X-00146Y01292*
Y01287*
X-00141Y01283*
X-00132*
X-00127Y01287*
X-00088Y01506D02*
X-00083Y0151D01*
X-00074*
X-00069Y01506*
Y01487*
X-00074Y01483*
X-00083*
X-00088Y01487*
Y01496*
X-00079*
X-00097Y01483D02*
Y0151D01*
X-00116Y01483*
Y0151*
X-00125D02*
Y01483D01*
X-00139*
X-00144Y01487*
Y01506*
X-00139Y0151*
X-00125*
X-00088Y0161D02*
X-00069D01*
Y01583*
X-00088*
X-00069Y01596D02*
X-00079D01*
X-00116Y0161D02*
X-00097D01*
Y01596*
X-00107Y01601*
X-00111*
X-00116Y01596*
Y01587*
X-00111Y01583*
X-00102*
X-00097Y01587*
X-00125Y0161D02*
Y01592D01*
X-00135Y01583*
X-00144Y01592*
Y0161*
X-00069Y01683D02*
Y0171D01*
X-00083*
X-00088Y01706*
Y01697*
X-00083Y01692*
X-00069*
X-00097Y0171D02*
Y01683D01*
X-00111*
X-00116Y01687*
Y01706*
X-00111Y0171*
X-00097*
X-00144Y01683D02*
X-00125D01*
X-00144Y01701*
Y01706*
X-00139Y0171*
X-0013*
X-00125Y01706*
X-00052Y01783D02*
Y0181D01*
X-00066*
X-00071Y01806*
Y01797*
X-00066Y01792*
X-00052*
X-00099Y01806D02*
X-00094Y0181D01*
X-00085*
X-0008Y01806*
Y01787*
X-00085Y01783*
X-00094*
X-00099Y01787*
X-00108Y01783D02*
X-00117D01*
X-00113*
Y0181*
X-00108Y01806*
X-00131Y01783D02*
X-00141D01*
X-00136*
Y0181*
X-00131Y01806*
X02319Y0131D02*
X02299Y01329D01*
X02289Y01319*
Y01313*
X02295Y01306*
X02302*
X02312Y01316*
X02299Y0129D02*
X02286Y01303D01*
X02272*
Y0129*
X02286Y01277*
X02276Y01286*
X02289Y013*
X02279Y0127D02*
X02272Y01263D01*
X02276Y01267*
X02256Y01286*
X02262*
X02249Y0124D02*
X02262Y01253D01*
X02236*
X02233Y01257*
Y01263*
X02239Y0127*
X02246*
X-00104Y01383D02*
Y0141D01*
X-00123Y01383*
Y0141*
X-00151Y01406D02*
X-00146Y0141D01*
X-00137*
X-00132Y01406*
Y01387*
X-00137Y01383*
X-00146*
X-00151Y01387*
G54D156*
X01312Y-01175D02*
Y-01235D01*
Y-01175D02*
X01289Y-01235D01*
X01267Y-01175D02*
X01289Y-01235D01*
X01267Y-01175D02*
Y-01235D01*
X0125Y-01175D02*
Y-01235D01*
Y-01175D02*
X01224D01*
X01216Y-01178*
X01213Y-01181*
X0121Y-01187*
Y-01192*
X01213Y-01198*
X01216Y-01201*
X01224Y-01204*
X0125D02*
X01224D01*
X01216Y-01206*
X01213Y-01209*
X0121Y-01215*
Y-01223*
X01213Y-01229*
X01216Y-01232*
X01224Y-01235*
X0125*
X01197Y-01187D02*
X01191Y-01184D01*
X01183Y-01175*
Y-01235*
X01154Y-01187D02*
X01148Y-01184D01*
X0114Y-01175*
Y-01235*
X01105Y-01175D02*
X01074D01*
X01091Y-01198*
X01082*
X01077Y-01201*
X01074Y-01204*
X01071Y-01212*
Y-01218*
X01074Y-01226*
X0108Y-01232*
X01088Y-01235*
X01096*
X01105Y-01232*
X01108Y-01229*
X0111Y-01223*
X01019Y-01175D02*
X01047Y-01235D01*
X01058Y-01175D02*
X01019D01*
X00959D02*
Y-01235D01*
Y-01175D02*
X00934D01*
X00925Y-01178*
X00922Y-01181*
X0092Y-01187*
Y-01192*
X00922Y-01198*
X00925Y-01201*
X00934Y-01204*
X00959*
X00939D02*
X0092Y-01235D01*
X00906Y-01212D02*
X00873D01*
Y-01206*
X00875Y-01201*
X00878Y-01198*
X00884Y-01195*
X00892*
X00898Y-01198*
X00904Y-01204*
X00906Y-01212*
Y-01218*
X00904Y-01226*
X00898Y-01232*
X00892Y-01235*
X00884*
X00878Y-01232*
X00873Y-01226*
X0086Y-01195D02*
X00843Y-01235D01*
X00826Y-01195D02*
X00843Y-01235D01*
X0077Y-01175D02*
Y-01235D01*
Y-01175D02*
X00745D01*
X00737Y-01178*
X00734Y-01181*
X00731Y-01187*
Y-01192*
X00734Y-01198*
X00737Y-01201*
X00745Y-01204*
X0077D02*
X00745D01*
X00737Y-01206*
X00734Y-01209*
X00731Y-01215*
Y-01223*
X00734Y-01229*
X00737Y-01232*
X00745Y-01235*
X0077*
M02*