%FSTAX23Y23*%
%MOIN*%
%SFA1B1*%

%IPPOS*%
%ADD12R,0.035430X0.039370*%
%ADD13R,0.039370X0.035430*%
%ADD16R,0.032000X0.040000*%
%ADD17R,0.040000X0.032000*%
%ADD43R,0.050000X0.060000*%
%ADD44R,0.060000X0.050000*%
%ADD55C,0.005000*%
%ADD70C,0.003940*%
%ADD71C,0.001970*%
%LNmb1137-1*%
%LPD*%
G36*
X00763Y00137D02*
X00783Y00117D01*
X00753*
Y00137*
Y00157*
X00783*
X00763Y00137*
G37*
G36*
X00803Y00117D02*
X00793D01*
X00773Y00137*
X00793Y00157*
X00803*
Y00117*
G37*
G36*
X01701Y00121D02*
Y00111D01*
X01661*
Y00121*
X01681Y00141*
X01701Y00121*
G37*
G36*
X01082Y00032D02*
X01062Y00052D01*
X01042Y00032*
Y00062*
X01082*
Y00032*
G37*
G36*
X01642Y00121D02*
Y00111D01*
X01602*
Y00121*
X01622Y00141*
X01642Y00121*
G37*
G36*
X01701Y00131D02*
X01681Y00151D01*
X01661Y00131*
Y00161*
X01701*
Y00131*
G37*
G36*
X00385Y00192D02*
X00405Y00172D01*
X00375*
Y00192*
Y00212*
X00405*
X00385Y00192*
G37*
G36*
X01642Y00131D02*
X01622Y00151D01*
X01602Y00131*
Y00161*
X01642*
Y00131*
G37*
G36*
X00951Y00138D02*
X00931Y00118D01*
X00921*
Y00158*
X00931*
X00951Y00138*
G37*
G36*
X00971D02*
Y00118D01*
X00941*
X00961Y00138*
X00941Y00158*
X00971*
Y00138*
G37*
G36*
X012Y00032D02*
X0118Y00052D01*
X0116Y00032*
Y00062*
X012*
Y00032*
G37*
G36*
X0147Y00009D02*
X0143D01*
Y00039*
X0145Y00019*
X0147Y00039*
Y00009*
G37*
G36*
X01529D02*
X01489D01*
Y00039*
X01509Y00019*
X01529Y00039*
Y00009*
G37*
G36*
X01082Y00022D02*
Y00012D01*
X01042*
Y00022*
X01062Y00042*
X01082Y00022*
G37*
G36*
X01141Y00022D02*
Y00012D01*
X01101*
Y00022*
X01121Y00042*
X01141Y00022*
G37*
G36*
X012D02*
Y00012D01*
X0116*
Y00022*
X0118Y00042*
X012Y00022*
G37*
G36*
X01023Y00049D02*
X01003Y00029D01*
X00983Y00049*
Y00059*
X01023*
Y00049*
G37*
G36*
X01141Y00032D02*
X01121Y00052D01*
X01101Y00032*
Y00062*
X01141*
Y00032*
G37*
G36*
X01529Y00049D02*
X01509Y00029D01*
X01489Y00049*
Y00059*
X01529*
Y00049*
G37*
G36*
X01023Y00009D02*
X00983D01*
Y00039*
X01003Y00019*
X01023Y00039*
Y00009*
G37*
G36*
X0147Y00049D02*
X0145Y00029D01*
X0143Y00049*
Y00059*
X0147*
Y00049*
G37*
G36*
X00425Y00172D02*
X00415D01*
X00395Y00192*
X00415Y00212*
X00425*
Y00172*
G37*
G36*
X00854Y00318D02*
X00834Y00298D01*
X00814Y00318*
Y00328*
X00854*
Y00318*
G37*
G36*
X00913D02*
X00893Y00298D01*
X00873Y00318*
Y00328*
X00913*
Y00318*
G37*
G36*
X01657Y00294D02*
X01647D01*
X01627Y00314*
X01647Y00334*
X01657*
Y00294*
G37*
G36*
X00428Y00309D02*
Y00289D01*
X00398*
X00418Y00309*
X00398Y00329*
X00428*
Y00309*
G37*
G36*
X01617Y00314D02*
X01637Y00294D01*
X01607*
Y00314*
Y00334*
X01637*
X01617Y00314*
G37*
G36*
X00795Y00301D02*
X00775Y00321D01*
X00755Y00301*
Y00331*
X00795*
Y00301*
G37*
G36*
X01178Y00354D02*
X01158Y00334D01*
X01148*
Y00374*
X01158*
X01178Y00354*
G37*
G36*
X01033Y00301D02*
X01013Y00321D01*
X00993Y00301*
Y00331*
X01033*
Y00301*
G37*
G36*
X01092Y00318D02*
X01072Y00298D01*
X01052Y00318*
Y00328*
X01092*
Y00318*
G37*
G36*
X00736Y00301D02*
X00716Y00321D01*
X00696Y00301*
Y00331*
X00736*
Y00301*
G37*
G36*
X00408Y00309D02*
X00388Y00289D01*
X00378*
Y00329*
X00388*
X00408Y00309*
G37*
G36*
X01195Y00256D02*
X01185D01*
X01165Y00276*
X01185Y00296*
X01195*
Y00256*
G37*
G36*
X00736Y00291D02*
Y00281D01*
X00696*
Y00291*
X00716Y00311*
X00736Y00291*
G37*
G36*
X01155Y00276D02*
X01175Y00256D01*
X01145*
Y00276*
Y00296*
X01175*
X01155Y00276*
G37*
G36*
X00385Y00251D02*
X00405Y00231D01*
X00375*
Y00251*
Y00271*
X00405*
X00385Y00251*
G37*
G36*
X00425Y00231D02*
X00415D01*
X00395Y00251*
X00415Y00271*
X00425*
Y00231*
G37*
G36*
X00913Y00278D02*
X00873D01*
Y00308*
X00893Y00288*
X00913Y00308*
Y00278*
G37*
G36*
X01092D02*
X01052D01*
Y00308*
X01072Y00288*
X01092Y00308*
Y00278*
G37*
G36*
X00854D02*
X00814D01*
Y00308*
X00834Y00288*
X00854Y00308*
Y00278*
G37*
G36*
X01033Y00291D02*
Y00281D01*
X00993*
Y00291*
X01013Y00311*
X01033Y00291*
G37*
G36*
X00795Y00291D02*
Y00281D01*
X00755*
Y00291*
X00775Y00311*
X00795Y00291*
G37*
G36*
X017Y-00082D02*
X0168Y-00062D01*
X0166Y-00082*
Y-00052*
X017*
Y-00082*
G37*
G36*
X01535Y-00672D02*
X01515Y-00692D01*
X01505*
Y-00652*
X01515*
X01535Y-00672*
G37*
G36*
X01555D02*
Y-00692D01*
X01525*
X01545Y-00672*
X01525Y-00652*
X01555*
Y-00672*
G37*
G36*
X01673Y-00755D02*
Y-00775D01*
X01643*
X01663Y-00755*
X01643Y-00735*
X01673*
Y-00755*
G37*
G36*
X00018Y-015D02*
Y-0152D01*
X-00011*
X00008Y-015*
X-00011Y-0148*
X00018*
Y-015*
G37*
G36*
X01653Y-00755D02*
X01633Y-00775D01*
X01623*
Y-00735*
X01633*
X01653Y-00755*
G37*
G36*
X00791Y-00642D02*
Y-00662D01*
X00761*
X00781Y-00642*
X00761Y-00622*
X00791*
Y-00642*
G37*
G36*
X01653Y-00613D02*
X01633Y-00633D01*
X01623*
Y-00593*
X01633*
X01653Y-00613*
G37*
G36*
X00771Y-00642D02*
X00751Y-00662D01*
X00741*
Y-00622*
X00751*
X00771Y-00642*
G37*
G36*
X01653Y-00672D02*
X01633Y-00692D01*
X01623*
Y-00652*
X01633*
X01653Y-00672*
G37*
G36*
X01673D02*
Y-00692D01*
X01643*
X01663Y-00672*
X01643Y-00652*
X01673*
Y-00672*
G37*
G36*
X-00001Y-015D02*
X-00021Y-0152D01*
X-00031*
Y-0148*
X-00021*
X-00001Y-015*
G37*
G36*
X00256Y-01779D02*
X00216D01*
Y-01749*
X00236Y-01769*
X00256Y-01749*
Y-01779*
G37*
G36*
X00658Y-01739D02*
X00638Y-01759D01*
X00618Y-01739*
Y-01729*
X00658*
Y-01739*
G37*
G36*
X00171Y-01779D02*
X00131D01*
Y-01749*
X00151Y-01769*
X00171Y-01749*
Y-01779*
G37*
G36*
X00599Y-01766D02*
Y-01776D01*
X00559*
Y-01766*
X00579Y-01746*
X00599Y-01766*
G37*
G36*
X00658Y-01779D02*
X00618D01*
Y-01749*
X00638Y-01769*
X00658Y-01749*
Y-01779*
G37*
G36*
X-00001Y-016D02*
X-00021Y-0162D01*
X-00031*
Y-0158*
X-00021*
X-00001Y-016*
G37*
G36*
X00018D02*
Y-0162D01*
X-00011*
X00008Y-016*
X-00011Y-0158*
X00018*
Y-016*
G37*
G36*
X00599Y-01756D02*
X00579Y-01736D01*
X00559Y-01756*
Y-01726*
X00599*
Y-01756*
G37*
G36*
X00171Y-01739D02*
X00151Y-01759D01*
X00131Y-01739*
Y-01729*
X00171*
Y-01739*
G37*
G36*
X00256D02*
X00236Y-01759D01*
X00216Y-01739*
Y-01729*
X00256*
Y-01739*
G37*
G36*
X01673Y-00613D02*
Y-00633D01*
X01643*
X01663Y-00613*
X01643Y-00593*
X01673*
Y-00613*
G37*
G36*
X00265Y-0032D02*
X00255D01*
X00235Y-003*
X00255Y-0028*
X00265*
Y-0032*
G37*
G36*
X01701Y-00319D02*
X01681Y-00299D01*
X01661Y-00319*
Y-00289*
X01701*
Y-00319*
G37*
G36*
X00225Y-003D02*
X00245Y-0032D01*
X00215*
Y-003*
Y-0028*
X00245*
X00225Y-003*
G37*
G36*
X01642Y-00341D02*
X01602D01*
Y-00311*
X01622Y-00331*
X01642Y-00311*
Y-00341*
G37*
G36*
Y-00301D02*
X01622Y-00321D01*
X01602Y-00301*
Y-00291*
X01642*
Y-00301*
G37*
G36*
X01701Y-00201D02*
X01681Y-00181D01*
X01661Y-00201*
Y-00171*
X01701*
Y-00201*
G37*
G36*
X017Y-00092D02*
Y-00102D01*
X0166*
Y-00092*
X0168Y-00072*
X017Y-00092*
G37*
G36*
X01641Y-00183D02*
X01621Y-00203D01*
X01601Y-00183*
Y-00173*
X01641*
Y-00183*
G37*
G36*
X01701Y-00211D02*
Y-00221D01*
X01661*
Y-00211*
X01681Y-00191*
X01701Y-00211*
G37*
G36*
X01641Y-00223D02*
X01601D01*
Y-00193*
X01621Y-00213*
X01641Y-00193*
Y-00223*
G37*
G36*
X01701Y-00329D02*
Y-00339D01*
X01661*
Y-00329*
X01681Y-00309*
X01701Y-00329*
G37*
G36*
X00265Y-0052D02*
X00255D01*
X00235Y-005*
X00255Y-0048*
X00265*
Y-0052*
G37*
G36*
X01701Y-00446D02*
Y-00456D01*
X01661*
Y-00446*
X01681Y-00426*
X01701Y-00446*
G37*
G36*
X00225Y-005D02*
X00245Y-0052D01*
X00215*
Y-005*
Y-0048*
X00245*
X00225Y-005*
G37*
G36*
X00226Y-006D02*
X00246Y-0062D01*
X00216*
Y-006*
Y-0058*
X00246*
X00226Y-006*
G37*
G36*
X00266Y-0062D02*
X00256D01*
X00236Y-006*
X00256Y-0058*
X00266*
Y-0062*
G37*
G36*
X00248Y-004D02*
X00228Y-0042D01*
X00218*
Y-0038*
X00228*
X00248Y-004*
G37*
G36*
X00268D02*
Y-0042D01*
X00238*
X00258Y-004*
X00238Y-0038*
X00268*
Y-004*
G37*
G36*
X01701Y-00436D02*
X01681Y-00416D01*
X01661Y-00436*
Y-00406*
X01701*
Y-00436*
G37*
G36*
X01642Y-00459D02*
X01602D01*
Y-00429*
X01622Y-00449*
X01642Y-00429*
Y-00459*
G37*
G36*
Y-00419D02*
X01622Y-00439D01*
X01602Y-00419*
Y-00409*
X01642*
Y-00419*
G37*
G36*
X00827Y0141D02*
Y0139D01*
X00797*
X00817Y0141*
X00797Y0143*
X00827*
Y0141*
G37*
G36*
X-00017Y01518D02*
X00002Y01498D01*
X-00027*
Y01518*
Y01538*
X00002*
X-00017Y01518*
G37*
G36*
X00807Y0141D02*
X00787Y0139D01*
X00777*
Y0143*
X00787*
X00807Y0141*
G37*
G36*
X01338Y01362D02*
X01318Y01382D01*
X01298Y01362*
Y01392*
X01338*
Y01362*
G37*
G36*
X01542D02*
X01522Y01382D01*
X01502Y01362*
Y01392*
X01542*
Y01362*
G37*
G36*
X01221Y02236D02*
X01241Y02216D01*
X01211*
Y02236*
Y02256*
X01241*
X01221Y02236*
G37*
G36*
X01261Y02216D02*
X01251D01*
X01231Y02236*
X01251Y02256*
X01261*
Y02216*
G37*
G36*
X00022Y01557D02*
X00012D01*
X-00007Y01577*
X00012Y01597*
X00022*
Y01557*
G37*
G36*
Y01498D02*
X00012D01*
X-00007Y01518*
X00012Y01538*
X00022*
Y01498*
G37*
G36*
X-00017Y01577D02*
X00002Y01557D01*
X-00027*
Y01577*
Y01597*
X00002*
X-00017Y01577*
G37*
G36*
X01632Y01381D02*
X01612Y01361D01*
X01592Y01381*
Y01391*
X01632*
Y01381*
G37*
G36*
X00807Y01351D02*
X00787Y01331D01*
X00777*
Y01371*
X00787*
X00807Y01351*
G37*
G36*
X00827D02*
Y01331D01*
X00797*
X00817Y01351*
X00797Y01371*
X00827*
Y01351*
G37*
G36*
X0059Y0116D02*
X0057Y0118D01*
X0055Y0116*
Y0119*
X0059*
Y0116*
G37*
G36*
X00767Y01177D02*
X00747Y01157D01*
X00727Y01177*
Y01187*
X00767*
Y01177*
G37*
G36*
X00531Y0116D02*
X00511Y0118D01*
X00491Y0116*
Y0119*
X00531*
Y0116*
G37*
G36*
X01542Y01352D02*
Y01342D01*
X01502*
Y01352*
X01522Y01372*
X01542Y01352*
G37*
G36*
X01632Y01341D02*
X01592D01*
Y01371*
X01612Y01351*
X01632Y01371*
Y01341*
G37*
G36*
X01338Y01352D02*
Y01342D01*
X01298*
Y01352*
X01318Y01372*
X01338Y01352*
G37*
G36*
X00408Y01362D02*
X00388Y01342D01*
X00378*
Y01382*
X00388*
X00408Y01362*
G37*
G36*
X00428D02*
Y01342D01*
X00398*
X00418Y01362*
X00398Y01382*
X00428*
Y01362*
G37*
G36*
X0098Y02252D02*
X0096Y02232D01*
X0095*
Y02272*
X0096*
X0098Y02252*
G37*
G36*
X00202Y028D02*
Y0278D01*
X00172*
X00192Y028*
X00172Y0282*
X00202*
Y028*
G37*
G36*
X0043D02*
X0041Y0278D01*
X004*
Y0282*
X0041*
X0043Y028*
G37*
G36*
X00182D02*
X00162Y0278D01*
X00152*
Y0282*
X00162*
X00182Y028*
G37*
G36*
X00863Y02689D02*
X00823D01*
Y02719*
X00843Y02699*
X00863Y02719*
Y02689*
G37*
G36*
Y02729D02*
X00843Y02709D01*
X00823Y02729*
Y02739*
X00863*
Y02729*
G37*
G36*
X0043Y029D02*
X0041Y0288D01*
X004*
Y0292*
X0041*
X0043Y029*
G37*
G36*
X0045D02*
Y0288D01*
X0042*
X0044Y029*
X0042Y0292*
X0045*
Y029*
G37*
G36*
X00202D02*
Y0288D01*
X00172*
X00192Y029*
X00172Y0292*
X00202*
Y029*
G37*
G36*
X0045Y028D02*
Y0278D01*
X0042*
X0044Y028*
X0042Y0282*
X0045*
Y028*
G37*
G36*
X00182Y029D02*
X00162Y0288D01*
X00152*
Y0292*
X00162*
X00182Y029*
G37*
G36*
X0045Y027D02*
Y0268D01*
X0042*
X0044Y027*
X0042Y0272*
X0045*
Y027*
G37*
G36*
X00182Y026D02*
X00162Y0258D01*
X00152*
Y0262*
X00162*
X00182Y026*
G37*
G36*
X00202D02*
Y0258D01*
X00172*
X00192Y026*
X00172Y0262*
X00202*
Y026*
G37*
G36*
X01264Y0246D02*
Y0244D01*
X01234*
X01254Y0246*
X01234Y0248*
X01264*
Y0246*
G37*
G36*
X01Y02252D02*
Y02232D01*
X0097*
X0099Y02252*
X0097Y02272*
X01*
Y02252*
G37*
G36*
X01244Y0246D02*
X01224Y0244D01*
X01214*
Y0248*
X01224*
X01244Y0246*
G37*
G36*
X00202Y027D02*
Y0268D01*
X00172*
X00192Y027*
X00172Y0272*
X00202*
Y027*
G37*
G36*
X0043D02*
X0041Y0268D01*
X004*
Y0272*
X0041*
X0043Y027*
G37*
G36*
X00182D02*
X00162Y0268D01*
X00152*
Y0272*
X00162*
X00182Y027*
G37*
G36*
X0043Y026D02*
X0041Y0258D01*
X004*
Y0262*
X0041*
X0043Y026*
G37*
G36*
X0045D02*
Y0258D01*
X0042*
X0044Y026*
X0042Y0262*
X0045*
Y026*
G37*
G36*
X00708Y01177D02*
X00688Y01157D01*
X00668Y01177*
Y01187*
X00708*
Y01177*
G37*
G36*
X01198Y00473D02*
Y00453D01*
X01168*
X01188Y00473*
X01168Y00493*
X01198*
Y00473*
G37*
G36*
X00408Y00486D02*
X00388Y00466D01*
X00378*
Y00506*
X00388*
X00408Y00486*
G37*
G36*
X01178Y00473D02*
X01158Y00453D01*
X01148*
Y00493*
X01158*
X01178Y00473*
G37*
G36*
X01617Y00432D02*
X01637Y00412D01*
X01607*
Y00432*
Y00452*
X01637*
X01617Y00432*
G37*
G36*
X01657Y00412D02*
X01647D01*
X01627Y00432*
X01647Y00452*
X01657*
Y00412*
G37*
G36*
X005Y0061D02*
X0048Y0059D01*
X0046Y0061*
Y0062*
X005*
Y0061*
G37*
G36*
X00559D02*
X00539Y0059D01*
X00519Y0061*
Y0062*
X00559*
Y0061*
G37*
G36*
Y0057D02*
X00519D01*
Y006*
X00539Y0058*
X00559Y006*
Y0057*
G37*
G36*
X00428Y00486D02*
Y00466D01*
X00398*
X00418Y00486*
X00398Y00506*
X00428*
Y00486*
G37*
G36*
X005Y0057D02*
X0046D01*
Y006*
X0048Y0058*
X005Y006*
Y0057*
G37*
G36*
X01516Y00432D02*
Y00412D01*
X01486*
X01506Y00432*
X01486Y00452*
X01516*
Y00432*
G37*
G36*
X01496Y00373D02*
X01476Y00353D01*
X01466*
Y00393*
X01476*
X01496Y00373*
G37*
G36*
X01516D02*
Y00353D01*
X01486*
X01506Y00373*
X01486Y00393*
X01516*
Y00373*
G37*
G36*
X00428Y00368D02*
Y00348D01*
X00398*
X00418Y00368*
X00398Y00388*
X00428*
Y00368*
G37*
G36*
X01198Y00354D02*
Y00334D01*
X01168*
X01188Y00354*
X01168Y00374*
X01198*
Y00354*
G37*
G36*
X00408Y00368D02*
X00388Y00348D01*
X00378*
Y00388*
X00388*
X00408Y00368*
G37*
G36*
X00426Y00407D02*
X00416D01*
X00396Y00427*
X00416Y00447*
X00426*
Y00407*
G37*
G36*
X01496Y00432D02*
X01476Y00412D01*
X01466*
Y00452*
X01476*
X01496Y00432*
G37*
G36*
X00386Y00427D02*
X00406Y00407D01*
X00376*
Y00427*
Y00447*
X00406*
X00386Y00427*
G37*
G36*
X01178Y00414D02*
X01158Y00394D01*
X01148*
Y00434*
X01158*
X01178Y00414*
G37*
G36*
X01198D02*
Y00394D01*
X01168*
X01188Y00414*
X01168Y00434*
X01198*
Y00414*
G37*
G36*
X00455Y00793D02*
Y00783D01*
X00415*
Y00793*
X00435Y00813*
X00455Y00793*
G37*
G36*
X0059Y0115D02*
Y0114D01*
X0055*
Y0115*
X0057Y0117*
X0059Y0115*
G37*
G36*
X00826Y01137D02*
X00786D01*
Y01167*
X00806Y01147*
X00826Y01167*
Y01137*
G37*
G36*
X00531Y0115D02*
Y0114D01*
X00491*
Y0115*
X00511Y0117*
X00531Y0115*
G37*
G36*
X01542Y01157D02*
X01522Y01137D01*
X01502Y01157*
Y01167*
X01542*
Y01157*
G37*
G36*
X01632D02*
X01612Y01137D01*
X01592Y01157*
Y01167*
X01632*
Y01157*
G37*
G36*
X00826Y01177D02*
X00806Y01157D01*
X00786Y01177*
Y01187*
X00826*
Y01177*
G37*
G36*
X00648D02*
X00628Y01157D01*
X00608Y01177*
Y01187*
X00648*
Y01177*
G37*
G36*
X00767Y01137D02*
X00727D01*
Y01167*
X00747Y01147*
X00767Y01167*
Y01137*
G37*
G36*
X00648D02*
X00608D01*
Y01167*
X00628Y01147*
X00648Y01167*
Y01137*
G37*
G36*
X00708D02*
X00668D01*
Y01167*
X00688Y01147*
X00708Y01167*
Y01137*
G37*
G36*
X01632Y01117D02*
X01592D01*
Y01147*
X01612Y01127*
X01632Y01147*
Y01117*
G37*
G36*
X01508Y00853D02*
X01488Y00833D01*
X01478*
Y00873*
X01488*
X01508Y00853*
G37*
G36*
X01528D02*
Y00833D01*
X01498*
X01518Y00853*
X01498Y00873*
X01528*
Y00853*
G37*
G36*
X00559Y00803D02*
X00539Y00823D01*
X00519Y00803*
Y00833*
X00559*
Y00803*
G37*
G36*
Y00793D02*
Y00783D01*
X00519*
Y00793*
X00539Y00813*
X00559Y00793*
G37*
G36*
X00455Y00803D02*
X00435Y00823D01*
X00415Y00803*
Y00833*
X00455*
Y00803*
G37*
G36*
X00748Y00888D02*
X00728Y00908D01*
X00708Y00888*
Y00918*
X00748*
Y00888*
G37*
G36*
X01542Y01117D02*
X01502D01*
Y01147*
X01522Y01127*
X01542Y01147*
Y01117*
G37*
G36*
X00688Y00888D02*
X00668Y00908D01*
X00648Y00888*
Y00918*
X00688*
Y00888*
G37*
G36*
Y00878D02*
Y00868D01*
X00648*
Y00878*
X00668Y00898*
X00688Y00878*
G37*
G36*
X00748D02*
Y00868D01*
X00708*
Y00878*
X00728Y00898*
X00748Y00878*
G37*
G54D12*
X00811Y00078D03*
X00748D03*
X01602Y00373D03*
X01665D03*
G54D13*
X00916Y00005D03*
Y00068D03*
G54D16*
X01613Y-00672D03*
X0168D03*
X01495D03*
X01562D03*
X0039Y029D03*
X00457D03*
X0039Y028D03*
X00457D03*
X0039Y027D03*
X00457D03*
X0039Y026D03*
X00457D03*
X00142Y029D03*
X00209D03*
X00142Y028D03*
X00209D03*
X00142Y027D03*
X00209D03*
X00142Y026D03*
X00209D03*
X-00034Y01577D03*
X00032D03*
X-00034Y01518D03*
X00032D03*
X00731Y-00642D03*
X00798D03*
X00368Y00486D03*
X00435D03*
X00767Y01351D03*
X00834D03*
X00767Y0141D03*
X00834D03*
X01138Y00473D03*
X01205D03*
X00368Y01362D03*
X00435D03*
X00275Y-003D03*
X00208D03*
X00276Y-006D03*
X00209D03*
X00208Y-004D03*
X00275D03*
Y-005D03*
X00208D03*
X01456Y00432D03*
X01523D03*
X01456Y00373D03*
X01523D03*
X01613Y-00755D03*
X0168D03*
X01613Y-00613D03*
X0168D03*
X01138Y00414D03*
X01205D03*
X00911Y00138D03*
X00978D03*
X01138Y00354D03*
X01205D03*
Y00276D03*
X01138D03*
X00368Y00309D03*
X00435D03*
X00368Y00368D03*
X00435D03*
X-00041Y-015D03*
X00025D03*
X-00041Y-016D03*
X00025D03*
X00435Y00251D03*
X00368D03*
X00435Y00192D03*
X00368D03*
X01468Y00853D03*
X01535D03*
X00813Y00137D03*
X00745D03*
X01271Y02236D03*
X01204D03*
Y0246D03*
X01271D03*
X0094Y02252D03*
X01007D03*
X00368Y00427D03*
X00436D03*
X016Y00314D03*
X01667D03*
X016Y00432D03*
X01667D03*
G54D17*
X01522Y014D03*
Y01332D03*
X01612Y01334D03*
Y01401D03*
X01522Y01177D03*
Y0111D03*
X01612Y01177D03*
Y0111D03*
X00747Y01197D03*
Y0113D03*
X00688Y01197D03*
Y0113D03*
X00236Y-01719D03*
Y-01786D03*
X00579D03*
Y-01719D03*
X00638Y-01719D03*
Y-01786D03*
X00806Y01197D03*
Y0113D03*
X01121Y00002D03*
Y00069D03*
X01062Y00002D03*
Y00069D03*
X01318Y01332D03*
Y014D03*
X01681Y-00349D03*
Y-00281D03*
Y00101D03*
Y00168D03*
X01622Y00101D03*
Y00168D03*
X01681Y-00231D03*
Y-00163D03*
Y-00466D03*
Y-00399D03*
X00775Y00271D03*
Y00339D03*
X00539Y0063D03*
Y00562D03*
X0048Y0063D03*
Y00562D03*
X00435Y00773D03*
Y0084D03*
X00539Y00773D03*
Y0084D03*
X01621Y-00163D03*
Y-00231D03*
X01622Y-00281D03*
Y-00349D03*
X00893Y00338D03*
Y00271D03*
X0118Y00002D03*
Y00069D03*
X01622Y-00399D03*
Y-00467D03*
X00834Y00338D03*
Y00271D03*
X01003Y00069D03*
Y00002D03*
X01013Y00271D03*
Y00338D03*
X00716Y00271D03*
Y00338D03*
X0057Y0113D03*
Y01197D03*
X00511Y0113D03*
Y01197D03*
X01072Y00338D03*
Y00271D03*
X00668Y00858D03*
Y00925D03*
X00728Y00858D03*
Y00925D03*
X00628Y01197D03*
Y0113D03*
X00843Y02749D03*
Y02682D03*
X0168Y-00045D03*
Y-00112D03*
X01509Y00001D03*
Y00069D03*
X0145Y00001D03*
Y00069D03*
X00151Y-01786D03*
Y-01719D03*
G54D43*
X01578Y00932D03*
X01468D03*
G54D44*
X00425Y0124D03*
Y0113D03*
G54D55*
X-00427Y-02121D02*
D01*
X-00427Y-02126*
X-00427Y-02132*
X-00426Y-02137*
X-00424Y-02142*
X-00423Y-02148*
X-0042Y-02153*
X-00418Y-02158*
X-00415Y-02162*
X-00412Y-02167*
X-00409Y-02171*
X-00405Y-02175*
X-00401Y-02179*
X-00397Y-02183*
X-00393Y-02186*
X-00388Y-02189*
X-00383Y-02191*
X-00378Y-02194*
X-00373Y-02196*
X-00368Y-02197*
X-00362Y-02198*
X-00357Y-02199*
X-00351Y-02199*
X-00349Y-02199*
X02249Y-02199D02*
D01*
X02254Y-02199*
X0226Y-02199*
X02265Y-02198*
X0227Y-02196*
X02276Y-02195*
X02281Y-02192*
X02286Y-0219*
X0229Y-02187*
X02295Y-02184*
X02299Y-02181*
X02303Y-02177*
X02307Y-02173*
X02311Y-02169*
X02314Y-02165*
X02317Y-0216*
X02319Y-02155*
X02322Y-0215*
X02324Y-02145*
X02325Y-0214*
X02326Y-02134*
X02327Y-02129*
X02327Y-02123*
X02327Y-02121*
X01698Y02085D02*
D01*
X01696Y02084*
X01695Y02084*
X01693Y02084*
X01692Y02084*
X01691Y02083*
X0169Y02083*
X01688Y02082*
X01687Y02082*
X01686Y02081*
X01685Y0208*
X01684Y02079*
X01683Y02078*
X01682Y02077*
X01681Y02076*
X0168Y02075*
X0168Y02073*
X01679Y02072*
X01679Y02071*
X01678Y0207*
X01678Y02068*
X01678Y02067*
X01678Y02066*
Y02064*
X01678Y02063*
X01678Y02061*
X01678Y0206*
X01679Y02059*
X01679Y02057*
X0168Y02056*
X0168Y02055*
X01681Y02054*
X01682Y02053*
X01683Y02052*
X01684Y02051*
X01685Y0205*
X01686Y02049*
X01687Y02048*
X01688Y02047*
X0169Y02047*
X01691Y02046*
X01692Y02046*
X01693Y02046*
X01695Y02045*
X01696Y02045*
X01698Y02045*
X0125Y02085D02*
D01*
X01248Y02084*
X01247Y02084*
X01245Y02084*
X01244Y02084*
X01243Y02083*
X01241Y02083*
X0124Y02082*
X01239Y02082*
X01238Y02081*
X01237Y0208*
X01236Y02079*
X01235Y02078*
X01234Y02077*
X01233Y02076*
X01232Y02075*
X01232Y02073*
X01231Y02072*
X01231Y02071*
X0123Y0207*
X0123Y02068*
X0123Y02067*
X0123Y02066*
Y02064*
X0123Y02063*
X0123Y02061*
X0123Y0206*
X01231Y02059*
X01231Y02057*
X01232Y02056*
X01232Y02055*
X01233Y02054*
X01234Y02053*
X01235Y02052*
X01236Y02051*
X01237Y0205*
X01238Y02049*
X01239Y02048*
X0124Y02047*
X01241Y02047*
X01243Y02046*
X01244Y02046*
X01245Y02046*
X01247Y02045*
X01248Y02045*
X0125Y02045*
X01538D02*
D01*
X01539Y02045*
X01541Y02045*
X01542Y02046*
X01544Y02046*
X01545Y02046*
X01546Y02047*
X01547Y02047*
X01549Y02048*
X0155Y02049*
X01551Y0205*
X01552Y02051*
X01553Y02052*
X01554Y02053*
X01554Y02054*
X01555Y02055*
X01556Y02056*
X01556Y02057*
X01557Y02059*
X01557Y0206*
X01557Y02061*
X01558Y02063*
X01558Y02064*
Y02066*
X01558Y02067*
X01557Y02068*
X01557Y0207*
X01557Y02071*
X01556Y02072*
X01556Y02073*
X01555Y02075*
X01554Y02076*
X01554Y02077*
X01553Y02078*
X01552Y02079*
X01551Y0208*
X0155Y02081*
X01549Y02082*
X01547Y02082*
X01546Y02083*
X01545Y02083*
X01544Y02084*
X01542Y02084*
X01541Y02084*
X01539Y02084*
X01538Y02085*
X00182Y02045D02*
D01*
X00183Y02045*
X00185Y02045*
X00186Y02046*
X00187Y02046*
X00189Y02046*
X0019Y02047*
X00191Y02047*
X00192Y02048*
X00193Y02049*
X00194Y0205*
X00195Y02051*
X00196Y02052*
X00197Y02053*
X00198Y02054*
X00199Y02055*
X00199Y02056*
X002Y02057*
X00201Y02059*
X00201Y0206*
X00201Y02061*
X00201Y02063*
X00201Y02064*
Y02066*
X00201Y02067*
X00201Y02068*
X00201Y0207*
X00201Y02071*
X002Y02072*
X00199Y02073*
X00199Y02075*
X00198Y02076*
X00197Y02077*
X00196Y02078*
X00195Y02079*
X00194Y0208*
X00193Y02081*
X00192Y02082*
X00191Y02082*
X0019Y02083*
X00189Y02083*
X00187Y02084*
X00186Y02084*
X00185Y02084*
X00183Y02084*
X00182Y02085*
X0032D02*
D01*
X00318Y02084*
X00317Y02084*
X00315Y02084*
X00314Y02084*
X00313Y02083*
X00312Y02083*
X0031Y02082*
X00309Y02082*
X00308Y02081*
X00307Y0208*
X00306Y02079*
X00305Y02078*
X00304Y02077*
X00303Y02076*
X00303Y02075*
X00302Y02073*
X00301Y02072*
X00301Y02071*
X003Y0207*
X003Y02068*
X003Y02067*
X003Y02066*
Y02064*
X003Y02063*
X003Y02061*
X003Y0206*
X00301Y02059*
X00301Y02057*
X00302Y02056*
X00303Y02055*
X00303Y02054*
X00304Y02053*
X00305Y02052*
X00306Y02051*
X00307Y0205*
X00308Y02049*
X00309Y02048*
X0031Y02047*
X00312Y02047*
X00313Y02046*
X00314Y02046*
X00315Y02046*
X00317Y02045*
X00318Y02045*
X0032Y02045*
X01068D02*
D01*
X01069Y02045*
X0107Y02045*
X01072Y02046*
X01073Y02046*
X01074Y02046*
X01076Y02047*
X01077Y02047*
X01078Y02048*
X01079Y02049*
X0108Y0205*
X01081Y02051*
X01082Y02052*
X01083Y02053*
X01084Y02054*
X01085Y02055*
X01085Y02056*
X01086Y02057*
X01086Y02059*
X01087Y0206*
X01087Y02061*
X01087Y02063*
X01087Y02064*
Y02066*
X01087Y02067*
X01087Y02068*
X01087Y0207*
X01086Y02071*
X01086Y02072*
X01085Y02073*
X01085Y02075*
X01084Y02076*
X01083Y02077*
X01082Y02078*
X01081Y02079*
X0108Y0208*
X01079Y02081*
X01078Y02082*
X01077Y02082*
X01076Y02083*
X01074Y02083*
X01073Y02084*
X01072Y02084*
X0107Y02084*
X01069Y02084*
X01068Y02085*
X-00349Y03049D02*
D01*
X-00354Y03049*
X-0036Y03048*
X-00365Y03047*
X-0037Y03046*
X-00376Y03044*
X-00381Y03042*
X-00386Y0304*
X-0039Y03037*
X-00395Y03034*
X-00399Y03031*
X-00403Y03027*
X-00407Y03023*
X-00411Y03019*
X-00414Y03014*
X-00417Y0301*
X-00419Y03005*
X-00422Y03*
X-00424Y02995*
X-00425Y02989*
X-00426Y02984*
X-00427Y02979*
X-00427Y02973*
X-00427Y0297*
X02327D02*
D01*
X02327Y02976*
X02327Y02981*
X02326Y02987*
X02324Y02992*
X02323Y02997*
X02321Y03002*
X02318Y03007*
X02315Y03012*
X02312Y03017*
X02309Y03021*
X02305Y03025*
X02301Y03029*
X02297Y03032*
X02293Y03036*
X02288Y03039*
X02283Y03041*
X02278Y03043*
X02273Y03045*
X02268Y03047*
X02262Y03048*
X02257Y03049*
X02251Y03049*
X02249Y03049*
X-00349Y-022D02*
X02249D01*
X0125Y02045D02*
X01538D01*
X0125Y02085D02*
X01538D01*
X-00349Y03049D02*
X02249D01*
X0032Y02045D02*
X01068D01*
X0032Y02085D02*
X01068D01*
X01698Y02045D02*
X02327D01*
X01698Y02085D02*
X02327D01*
X-00427D02*
X00182D01*
X-00427Y02045D02*
X00182D01*
X-00427Y02085D02*
Y0297D01*
X02327Y-02121D02*
Y02045D01*
Y02085D02*
Y0297D01*
D01*
X-00427Y-02121D02*
Y02045D01*
X01043Y-01825D02*
X01594D01*
X01043Y-02297D02*
Y-01825D01*
X01594Y-02297D02*
Y-01825D01*
X01043Y-02297D02*
X01594D01*
X01043Y-02199D02*
X01594D01*
G54D70*
X00155Y-02199D02*
X0028D01*
Y-02125*
X00316*
Y-02199D02*
Y-02125D01*
Y-02199D02*
X00392D01*
X00467*
Y-02125*
X00503*
Y-02199D02*
Y-02125D01*
Y-02199D02*
X00628D01*
X01263Y03047D02*
X01388D01*
Y02973D02*
Y03047D01*
Y02973D02*
X01424D01*
Y03047*
X015*
X01575*
Y02973D02*
Y03047D01*
Y02973D02*
X01611D01*
Y03047*
X01736*
G54D71*
X00612Y-02186D02*
Y-02194D01*
X00615*
X00617Y-02193*
Y-02192*
X00615Y-0219*
X00612*
X00615*
X00617Y-02189*
Y-02188*
X00615Y-02186*
X00612*
X00621Y-02194D02*
X00623D01*
X00625Y-02193*
Y-0219*
X00623Y-02189*
X00621*
X00619Y-0219*
Y-02193*
X00621Y-02194*
X00629Y-02189D02*
X00631D01*
X00632Y-0219*
Y-02194*
X00629*
X00627Y-02193*
X00629Y-02192*
X00632*
X00635Y-02189D02*
Y-02194D01*
Y-02192*
X00636Y-0219*
X00638Y-02189*
X00639*
X00648Y-02186D02*
Y-02194D01*
X00644*
X00643Y-02193*
Y-0219*
X00644Y-02189*
X00648*
X00663Y-02194D02*
X0066D01*
X00659Y-02193*
Y-0219*
X0066Y-02189*
X00663*
X00664Y-0219*
Y-02192*
X00659*
X00672Y-02186D02*
Y-02194D01*
X00668*
X00667Y-02193*
Y-0219*
X00668Y-02189*
X00672*
X00677Y-02197D02*
X00678D01*
X0068Y-02195*
Y-02189*
X00676*
X00674Y-0219*
Y-02193*
X00676Y-02194*
X0068*
X00686D02*
X00684D01*
X00682Y-02193*
Y-0219*
X00684Y-02189*
X00686*
X00688Y-0219*
Y-02192*
X00682*
X0128Y03034D02*
Y03042D01*
X01276*
X01274Y03041*
Y0304*
X01276Y03038*
X0128*
X01276*
X01274Y03037*
Y03036*
X01276Y03034*
X0128*
X0127Y03042D02*
X01268D01*
X01266Y03041*
Y03038*
X01268Y03037*
X0127*
X01272Y03038*
Y03041*
X0127Y03042*
X01262Y03037D02*
X0126D01*
X01259Y03038*
Y03042*
X01262*
X01264Y03041*
X01262Y0304*
X01259*
X01256Y03037D02*
Y03042D01*
Y0304*
X01255Y03038*
X01253Y03037*
X01252*
X01243Y03034D02*
Y03042D01*
X01247*
X01248Y03041*
Y03038*
X01247Y03037*
X01243*
X01228Y03042D02*
X01231D01*
X01232Y03041*
Y03038*
X01231Y03037*
X01228*
X01227Y03038*
Y0304*
X01232*
X01219Y03034D02*
Y03042D01*
X01223*
X01224Y03041*
Y03038*
X01223Y03037*
X01219*
X01214Y03045D02*
X01213D01*
X01211Y03043*
Y03037*
X01215*
X01217Y03038*
Y03041*
X01215Y03042*
X01211*
X01205D02*
X01207D01*
X01209Y03041*
Y03038*
X01207Y03037*
X01205*
X01203Y03038*
Y0304*
X01209*
M02*