%FSTAX23Y23*%
%MOIN*%
%SFA1B1*%

%IPPOS*%
%ADD55C,0.005000*%
%ADD70C,0.003940*%
%ADD71C,0.001970*%
%ADD101R,0.043430X0.047370*%
%ADD102R,0.047370X0.043430*%
%ADD105R,0.040000X0.048000*%
%ADD106R,0.048000X0.040000*%
%ADD107C,0.047370*%
%ADD131R,0.058000X0.068000*%
%ADD132R,0.068000X0.058000*%
%ADD142C,0.133980*%
%ADD143O,0.078870X0.067060*%
%ADD144R,0.078870X0.067060*%
%ADD145C,0.067060*%
%ADD146R,0.067060X0.067060*%
%ADD147O,0.049340X0.057210*%
%ADD148R,0.063120X0.082800*%
%ADD149R,0.078870X0.082800*%
%ADD150C,0.065090*%
%ADD151R,0.067060X0.067060*%
%ADD152O,0.047370X0.110360*%
%ADD153R,0.047370X0.047370*%
%ADD154C,0.023000*%
%LNmb1137-1*%
%LPD*%
G36*
X00767Y00137D02*
X00791Y00113D01*
X00753*
Y00137*
Y00161*
X00791*
X00767Y00137*
G37*
G36*
X00803Y00113D02*
X00793D01*
X00769Y00137*
X00793Y00161*
X00803*
Y00113*
G37*
G36*
X01705Y00121D02*
Y00111D01*
X01657*
Y00121*
X01681Y00145*
X01705Y00121*
G37*
G36*
X01027Y00049D02*
X01003Y00025D01*
X00979Y00049*
Y00059*
X01027*
Y00049*
G37*
G36*
X01646Y00121D02*
Y00111D01*
X01598*
Y00121*
X01622Y00145*
X01646Y00121*
G37*
G36*
X01705Y00123D02*
X01681Y00147D01*
X01657Y00123*
Y00161*
X01705*
Y00123*
G37*
G36*
X00389Y00192D02*
X00413Y00168D01*
X00375*
Y00192*
Y00216*
X00413*
X00389Y00192*
G37*
G36*
X01646Y00123D02*
X01622Y00147D01*
X01598Y00123*
Y00161*
X01646*
Y00123*
G37*
G36*
X00955Y00138D02*
X00931Y00114D01*
X00921*
Y00162*
X00931*
X00955Y00138*
G37*
G36*
X00971D02*
Y00114D01*
X00933*
X00957Y00138*
X00933Y00162*
X00971*
Y00138*
G37*
G36*
X01533Y00049D02*
X01509Y00025D01*
X01485Y00049*
Y00059*
X01533*
Y00049*
G37*
G36*
X01474Y00009D02*
X01426D01*
Y00047*
X0145Y00023*
X01474Y00047*
Y00009*
G37*
G36*
X01533D02*
X01485D01*
Y00047*
X01509Y00023*
X01533Y00047*
Y00009*
G37*
G36*
X01086Y00022D02*
Y00012D01*
X01038*
Y00022*
X01062Y00046*
X01086Y00022*
G37*
G36*
X01145Y00022D02*
Y00012D01*
X01097*
Y00022*
X01121Y00046*
X01145Y00022*
G37*
G36*
X01204D02*
Y00012D01*
X01156*
Y00022*
X0118Y00046*
X01204Y00022*
G37*
G36*
X01086Y00024D02*
X01062Y00048D01*
X01038Y00024*
Y00062*
X01086*
Y00024*
G37*
G36*
X01474Y00049D02*
X0145Y00025D01*
X01426Y00049*
Y00059*
X01474*
Y00049*
G37*
G36*
X01204Y00024D02*
X0118Y00048D01*
X01156Y00024*
Y00062*
X01204*
Y00024*
G37*
G36*
X01027Y00009D02*
X00979D01*
Y00047*
X01003Y00023*
X01027Y00047*
Y00009*
G37*
G36*
X01145Y00024D02*
X01121Y00048D01*
X01097Y00024*
Y00062*
X01145*
Y00024*
G37*
G36*
X00425Y00168D02*
X00415D01*
X00391Y00192*
X00415Y00216*
X00425*
Y00168*
G37*
G36*
X0074Y00293D02*
X00716Y00317D01*
X00692Y00293*
Y00331*
X0074*
Y00293*
G37*
G36*
X01037D02*
X01013Y00317D01*
X00989Y00293*
Y00331*
X01037*
Y00293*
G37*
G36*
X01096Y00278D02*
X01048D01*
Y00316*
X01072Y00292*
X01096Y00316*
Y00278*
G37*
G36*
X00858D02*
X0081D01*
Y00316*
X00834Y00292*
X00858Y00316*
Y00278*
G37*
G36*
X00917D02*
X00869D01*
Y00316*
X00893Y00292*
X00917Y00316*
Y00278*
G37*
G36*
X01096Y00318D02*
X01072Y00294D01*
X01048Y00318*
Y00328*
X01096*
Y00318*
G37*
G36*
X01182Y00354D02*
X01158Y0033D01*
X01148*
Y00378*
X01158*
X01182Y00354*
G37*
G36*
X00917Y00318D02*
X00893Y00294D01*
X00869Y00318*
Y00328*
X00917*
Y00318*
G37*
G36*
X00799Y00293D02*
X00775Y00317D01*
X00751Y00293*
Y00331*
X00799*
Y00293*
G37*
G36*
X00858Y00318D02*
X00834Y00294D01*
X0081Y00318*
Y00328*
X00858*
Y00318*
G37*
G36*
X01657Y0029D02*
X01647D01*
X01623Y00314*
X01647Y00338*
X01657*
Y0029*
G37*
G36*
X01195Y00252D02*
X01185D01*
X01161Y00276*
X01185Y003*
X01195*
Y00252*
G37*
G36*
X0074Y00291D02*
Y00281D01*
X00692*
Y00291*
X00716Y00315*
X0074Y00291*
G37*
G36*
X01159Y00276D02*
X01183Y00252D01*
X01145*
Y00276*
Y003*
X01183*
X01159Y00276*
G37*
G36*
X00389Y00251D02*
X00413Y00227D01*
X00375*
Y00251*
Y00275*
X00413*
X00389Y00251*
G37*
G36*
X00425Y00227D02*
X00415D01*
X00391Y00251*
X00415Y00275*
X00425*
Y00227*
G37*
G36*
X00428Y00309D02*
Y00285D01*
X0039*
X00414Y00309*
X0039Y00333*
X00428*
Y00309*
G37*
G36*
X01621Y00314D02*
X01645Y0029D01*
X01607*
Y00314*
Y00338*
X01645*
X01621Y00314*
G37*
G36*
X00412Y00309D02*
X00388Y00285D01*
X00378*
Y00333*
X00388*
X00412Y00309*
G37*
G36*
X01037Y00291D02*
Y00281D01*
X00989*
Y00291*
X01013Y00315*
X01037Y00291*
G37*
G36*
X00799Y00291D02*
Y00281D01*
X00751*
Y00291*
X00775Y00315*
X00799Y00291*
G37*
G36*
X01704Y-0009D02*
X0168Y-00066D01*
X01656Y-0009*
Y-00052*
X01704*
Y-0009*
G37*
G36*
X01539Y-00672D02*
X01515Y-00696D01*
X01505*
Y-00648*
X01515*
X01539Y-00672*
G37*
G36*
X01555D02*
Y-00696D01*
X01517*
X01541Y-00672*
X01517Y-00648*
X01555*
Y-00672*
G37*
G36*
X01673Y-00755D02*
Y-00779D01*
X01635*
X01659Y-00755*
X01635Y-00731*
X01673*
Y-00755*
G37*
G36*
X00018Y-015D02*
Y-01524D01*
X-00019*
X00004Y-015*
X-00019Y-01476*
X00018*
Y-015*
G37*
G36*
X01657Y-00755D02*
X01633Y-00779D01*
X01623*
Y-00731*
X01633*
X01657Y-00755*
G37*
G36*
X00791Y-00642D02*
Y-00666D01*
X00753*
X00777Y-00642*
X00753Y-00618*
X00791*
Y-00642*
G37*
G36*
X01657Y-00613D02*
X01633Y-00637D01*
X01623*
Y-00589*
X01633*
X01657Y-00613*
G37*
G36*
X00775Y-00642D02*
X00751Y-00666D01*
X00741*
Y-00618*
X00751*
X00775Y-00642*
G37*
G36*
X01657Y-00672D02*
X01633Y-00696D01*
X01623*
Y-00648*
X01633*
X01657Y-00672*
G37*
G36*
X01673D02*
Y-00696D01*
X01635*
X01659Y-00672*
X01635Y-00648*
X01673*
Y-00672*
G37*
G36*
X00002Y-015D02*
X-00021Y-01524D01*
X-00031*
Y-01476*
X-00021*
X00002Y-015*
G37*
G36*
X0026Y-01779D02*
X00212D01*
Y-01741*
X00236Y-01765*
X0026Y-01741*
Y-01779*
G37*
G36*
X00603Y-01764D02*
X00579Y-0174D01*
X00555Y-01764*
Y-01726*
X00603*
Y-01764*
G37*
G36*
X00175Y-01779D02*
X00127D01*
Y-01741*
X00151Y-01765*
X00175Y-01741*
Y-01779*
G37*
G36*
X00603Y-01766D02*
Y-01776D01*
X00555*
Y-01766*
X00579Y-01742*
X00603Y-01766*
G37*
G36*
X00662Y-01779D02*
X00614D01*
Y-01741*
X00638Y-01765*
X00662Y-01741*
Y-01779*
G37*
G36*
X00002Y-016D02*
X-00021Y-01624D01*
X-00031*
Y-01576*
X-00021*
X00002Y-016*
G37*
G36*
X00018D02*
Y-01624D01*
X-00019*
X00004Y-016*
X-00019Y-01576*
X00018*
Y-016*
G37*
G36*
X0026Y-01739D02*
X00236Y-01763D01*
X00212Y-01739*
Y-01729*
X0026*
Y-01739*
G37*
G36*
X00662Y-01739D02*
X00638Y-01763D01*
X00614Y-01739*
Y-01729*
X00662*
Y-01739*
G37*
G36*
X00175Y-01739D02*
X00151Y-01763D01*
X00127Y-01739*
Y-01729*
X00175*
Y-01739*
G37*
G36*
X01673Y-00613D02*
Y-00637D01*
X01635*
X01659Y-00613*
X01635Y-00589*
X01673*
Y-00613*
G37*
G36*
X00229Y-003D02*
X00253Y-00324D01*
X00215*
Y-003*
Y-00276*
X00253*
X00229Y-003*
G37*
G36*
X00265Y-00324D02*
X00255D01*
X00231Y-003*
X00255Y-00276*
X00265*
Y-00324*
G37*
G36*
X01646Y-00301D02*
X01622Y-00325D01*
X01598Y-00301*
Y-00291*
X01646*
Y-00301*
G37*
G36*
Y-00341D02*
X01598D01*
Y-00303*
X01622Y-00327*
X01646Y-00303*
Y-00341*
G37*
G36*
X01705Y-00327D02*
X01681Y-00303D01*
X01657Y-00327*
Y-00289*
X01705*
Y-00327*
G37*
G36*
X01645Y-00183D02*
X01621Y-00207D01*
X01597Y-00183*
Y-00173*
X01645*
Y-00183*
G37*
G36*
X01704Y-00092D02*
Y-00102D01*
X01656*
Y-00092*
X0168Y-00068*
X01704Y-00092*
G37*
G36*
X01705Y-00209D02*
X01681Y-00185D01*
X01657Y-00209*
Y-00171*
X01705*
Y-00209*
G37*
G36*
Y-00211D02*
Y-00221D01*
X01657*
Y-00211*
X01681Y-00187*
X01705Y-00211*
G37*
G36*
X01645Y-00223D02*
X01597D01*
Y-00185*
X01621Y-00209*
X01645Y-00185*
Y-00223*
G37*
G36*
X01705Y-00329D02*
Y-00339D01*
X01657*
Y-00329*
X01681Y-00305*
X01705Y-00329*
G37*
G36*
X00265Y-00524D02*
X00255D01*
X00231Y-005*
X00255Y-00476*
X00265*
Y-00524*
G37*
G36*
X01705Y-00446D02*
Y-00456D01*
X01657*
Y-00446*
X01681Y-00422*
X01705Y-00446*
G37*
G36*
X00229Y-005D02*
X00253Y-00524D01*
X00215*
Y-005*
Y-00476*
X00253*
X00229Y-005*
G37*
G36*
X0023Y-006D02*
X00254Y-00624D01*
X00216*
Y-006*
Y-00576*
X00254*
X0023Y-006*
G37*
G36*
X00266Y-00624D02*
X00256D01*
X00232Y-006*
X00256Y-00576*
X00266*
Y-00624*
G37*
G36*
X00252Y-004D02*
X00228Y-00424D01*
X00218*
Y-00376*
X00228*
X00252Y-004*
G37*
G36*
X00268D02*
Y-00424D01*
X0023*
X00254Y-004*
X0023Y-00376*
X00268*
Y-004*
G37*
G36*
X01646Y-00419D02*
X01622Y-00443D01*
X01598Y-00419*
Y-00409*
X01646*
Y-00419*
G37*
G36*
Y-00459D02*
X01598D01*
Y-00421*
X01622Y-00445*
X01646Y-00421*
Y-00459*
G37*
G36*
X01705Y-00444D02*
X01681Y-0042D01*
X01657Y-00444*
Y-00406*
X01705*
Y-00444*
G37*
G36*
X00827Y0141D02*
Y01386D01*
X00789*
X00813Y0141*
X00789Y01434*
X00827*
Y0141*
G37*
G36*
X-00013Y01518D02*
X0001Y01494D01*
X-00027*
Y01518*
Y01542*
X0001*
X-00013Y01518*
G37*
G36*
X00811Y0141D02*
X00787Y01386D01*
X00777*
Y01434*
X00787*
X00811Y0141*
G37*
G36*
X01636Y01341D02*
X01588D01*
Y01379*
X01612Y01355*
X01636Y01379*
Y01341*
G37*
G36*
Y01381D02*
X01612Y01357D01*
X01588Y01381*
Y01391*
X01636*
Y01381*
G37*
G36*
X01225Y02236D02*
X01249Y02212D01*
X01211*
Y02236*
Y0226*
X01249*
X01225Y02236*
G37*
G36*
X01261Y02212D02*
X01251D01*
X01227Y02236*
X01251Y0226*
X01261*
Y02212*
G37*
G36*
X00022Y01553D02*
X00012D01*
X-00011Y01577*
X00012Y01601*
X00022*
Y01553*
G37*
G36*
Y01494D02*
X00012D01*
X-00011Y01518*
X00012Y01542*
X00022*
Y01494*
G37*
G36*
X-00013Y01577D02*
X0001Y01553D01*
X-00027*
Y01577*
Y01601*
X0001*
X-00013Y01577*
G37*
G36*
X01546Y01354D02*
X01522Y01378D01*
X01498Y01354*
Y01392*
X01546*
Y01354*
G37*
G36*
X00811Y01351D02*
X00787Y01327D01*
X00777*
Y01375*
X00787*
X00811Y01351*
G37*
G36*
X00827D02*
Y01327D01*
X00789*
X00813Y01351*
X00789Y01375*
X00827*
Y01351*
G37*
G36*
X00771Y01177D02*
X00747Y01153D01*
X00723Y01177*
Y01187*
X00771*
Y01177*
G37*
G36*
X00652D02*
X00628Y01153D01*
X00604Y01177*
Y01187*
X00652*
Y01177*
G37*
G36*
X00712D02*
X00688Y01153D01*
X00664Y01177*
Y01187*
X00712*
Y01177*
G37*
G36*
X01546Y01352D02*
Y01342D01*
X01498*
Y01352*
X01522Y01376*
X01546Y01352*
G37*
G36*
X01342Y01354D02*
X01318Y01378D01*
X01294Y01354*
Y01392*
X01342*
Y01354*
G37*
G36*
Y01352D02*
Y01342D01*
X01294*
Y01352*
X01318Y01376*
X01342Y01352*
G37*
G36*
X00412Y01362D02*
X00388Y01338D01*
X00378*
Y01386*
X00388*
X00412Y01362*
G37*
G36*
X00428D02*
Y01338D01*
X0039*
X00414Y01362*
X0039Y01386*
X00428*
Y01362*
G37*
G36*
X00984Y02252D02*
X0096Y02228D01*
X0095*
Y02276*
X0096*
X00984Y02252*
G37*
G36*
X00202Y028D02*
Y02776D01*
X00164*
X00188Y028*
X00164Y02824*
X00202*
Y028*
G37*
G36*
X00434D02*
X0041Y02776D01*
X004*
Y02824*
X0041*
X00434Y028*
G37*
G36*
X00186D02*
X00162Y02776D01*
X00152*
Y02824*
X00162*
X00186Y028*
G37*
G36*
X00867Y02689D02*
X00819D01*
Y02727*
X00843Y02703*
X00867Y02727*
Y02689*
G37*
G36*
Y02729D02*
X00843Y02705D01*
X00819Y02729*
Y02739*
X00867*
Y02729*
G37*
G36*
X00434Y029D02*
X0041Y02876D01*
X004*
Y02924*
X0041*
X00434Y029*
G37*
G36*
X0045D02*
Y02876D01*
X00412*
X00436Y029*
X00412Y02924*
X0045*
Y029*
G37*
G36*
X00202D02*
Y02876D01*
X00164*
X00188Y029*
X00164Y02924*
X00202*
Y029*
G37*
G36*
X0045Y028D02*
Y02776D01*
X00412*
X00436Y028*
X00412Y02824*
X0045*
Y028*
G37*
G36*
X00186Y029D02*
X00162Y02876D01*
X00152*
Y02924*
X00162*
X00186Y029*
G37*
G36*
X0045Y027D02*
Y02676D01*
X00412*
X00436Y027*
X00412Y02724*
X0045*
Y027*
G37*
G36*
X00186Y026D02*
X00162Y02576D01*
X00152*
Y02624*
X00162*
X00186Y026*
G37*
G36*
X00202D02*
Y02576D01*
X00164*
X00188Y026*
X00164Y02624*
X00202*
Y026*
G37*
G36*
X01264Y0246D02*
Y02436D01*
X01226*
X0125Y0246*
X01226Y02484*
X01264*
Y0246*
G37*
G36*
X01Y02252D02*
Y02228D01*
X00962*
X00986Y02252*
X00962Y02276*
X01*
Y02252*
G37*
G36*
X01248Y0246D02*
X01224Y02436D01*
X01214*
Y02484*
X01224*
X01248Y0246*
G37*
G36*
X00202Y027D02*
Y02676D01*
X00164*
X00188Y027*
X00164Y02724*
X00202*
Y027*
G37*
G36*
X00434D02*
X0041Y02676D01*
X004*
Y02724*
X0041*
X00434Y027*
G37*
G36*
X00186D02*
X00162Y02676D01*
X00152*
Y02724*
X00162*
X00186Y027*
G37*
G36*
X00434Y026D02*
X0041Y02576D01*
X004*
Y02624*
X0041*
X00434Y026*
G37*
G36*
X0045D02*
Y02576D01*
X00412*
X00436Y026*
X00412Y02624*
X0045*
Y026*
G37*
G36*
X0083Y01177D02*
X00806Y01153D01*
X00782Y01177*
Y01187*
X0083*
Y01177*
G37*
G36*
X01198Y00473D02*
Y00449D01*
X0116*
X01184Y00473*
X0116Y00497*
X01198*
Y00473*
G37*
G36*
X00412Y00486D02*
X00388Y00462D01*
X00378*
Y0051*
X00388*
X00412Y00486*
G37*
G36*
X01182Y00473D02*
X01158Y00449D01*
X01148*
Y00497*
X01158*
X01182Y00473*
G37*
G36*
X01621Y00432D02*
X01645Y00408D01*
X01607*
Y00432*
Y00456*
X01645*
X01621Y00432*
G37*
G36*
X01657Y00408D02*
X01647D01*
X01623Y00432*
X01647Y00456*
X01657*
Y00408*
G37*
G36*
X00504Y0061D02*
X0048Y00586D01*
X00456Y0061*
Y0062*
X00504*
Y0061*
G37*
G36*
X00563D02*
X00539Y00586D01*
X00515Y0061*
Y0062*
X00563*
Y0061*
G37*
G36*
Y0057D02*
X00515D01*
Y00608*
X00539Y00584*
X00563Y00608*
Y0057*
G37*
G36*
X00428Y00486D02*
Y00462D01*
X0039*
X00414Y00486*
X0039Y0051*
X00428*
Y00486*
G37*
G36*
X00504Y0057D02*
X00456D01*
Y00608*
X0048Y00584*
X00504Y00608*
Y0057*
G37*
G36*
X01516Y00432D02*
Y00408D01*
X01478*
X01502Y00432*
X01478Y00456*
X01516*
Y00432*
G37*
G36*
X015Y00373D02*
X01476Y00349D01*
X01466*
Y00397*
X01476*
X015Y00373*
G37*
G36*
X01516D02*
Y00349D01*
X01478*
X01502Y00373*
X01478Y00397*
X01516*
Y00373*
G37*
G36*
X00428Y00368D02*
Y00344D01*
X0039*
X00414Y00368*
X0039Y00392*
X00428*
Y00368*
G37*
G36*
X01198Y00354D02*
Y0033D01*
X0116*
X01184Y00354*
X0116Y00378*
X01198*
Y00354*
G37*
G36*
X00412Y00368D02*
X00388Y00344D01*
X00378*
Y00392*
X00388*
X00412Y00368*
G37*
G36*
X00426Y00403D02*
X00416D01*
X00392Y00427*
X00416Y00451*
X00426*
Y00403*
G37*
G36*
X015Y00432D02*
X01476Y00408D01*
X01466*
Y00456*
X01476*
X015Y00432*
G37*
G36*
X0039Y00427D02*
X00414Y00403D01*
X00376*
Y00427*
Y00451*
X00414*
X0039Y00427*
G37*
G36*
X01182Y00414D02*
X01158Y0039D01*
X01148*
Y00438*
X01158*
X01182Y00414*
G37*
G36*
X01198D02*
Y0039D01*
X0116*
X01184Y00414*
X0116Y00438*
X01198*
Y00414*
G37*
G36*
X00459Y00793D02*
Y00783D01*
X00411*
Y00793*
X00435Y00817*
X00459Y00793*
G37*
G36*
X00594Y0115D02*
Y0114D01*
X00546*
Y0115*
X0057Y01174*
X00594Y0115*
G37*
G36*
X0083Y01137D02*
X00782D01*
Y01175*
X00806Y01151*
X0083Y01175*
Y01137*
G37*
G36*
X00535Y0115D02*
Y0114D01*
X00487*
Y0115*
X00511Y01174*
X00535Y0115*
G37*
G36*
X01546Y01157D02*
X01522Y01133D01*
X01498Y01157*
Y01167*
X01546*
Y01157*
G37*
G36*
X01636D02*
X01612Y01133D01*
X01588Y01157*
Y01167*
X01636*
Y01157*
G37*
G36*
X00535Y01152D02*
X00511Y01176D01*
X00487Y01152*
Y0119*
X00535*
Y01152*
G37*
G36*
X00594D02*
X0057Y01176D01*
X00546Y01152*
Y0119*
X00594*
Y01152*
G37*
G36*
X00771Y01137D02*
X00723D01*
Y01175*
X00747Y01151*
X00771Y01175*
Y01137*
G37*
G36*
X00652D02*
X00604D01*
Y01175*
X00628Y01151*
X00652Y01175*
Y01137*
G37*
G36*
X00712D02*
X00664D01*
Y01175*
X00688Y01151*
X00712Y01175*
Y01137*
G37*
G36*
X01636Y01117D02*
X01588D01*
Y01155*
X01612Y01131*
X01636Y01155*
Y01117*
G37*
G36*
X01512Y00853D02*
X01488Y00829D01*
X01478*
Y00877*
X01488*
X01512Y00853*
G37*
G36*
X01528D02*
Y00829D01*
X0149*
X01514Y00853*
X0149Y00877*
X01528*
Y00853*
G37*
G36*
X00563Y00795D02*
X00539Y00819D01*
X00515Y00795*
Y00833*
X00563*
Y00795*
G37*
G36*
Y00793D02*
Y00783D01*
X00515*
Y00793*
X00539Y00817*
X00563Y00793*
G37*
G36*
X00459Y00795D02*
X00435Y00819D01*
X00411Y00795*
Y00833*
X00459*
Y00795*
G37*
G36*
X00752Y0088D02*
X00728Y00904D01*
X00704Y0088*
Y00918*
X00752*
Y0088*
G37*
G36*
X01546Y01117D02*
X01498D01*
Y01155*
X01522Y01131*
X01546Y01155*
Y01117*
G37*
G36*
X00692Y0088D02*
X00668Y00904D01*
X00644Y0088*
Y00918*
X00692*
Y0088*
G37*
G36*
Y00878D02*
Y00868D01*
X00644*
Y00878*
X00668Y00902*
X00692Y00878*
G37*
G36*
X00752D02*
Y00868D01*
X00704*
Y00878*
X00728Y00902*
X00752Y00878*
G37*
G54D55*
X-00427Y-02121D02*
D01*
X-00427Y-02126*
X-00427Y-02132*
X-00426Y-02137*
X-00424Y-02142*
X-00423Y-02148*
X-0042Y-02153*
X-00418Y-02158*
X-00415Y-02162*
X-00412Y-02167*
X-00409Y-02171*
X-00405Y-02175*
X-00401Y-02179*
X-00397Y-02183*
X-00393Y-02186*
X-00388Y-02189*
X-00383Y-02191*
X-00378Y-02194*
X-00373Y-02196*
X-00368Y-02197*
X-00362Y-02198*
X-00357Y-02199*
X-00351Y-02199*
X-00349Y-02199*
X02249Y-02199D02*
D01*
X02254Y-02199*
X0226Y-02199*
X02265Y-02198*
X0227Y-02196*
X02276Y-02195*
X02281Y-02192*
X02286Y-0219*
X0229Y-02187*
X02295Y-02184*
X02299Y-02181*
X02303Y-02177*
X02307Y-02173*
X02311Y-02169*
X02314Y-02165*
X02317Y-0216*
X02319Y-02155*
X02322Y-0215*
X02324Y-02145*
X02325Y-0214*
X02326Y-02134*
X02327Y-02129*
X02327Y-02123*
X02327Y-02121*
X01698Y02085D02*
D01*
X01696Y02084*
X01695Y02084*
X01693Y02084*
X01692Y02084*
X01691Y02083*
X0169Y02083*
X01688Y02082*
X01687Y02082*
X01686Y02081*
X01685Y0208*
X01684Y02079*
X01683Y02078*
X01682Y02077*
X01681Y02076*
X0168Y02075*
X0168Y02073*
X01679Y02072*
X01679Y02071*
X01678Y0207*
X01678Y02068*
X01678Y02067*
X01678Y02066*
Y02064*
X01678Y02063*
X01678Y02061*
X01678Y0206*
X01679Y02059*
X01679Y02057*
X0168Y02056*
X0168Y02055*
X01681Y02054*
X01682Y02053*
X01683Y02052*
X01684Y02051*
X01685Y0205*
X01686Y02049*
X01687Y02048*
X01688Y02047*
X0169Y02047*
X01691Y02046*
X01692Y02046*
X01693Y02046*
X01695Y02045*
X01696Y02045*
X01698Y02045*
X0125Y02085D02*
D01*
X01248Y02084*
X01247Y02084*
X01245Y02084*
X01244Y02084*
X01243Y02083*
X01241Y02083*
X0124Y02082*
X01239Y02082*
X01238Y02081*
X01237Y0208*
X01236Y02079*
X01235Y02078*
X01234Y02077*
X01233Y02076*
X01232Y02075*
X01232Y02073*
X01231Y02072*
X01231Y02071*
X0123Y0207*
X0123Y02068*
X0123Y02067*
X0123Y02066*
Y02064*
X0123Y02063*
X0123Y02061*
X0123Y0206*
X01231Y02059*
X01231Y02057*
X01232Y02056*
X01232Y02055*
X01233Y02054*
X01234Y02053*
X01235Y02052*
X01236Y02051*
X01237Y0205*
X01238Y02049*
X01239Y02048*
X0124Y02047*
X01241Y02047*
X01243Y02046*
X01244Y02046*
X01245Y02046*
X01247Y02045*
X01248Y02045*
X0125Y02045*
X01538D02*
D01*
X01539Y02045*
X01541Y02045*
X01542Y02046*
X01544Y02046*
X01545Y02046*
X01546Y02047*
X01547Y02047*
X01549Y02048*
X0155Y02049*
X01551Y0205*
X01552Y02051*
X01553Y02052*
X01554Y02053*
X01554Y02054*
X01555Y02055*
X01556Y02056*
X01556Y02057*
X01557Y02059*
X01557Y0206*
X01557Y02061*
X01558Y02063*
X01558Y02064*
Y02066*
X01558Y02067*
X01557Y02068*
X01557Y0207*
X01557Y02071*
X01556Y02072*
X01556Y02073*
X01555Y02075*
X01554Y02076*
X01554Y02077*
X01553Y02078*
X01552Y02079*
X01551Y0208*
X0155Y02081*
X01549Y02082*
X01547Y02082*
X01546Y02083*
X01545Y02083*
X01544Y02084*
X01542Y02084*
X01541Y02084*
X01539Y02084*
X01538Y02085*
X00182Y02045D02*
D01*
X00183Y02045*
X00185Y02045*
X00186Y02046*
X00187Y02046*
X00189Y02046*
X0019Y02047*
X00191Y02047*
X00192Y02048*
X00193Y02049*
X00194Y0205*
X00195Y02051*
X00196Y02052*
X00197Y02053*
X00198Y02054*
X00199Y02055*
X00199Y02056*
X002Y02057*
X00201Y02059*
X00201Y0206*
X00201Y02061*
X00201Y02063*
X00201Y02064*
Y02066*
X00201Y02067*
X00201Y02068*
X00201Y0207*
X00201Y02071*
X002Y02072*
X00199Y02073*
X00199Y02075*
X00198Y02076*
X00197Y02077*
X00196Y02078*
X00195Y02079*
X00194Y0208*
X00193Y02081*
X00192Y02082*
X00191Y02082*
X0019Y02083*
X00189Y02083*
X00187Y02084*
X00186Y02084*
X00185Y02084*
X00183Y02084*
X00182Y02085*
X0032D02*
D01*
X00318Y02084*
X00317Y02084*
X00315Y02084*
X00314Y02084*
X00313Y02083*
X00312Y02083*
X0031Y02082*
X00309Y02082*
X00308Y02081*
X00307Y0208*
X00306Y02079*
X00305Y02078*
X00304Y02077*
X00303Y02076*
X00303Y02075*
X00302Y02073*
X00301Y02072*
X00301Y02071*
X003Y0207*
X003Y02068*
X003Y02067*
X003Y02066*
Y02064*
X003Y02063*
X003Y02061*
X003Y0206*
X00301Y02059*
X00301Y02057*
X00302Y02056*
X00303Y02055*
X00303Y02054*
X00304Y02053*
X00305Y02052*
X00306Y02051*
X00307Y0205*
X00308Y02049*
X00309Y02048*
X0031Y02047*
X00312Y02047*
X00313Y02046*
X00314Y02046*
X00315Y02046*
X00317Y02045*
X00318Y02045*
X0032Y02045*
X01068D02*
D01*
X01069Y02045*
X0107Y02045*
X01072Y02046*
X01073Y02046*
X01074Y02046*
X01076Y02047*
X01077Y02047*
X01078Y02048*
X01079Y02049*
X0108Y0205*
X01081Y02051*
X01082Y02052*
X01083Y02053*
X01084Y02054*
X01085Y02055*
X01085Y02056*
X01086Y02057*
X01086Y02059*
X01087Y0206*
X01087Y02061*
X01087Y02063*
X01087Y02064*
Y02066*
X01087Y02067*
X01087Y02068*
X01087Y0207*
X01086Y02071*
X01086Y02072*
X01085Y02073*
X01085Y02075*
X01084Y02076*
X01083Y02077*
X01082Y02078*
X01081Y02079*
X0108Y0208*
X01079Y02081*
X01078Y02082*
X01077Y02082*
X01076Y02083*
X01074Y02083*
X01073Y02084*
X01072Y02084*
X0107Y02084*
X01069Y02084*
X01068Y02085*
X-00349Y03049D02*
D01*
X-00354Y03049*
X-0036Y03048*
X-00365Y03047*
X-0037Y03046*
X-00376Y03044*
X-00381Y03042*
X-00386Y0304*
X-0039Y03037*
X-00395Y03034*
X-00399Y03031*
X-00403Y03027*
X-00407Y03023*
X-00411Y03019*
X-00414Y03014*
X-00417Y0301*
X-00419Y03005*
X-00422Y03*
X-00424Y02995*
X-00425Y02989*
X-00426Y02984*
X-00427Y02979*
X-00427Y02973*
X-00427Y0297*
X02327D02*
D01*
X02327Y02976*
X02327Y02981*
X02326Y02987*
X02324Y02992*
X02323Y02997*
X02321Y03002*
X02318Y03007*
X02315Y03012*
X02312Y03017*
X02309Y03021*
X02305Y03025*
X02301Y03029*
X02297Y03032*
X02293Y03036*
X02288Y03039*
X02283Y03041*
X02278Y03043*
X02273Y03045*
X02268Y03047*
X02262Y03048*
X02257Y03049*
X02251Y03049*
X02249Y03049*
X-00349Y-022D02*
X02249D01*
X0125Y02045D02*
X01538D01*
X0125Y02085D02*
X01538D01*
X-00349Y03049D02*
X02249D01*
X0032Y02045D02*
X01068D01*
X0032Y02085D02*
X01068D01*
X01698Y02045D02*
X02327D01*
X01698Y02085D02*
X02327D01*
X-00427D02*
X00182D01*
X-00427Y02045D02*
X00182D01*
X-00427Y02085D02*
Y0297D01*
X02327Y-02121D02*
Y02045D01*
Y02085D02*
Y0297D01*
D01*
X-00427Y-02121D02*
Y02045D01*
X01043Y-01825D02*
X01594D01*
X01043Y-02297D02*
Y-01825D01*
X01594Y-02297D02*
Y-01825D01*
X01043Y-02297D02*
X01594D01*
X01043Y-02199D02*
X01594D01*
G54D70*
X00155Y-02199D02*
X0028D01*
Y-02125*
X00316*
Y-02199D02*
Y-02125D01*
Y-02199D02*
X00392D01*
X00467*
Y-02125*
X00503*
Y-02199D02*
Y-02125D01*
Y-02199D02*
X00628D01*
X01263Y03047D02*
X01388D01*
Y02973D02*
Y03047D01*
Y02973D02*
X01424D01*
Y03047*
X015*
X01575*
Y02973D02*
Y03047D01*
Y02973D02*
X01611D01*
Y03047*
X01736*
G54D71*
X00612Y-02186D02*
Y-02194D01*
X00615*
X00617Y-02193*
Y-02192*
X00615Y-0219*
X00612*
X00615*
X00617Y-02189*
Y-02188*
X00615Y-02186*
X00612*
X00621Y-02194D02*
X00623D01*
X00625Y-02193*
Y-0219*
X00623Y-02189*
X00621*
X00619Y-0219*
Y-02193*
X00621Y-02194*
X00629Y-02189D02*
X00631D01*
X00632Y-0219*
Y-02194*
X00629*
X00627Y-02193*
X00629Y-02192*
X00632*
X00635Y-02189D02*
Y-02194D01*
Y-02192*
X00636Y-0219*
X00638Y-02189*
X00639*
X00648Y-02186D02*
Y-02194D01*
X00644*
X00643Y-02193*
Y-0219*
X00644Y-02189*
X00648*
X00663Y-02194D02*
X0066D01*
X00659Y-02193*
Y-0219*
X0066Y-02189*
X00663*
X00664Y-0219*
Y-02192*
X00659*
X00672Y-02186D02*
Y-02194D01*
X00668*
X00667Y-02193*
Y-0219*
X00668Y-02189*
X00672*
X00677Y-02197D02*
X00678D01*
X0068Y-02195*
Y-02189*
X00676*
X00674Y-0219*
Y-02193*
X00676Y-02194*
X0068*
X00686D02*
X00684D01*
X00682Y-02193*
Y-0219*
X00684Y-02189*
X00686*
X00688Y-0219*
Y-02192*
X00682*
X0128Y03034D02*
Y03042D01*
X01276*
X01274Y03041*
Y0304*
X01276Y03038*
X0128*
X01276*
X01274Y03037*
Y03036*
X01276Y03034*
X0128*
X0127Y03042D02*
X01268D01*
X01266Y03041*
Y03038*
X01268Y03037*
X0127*
X01272Y03038*
Y03041*
X0127Y03042*
X01262Y03037D02*
X0126D01*
X01259Y03038*
Y03042*
X01262*
X01264Y03041*
X01262Y0304*
X01259*
X01256Y03037D02*
Y03042D01*
Y0304*
X01255Y03038*
X01253Y03037*
X01252*
X01243Y03034D02*
Y03042D01*
X01247*
X01248Y03041*
Y03038*
X01247Y03037*
X01243*
X01228Y03042D02*
X01231D01*
X01232Y03041*
Y03038*
X01231Y03037*
X01228*
X01227Y03038*
Y0304*
X01232*
X01219Y03034D02*
Y03042D01*
X01223*
X01224Y03041*
Y03038*
X01223Y03037*
X01219*
X01214Y03045D02*
X01213D01*
X01211Y03043*
Y03037*
X01215*
X01217Y03038*
Y03041*
X01215Y03042*
X01211*
X01205D02*
X01207D01*
X01209Y03041*
Y03038*
X01207Y03037*
X01205*
X01203Y03038*
Y0304*
X01209*
G54D101*
X00811Y00078D03*
X00748D03*
X01602Y00373D03*
X01665D03*
G54D102*
X00916Y00005D03*
Y00068D03*
G54D105*
X01613Y-00672D03*
X0168D03*
X01495D03*
X01562D03*
X0039Y029D03*
X00457D03*
X0039Y028D03*
X00457D03*
X0039Y027D03*
X00457D03*
X0039Y026D03*
X00457D03*
X00142Y029D03*
X00209D03*
X00142Y028D03*
X00209D03*
X00142Y027D03*
X00209D03*
X00142Y026D03*
X00209D03*
X-00034Y01577D03*
X00032D03*
X-00034Y01518D03*
X00032D03*
X00731Y-00642D03*
X00798D03*
X00368Y00486D03*
X00435D03*
X00767Y01351D03*
X00834D03*
X00767Y0141D03*
X00834D03*
X01138Y00473D03*
X01205D03*
X00368Y01362D03*
X00435D03*
X00275Y-003D03*
X00208D03*
X00276Y-006D03*
X00209D03*
X00208Y-004D03*
X00275D03*
Y-005D03*
X00208D03*
X01456Y00432D03*
X01523D03*
X01456Y00373D03*
X01523D03*
X01613Y-00755D03*
X0168D03*
X01613Y-00613D03*
X0168D03*
X01138Y00414D03*
X01205D03*
X00911Y00138D03*
X00978D03*
X01138Y00354D03*
X01205D03*
Y00276D03*
X01138D03*
X00368Y00309D03*
X00435D03*
X00368Y00368D03*
X00435D03*
X-00041Y-015D03*
X00025D03*
X-00041Y-016D03*
X00025D03*
X00435Y00251D03*
X00368D03*
X00435Y00192D03*
X00368D03*
X01468Y00853D03*
X01535D03*
X00813Y00137D03*
X00745D03*
X01271Y02236D03*
X01204D03*
Y0246D03*
X01271D03*
X0094Y02252D03*
X01007D03*
X00368Y00427D03*
X00436D03*
X016Y00314D03*
X01667D03*
X016Y00432D03*
X01667D03*
G54D106*
X01522Y014D03*
Y01332D03*
X01612Y01334D03*
Y01401D03*
X01522Y01177D03*
Y0111D03*
X01612Y01177D03*
Y0111D03*
X00747Y01197D03*
Y0113D03*
X00688Y01197D03*
Y0113D03*
X00236Y-01719D03*
Y-01786D03*
X00579D03*
Y-01719D03*
X00638Y-01719D03*
Y-01786D03*
X00806Y01197D03*
Y0113D03*
X01121Y00002D03*
Y00069D03*
X01062Y00002D03*
Y00069D03*
X01318Y01332D03*
Y014D03*
X01681Y-00349D03*
Y-00281D03*
Y00101D03*
Y00168D03*
X01622Y00101D03*
Y00168D03*
X01681Y-00231D03*
Y-00163D03*
Y-00466D03*
Y-00399D03*
X00775Y00271D03*
Y00339D03*
X00539Y0063D03*
Y00562D03*
X0048Y0063D03*
Y00562D03*
X00435Y00773D03*
Y0084D03*
X00539Y00773D03*
Y0084D03*
X01621Y-00163D03*
Y-00231D03*
X01622Y-00281D03*
Y-00349D03*
X00893Y00338D03*
Y00271D03*
X0118Y00002D03*
Y00069D03*
X01622Y-00399D03*
Y-00467D03*
X00834Y00338D03*
Y00271D03*
X01003Y00069D03*
Y00002D03*
X01013Y00271D03*
Y00338D03*
X00716Y00271D03*
Y00338D03*
X0057Y0113D03*
Y01197D03*
X00511Y0113D03*
Y01197D03*
X01072Y00338D03*
Y00271D03*
X00668Y00858D03*
Y00925D03*
X00728Y00858D03*
Y00925D03*
X00628Y01197D03*
Y0113D03*
X00843Y02749D03*
Y02682D03*
X0168Y-00045D03*
Y-00112D03*
X01509Y00001D03*
Y00069D03*
X0145Y00001D03*
Y00069D03*
X00151Y-01786D03*
Y-01719D03*
G54D107*
X01506Y-01773D03*
X01178Y-01687D03*
X01218Y-0173D03*
X01258Y-01687D03*
X01298Y-0173D03*
X01339Y-01687D03*
X01379Y-0173D03*
X01419Y-01687D03*
X01596Y-01773D03*
X01131D03*
X01041D03*
G54D131*
X01578Y00932D03*
X01468D03*
G54D132*
X00425Y0124D03*
Y0113D03*
G54D142*
X013Y-001D03*
X019Y019D03*
X0Y0195D03*
X0005Y-0105D03*
X0185D03*
G54D143*
X019Y-009D03*
X018D03*
Y-008D03*
X019D03*
Y-002D03*
X018D03*
X019Y007D03*
X018Y006D03*
X019D03*
X018Y005D03*
X019D03*
X018Y004D03*
X019D03*
X018Y003D03*
X019D03*
X018Y002D03*
X019D03*
Y0D03*
X018D03*
X019Y001D03*
X018D03*
Y-001D03*
X019D03*
Y-006D03*
X018D03*
Y-004D03*
X019D03*
X018Y-005D03*
X019D03*
Y-003D03*
X018D03*
Y-007D03*
X019D03*
Y0096D03*
X018D03*
Y0116D03*
X019D03*
X018Y0106D03*
X019D03*
Y0126D03*
X018D03*
X019Y0136D03*
X018D03*
X019Y0146D03*
X018D03*
X019Y0156D03*
X018D03*
X019Y0166D03*
X018D03*
X019Y0176D03*
X018Y0086D03*
X019D03*
X001Y-004D03*
X0D03*
X001Y005D03*
X0Y004D03*
X001D03*
X0Y003D03*
X001D03*
X0Y002D03*
X001D03*
X0Y001D03*
X001D03*
X0Y0D03*
X001D03*
Y-002D03*
X0D03*
X001Y-001D03*
X0D03*
Y-003D03*
X001D03*
Y-008D03*
X0D03*
Y-006D03*
X001D03*
X0Y-007D03*
X001D03*
Y-005D03*
X0D03*
Y-009D03*
X001D03*
X0Y008D03*
X001D03*
X0Y007D03*
X001D03*
Y009D03*
X0D03*
X001Y01D03*
X0D03*
X001Y011D03*
X0D03*
X001Y012D03*
X0D03*
X001Y013D03*
X0D03*
X001Y014D03*
X022Y-01701D03*
X021D03*
X022Y01799D03*
X021Y01399D03*
Y01499D03*
Y01599D03*
Y01699D03*
Y01299D03*
Y00799D03*
Y01199D03*
Y01099D03*
Y00999D03*
Y00899D03*
Y00299D03*
Y00699D03*
Y00599D03*
Y00499D03*
Y00399D03*
Y-00201D03*
Y00199D03*
Y00099D03*
Y-00001D03*
Y-00101D03*
Y-00301D03*
Y-00401D03*
Y-00501D03*
Y-00601D03*
Y-01601D03*
Y-01501D03*
Y-01401D03*
Y-01301D03*
Y-01101D03*
Y-01001D03*
Y-00901D03*
Y-00801D03*
Y-01201D03*
Y-00701D03*
X022D03*
Y-01201D03*
Y-00801D03*
Y-00901D03*
Y-01001D03*
Y-01101D03*
Y-01301D03*
Y-01401D03*
Y-01501D03*
Y-01601D03*
Y-00601D03*
Y-00501D03*
Y-00401D03*
Y-00301D03*
Y-00101D03*
Y-00001D03*
Y00099D03*
Y00199D03*
Y-00201D03*
Y00399D03*
Y00499D03*
Y00599D03*
Y00699D03*
Y00299D03*
Y00899D03*
Y00999D03*
Y01099D03*
Y01199D03*
Y00799D03*
Y01299D03*
Y01699D03*
Y01599D03*
Y01499D03*
Y01399D03*
X-002Y-017D03*
X-003D03*
X-002Y018D03*
X-003Y014D03*
Y015D03*
Y016D03*
Y017D03*
Y013D03*
Y008D03*
Y012D03*
Y011D03*
Y01D03*
Y009D03*
Y003D03*
Y007D03*
Y006D03*
Y005D03*
Y004D03*
Y-002D03*
Y002D03*
Y001D03*
Y0D03*
Y-001D03*
Y-003D03*
Y-004D03*
Y-005D03*
Y-006D03*
Y-016D03*
Y-015D03*
Y-014D03*
Y-013D03*
Y-011D03*
Y-01D03*
Y-009D03*
Y-008D03*
Y-012D03*
Y-007D03*
X-002D03*
Y-012D03*
Y-008D03*
Y-009D03*
Y-01D03*
Y-011D03*
Y-013D03*
Y-014D03*
Y-015D03*
Y-016D03*
Y-006D03*
Y-005D03*
Y-004D03*
Y-003D03*
Y-001D03*
Y0D03*
Y001D03*
Y002D03*
Y-002D03*
Y004D03*
Y005D03*
Y006D03*
Y007D03*
Y003D03*
Y009D03*
Y01D03*
Y011D03*
Y012D03*
Y008D03*
Y013D03*
Y017D03*
Y016D03*
Y015D03*
Y014D03*
G54D144*
X018Y007D03*
Y0176D03*
X0Y005D03*
Y014D03*
X021Y01799D03*
X-003Y018D03*
G54D145*
X01435Y-00854D03*
X007Y015D03*
X00954Y00914D03*
X00953Y00285D03*
X01335Y-00422D03*
X009Y015D03*
X-003Y023D03*
X01Y0292D03*
X-003Y028D03*
X022D03*
X00299Y023D03*
X003Y026D03*
Y027D03*
Y028D03*
X-001Y023D03*
Y024D03*
Y025D03*
Y026D03*
Y022D03*
X014Y0175D03*
X015Y0165D03*
Y0175D03*
X016Y0165D03*
Y0175D03*
G54D146*
X01335Y-00854D03*
X006Y015D03*
X01435Y-00422D03*
X01Y015D03*
X009Y0292D03*
X014Y0165D03*
G54D147*
X00479Y-02024D03*
X00304D03*
G54D148*
X00234Y-02142D03*
X00549D03*
G54D149*
X01374Y02991D03*
X01625D03*
G54D150*
X01598Y02885D03*
X01401D03*
G54D151*
X-003Y022D03*
Y029D03*
X022D03*
X00299Y022D03*
X003Y029D03*
X-001Y027D03*
G54D152*
X01635Y-01982D03*
X01002D03*
G54D153*
X01459Y-0173D03*
G54D154*
X009Y00566D03*
M02*