M48
;Layer_Color=9474304
;FILE_FORMAT=2:5
INCH,LZ
;TYPE=PLATED
T1F00S00C0.00800
T2F00S00C0.01200
T3F00S00C0.01299
T6F00S00C0.02756
T8F00S00C0.03346
T9F00S00C0.04016
;TYPE=NON_PLATED
T10F00S00C0.05906
T11F00S00C0.12598
%
T01
X-003765Y-0215
Y-02029
X-0014225Y-0215
X-0002575Y-0201004
X00043Y-0195505
X00179
Y-02149
X0047232Y-0214231
X00622Y-02149
X00579Y-02058
X00588Y-0194555
X00785Y-0198
X0080636Y-02024
X0080721Y-02149
X00993
X00945Y-01981
X00367Y-01991
X0163103Y-02161
X0189
X0178887Y-0204158
X0212942
X0214897Y-02161
X01884Y-017735
Y-01741
X0183Y-01675
X01688Y-01677
X01556Y-01678
X0151Y-01662
X01576Y-01614
X0161094Y-0161579
X01611Y-01531
X01501Y-015205
X01431Y-01453
X01399Y-01396
X01371Y-0154
X0129778Y-0168287
X0133794Y-0172617
X0141825
X0144882Y-01789
X012991Y-01788
X01669Y-01861
X0159726Y-01382
X01556Y-0121625
X01497Y-01214
X0140235Y-01218
X01423Y-01146
X014575Y-011135
X01408Y-01035
X01351Y-00969
X01387Y-00886
X01457Y-00788
X0152647Y-00807
X015504Y-0082747
X015912Y-00825
X01569Y-0079584
X01614Y-00796
X01662Y-0079534
X0164125Y-00827
X01713Y-00881
X01717Y-00941
X01749Y-00963
X01775Y-0095006
X01879Y-00945
X01817Y-00852
X01851Y-00672
X01687Y-0071
X01613Y-00711
X01615Y-00524
X01655
X01687Y-00525
X01748Y-00432
X01851Y-0043
X01951Y-00427
X01953Y-00474
X01952Y-00522
X02049Y-00481
X02169Y-00445
X02151Y-00568
X0221801Y-005525
X02304Y-0051595
Y-00813
X02302Y-00848
Y-00886
X02223Y-00951
X02224Y-01052
X02235Y-01153
X02304Y-0129286
X0204Y-01286
X02041Y-01374
X02039Y-01172
X02042Y-01069
X02043Y-00902
Y-00778
X0204203Y-00684
X0214765Y-00726
X01505Y-0083
X01558Y-0096553
X01727Y-0113
X01747Y-01201
X01458Y-00654
X01293Y-00657
X013427Y-0052321
X01383Y-00454
X01453Y-00482
X011892Y-00444
X01176Y-00547
X01176Y-00606
X01213
X01175Y-00686
X01176Y-00742
X01176Y-00801
Y-00862
X0122Y-0088753
X01176Y-00936
X01194Y-00963
X01251Y-01034
X01122Y-01039
X01085Y-01038
X01059
X010229Y-01039
X01022Y-009364
X01018Y-009
X0097501Y-0081529
X00992Y-00796
X01047Y-00742
X01052Y-0070384
X01094Y-00686
X0084853Y-0066447
X00849Y-00725
X00858Y-00801
X007585Y-007645
X00701Y-0076553
X00702Y-00817
X00655Y-00695
X00634Y-00638
X00575
Y-00581
Y-00532
Y-0047602
Y-0041725
X00633Y-0042
X00696Y-004155
X006995Y-005485
X00633Y-00532
X00699Y-00642
X008752Y-005982
X00832Y-00548
X00941Y-00519
X0088307Y-0097693
X00899Y-010335
X0084Y-0103125
X00776Y-00986
X00649Y-00985
X00575
X00555Y-01006
X00474Y-009845
X00446Y-00936
X00479Y-00902
X00486Y-00775
X00575Y-00861
X005745Y-01097
X00638Y-0109317
X005745Y-01228
X00499Y-0129
Y-0136
X0042952Y-01326
X00401Y-01249
Y-012
X0043077Y-0121262
X00401Y-01149
X00402Y-011
X00404Y-010415
X00264Y-01042
X002765Y-0090739
X00282Y-00822
X0028211Y-00774
X00242Y-00772
X00198Y-00741
X0014813Y-00679
X00149Y-00582
X00174Y-00601
X00162Y-00483
X00151Y-00421
X00175Y-00377
X00311Y-00399
X00309Y-0044
X00311Y-005
X0030803Y-0055797
X00293Y-00659
X00291Y-0070384
X0038774Y-00611
X00187Y-00881
X-00051Y-00721
X-00141Y-00705
X-00146Y-00583
X-00054Y-00579
X-00088Y-00419
X-00059Y-00379
X-00283Y-00951
X-00281Y-0115
X-00282Y-0125
Y-0135
X-0028Y-01448
X-00148Y-01425
X-00141Y-01475
X-00156Y-01554
Y-016705
X-001Y-01674
X-00041
X-00042Y-01557
X00022Y-01563
X00062Y-015
X00048Y-0145
X00112
X00241Y-01454
X00378Y-0145
X004005Y-01404
X00331Y-01348
X00559Y-01448
X00647Y-0144771
X00646Y-01509
X00622Y-01539
X00512Y-01634
X00473Y-01664
X0052Y-01721
X00478Y-01822
X00495Y-018716
Y-01909
X0041675Y-01831
X0039285
X00374Y-01813
X0035125Y-01755
X003485Y-017185
X00372Y-01668
X002765Y-0167
X00179Y-016705
X00194Y-0171919
X00179Y-01602
Y-0154
X001115Y-017735
X00151Y-01827
X0017946Y-01886
X00236Y-01831
X00301Y-01872
X00313Y-01909
X00657Y-0182
X007476Y-0187953
X008Y-01839
X00842Y-01882
X008224Y-01914
X00977Y-01832
X01092Y-01805
X01193Y-01803
X0121975Y-0169186
X0125762Y-0172617
X01037Y-01722
X00886Y-01672
X007825Y-01676
X00899Y-01522
X00936Y-01558
X00994
X0099Y-01391
X00922Y-01382
X0084033Y-01386
X00832Y-0135
X0084Y-0121525
X00899Y-01213
X0099176Y-01214
X00962Y-01145
X00775Y-01252
X00484Y-0116
X-0014Y-012065
X-0014874Y-012797
X00002Y-01391
X-0015797Y-01768
X-0022058Y-0186442
X01254Y-0079584
X-00352Y-0076517
X-0034Y-00663
X-0032097Y-00552
X-00352Y-0096
X-00354Y-01055
X-0035137Y-0125
Y-01356
Y-01462
X-00375Y-0156679
X-0035137Y-01626
X-0038Y-01706
X-00404Y-01814
X-003765Y-01859
X-00311Y-0025
X-00316Y-00052
Y00748
Y0104907
X-00381Y01094
X-00091Y01004
X-00088Y00959
X-00083Y00918
X-00149Y00885
X-00075Y00795
X-00058Y00697
X-00172Y0065
X-00222Y00648
X-00007Y00574
X000485Y00588
X00142Y00576
X00158Y00515
X00176Y003925
X00146Y0037
Y002298
X001645Y001865
X0016377Y001
X001627Y000147
X00144Y-00049
X00147Y-00121
X00197Y-00208
X00275Y-00233
X00349Y-0018
X00374Y-00105
X0034679Y-00021
X0027853Y-0004203
X002795Y-00077
X0033556Y0009581
X00347Y0012743
X0036819Y0015632
X00321Y00153
X00331Y00221
X0033175Y003685
X0032057Y00414
X00333Y0048595
X00334Y00512
X0034132Y00634
X0034082Y00693
X0031Y00773
X00334Y00908
X0032Y01013
X0027284Y00971
X0040269Y00995
X00425Y0097563
X004Y01071
X00478Y0107
X005812Y010172
X00592Y00927
X00598Y00827
X00633
X00592Y00773
X00589Y00739
X0058346Y0070827
X00587Y0068
X0058473Y0063
X00582Y00589
X00585Y00533
X00603Y00511
X0058447Y0049173
X0059Y00383
X0047Y00393
Y00352
X0046931Y00304
X0047Y00275
X0047042Y0023371
X00433Y001555
X00457Y0009125
X00453Y00047
X0040567Y00091
X00575Y-00046
X00633Y-00007
Y-00162
X00575
Y-00311
X00701Y-003095
X0072762Y-003545
X0076242
X0079601Y-0034201
X00823Y-00356
X00807Y-00236
X00709
X00758Y-00162
X00757Y-00046
X00858Y-00009
X00837Y0004
X00892Y001
X00879Y00131
X00865Y00228
X00892Y0024
X0093842Y00235
X01013Y002325
X0104258Y00232
X011181Y00243
X0114101Y0023069
X01108Y002763
Y00315
X0122125Y0031749
X0117916Y001095
X01122Y00108
X01082Y00131
X0106Y00114
X01022Y00135
X0083358Y0023812
X007743Y0023194
X0074Y00233
X0070794Y0022615
X00655Y00233
Y00291
X00675Y00313
X00834Y00376
X008455Y00401
X0080345Y00426
X00799Y0054
X00742Y00555
Y0058569
X00727Y00634
X00728Y00709
X00789Y00744
X0078668Y0078032
X00794Y00831
X00787Y0088943
X0091513Y00889
X0090397Y0093103
X0092447Y00963
X00964
X01004Y0095601
X0109895Y00946
X01101Y00972
X01097Y009
X0107147Y00869
X0104408Y00848
X00999
X01019Y00827
X0104169Y0078599
X01046Y00746
X0104734Y0070845
X01073Y007237
X01105Y00699
Y00645
X0110494Y00615
X01133Y00614
X01087Y0054994
X00988Y00452
X00968Y0042726
X00958Y004787
X009Y00566
X0084133Y00599
X00804Y00664
X00815Y0072664
X00926Y00751
X0093Y00777
X00958Y00807
X00978Y00702
X00979Y00664
X01181Y00732
X012587Y00723
X01248Y00688
X01251Y00646
X0126625Y0088
X01244Y00933
X01208Y00934
X0123943Y0108843
X01178Y01135
X01126Y01136
X0112575Y011825
X01196Y01183
X0112575Y0108425
X01082Y01074
X0098353Y0106541
X0094416Y0106616
X00902Y0107358
X00877Y01083
X0074614Y01094
X0074731Y0106632
X00689Y01083
X0064888Y0106712
X00627Y0109128
X0068628Y00964
X00713
X00981Y01134
X00193Y0117203
X00157Y0109936
X0005Y01071
X00049Y01179
X0041Y00632
X00445
X00406Y00586
X0047058Y0051142
X00471Y0048595
X00742Y00508
X0092975Y0033875
X00919Y-00117
X009Y-00158
X00941Y-00162
X00979
X00962Y-00191
X01054Y-00161
X011421Y-002098
X01193Y-0025
X01215Y-00183
X01214Y-0003576
X01161Y-00035
X0123425Y00017
X01091Y-00282
X01016Y-00281
X0099Y-00304
X00974Y-0036963
X01032Y-0037
X01091
X01148Y-0036963
X00877Y-00087
X00051Y-00065
X000485Y-00024
X-00009Y-0004995
X-00149Y000163
X-00219Y00049
X-0028Y00048
Y-00149
X-0015Y-00122
X-001305Y-001815
X-00059Y-0020817
Y-00298
X-00135Y-00297
X-00214Y-00251
X00156Y-00285
X00048Y00179
X-00149Y00171
X-00276Y0025
X013221Y002752
X01304Y00294
X01323Y00174
X01298Y00131
X01386Y00069
X01361Y-00026
X01385Y-00183
X01355Y-00298
X01323Y-00364
X01549Y-00316
X01582Y-00246
X0158Y-000806
Y-00044
X01556Y-00009
X01642Y000147
Y00063
X01772Y00047
X01773Y00147
X01624Y00205
X01642Y00265
X0153Y0025551
X01553Y00213
X01548Y0017
X0153Y00336
X01556Y00465
X01558Y00551
X0154818Y006484
X01578
X01609Y0064921
X01594Y00724
X0157Y00748
X01621Y00767
X0162575Y00933
X0168599Y0097854
X0174393Y00978
X01744Y00881
X01962Y00874
X0195905Y00824
X0201203Y00821
X01989Y00746
X01935Y00769
X01989Y00914
X02011Y01029
X0195Y01085
X0198Y01127
X02024Y01175
X02119Y01152
X02176Y01149
X02235Y01059
X02181Y0095
X02118Y0094945
X02179Y00846
X0224203Y00769
X0221Y0065
X02217Y00551
X0224Y00459
X0219064Y00451
X02306Y00469
X02304Y0018
X0222003Y00148
X02181Y00149
Y00246
X02117Y00248
X02215Y0004925
X02218Y-00051
X02216Y-00148
X02217Y-0025
X02304Y-0025697
Y-00028
X02085Y00551
X0185Y00534
X017Y0056
Y00624
X01664Y0048595
X014595Y00511
X014222Y004173
Y00389
X01324Y0043268
X01323Y00474
X01319Y0055079
X013072Y00606
X0129778Y00645
X01272Y00693
X01278Y0074179
X01298Y00767
X01325Y00748
X0132354Y0072264
X0128603Y0093
X0137005Y0097602
X01458Y00981
X015475Y009805
X01574Y01081
X0157362Y0111
X0144303Y01087
X0147399Y01184
X0134531Y01185
X014209Y009248
X01719Y01088
X01726Y0116
X01692Y01159
X0169359Y0119
X0173Y01259
X0174Y01434
X01679Y014545
X01653Y01632
X015595Y01593
X0152209Y01595
X01353Y0155
X013545Y01522
X01355Y0141757
X01318Y01432
Y013
X013595Y013345
X01569Y013345
X02024Y01321
X020345Y01404
X01993Y01443
X02035Y0151725
X0195825Y01563
X01852Y01537
X01849Y0164249
X02148Y01619
X022885Y0165682
X02284Y01565
X02258Y01476
X02151Y01323
X02218Y01246
X022885Y01891
Y02014
X02289Y02134
X02232Y02134
X02233Y02193
X02232Y02235
X02289
Y02363
Y02463
X02186
X02074
X02029Y02533
X0195734Y02463
X018157Y02533
X017567Y02533
X016977Y02533
X01639
Y02667
X0173993Y0269163
X01513Y02711
X01352Y0263
X012715Y025185
X0127175Y0230273
X0137Y02168
X01531Y02153
X01596
X01652Y021495
X01735Y021275
X01695Y02014
X01711Y01868
X01648Y01892
X01561Y01868
X0156322Y01932
X0149804Y0199277
X01379Y01868
X01449Y01753
X01322Y01632
X01462Y0237
X01495Y02455
X01583
X01681Y022985
X017945Y023455
X01903Y02184
Y02134
X01953
X0186459Y02014
X0204618
X02045Y01868
X02132Y02235
X02131Y02397
X01208Y02301
X01089Y02281
X01039Y02331
X0098Y02332
X0094016Y02331
X00997Y02382
X01015Y0243289
X0105Y02494
X01078Y0254
X01164Y02558
Y02519
Y0246
X0118637Y0269151
X0126Y0269
X0123975Y02651
X01146Y02738
X0093053Y0254764
X0086142Y02534
X0086142Y0257776
X00829Y0252
X0082218Y0242041
X00731Y0242
X00754Y02318
X007825Y022585
X00819Y02285
X0084173Y0224227
X008535Y022155
X0094016Y02215
X0099454Y02206
X010215Y022155
X0097362Y02143
X0089Y02119
X0092676Y0199297
X01053Y0199344
X01087Y02014
Y01927
X01058Y02119
X0076356Y0220071
X00713Y022367
X00654
X00605Y0223294
X006176Y023362
X00411Y02374
X0037Y02344
X00361Y02231
X00362Y02172
X0020524Y0219426
X0012Y022
X0013Y02123
X00125Y02014
Y01903
X0011198Y017705
X0011248Y0177
X-00001Y01697
X-00146Y0169335
X-0008Y01813
X-00248Y01821
X-001995Y02014
X-00199Y02123
X-00053Y02122
Y0223294
Y02334
Y0237794
X-00027Y0253294
Y0263994
X-0004556Y02675
X-0004507Y02726
X00071Y02642
X0014225Y0256375
X00117Y024
X00131Y02346
X0012Y0229494
X00207Y02296
X00063Y02453
X00449Y02432
Y02508
X00496Y027
X00683Y02559
X00784Y0261726
X00812Y02643
X0085471Y02355
X0079975Y0199343
X00837Y01903
X00832Y0179247
X0070294
X0071081Y01753
X0071031Y01903
X0051
X0051521Y02014
X003265
Y01903
X00326Y01804
Y01753
X005095
X00537Y0158
X00478Y01478
X0048Y01362
X00629Y0136625
X0069393Y01339
X007335Y01351
X00733Y0141
X0088Y0138053
X008967Y01351
X00876Y01338
X00889Y01297
X00956
X00992Y01298
X01023
X01076Y01297
X0118
X01171Y01445
X0114Y01444
X01259Y0143225
X01259Y0162807
X01262Y01753
X012625Y01868
X01005Y01753
X00951Y01712
X01002Y01619
X00992Y01436
X00963Y0135425
X0089Y0123
X0078866Y01243
X00698Y01245
X0057Y01231
X00544Y01268
X00354Y01239
X00165Y01251
X001645Y01296
X00276Y01393
X00111Y01481
X0011198Y0156798
X-0002866Y0148
X-00249Y01431
X-0025Y01347
X-00069Y02014
X00709Y01581
X008375
X0102921Y0121016
X-00316Y01246
X-00323Y01348
Y01452
X-003915Y014525
Y017
Y02014
X-00392Y02123
Y0232394
Y0252394
X-003Y02518
Y0272394
X-00392
X-003915Y01196
X-00392Y02924
X-00328Y03018
X00072
X0014225Y02851
X0011106Y028
X0011984Y02752
X-00015Y02759
X00496Y02799
X0049725Y0289994
X00472Y03018
X00725Y0287794
Y02784
X00666
X00784
X00842Y02784
X00901Y02784
X0096
X01019Y02784
X01078Y02784
X0118637Y02786
X01259Y02897
X01077Y02894
X01172Y03018
X00872
X01411Y02766
X01513Y02795
X01736Y0280687
X0201894Y0290005
T02
X01164Y-0007
X0145086Y-0037314
X01419Y02221
X013855
X01352
X01351Y023
X013845
X01418
X01419Y02378
X013855
X01352
X01795Y02396
Y02423
X01832
Y02396
X01906Y02284
Y02257
Y0223
X01933
Y02257
Y02284
X02006Y02346
Y02373
X02033
X0206
Y02346
X02033
X0120179Y0176845
Y0173722
Y01706
X01103Y01486
X0042124Y0157
X0038774
X0035424
X00339Y019485
X00028Y01476
X01627Y02931
X01663
X01696
T03
X0092638Y-0069794
X0097362
T06
X0129892Y-0173067
X0137924
X0145955
X0141939Y-0168736
X0133908
X015068Y-0177319
X0159695
X0121861Y-0173067
X0117845Y-0168736
X0125876
X011312Y-0177319
X0104105
T08
X0140157Y02885
X0159843
T09
X021Y-01701
X022
Y-01601
X021
Y-01501
Y-01401
Y-01301
Y-01201
Y-01101
Y-01001
Y-00901
Y-00801
Y-00701
Y-00601
Y-00501
Y-00401
X022
Y-00501
Y-00601
Y-00701
Y-00801
Y-00901
Y-01001
Y-01101
Y-01201
Y-01301
Y-01401
Y-01501
X019Y-009
X018
Y-008
X019
Y-007
Y-006
X018
Y-005
Y-004
X019
Y-005
X018Y-007
X01435Y-00854
X01335
Y-00422
X01435
X001Y-004
X0
Y-005
Y-006
X001
Y-007
Y-008
X0
Y-007
Y-009
X001
X-002
Y-008
Y-007
Y-006
Y-005
Y-004
X001Y-005
X-002Y-01
Y-011
Y-012
Y-013
Y-014
Y-015
Y-016
Y-017
X-003
Y-016
Y-015
Y-014
Y-013
Y-012
Y-011
Y-01
Y-009
Y-008
Y-007
Y-006
Y-005
Y-004
Y-003
Y-002
Y-001
Y0
Y001
Y002
Y003
Y004
Y005
Y006
Y007
Y008
Y009
Y01
Y011
X-002
Y01
Y009
Y008
Y007
Y006
Y005
Y004
Y003
Y002
Y001
Y0
Y-001
Y-002
Y-003
X0
Y-002
X001
Y-001
Y0
Y001
Y002
Y003
Y004
Y005
X0
Y004
Y003
Y002
Y001
Y0
Y-001
X001Y-003
Y007
Y008
X0
Y007
Y009
X001
Y01
X0
Y011
X001
X018Y0106
Y0096
X019
Y0106
Y0116
X018
Y0086
X019
Y007
Y006
X018
Y005
X019
Y004
X018
Y003
X019
Y002
X018
Y001
Y0
X019
Y001
Y-001
Y-002
X018
Y-001
Y-003
X019
X021Y-00301
Y-00201
Y-00101
Y-00001
Y00099
Y00199
Y00299
Y00399
Y00499
Y00599
Y00699
Y00799
Y00899
Y00999
Y01099
X022
Y00999
Y00899
Y00799
Y00699
Y00599
Y00499
Y00399
Y00299
Y00199
Y00099
Y-00001
Y-00101
Y-00201
Y-00301
X018Y007
Y0126
X019
Y0136
X018
Y0146
X019
Y0156
X018
Y0166
Y0176
X019
Y0166
X021Y01699
Y01799
X022
Y01699
Y01599
X021
Y01499
Y01399
Y01299
Y01199
X022
Y01299
Y01399
Y01499
X016Y0165
X015
Y0175
X014
Y0165
X016Y0175
X01Y015
X009
X007
X006
X001Y014
X0
Y013
Y012
X001
Y013
X-002
Y012
Y014
Y015
Y016
Y017
Y018
X-001Y022
Y023
Y024
Y025
Y026
Y027
X003
Y026
X0029969Y023
Y022
X-003
Y023
Y018
Y017
Y016
Y015
Y014
Y013
Y012
Y028
Y029
X003
Y028
X009Y0292
X01
X022Y029
Y028
T10
X0095399Y0028503
X00954Y0091496
T11
X0185Y-0105
X0005
X013Y-001
X019Y019
X0Y0195
M30
