%FSTAX23Y23*%
%MOIN*%
%SFA1B1*%

%IPPOS*%
%ADD12R,0.035430X0.039370*%
%ADD13R,0.039370X0.035430*%
%ADD16R,0.032000X0.040000*%
%ADD17R,0.040000X0.032000*%
%ADD18C,0.039370*%
%ADD43R,0.050000X0.060000*%
%ADD44R,0.060000X0.050000*%
%ADD54C,0.005100*%
%ADD55C,0.005000*%
%ADD56C,0.008000*%
%ADD57C,0.020000*%
%ADD58C,0.010000*%
%ADD59C,0.006100*%
%ADD60C,0.030000*%
%ADD63C,0.007000*%
%ADD70C,0.003940*%
%ADD71C,0.001970*%
%ADD72C,0.125980*%
%ADD73O,0.070870X0.059060*%
%ADD74R,0.070870X0.059060*%
%ADD75C,0.059060*%
%ADD76R,0.059060X0.059060*%
%ADD77O,0.041340X0.049210*%
%ADD78R,0.055120X0.074800*%
%ADD79R,0.070870X0.074800*%
%ADD80C,0.057090*%
%ADD81R,0.059060X0.059060*%
%ADD82O,0.039370X0.102360*%
%ADD83R,0.039370X0.039370*%
%ADD84C,0.015000*%
%ADD85C,0.020000*%
%ADD86C,0.016000*%
%ADD87C,0.025980*%
%LNmb1137-1*%
%LPD*%
G36*
X01657Y00294D02*
X01647D01*
X01627Y00314*
X01647Y00334*
X01657*
Y00294*
G37*
G36*
X00428Y00309D02*
Y00289D01*
X00398*
X00418Y00309*
X00398Y00329*
X00428*
Y00309*
G37*
G36*
X00854Y00318D02*
X00834Y00298D01*
X00814Y00318*
Y00328*
X00854*
Y00318*
G37*
G36*
X01092D02*
X01072Y00298D01*
X01052Y00318*
Y00328*
X01092*
Y00318*
G37*
G36*
X00913D02*
X00893Y00298D01*
X00873Y00318*
Y00328*
X00913*
Y00318*
G37*
G36*
X00854Y00278D02*
X00814D01*
Y00308*
X00834Y00288*
X00854Y00308*
Y00278*
G37*
G36*
X00795Y00291D02*
Y00281D01*
X00755*
Y00291*
X00775Y00311*
X00795Y00291*
G37*
G36*
X00913Y00278D02*
X00873D01*
Y00308*
X00893Y00288*
X00913Y00308*
Y00278*
G37*
G36*
X00408Y00309D02*
X00388Y00289D01*
X00378*
Y00329*
X00388*
X00408Y00309*
G37*
G36*
X01092Y00278D02*
X01052D01*
Y00308*
X01072Y00288*
X01092Y00308*
Y00278*
G37*
G36*
X01198Y00354D02*
Y00334D01*
X01168*
X01188Y00354*
X01168Y00374*
X01198*
Y00354*
G37*
G36*
X01178D02*
X01158Y00334D01*
X01148*
Y00374*
X01158*
X01178Y00354*
G37*
G36*
X00408Y00368D02*
X00388Y00348D01*
X00378*
Y00388*
X00388*
X00408Y00368*
G37*
G36*
X01496Y00373D02*
X01476Y00353D01*
X01466*
Y00393*
X01476*
X01496Y00373*
G37*
G36*
X00428Y00368D02*
Y00348D01*
X00398*
X00418Y00368*
X00398Y00388*
X00428*
Y00368*
G37*
G36*
X01033Y00301D02*
X01013Y00321D01*
X00993Y00301*
Y00331*
X01033*
Y00301*
G37*
G36*
X00736D02*
X00716Y00321D01*
X00696Y00301*
Y00331*
X00736*
Y00301*
G37*
G36*
X00795Y00301D02*
X00775Y00321D01*
X00755Y00301*
Y00331*
X00795*
Y00301*
G37*
G36*
X00729Y00495D02*
X00742Y00489D01*
X00742Y0049*
X00751Y00484*
Y00415*
X00707Y00371*
X00703Y00363*
Y00359*
X00691*
Y00333*
X00687Y00331*
X00675*
X00675Y00331*
X00662Y00325*
X00656Y00313*
X00662Y003*
X00663Y00299*
Y00256*
X00655Y00251*
X00655Y00251*
X00642Y00245*
X00636Y00233*
X00642Y0022*
X00642Y00219*
Y-00682*
X00642Y-00682*
X00637Y-00695*
X00642Y-00707*
X00655Y-00712*
X00655Y-00712*
X00663Y-00718*
Y-0074*
X00667Y-00749*
X00683Y-00765*
X00683Y-00765*
X00688Y-00778*
X00701Y-00783*
X0071Y-00779*
X00718Y-00784*
Y-00797*
X0071Y-00802*
X00702Y-00799*
X00689Y-00804*
X00684Y-00817*
X00689Y-00829*
X00702Y-00834*
X0071Y-00831*
X00718Y-00836*
Y-01302*
X00613Y-01408*
X00609Y-01417*
Y-01526*
X00609Y-01526*
X00604Y-01539*
X00609Y-01551*
X00622Y-01556*
X00634Y-01551*
X00639Y-01539*
X00634Y-01526*
X00634Y-01526*
Y-01422*
X00739Y-01316*
X00743Y-01307*
Y-00682*
X00751Y-00667*
X00752Y-00667*
X00753Y-00666*
X00755Y-00665*
X00755Y-00665*
X00757Y-00665*
X00761Y-00667*
X00791*
X00792Y-00667*
X00819*
Y-00666*
X00822Y-00665*
X00831Y-0067*
Y-00682*
X00822Y-00686*
X00798Y-0071*
X00794Y-00719*
Y-01094*
X00798Y-01103*
X00857Y-01162*
Y-01195*
X00849Y-01201*
X0084Y-01197*
X00833Y-012*
X00811*
X00801Y-01204*
X00768Y-01236*
X00762Y-01239*
X00757Y-01252*
X00759Y-01258*
Y-01602*
X00764Y-01612*
X00809Y-01658*
Y-01673*
X008Y-01675*
X00795Y-01663*
X00782Y-01658*
X00769Y-01663*
X00764Y-01676*
X00769Y-01688*
X00782Y-01693*
X00795Y-01688*
X008Y-01676*
X00809Y-01678*
Y-01745*
X00814Y-01755*
X00981Y-01923*
X0098Y-01929*
X00971Y-01951*
Y-02014*
X0098Y-02036*
X01002Y-02045*
X01019Y-02038*
X01027Y-02043*
Y-02187*
X00585*
Y-02147*
X00513*
Y-02187*
X0027*
Y-02147*
X00198*
Y-02187*
X-00349*
X-00349Y-02187*
Y-02186*
X-00374Y-02181*
X-00395Y-02167*
X-00409Y-02146*
X-00414Y-02121*
X-00415*
Y-01783*
X-00406Y-0178*
X-00101Y-02084*
X-00093Y-02088*
X00198*
Y-02096*
Y-02137*
X0027*
Y-02096*
Y-02095*
X00278Y-02088*
X00512*
X00513Y-02096*
Y-02137*
X00552*
Y-02096*
X00519*
X00517Y-02086*
X0052Y-02084*
X00537Y-02067*
X00541Y-02059*
Y-01816*
X00551Y-01806*
X00554Y-01807*
X00604*
X00612*
X00613Y-01807*
X00663*
Y-0178*
X00663Y-01779*
Y-01749*
X00661Y-01745*
X00661Y-01743*
X00661Y-01743*
X00663Y-0174*
Y-0174*
X00663Y-01739*
Y-01731*
X00712*
X00724Y-01744*
Y-01828*
X00728Y-01837*
X00744Y-01853*
X00742Y-01863*
X00735Y-01866*
X00729Y-01879*
X00735Y-01892*
X00747Y-01897*
X0076Y-01892*
X00763Y-01884*
X00773Y-01882*
X00804Y-01913*
X00804Y-01914*
X00809Y-01926*
X00822Y-01931*
X00834Y-01926*
X0084Y-01914*
X00838Y-01909*
X00842Y-01899*
X00854Y-01894*
X00859Y-01882*
X00854Y-01869*
X00842Y-01864*
X00829Y-01869*
X00824Y-01882*
X00826Y-01886*
X00817Y-01891*
X00788Y-01862*
X00793Y-01854*
X008Y-01856*
X00812Y-01851*
X00817Y-01839*
X00812Y-01826*
X008Y-01821*
X00787Y-01826*
X00782Y-01839*
X00784Y-01845*
X00776Y-0185*
X00749Y-01823*
Y-01739*
X00745Y-0173*
X00725Y-0171*
X00717Y-01706*
X00663*
Y-01698*
X0065*
Y-01655*
X00646Y-01646*
X00625Y-01625*
X00617Y-01621*
X00524*
X00524Y-01621*
X00512Y-01616*
X00499Y-01621*
X00494Y-01634*
X00499Y-01646*
X00512Y-01651*
X00524Y-01646*
X00524Y-01646*
X00611*
X00625Y-0166*
Y-01698*
X00613*
X00604*
X00604Y-01698*
X00554*
Y-01704*
X00522*
X0052Y-01703*
X00507Y-01708*
X00502Y-01721*
X00507Y-01733*
X0052Y-01738*
X0053Y-01734*
X00553*
Y-01756*
X00555Y-0176*
X00555Y-01762*
X00555Y-01762*
X00554Y-01765*
X00553Y-01766*
X00553Y-01774*
X00544Y-01777*
X0052Y-01802*
X00516Y-01811*
Y-01855*
X00507Y-01859*
X00495Y-01853*
X00488Y-01856*
X00423*
X00421Y-01846*
X00429Y-01843*
X00434Y-01831*
X00429Y-01818*
X00425Y-01816*
Y-01729*
X00448Y-01706*
X0045Y-01701*
X00451Y-01697*
Y-01517*
X00621Y-01348*
X00622Y-01345*
X00624Y-01339*
Y0033*
X00714Y0042*
X00718Y00429*
Y00494*
X00728Y00496*
X00729Y00495*
G37*
G36*
X02069Y00429D02*
X02066Y00426D01*
X02057Y00413*
X02054Y00399*
X02057Y00384*
X02066Y00371*
X02079Y00362*
X02094Y00359*
X02105*
X0212Y00362*
X02133Y00371*
X02142Y00384*
X02145Y00398*
X02155*
X02157Y00384*
X02166Y00371*
X02173Y00366*
X02172Y00356*
X02171Y00355*
X02159Y00344*
X02133Y00326*
X0212Y00335*
X02105Y00338*
X02094*
X02079Y00335*
X02066Y00326*
X02057Y00313*
X02054Y00299*
X02057Y00284*
X02066Y00271*
X02079Y00262*
X02094Y00259*
X02105*
X0212Y00262*
X02128Y00267*
X02137Y00263*
Y00234*
X02128Y0023*
X0212Y00235*
X02105Y00238*
X02094*
X02079Y00235*
X02066Y00226*
X02057Y00213*
X02057Y00211*
X02048*
X02041Y00218*
Y0031*
X02037Y00319*
X0199Y00366*
X01981Y0037*
X01942*
X01938Y00379*
X01942Y00385*
X01942Y00387*
X01987*
X01995Y00391*
X02043Y00438*
X02067*
X02069Y00429*
G37*
G36*
X01642Y00131D02*
X01622Y00151D01*
X01602Y00131*
Y00161*
X01642*
Y00131*
G37*
G36*
X00971Y00138D02*
Y00118D01*
X00941*
X00961Y00138*
X00941Y00158*
X00971*
Y00138*
G37*
G36*
X01701Y00131D02*
X01681Y00151D01*
X01661Y00131*
Y00161*
X01701*
Y00131*
G37*
G36*
X00385Y00192D02*
X00405Y00172D01*
X00375*
Y00192*
Y00212*
X00405*
X00385Y00192*
G37*
G36*
X01857Y00185D02*
X01866Y00172D01*
X01879Y00163*
X01894Y0016*
X01905*
X0192Y00163*
X01933Y00172*
X01934Y00173*
X01943Y0017*
Y00161*
X01919Y00136*
X01905Y00139*
X01894*
X01879Y00136*
X01866Y00127*
X01857Y00114*
X01855Y001*
X01845*
X01842Y00114*
X01833Y00127*
X0182Y00136*
X01805Y00139*
X01794*
X01779Y00136*
X01766Y00127*
X01757Y00114*
X01755Y00105*
X01746Y00102*
X01738Y00109*
X01729Y00113*
X01721*
X01706Y00121*
X01706Y00122*
Y00122*
X01705Y00124*
X01704Y00125*
X01704Y00125*
X01704Y00127*
X01706Y00131*
Y00161*
X01706Y00162*
Y00187*
X01757*
X01757Y00185*
X01766Y00172*
X01779Y00163*
X01794Y0016*
X01805*
X0182Y00163*
X01833Y00172*
X01842Y00185*
X01845Y00199*
X01855*
X01857Y00185*
G37*
G36*
X01701Y00121D02*
Y00111D01*
X01661*
Y00121*
X01681Y00141*
X01701Y00121*
G37*
G36*
X01642D02*
Y00111D01*
X01602*
Y00121*
X01622Y00141*
X01642Y00121*
G37*
G36*
X00763Y00137D02*
X00783Y00117D01*
X00753*
Y00137*
Y00157*
X00783*
X00763Y00137*
G37*
G36*
X00951Y00138D02*
X00931Y00118D01*
X00921*
Y00158*
X00931*
X00951Y00138*
G37*
G36*
X00803Y00117D02*
X00793D01*
X00773Y00137*
X00793Y00157*
X00803*
Y00117*
G37*
G36*
X01155Y00276D02*
X01175Y00256D01*
X01145*
Y00276*
Y00296*
X01175*
X01155Y00276*
G37*
G36*
X00425Y00231D02*
X00415D01*
X00395Y00251*
X00415Y00271*
X00425*
Y00231*
G37*
G36*
X01195Y00256D02*
X01185D01*
X01165Y00276*
X01185Y00296*
X01195*
Y00256*
G37*
G36*
X01033Y00291D02*
Y00281D01*
X00993*
Y00291*
X01013Y00311*
X01033Y00291*
G37*
G36*
X00736D02*
Y00281D01*
X00696*
Y00291*
X00716Y00311*
X00736Y00291*
G37*
G36*
X02315Y0048D02*
Y-00826D01*
X02307Y-00832*
X02302Y-0083*
X02289Y-00835*
X02289Y-00835*
X02239*
X02234Y-00826*
X02242Y-00815*
X02244Y-00806*
X02199*
Y-00796*
X02244*
X02242Y-00786*
X02233Y-00773*
X02221Y-00765*
X0222Y-00764*
X02221Y-00762*
X02241*
X02249Y-00758*
X02281Y-00726*
X02285Y-00718*
Y00177*
X02295Y00187*
X02299Y00196*
Y00471*
X02302Y00474*
X02305Y00482*
X02315Y0048*
G37*
G36*
X00425Y00172D02*
X00415D01*
X00395Y00192*
X00415Y00212*
X00425*
Y00172*
G37*
G36*
X00939Y00248D02*
X00953Y00245D01*
X00968Y00248*
X00979Y00256*
X00988Y00251*
Y0025*
X01022*
X01028Y00241*
X01024Y00232*
X01024Y0023*
X01019Y00222*
X00927*
X0091Y00239*
X0091Y0024*
X00909Y00241*
X00915Y0025*
X00918*
Y00252*
X00926Y00256*
X00939Y00248*
G37*
G36*
X00385Y00251D02*
X00405Y00231D01*
X00375*
Y00251*
Y00271*
X00405*
X00385Y00251*
G37*
G36*
X00347Y00284D02*
D01*
Y00276*
X00347Y00276*
Y00256*
X00368*
Y00246*
X00347*
Y00226*
Y00217*
Y00167*
X00353Y00162*
X0035Y00156*
X00355Y00143*
X00368Y00138*
X0038Y00143*
X00385Y00156*
X00383Y00162*
Y00167*
X00405*
X00409Y00169*
X00411Y00169*
X00411Y00169*
X00414Y00167*
X00414*
X00415Y00167*
X00425*
X00426Y00167*
X00456*
Y00212*
X00465Y00217*
X0047Y00215*
X00478Y00209*
Y00107*
X00469Y00104*
X00457Y00109*
X00444Y00104*
X00438Y00091*
X00444Y00078*
X00457Y00072*
X00457Y00073*
X00462Y00068*
Y00034*
X00453Y00031*
X00404Y00079*
X00396Y00083*
X00357*
X00352Y00091*
X00353Y00095*
X00348Y00108*
X00335Y00114*
X00334Y00113*
X00318Y00129*
X00321Y00134*
X00321Y00134*
X00333Y0014*
X00339Y00153*
X00333Y00165*
X00323Y0017*
Y00284*
X00336Y00297*
X00347*
Y00284*
G37*
G36*
X01516Y00373D02*
Y00353D01*
X01486*
X01506Y00373*
X01486Y00393*
X01516*
Y00373*
G37*
G36*
X01761Y0088D02*
X01757Y00874D01*
X01754Y0086*
X01757Y00845*
X01762Y00838*
X01757Y00829*
X01708*
X01699Y00825*
X01645Y00772*
X01635Y00774*
X01633Y00779*
X01621Y00784*
X01608Y00779*
X01603Y00767*
X01608Y00754*
X01613Y00752*
X01615Y00744*
X01609Y00736*
X01606*
X01606Y00736*
X01594Y00741*
X01581Y00736*
X01576Y00724*
X01577Y00721*
X01473Y00618*
X01444*
X0144Y00627*
X01702Y00889*
X01757*
X01761Y0088*
G37*
G36*
X00421Y00992D02*
X00412Y00988D01*
X00407Y00975*
X00407Y00975*
X00359Y00927*
X00356Y00919*
Y00783*
X00334Y00761*
X00325Y00767*
X00328Y00773*
X00322Y00785*
X0031Y00791*
X00304Y00789*
X00296Y00794*
Y00904*
X00393Y01001*
X0042*
X00421Y00992*
G37*
G36*
X00455Y00793D02*
Y00783D01*
X00415*
Y00793*
X00435Y00813*
X00455Y00793*
G37*
G36*
Y00803D02*
X00435Y00823D01*
X00415Y00803*
Y00833*
X00455*
Y00803*
G37*
G36*
X00559Y00793D02*
Y00783D01*
X00519*
Y00793*
X00539Y00813*
X00559Y00793*
G37*
G36*
Y0061D02*
X00539Y0059D01*
X00519Y0061*
Y0062*
X00559*
Y0061*
G37*
G36*
X005D02*
X0048Y0059D01*
X0046Y0061*
Y0062*
X005*
Y0061*
G37*
G36*
X00513Y00803D02*
D01*
X00515Y00799*
X00515Y00797*
X00515Y00797*
X00514Y00794*
X00513Y00793*
Y00783*
X00514Y00782*
Y00752*
X00564*
Y0076*
X00578*
X00579Y0076*
X00592Y00754*
X00592Y00754*
X00641Y00705*
Y00603*
X00632Y00599*
X00602Y00629*
X00603Y0063*
X00597Y00642*
X00584Y00648*
X00572Y00643*
X00564Y00648*
Y00651*
X00492*
Y00691*
X00488Y00699*
X00447Y00741*
Y00752*
X0046*
Y00782*
X0046Y00783*
Y00793*
X0046Y00794*
X00459Y00795*
X00458Y00797*
X00458Y00797*
X00458Y00799*
X0046Y00803*
Y00828*
X00513*
Y00803*
G37*
G36*
X01706Y00736D02*
Y00646D01*
X017Y00641*
X01687Y00636*
X01682Y00624*
X01687Y00611*
X017Y00606*
X01706Y00601*
Y00584*
X017Y00577*
X017Y00577*
X01687Y00572*
X01682Y0056*
X01687Y00547*
X01688Y00547*
X01686Y00537*
X01522*
X01517Y00541*
X01509Y00545*
X01356*
X01347Y00541*
X01343Y00537*
X01053*
X0097Y0062*
Y00679*
X00979Y00683*
X00986Y00678*
Y00633*
X0099Y00624*
X01052Y00562*
X01061Y00558*
X01581*
X01589Y00562*
X01683Y00656*
X01687Y00665*
Y0073*
X01697Y0074*
X01706Y00736*
G37*
G36*
X02239Y00664D02*
Y00633D01*
X0223Y00628*
X0222Y00635*
X02205Y00638*
X02194*
X02179Y00635*
X02166Y00626*
X02157Y00613*
X02155Y00599*
X02145*
X02142Y00613*
X02133Y00626*
X02121Y00634*
X0212Y00635*
X02121Y00637*
X02151*
X02159Y00641*
X0218Y00662*
X02194Y00659*
X02205*
X0222Y00662*
X0223Y00669*
X02239Y00664*
G37*
G36*
X00688Y00888D02*
X00668Y00908D01*
X00648Y00888*
Y00918*
X00688*
Y00888*
G37*
G36*
X00748Y00878D02*
Y00868D01*
X00708*
Y00878*
X00728Y00898*
X00748Y00878*
G37*
G36*
Y00888D02*
X00728Y00908D01*
X00708Y00888*
Y00918*
X00748*
Y00888*
G37*
G36*
X02157Y00984D02*
X02166Y00971D01*
X02179Y00962*
X02194Y00959*
X02205*
X0222Y00962*
X02229Y00968*
X02238Y00964*
Y00933*
X02229Y00929*
X0222Y00935*
X02205Y00938*
X02205*
Y00898*
Y00859*
X02205*
X0222Y00862*
X02229Y00868*
X02238Y00864*
Y00855*
X02219Y00835*
X02205Y00838*
X02194*
X02179Y00835*
X02166Y00826*
X02157Y00813*
X02155Y00799*
X02145*
X02142Y00813*
X02133Y00826*
X02121Y00834*
X0212Y00835*
X02121Y00837*
X02131*
X02139Y00841*
X02159Y00861*
X02161Y00865*
X0217Y00868*
X02179Y00862*
X02194Y00859*
X02195*
Y00898*
Y00938*
X02194*
X02179Y00935*
X02172Y0093*
X02163Y00935*
Y00948*
X02159Y00956*
X02138Y00978*
X02142Y00984*
X02145Y00998*
X02155*
X02157Y00984*
G37*
G36*
X02057D02*
X02066Y00971D01*
X02079Y00962*
X02094Y00959*
X02105*
X02119Y00962*
X02138Y00942*
X02137Y00933*
X02129Y00929*
X0212Y00935*
X02105Y00938*
X02094*
X02079Y00935*
X02066Y00926*
X02057Y00913*
X02054Y00899*
X02057Y00884*
X02066Y00871*
X0206Y00862*
X02041*
X02032Y00858*
X02012Y00838*
X02012Y00838*
X01999Y00833*
X01994Y00821*
X01994Y00819*
X01989Y00811*
X01909*
X01908Y00821*
X0192Y00823*
X01933Y00832*
X01942Y00845*
X01945Y0086*
X01942Y00874*
X01933Y00887*
X01934Y00889*
X01943*
X01951Y00893*
X01965Y00906*
X01975Y00904*
X01976Y00901*
X01989Y00896*
X02001Y00901*
X02006Y00914*
X02001Y00926*
X01998Y00927*
X01996Y00937*
X02045Y00986*
X02057*
X02057Y00984*
G37*
G36*
X00891Y00918D02*
X00903Y00912D01*
X00907Y00914*
X00915Y00909*
X00917Y00899*
X00926Y00887*
X00939Y00878*
X00947Y00877*
X0095Y00867*
X00889Y00806*
X0088Y0081*
Y00918*
X00889Y0092*
X00891Y00918*
G37*
G36*
X00559Y00803D02*
X00539Y00823D01*
X00519Y00803*
Y00833*
X00559*
Y00803*
G37*
G36*
X01508Y00853D02*
X01488Y00833D01*
X01478*
Y00873*
X01488*
X01508Y00853*
G37*
G36*
X00688Y00878D02*
Y00868D01*
X00648*
Y00878*
X00668Y00898*
X00688Y00878*
G37*
G36*
X0109Y01311D02*
Y01097D01*
X01082Y01091*
X01069Y01086*
X01064Y01074*
X01069Y01061*
X01071Y01051*
X01018Y00999*
X00914*
X00905Y00995*
X00859Y00949*
X00855Y0094*
Y0062*
X00847Y00614*
X00841Y00617*
X0084Y00617*
X00832Y00622*
Y00648*
X00828Y00656*
X00821Y00663*
X00821Y00664*
X00816Y00676*
X00804Y00681*
X00799Y00679*
X0079Y00685*
Y00726*
X00801Y00731*
X00807Y00744*
X00801Y00756*
X00789Y00762*
X00789Y00763*
X00799Y00767*
X00804Y0078*
X00799Y00793*
X00786Y00798*
X00773Y00793*
X00768Y0078*
X00768Y00779*
X00754Y00765*
X00751Y00757*
Y00578*
X00742Y00572*
X00742Y00573*
X00729Y00567*
X00728Y00566*
X00718Y00568*
Y0083*
X00725Y00837*
X00753*
Y00867*
X00753Y00868*
Y00878*
X00753Y00879*
X00752Y0088*
X00751Y00881*
X00751Y00882*
X00751Y00884*
X00753Y00888*
Y00918*
X00753Y00919*
Y00946*
X0074*
Y00949*
X00736Y00957*
X00731Y00963*
X00731Y00964*
X00726Y00975*
X00732Y00983*
X00738*
X00747Y00987*
X00852Y01093*
X00861Y01087*
X00859Y01083*
X00864Y0107*
X00877Y01065*
X00889Y0107*
X00894Y01083*
X0089Y01093*
X00889Y01095*
X0089Y01098*
X00919*
X00931Y01086*
Y01079*
X00931Y01079*
X00925Y01066*
X00931Y01053*
X00944Y01047*
X00957Y01053*
X00958Y01057*
X00968*
X0097Y01052*
X00975Y0105*
X00976Y01043*
X0097Y01035*
X00888*
X00879Y01031*
X0081Y00963*
X00807Y00954*
Y00861*
X00794Y00848*
X00794Y00848*
X00781Y00843*
X00776Y00831*
X00781Y00818*
X00794Y00813*
X00806Y00818*
X00811Y00831*
X00811Y00831*
X00828Y00847*
X00832Y00856*
Y00949*
X00893Y0101*
X00977*
X00985Y01014*
X01058Y01086*
X01062Y01095*
Y01325*
X01071Y01329*
X0109Y01311*
G37*
G36*
X01516Y00432D02*
Y00412D01*
X01486*
X01506Y00432*
X01486Y00452*
X01516*
Y00432*
G37*
G36*
X01496D02*
X01476Y00412D01*
X01466*
Y00452*
X01476*
X01496Y00432*
G37*
G36*
X01617D02*
X01637Y00412D01*
X01607*
Y00432*
Y00452*
X01637*
X01617Y00432*
G37*
G36*
X01178Y00473D02*
X01158Y00453D01*
X01148*
Y00493*
X01158*
X01178Y00473*
G37*
G36*
X01657Y00412D02*
X01647D01*
X01627Y00432*
X01647Y00452*
X01657*
Y00412*
G37*
G36*
X01178Y00414D02*
X01158Y00394D01*
X01148*
Y00434*
X01158*
X01178Y00414*
G37*
G36*
X01435Y00367D02*
Y00348D01*
X01465*
X01466Y00347*
X01476*
X01477Y00348*
X01477*
X01478Y00348*
X0148Y00349*
X0148Y00349*
X01482Y00349*
X01486Y00347*
X01508*
X01513Y00339*
X01512Y00336*
X01517Y00323*
X01517Y00323*
Y00286*
X01521Y00278*
X01561Y00237*
X01559Y00234*
X01549Y00233*
X01544Y00239*
X01535Y00243*
X01226*
Y00251*
Y00262*
X01309*
X01322Y00256*
X01335Y00262*
X0134Y00275*
X01335Y00288*
X01322Y00293*
X01322Y00293*
X01322Y00293*
X01322Y00294*
X01321Y00295*
X01316Y00306*
X01304Y00312*
X01291Y00306*
X01285Y00294*
X0128Y00286*
X01226*
Y00301*
X01226Y00301*
X01234Y00304*
X01239Y00317*
X01234Y0033*
X01226Y00333*
Y00341*
X01387*
X01395Y00345*
X01421Y0037*
X01422Y0037*
X01426Y00372*
X01435Y00367*
G37*
G36*
X01198Y00414D02*
Y00394D01*
X01168*
X01188Y00414*
X01168Y00434*
X01198*
Y00414*
G37*
G36*
X00426Y00407D02*
X00416D01*
X00396Y00427*
X00416Y00447*
X00426*
Y00407*
G37*
G36*
X00386Y00427D02*
X00406Y00407D01*
X00376*
Y00427*
Y00447*
X00406*
X00386Y00427*
G37*
G36*
X01755Y00738D02*
D01*
Y00661*
X01844*
Y00725*
X01853Y00728*
X01861Y0072*
X01857Y00714*
X01854Y007*
X01857Y00685*
X01866Y00672*
X01879Y00663*
X01894Y0066*
X01905*
X0192Y00663*
X01933Y00672*
X01942Y00685*
X01944Y00698*
X01954Y00701*
X01965Y0069*
X01974Y00686*
X02057*
X02057Y00684*
X02066Y00671*
X0206Y00662*
X02034*
X02025Y00658*
X01994Y00627*
X0199Y00619*
Y00542*
X01953Y00504*
X01943Y00507*
X01942Y00514*
X01933Y00527*
X0192Y00536*
X01905Y00539*
X01894*
X01879Y00536*
X01876Y00534*
X01866Y00537*
X01862Y00546*
X0185Y00551*
X01837Y00546*
X01833Y00537*
X01823Y00534*
X0182Y00536*
X01805Y00539*
X01805*
Y00505*
X01844*
X01845Y005*
X01845Y00499*
X01855*
X01857Y00485*
X01866Y00472*
X01872Y00467*
X0187Y00458*
X01846*
X01837Y00454*
X01819Y00436*
X01805Y00439*
X01794*
X01779Y00436*
X01766Y00427*
X01759Y00417*
X01749Y0042*
Y00479*
X01759Y00482*
X01766Y00472*
X01779Y00463*
X01794Y0046*
X01795*
Y00499*
Y00539*
X01794*
X01779Y00536*
X01766Y00527*
X01757Y00514*
X01756Y00507*
X01746Y00503*
X01716Y00533*
X01709Y00536*
Y00546*
X01712Y00547*
X01717Y0056*
X01717Y0056*
X01727Y0057*
X01731Y00579*
Y00733*
X01743Y00745*
X01755*
Y00738*
G37*
G36*
X02068Y00628D02*
X02066Y00626D01*
X02057Y00613*
X02054Y00599*
X02057Y00584*
X02066Y00571*
X02079Y00562*
X02094Y00559*
X02105*
X02119Y00562*
X02139Y00542*
X02148Y00538*
X02167*
X02169Y00529*
X02166Y00526*
X02157Y00513*
X02155Y00499*
X02145*
X02142Y00513*
X02133Y00526*
X0212Y00535*
X02105Y00538*
X02094*
X02079Y00535*
X02066Y00526*
X02057Y00513*
X02054Y00499*
X02057Y00484*
X02065Y00472*
X02061Y00463*
X02038*
X02029Y00459*
X01981Y00412*
X01942*
X01942Y00414*
X01933Y00427*
X0192Y00436*
X0192Y00436*
X0192Y00437*
X02011Y00528*
X02015Y00537*
Y00613*
X02039Y00637*
X02065*
X02068Y00628*
G37*
G36*
X00807Y00516D02*
Y00488D01*
X00811Y00479*
X00923Y00367*
X00918Y00359*
X00868*
X00859*
X00854*
X00848Y00368*
X00851Y00376*
X00846Y00388*
X00834Y00393*
X00821Y00388*
X00816Y00376*
X00819Y00368*
X00813Y00359*
X008*
Y0036*
X0079*
Y00516*
X00799Y00521*
X00799Y00521*
X00807Y00516*
G37*
G36*
X00559Y0057D02*
X00519D01*
Y006*
X00539Y0058*
X00559Y006*
Y0057*
G37*
G36*
X005D02*
X0046D01*
Y006*
X0048Y0058*
X005Y006*
Y0057*
G37*
G36*
X00158Y00497D02*
D01*
X00164Y00492*
Y00405*
X00163Y00405*
X00158Y00392*
X00163Y00379*
X00176Y00374*
X00183Y0037*
Y00206*
X00174Y002*
X00164Y00204*
X00152Y002*
X00144Y00204*
X00142Y00214*
X00133Y00227*
X0012Y00236*
X00105Y00239*
X00094*
X00079Y00236*
X00072Y00232*
X00064Y00236*
Y0024*
X00038Y00239*
Y00235*
X00029Y0023*
X0002Y00236*
X00005Y00239*
X-00005*
X-0002Y00236*
X-00033Y00227*
X-00042Y00214*
X-00045Y002*
X-00042Y00185*
X-00033Y00172*
X-00031Y0017*
X-00034Y00161*
X-00165*
X-00168Y0017*
X-00166Y00172*
X-00157Y00185*
X-00154Y002*
X-00157Y00214*
X-00166Y00227*
X-00179Y00236*
X-00194Y00239*
X-00205*
X-0022Y00236*
X-00233Y00227*
X-00242Y00214*
X-00245Y002*
X-00255*
X-00257Y00214*
X-00266Y00227*
X-00279Y00236*
X-00294Y00239*
X-00305*
X-0032Y00236*
X-00331Y00228*
X-0034Y00233*
Y00266*
X-00331Y00271*
X-0032Y00263*
X-00305Y0026*
X-00294*
X-00279Y00263*
X-00266Y00272*
X-00257Y00285*
X-00255Y00299*
X-00245*
X-00242Y00285*
X-00233Y00272*
X-0022Y00263*
X-00205Y0026*
X-00194*
X-00179Y00263*
X-00166Y00272*
X-00157Y00285*
X-00154Y003*
X-00157Y00314*
X-00166Y00327*
X-00165Y00329*
X-00042*
X-00038Y0032*
X-00042Y00314*
X-00045Y003*
X-00042Y00285*
X-00033Y00272*
X-0002Y00263*
X-00005Y0026*
X00005*
X0002Y00263*
X00033Y00272*
X00042Y00285*
X00045Y00299*
X00055*
X00057Y00285*
X00066Y00272*
X00079Y00263*
X00094Y0026*
X00105*
X0012Y00263*
X00133Y00272*
X00142Y00285*
X00145Y003*
X00142Y00314*
X00133Y00327*
X0012Y00336*
X00105Y00339*
X00094*
X0008Y00336*
X00067Y0035*
X0008Y00363*
X00094Y0036*
X00105*
X0012Y00363*
X00133Y00372*
X00142Y00385*
X00145Y004*
X00142Y00414*
X00133Y00427*
X0012Y00436*
X00105Y00439*
X00094*
X00079Y00436*
X00066Y00427*
X00057Y00414*
X00055Y004*
X00045*
X00042Y00414*
X00033Y00427*
X00021Y00435*
X0002Y00436*
X00021Y00438*
X00051*
X00059Y00442*
X0008Y00463*
X00094Y0046*
X00105*
X0012Y00463*
X00133Y00472*
X00142Y00485*
X00144Y00494*
X00152Y00499*
X00158Y00497*
G37*
G36*
X01198Y00473D02*
Y00453D01*
X01168*
X01188Y00473*
X01168Y00493*
X01198*
Y00473*
G37*
G36*
X00408Y00486D02*
X00388Y00466D01*
X00378*
Y00506*
X00388*
X00408Y00486*
G37*
G36*
X01725Y00489D02*
Y00385D01*
X01728Y00376*
X01756Y00349*
X01756Y00346*
X0173Y00319*
X01726Y00311*
Y00269*
X01711Y00254*
X01608*
X01579Y00283*
Y00289*
X01595*
Y00314*
X01605*
Y00289*
X01621*
Y00294*
X01607*
Y00314*
Y00334*
X01637*
X01617Y00314*
X01628Y00302*
X0163Y00303*
X01643Y0029*
X01646Y00289*
X01647Y00288*
X01657*
X01658Y00289*
X01688*
Y00339*
Y00341*
X01692Y00344*
Y00401*
X01688*
Y00407*
Y00457*
X01658*
X01657Y00457*
X01647*
X01646Y00457*
X01645Y00456*
X01643Y00455*
X01643Y00455*
X01641Y00455*
X01637Y00457*
X01615*
Y00473*
X01612Y00481*
X0161Y00484*
X01593Y00501*
X0159Y00502*
X01592Y00512*
X0166*
X01661Y00502*
X01651Y00498*
X01646Y00485*
X01651Y00473*
X01664Y00468*
X01676Y00473*
X01681Y00485*
X01676Y00498*
X01666Y00502*
X01667Y00512*
X01702*
X01725Y00489*
G37*
G36*
X00428Y00486D02*
Y00466D01*
X00398*
X00418Y00486*
X00398Y00506*
X00428*
Y00486*
G37*
G36*
X01342Y0004D02*
X01338Y0003D01*
X01243*
X01234Y00034*
X01221Y00029*
X01216Y00017*
X01221Y00004*
X01234Y0*
X01243Y00003*
X01355*
X01449Y-0009*
X01452Y-00091*
X01459Y-00094*
X0157*
X0158Y-00098*
X01592Y-00093*
X01596Y-00084*
X01621Y-00059*
X01654*
Y-00067*
Y-00082*
X01654Y-00083*
X01656Y-00086*
Y-00091*
X01655Y-00091*
Y-00107*
X01705*
Y-00091*
X017Y-00091*
Y-00089*
Y-00088*
X01703Y-00086*
X01705Y-00083*
X01705Y-00082*
Y-00081*
Y-00052*
X01705Y-00051*
Y-00024*
X01674*
X0167Y-00015*
X01689Y00004*
X01693Y00013*
Y0008*
X01706*
Y00088*
X01724*
X01733Y00079*
Y-00017*
X01737Y-00026*
X01766Y-00055*
X01771Y-00057*
X01772Y-00067*
X01766Y-00072*
X01757Y-00085*
X01755Y-00095*
X01844*
X01845Y-001*
X01845Y-001*
X01855*
X01857Y-00114*
X01866Y-00127*
X01879Y-00136*
X01894Y-00139*
X01905*
X0192Y-00136*
X01933Y-00127*
X01942Y-00114*
X01945Y-001*
X01942Y-00085*
X01933Y-00072*
X01928Y-00068*
X01931Y-00059*
X01954*
X01962Y-00055*
X0208Y00062*
X02094Y00059*
X02105*
X0212Y00062*
X02128Y00067*
X02137Y00063*
Y00034*
X02128Y0003*
X0212Y00035*
X02105Y00038*
X02094*
X02079Y00035*
X02066Y00026*
X02057Y00013*
X02054Y-00001*
X02057Y-00015*
X02066Y-00028*
X02079Y-00037*
X02094Y-0004*
X02105*
X0212Y-00037*
X02128Y-00032*
X02137Y-00036*
Y-00065*
X02128Y-00069*
X0212Y-00064*
X02105Y-00061*
X02105*
Y-00101*
Y-0014*
X02105*
X0212Y-00137*
X02128Y-00132*
X02137Y-00136*
Y-00165*
X02128Y-00169*
X0212Y-00164*
X02105Y-00161*
X02094*
X02079Y-00164*
X02066Y-00173*
X02057Y-00186*
X02054Y-00201*
X02057Y-00215*
X02061Y-00221*
X02048Y-00234*
X01939*
X01934Y-00225*
X01942Y-00214*
X01945Y-002*
X01942Y-00185*
X01933Y-00172*
X0192Y-00163*
X01905Y-0016*
X01894*
X01879Y-00163*
X01866Y-00172*
X01857Y-00185*
X01855Y-00199*
X01845*
X01842Y-00185*
X01833Y-00172*
X0182Y-00163*
X01805Y-0016*
X01794*
X0178Y-00163*
X01772Y-00155*
X01763Y-00151*
X01706*
Y-00142*
X01705*
Y-00133*
Y-00117*
X01655*
Y-00133*
Y-00136*
X01648Y-00142*
X01646*
X01596*
Y-00151*
X01534*
X01525Y-00155*
X01482Y-00197*
X01154*
X01154Y-00197*
X01142Y-00192*
X01136Y-00194*
X01128Y-00188*
Y-00162*
X01197Y-00093*
X012Y-00084*
Y-00018*
X01205*
Y00011*
X01205Y00012*
Y00022*
X01205Y00023*
Y00023*
X01204Y00024*
X01204Y00025*
X01203Y00026*
X01204Y00028*
X01205Y00032*
Y00062*
X01205Y00063*
Y0009*
X01209Y00094*
X01288*
X01342Y0004*
G37*
G36*
X00771Y-00642D02*
X00751Y-00662D01*
X00741*
Y-00622*
X00751*
X00771Y-00642*
G37*
G36*
X01673Y-00672D02*
Y-00692D01*
X01643*
X01663Y-00672*
X01643Y-00652*
X01673*
Y-00672*
G37*
G36*
X00791Y-00642D02*
Y-00662D01*
X00761*
X00781Y-00642*
X00761Y-00622*
X00791*
Y-00642*
G37*
G36*
X01653Y-00613D02*
X01633Y-00633D01*
X01623*
Y-00593*
X01633*
X01653Y-00613*
G37*
G36*
X-00121Y-00551D02*
Y-00603D01*
X-0018Y-00663*
X-00194Y-0066*
X-00205*
X-0022Y-00663*
X-00228Y-00669*
X-00237Y-00664*
Y-00635*
X-00228Y-0063*
X-0022Y-00636*
X-00205Y-00639*
X-00194*
X-00179Y-00636*
X-00166Y-00627*
X-00157Y-00614*
X-00154Y-006*
X-00157Y-00585*
X-00161Y-00579*
X-0013Y-00548*
X-00121Y-00551*
G37*
G36*
X0174Y-00708D02*
D01*
X01749Y-00712*
X01757*
X01757Y-00714*
X01766Y-00727*
X01766Y-00728*
X01764Y-00737*
X01701*
Y-0073*
X01674*
X01673Y-00729*
X01643*
X01639Y-00731*
X01637Y-00731*
X01637Y-00731*
X01634Y-0073*
X01633Y-00729*
X01632*
X01626Y-00721*
X0163Y-00711*
X01628Y-00706*
X01633Y-00697*
X01634Y-00697*
X01635Y-00696*
X01637Y-00695*
X01637Y-00695*
X01639Y-00695*
X01643Y-00697*
X01673*
X01674Y-00697*
X01701*
Y-00682*
X01713*
X0174Y-00708*
G37*
G36*
X01034Y-00703D02*
X01034Y-00703D01*
X01039Y-00716*
X01039Y-00716*
Y-00726*
X01034Y-00729*
X01028Y-00742*
X01023Y-0075*
X00891*
X00867Y-00725*
X00867Y-00725*
X00862Y-00712*
X00862Y-00707*
X0088*
X00888Y-00703*
X00913Y-00679*
X0101*
X01034Y-00703*
G37*
G36*
X01535Y-00672D02*
X01515Y-00692D01*
X01505*
Y-00652*
X01515*
X01535Y-00672*
G37*
G36*
X01653D02*
X01633Y-00692D01*
X01623*
Y-00652*
X01633*
X01653Y-00672*
G37*
G36*
X01555D02*
Y-00692D01*
X01525*
X01545Y-00672*
X01525Y-00652*
X01555*
Y-00672*
G37*
G36*
X00265Y-0052D02*
X00255D01*
X00235Y-005*
X00255Y-0048*
X00265*
Y-0052*
G37*
G36*
X00225Y-005D02*
X00245Y-0052D01*
X00215*
Y-005*
Y-0048*
X00245*
X00225Y-005*
G37*
G36*
X00159Y-00408D02*
X00168Y-00412D01*
X00187*
Y-00425*
X00217*
X00218Y-00425*
X00228*
X00229Y-00425*
X0023Y-00424*
X00232Y-00423*
X00232Y-00423*
X00234Y-00423*
X00238Y-00425*
X00268*
X00269Y-00425*
X00296*
Y-00419*
X00305Y-00414*
X00311Y-00416*
X00323Y-00411*
X00326Y-00403*
X00336Y-00405*
Y-00456*
X00311Y-00482*
X00311Y-00482*
X00305Y-00484*
X00296Y-00479*
Y-00475*
X00266*
X00265Y-00474*
X00255*
X00254Y-00475*
X00253Y-00475*
X00251Y-00476*
X00251Y-00476*
X00249Y-00476*
X00245Y-00474*
X0022*
Y-0047*
X00216Y-00461*
X00204Y-00449*
X00195Y-00445*
X00124*
X00121Y-00436*
X00133Y-00427*
X00142Y-00414*
X00143Y-00405*
X00153Y-00402*
X00159Y-00408*
G37*
G36*
X-00037Y-00378D02*
X-00042Y-00385D01*
X-00045Y-004*
X-00042Y-00414*
X-00037Y-00421*
X-00042Y-0043*
X-00051*
X-0006Y-00434*
X-00087Y-0046*
X-00096Y-00457*
Y-00392*
X-00073Y-00369*
X-00042*
X-00037Y-00378*
G37*
G36*
X-00338Y-00379D02*
X-00342Y-00385D01*
X-00345Y-004*
X-00342Y-00414*
X-00333Y-00427*
X-0032Y-00436*
X-00305Y-00439*
X-00294*
X-00279Y-00436*
X-00271Y-0043*
X-00262Y-00435*
Y-00464*
X-00271Y-00469*
X-00279Y-00463*
X-00294Y-0046*
X-00305*
X-0032Y-00463*
X-00333Y-00472*
X-00342Y-00485*
X-00345Y-005*
X-00342Y-00514*
X-00333Y-00527*
X-0032Y-00536*
X-00305Y-00539*
X-00294*
X-00279Y-00536*
X-00271Y-0053*
X-00262Y-00535*
Y-00564*
X-00271Y-00569*
X-00279Y-00563*
X-00294Y-0056*
X-00295*
Y-006*
Y-00639*
X-00294*
X-00279Y-00636*
X-00271Y-0063*
X-00262Y-00635*
Y-00664*
X-00271Y-00669*
X-00279Y-00663*
X-00294Y-0066*
X-00305*
X-0032Y-00663*
X-00333Y-00672*
X-00342Y-00685*
X-00345Y-007*
X-00342Y-00714*
X-00333Y-00727*
X-0032Y-00736*
X-00305Y-00739*
X-00294*
X-00279Y-00736*
X-00271Y-0073*
X-00262Y-00735*
Y-00764*
X-00271Y-00769*
X-00279Y-00763*
X-00294Y-0076*
X-00305*
X-0032Y-00763*
X-00333Y-00772*
X-00342Y-00785*
X-00345Y-008*
X-00342Y-00814*
X-00333Y-00827*
X-0032Y-00836*
X-00305Y-00839*
X-00294*
X-00279Y-00836*
X-00271Y-0083*
X-00262Y-00835*
Y-00864*
X-00271Y-00869*
X-00279Y-00863*
X-00294Y-0086*
X-00305*
X-0032Y-00863*
X-00333Y-00872*
X-00342Y-00885*
X-00345Y-009*
X-00342Y-00914*
X-00333Y-00927*
X-0032Y-00936*
X-00305Y-00939*
X-00294*
X-00279Y-00936*
X-00271Y-0093*
X-00262Y-00935*
Y-00964*
X-00271Y-00969*
X-00279Y-00963*
X-00294Y-0096*
X-00305*
X-0032Y-00963*
X-00333Y-00972*
X-00342Y-00985*
X-00345Y-01*
X-00342Y-01014*
X-00333Y-01027*
X-0032Y-01036*
X-00305Y-01039*
X-00294*
X-00279Y-01036*
X-00271Y-0103*
X-00262Y-01035*
Y-01064*
X-00271Y-01069*
X-00279Y-01063*
X-00294Y-0106*
X-00305*
X-0032Y-01063*
X-00333Y-01072*
X-00342Y-01085*
X-00345Y-011*
X-00342Y-01114*
X-00333Y-01127*
X-0032Y-01136*
X-00305Y-01139*
X-00294*
X-00279Y-01136*
X-00271Y-0113*
X-00262Y-01135*
Y-01164*
X-00271Y-01169*
X-00279Y-01163*
X-00294Y-0116*
X-00305*
X-0032Y-01163*
X-00333Y-01172*
X-00342Y-01185*
X-00345Y-012*
X-00342Y-01214*
X-00333Y-01227*
X-0032Y-01236*
X-00305Y-01239*
X-00294*
X-00279Y-01236*
X-00271Y-0123*
X-00262Y-01235*
Y-01264*
X-00271Y-01269*
X-00279Y-01263*
X-00294Y-0126*
X-00305*
X-0032Y-01263*
X-00333Y-01272*
X-00342Y-01285*
X-00345Y-013*
X-00342Y-01314*
X-00333Y-01327*
X-0032Y-01336*
X-00305Y-01339*
X-00294*
X-00279Y-01336*
X-00271Y-0133*
X-00262Y-01335*
Y-01364*
X-00271Y-01369*
X-00279Y-01363*
X-00294Y-0136*
X-00305*
X-0032Y-01363*
X-00333Y-01372*
X-00342Y-01385*
X-00345Y-014*
X-00342Y-01414*
X-00333Y-01427*
X-0032Y-01436*
X-00305Y-01439*
X-00294*
X-00279Y-01436*
X-00271Y-0143*
X-00262Y-01435*
Y-0145*
X-00258Y-01458*
X-00238Y-01479*
X-00242Y-01485*
X-00245Y-01499*
X-00255*
X-00257Y-01485*
X-00266Y-01472*
X-00279Y-01463*
X-00294Y-0146*
X-00305*
X-0032Y-01463*
X-00333Y-01472*
X-00342Y-01485*
X-00345Y-015*
X-00342Y-01514*
X-00333Y-01527*
X-0033Y-01529*
X-00333Y-01539*
X-00353*
X-00385Y-01506*
Y-00344*
X-00376Y-00341*
X-00338Y-00379*
G37*
G36*
X00226Y-006D02*
X00246Y-0062D01*
X00216*
Y-006*
Y-0058*
X00246*
X00226Y-006*
G37*
G36*
X01673Y-00613D02*
Y-00633D01*
X01643*
X01663Y-00613*
X01643Y-00593*
X01673*
Y-00613*
G37*
G36*
X00266Y-0062D02*
X00256D01*
X00236Y-006*
X00256Y-0058*
X00266*
Y-0062*
G37*
G36*
X01757Y-00514D02*
X01766Y-00527D01*
X01769Y-0053*
X01767Y-00539*
X01675*
X01669Y-00531*
X01672Y-00524*
X01671Y-0052*
X01676Y-00512*
X01757*
X01757Y-00514*
G37*
G36*
X02179Y-00537D02*
X02194Y-0054D01*
X02205*
X0222Y-00537*
X0223Y-0053*
X02239Y-00535*
Y-00566*
X0223Y-00571*
X0222Y-00564*
X02205Y-00561*
X02194*
X02179Y-00564*
X02166Y-00573*
X02157Y-00586*
X02155Y-006*
X02145*
X02142Y-00586*
X02133Y-00573*
X02123Y-00566*
X02124Y-00564*
X02132Y-0056*
X02158Y-00535*
X02158Y-00533*
X0216Y-00532*
X02168Y-0053*
X02179Y-00537*
G37*
G36*
X00018Y-016D02*
Y-0162D01*
X-00011*
X00008Y-016*
X-00011Y-0158*
X00018*
Y-016*
G37*
G36*
X-00001D02*
X-00021Y-0162D01*
X-00031*
Y-0158*
X-00021*
X-00001Y-016*
G37*
G36*
X-00043Y-00492D02*
X-00045Y-005D01*
X-00042Y-00514*
X-00033Y-00527*
X-0002Y-00536*
X-00005Y-00539*
X00005*
X00019Y-00536*
X00045Y-00562*
X00054Y-00566*
X00059*
X00064Y-00575*
X00057Y-00585*
X00055Y-00599*
X0005*
X00043Y-00594*
X00042Y-00585*
X00033Y-00572*
X0002Y-00563*
X00005Y-0056*
X00005*
Y-00595*
X00044*
X00045Y-006*
X00045Y-006*
X00049*
X00056Y-00605*
X00057Y-00614*
X00066Y-00627*
X00079Y-00636*
X00094Y-00639*
X00105*
X00119Y-00636*
X00185Y-00703*
Y-00728*
X00185Y-00728*
X0018Y-00741*
X00185Y-00753*
X00198Y-00758*
X0021Y-00753*
X00215Y-00741*
X0021Y-00728*
X0021Y-00728*
Y-00698*
X00206Y-00689*
X00138Y-0062*
X00142Y-00614*
X00145Y-006*
X00142Y-00585*
X00133Y-00572*
X00135Y-00566*
X00188*
Y-00575*
Y-0058*
X00179Y-00585*
X00174Y-00583*
X00161Y-00588*
X00156Y-00601*
X00161Y-00613*
X00174Y-00618*
X00179Y-00616*
X00188Y-00621*
Y-00625*
X00196*
Y-00636*
X002Y-00644*
X00228Y-00673*
Y-00761*
X00224Y-00772*
X00229Y-00784*
X00242Y-00789*
X00254Y-00784*
X00259Y-00772*
X00254Y-00759*
X00253Y-00758*
Y-00668*
X00249Y-00659*
X00221Y-00631*
Y-00625*
X00246*
X0025Y-00623*
X00252Y-00623*
X00252Y-00623*
X00255Y-00625*
X00255*
X00256Y-00625*
X00266*
X00267Y-00625*
X00297*
Y-00612*
X0033*
X00338Y-00608*
X00387Y-0056*
X00396Y-00563*
Y-00691*
X00292Y-00795*
X00289Y-00804*
Y-01859*
X00288Y-01859*
X00283Y-01872*
X00288Y-01884*
X00301Y-01889*
X00302Y-01889*
X00354Y-01941*
Y-01978*
X00354Y-01978*
X00349Y-01991*
X00354Y-02003*
X00367Y-02008*
X00379Y-02003*
X00384Y-01991*
X00379Y-01978*
X00379Y-01978*
Y-01936*
X00375Y-01927*
X00317Y-01869*
X00314Y-0186*
Y-01752*
X00323Y-01748*
X00335Y-01761*
X00336Y-01761*
Y-01853*
X0034Y-01863*
X00359Y-01882*
X00369Y-01886*
X00488*
X00495Y-01889*
X00507Y-01884*
X00516Y-01887*
Y-02006*
X00506Y-02008*
X00502Y-01997*
X00484Y-0199*
Y-02024*
X00479*
Y-02029*
X00448*
X00456Y-0205*
X00464Y-02053*
X00462Y-02063*
X00321*
X00319Y-02053*
X00327Y-0205*
X00335Y-02029*
X00272*
X00281Y-0205*
X00289Y-02053*
X00287Y-02063*
X-00087*
X-00399Y-01751*
Y-0154*
X-0039Y-01537*
X-00367Y-0156*
X-00358Y-01563*
X-00338*
X-00333Y-01572*
X-00342Y-01585*
X-00345Y-016*
X-00342Y-01614*
X-00333Y-01627*
X-0032Y-01636*
X-00305Y-01639*
X-00294*
X-00279Y-01636*
X-00266Y-01627*
X-00257Y-01614*
X-00255Y-016*
X-00245*
X-00242Y-01614*
X-00233Y-01627*
X-0022Y-01636*
X-00205Y-01639*
X-00194*
X-00179Y-01636*
X-00166Y-01627*
X-00157Y-01614*
X-00157Y-01612*
X-00062*
Y-01625*
X-00032*
X-00031Y-01625*
X-00021*
X-0002Y-01625*
X-0002*
X-00019Y-01624*
X-00017Y-01623*
X-00017Y-01623*
X-00015Y-01623*
X-00011Y-01625*
X00018*
X00019Y-01625*
X00046*
Y-01575*
X00043*
X00038Y-01566*
X00039Y-01563*
X00034Y-0155*
X00022Y-01545*
X00009Y-0155*
X00004Y-01563*
X00005Y-01566*
X0Y-01574*
X-00011*
X-00015Y-01576*
X-00017Y-01576*
X-00017Y-01576*
X-0002Y-01575*
X-0002*
X-00021Y-01574*
X-00031*
X-00032Y-01575*
X-00062*
Y-01587*
X-00157*
X-00157Y-01585*
X-00166Y-01572*
X-00179Y-01563*
X-00194Y-0156*
X-00205*
X-00219Y-01563*
X-00239Y-01542*
X-00248Y-01539*
X-00266*
X-00269Y-01529*
X-00266Y-01527*
X-00257Y-01514*
X-00255Y-015*
X-00245*
X-00242Y-01514*
X-00233Y-01527*
X-0022Y-01536*
X-00205Y-01539*
X-00194*
X-00179Y-01536*
X-00166Y-01527*
X-00157Y-01514*
X-00157Y-01512*
X-00062*
Y-01525*
X-00032*
X-00031Y-01525*
X-00021*
X-0002Y-01525*
X-0002*
X-00019Y-01524*
X-00017Y-01523*
X-00017Y-01523*
X-00015Y-01523*
X-00011Y-01525*
X00018*
X00019Y-01525*
X00046*
Y-0152*
X00055Y-01514*
X00062Y-01517*
X00074Y-01512*
X00079Y-015*
X00074Y-01487*
X00062Y-01482*
X00055Y-01485*
X00046Y-01479*
Y-01475*
X00019*
X00018Y-01474*
X-00011*
X-00015Y-01476*
X-00017Y-01476*
X-00017Y-01476*
X-0002Y-01475*
X-0002*
X-00021Y-01474*
X-00031*
X-00032Y-01475*
X-00062*
Y-01487*
X-00157*
X-00157Y-01485*
X-00166Y-01472*
X-00179Y-01463*
X-00194Y-0146*
X-00205*
X-00219Y-01463*
X-00237Y-01444*
Y-01435*
X-00228Y-0143*
X-0022Y-01436*
X-00205Y-01439*
X-00194*
X-00179Y-01436*
X-00166Y-01427*
X-00157Y-01414*
X-00154Y-014*
X-00157Y-01385*
X-00166Y-01372*
X-00179Y-01363*
X-00194Y-0136*
X-00205*
X-0022Y-01363*
X-00228Y-01369*
X-00237Y-01364*
Y-01335*
X-00228Y-0133*
X-0022Y-01336*
X-00205Y-01339*
X-00194*
X-00179Y-01336*
X-00166Y-01327*
X-00157Y-01314*
X-00154Y-013*
X-00157Y-01285*
X-00166Y-01272*
X-00179Y-01263*
X-00194Y-0126*
X-00205*
X-0022Y-01263*
X-00228Y-01269*
X-00237Y-01264*
Y-01235*
X-00228Y-0123*
X-0022Y-01236*
X-00205Y-01239*
X-00194*
X-00179Y-01236*
X-00166Y-01227*
X-00157Y-01214*
X-00154Y-012*
X-00157Y-01185*
X-00161Y-01179*
X-00125Y-01142*
X-00118Y-01144*
X00133Y-01396*
Y-01574*
X00045Y-01661*
X-00028*
X-00028Y-01661*
X-00041Y-01656*
X-00053Y-01661*
X-00058Y-01674*
X-00053Y-01686*
X-00041Y-01691*
X-00028Y-01686*
X-00028Y-01686*
X00051*
X00059Y-01682*
X00154Y-01588*
X00157Y-01579*
Y-01391*
X00154Y-01382*
X-00097Y-0113*
Y-00774*
X-00065Y-00741*
X-00061Y-00733*
Y-00497*
X-00052Y-00487*
X-00043Y-00492*
G37*
G36*
X00018Y-015D02*
Y-0152D01*
X-00011*
X00008Y-015*
X-00011Y-0148*
X00018*
Y-015*
G37*
G36*
X-00001D02*
X-00021Y-0152D01*
X-00031*
Y-0148*
X-00021*
X-00001Y-015*
G37*
G36*
X00658Y-01779D02*
X00618D01*
Y-01749*
X00638Y-01769*
X00658Y-01749*
Y-01779*
G37*
G36*
X00599Y-01766D02*
Y-01776D01*
X00559*
Y-01766*
X00579Y-01746*
X00599Y-01766*
G37*
G36*
X00658Y-01739D02*
X00638Y-01759D01*
X00618Y-01739*
Y-01729*
X00658*
Y-01739*
G37*
G36*
X0162Y-01727D02*
Y-01743D01*
X01612Y-01748*
X01596Y-01742*
X01575Y-01751*
X01566Y-01773*
X01575Y-01795*
X01594Y-01803*
X01592Y-01812*
X01511*
X01509Y-01803*
X01528Y-01795*
X01537Y-01773*
X01533Y-01763*
X01543Y-01753*
X01547Y-01744*
Y-01667*
X01556Y-01663*
X0162Y-01727*
G37*
G36*
X00599Y-01756D02*
X00579Y-01736D01*
X00559Y-01756*
Y-01726*
X00599*
Y-01756*
G37*
G36*
X01766Y-00771D02*
X01766Y-00772D01*
X01757Y-00785*
X01754Y-008*
X01757Y-00814*
X01766Y-00827*
X01779Y-00836*
X01794Y-00839*
X01805*
X0182Y-00836*
X01833Y-00827*
X01842Y-00814*
X01845Y-008*
X01855*
X01857Y-00814*
X01866Y-00827*
X01871Y-00831*
X01868Y-0084*
X01847*
X01838Y-00844*
X01819Y-00863*
X01805Y-0086*
X01794*
X01779Y-00863*
X01766Y-00872*
X01757Y-00885*
X01754Y-009*
X01757Y-00914*
X01766Y-00927*
X01779Y-00936*
X01794Y-00939*
X01805*
X0182Y-00936*
X01833Y-00927*
X01842Y-00914*
X01845Y-009*
X01855*
X01857Y-00914*
X01866Y-00927*
X01879Y-00936*
X01894Y-00939*
X01905*
X0192Y-00936*
X01933Y-00927*
X01942Y-00914*
X01945Y-009*
X01942Y-00885*
X01933Y-00872*
X01935Y-00865*
X01964*
X0199Y-00891*
Y-01318*
X01994Y-01326*
X02023Y-01355*
X02032Y-01359*
X0207*
X02072Y-01368*
X02066Y-01373*
X02057Y-01386*
X02057Y-01388*
X01914*
X01745Y-0122*
X01747Y-01218*
X01759Y-01213*
X01764Y-01201*
X01759Y-01188*
X01747Y-01183*
X01734Y-01188*
X01731Y-01194*
X01722Y-01196*
X01702Y-01176*
Y-00961*
X0171Y-00956*
X01717Y-00958*
X01724Y-00955*
X01731Y-00962*
X01731Y-00963*
X01736Y-00975*
X01749Y-0098*
X01761Y-00975*
X01766Y-00963*
X01761Y-0095*
X01749Y-00945*
X01741Y-00948*
X01734Y-00941*
X01734Y-00941*
X01729Y-00928*
X01717Y-00923*
X01704Y-00928*
X01703Y-0093*
X01693Y-00932*
X01653Y-00892*
Y-00839*
X01653Y-00839*
X01659Y-00827*
X01653Y-00814*
X01641Y-00809*
X01635Y-00811*
X01628Y-00804*
X01631Y-00796*
X01628Y-00789*
X01633Y-0078*
X01634Y-0078*
X01635Y-00779*
X01637Y-00778*
X01637Y-00778*
X01639Y-00778*
X01643Y-0078*
X01673*
X01674Y-0078*
X01701*
Y-00762*
X01764*
X01766Y-00771*
G37*
G36*
X02068D02*
X02066Y-00773D01*
X02057Y-00786*
X02054Y-00801*
X02057Y-00815*
X02065Y-00826*
X0206Y-00835*
X02031*
X01986Y-00791*
X01978Y-00787*
X01942*
X01942Y-00785*
X01933Y-00772*
X0192Y-00763*
X01921Y-00762*
X02065*
X02068Y-00771*
G37*
G36*
X01653Y-00755D02*
X01633Y-00775D01*
X01623*
Y-00735*
X01633*
X01653Y-00755*
G37*
G36*
X-00105Y-00635D02*
Y-00712D01*
X-00136Y-00744*
X-0014Y-00753*
Y-01122*
X-0018Y-01163*
X-00194Y-0116*
X-00205*
X-0022Y-01163*
X-00228Y-01169*
X-00237Y-01164*
Y-01135*
X-00228Y-0113*
X-0022Y-01136*
X-00205Y-01139*
X-00205*
Y-011*
Y-0106*
X-00205*
X-0022Y-01063*
X-00228Y-01069*
X-00237Y-01064*
Y-01035*
X-00228Y-0103*
X-0022Y-01036*
X-00205Y-01039*
X-00194*
X-00179Y-01036*
X-00166Y-01027*
X-00157Y-01014*
X-00154Y-01*
X-00157Y-00985*
X-00166Y-00972*
X-00179Y-00963*
X-00194Y-0096*
X-00205*
X-0022Y-00963*
X-00228Y-00969*
X-00237Y-00964*
Y-00935*
X-00228Y-0093*
X-0022Y-00936*
X-00205Y-00939*
X-00194*
X-00179Y-00936*
X-00166Y-00927*
X-00157Y-00914*
X-00154Y-009*
X-00157Y-00885*
X-00166Y-00872*
X-00179Y-00863*
X-00194Y-0086*
X-00205*
X-0022Y-00863*
X-00228Y-00869*
X-00237Y-00864*
Y-00835*
X-00228Y-0083*
X-0022Y-00836*
X-00205Y-00839*
X-00194*
X-00179Y-00836*
X-00166Y-00827*
X-00157Y-00814*
X-00154Y-008*
X-00157Y-00785*
X-00166Y-00772*
X-00179Y-00763*
X-00194Y-0076*
X-00205*
X-0022Y-00763*
X-00228Y-00769*
X-00237Y-00764*
Y-00735*
X-00228Y-0073*
X-0022Y-00736*
X-00205Y-00739*
X-00194*
X-00179Y-00736*
X-00166Y-00727*
X-00157Y-00714*
X-00154Y-007*
X-00157Y-00685*
X-00161Y-00679*
X-00114Y-00632*
X-00105Y-00635*
G37*
G36*
X01673Y-00755D02*
Y-00775D01*
X01643*
X01663Y-00755*
X01643Y-00735*
X01673*
Y-00755*
G37*
G36*
X00857Y-01234D02*
Y-01366D01*
X00849Y-01371*
X0084Y-01368*
X00827Y-01373*
X00822Y-01386*
X00827Y-01398*
X0084Y-01403*
X00849Y-014*
X00857Y-01405*
Y-01602*
X00861Y-0161*
X01014Y-01763*
X0101Y-01773*
X01019Y-01795*
X01038Y-01803*
Y-01813*
X01031Y-01816*
X01027Y-01825*
Y-01921*
X01026Y-01922*
X01025*
X01016Y-01919*
X01014Y-01915*
X01013Y-01911*
X0084Y-01738*
Y-01652*
X00835Y-01641*
X0079Y-01595*
Y-01258*
X0079Y-01258*
X00817Y-0123*
X00833*
X0084Y-01233*
X00849Y-01229*
X00857Y-01234*
G37*
G36*
X02017Y-00856D02*
X02026Y-0086D01*
X02068*
X02071Y-00869*
X02066Y-00873*
X02057Y-00886*
X02054Y-00901*
X02057Y-00915*
X02066Y-00928*
X02079Y-00937*
X02094Y-0094*
X02105*
X0212Y-00937*
X02133Y-00928*
X02142Y-00915*
X02145Y-00901*
X02155*
X02157Y-00915*
X02166Y-00928*
X02179Y-00937*
X02194Y-0094*
X02205*
X0222Y-00937*
X02233Y-00928*
X02242Y-00915*
X02245Y-00901*
X02242Y-00886*
X02233Y-00873*
X02228Y-00869*
X02231Y-0086*
X02289*
X02289Y-0086*
X02302Y-00865*
X02307Y-00863*
X02315Y-00869*
Y-0212*
X02315Y-02121*
X02314*
X02309Y-02146*
X02295Y-02167*
X02274Y-02181*
X02249Y-02186*
Y-02187*
X02248Y-02187*
X0161*
Y-02043*
X01618Y-02038*
X01635Y-02045*
X01657Y-02036*
X01666Y-02014*
Y-01951*
X01657Y-01929*
X0165Y-01926*
Y-01721*
X01646Y-0171*
X01573Y-01637*
X01576Y-01631*
X01588Y-01626*
X01593Y-01614*
X01588Y-01601*
X01588Y-01601*
Y-0137*
X01597Y-01367*
X01887Y-01656*
X01896Y-0166*
X02068*
X02071Y-01669*
X02066Y-01673*
X02057Y-01686*
X02055Y-01696*
X02144*
X02142Y-01686*
X02133Y-01673*
X02128Y-01669*
X02131Y-0166*
X02153*
X02161Y-01656*
X0218Y-01637*
X02194Y-0164*
X02205*
X0222Y-01637*
X02233Y-01628*
X02242Y-01615*
X02245Y-01601*
X02242Y-01586*
X02233Y-01573*
X0222Y-01564*
X02205Y-01561*
X02194*
X02179Y-01564*
X02166Y-01573*
X02157Y-01586*
X02155Y-016*
X02145*
X02142Y-01586*
X02133Y-01573*
X0212Y-01564*
X02121Y-01563*
X0215*
X02158Y-01559*
X0218Y-01537*
X02194Y-0154*
X02205*
X0222Y-01537*
X02233Y-01528*
X02242Y-01515*
X02245Y-01501*
X02242Y-01486*
X02233Y-01473*
X0222Y-01464*
X02205Y-01461*
X02194*
X02179Y-01464*
X02166Y-01473*
X02157Y-01486*
X02155Y-015*
X02145*
X02142Y-01486*
X02133Y-01473*
X02121Y-01465*
X0212Y-01464*
X02121Y-01462*
X02151*
X02159Y-01458*
X0218Y-01437*
X02194Y-0144*
X02205*
X0222Y-01437*
X02233Y-01428*
X02242Y-01415*
X02245Y-01401*
X02242Y-01386*
X02233Y-01373*
X0222Y-01364*
X02205Y-01361*
X02194*
X02179Y-01364*
X02166Y-01373*
X02157Y-01386*
X02155Y-014*
X02145*
X02142Y-01386*
X02133Y-01373*
X0212Y-01364*
X02105Y-01361*
X02108Y-01359*
X02154*
X02162Y-01355*
X0218Y-01337*
X02194Y-0134*
X02205*
X0222Y-01337*
X02233Y-01328*
X02242Y-01315*
X02245Y-01301*
X02242Y-01286*
X02233Y-01273*
X0222Y-01264*
X02205Y-01261*
X02194*
X02179Y-01264*
X02166Y-01273*
X02157Y-01286*
X02155Y-013*
X02145*
X02145Y-01301*
X02144Y-01306*
X02055*
X02057Y-01315*
X02064Y-01325*
X02059Y-01334*
X02037*
X02015Y-01312*
Y-00886*
X02011Y-00877*
X01978Y-00844*
X0197Y-0084*
X01931*
X01928Y-00831*
X01933Y-00827*
X01942Y-00814*
X01942Y-00812*
X01972*
X02017Y-00856*
G37*
G36*
X00523Y-01107D02*
Y-01138D01*
X00425Y-01236*
X00413*
X00413Y-01236*
X00401Y-01231*
X00392Y-01225*
Y-01223*
X00401Y-01217*
X00413Y-01212*
X00418Y-012*
X00418Y-01199*
X00514Y-01104*
X00523Y-01107*
G37*
G36*
X00493Y-00768D02*
Y-01038D01*
X00443Y-01088*
X00435Y-01083*
X00438Y-01076*
Y-00958*
X00446Y-00953*
X00458Y-00948*
X00463Y-00936*
X00458Y-00923*
X00446Y-00918*
X00438Y-00913*
Y-0081*
X00475Y-00773*
X00475Y-00773*
X00484Y-00765*
X00493Y-00768*
G37*
G36*
X0083Y-00725D02*
X00836Y-00737D01*
X00849Y-00743*
X00849Y-00743*
X00877Y-00771*
X00886Y-00774*
X00975*
X00979Y-00783*
X00974Y-00796*
X00973Y-00798*
X00962Y-00802*
X00957Y-00815*
X00962Y-00827*
X00975Y-00833*
X0098Y-0083*
X00987Y-00837*
Y-00847*
X00934Y-009*
X0093Y-00909*
Y-00961*
X00928Y-00964*
X00896*
X00896Y-00963*
X00883Y-00958*
X0087Y-00963*
X00864Y-00976*
X0087Y-00989*
X00883Y-00995*
X00896Y-00989*
X00896Y-00989*
X00939*
X00947Y-00985*
X00949*
X00962Y-00998*
X00971Y-01002*
X01037*
X01049Y-01014*
X01047Y-01024*
X01046Y-01025*
X0104Y-01038*
X01046Y-0105*
X01059Y-01056*
X01071Y-0105*
X01072*
X01085Y-01056*
X01097Y-0105*
X01103Y-01038*
X01097Y-01025*
X01092Y-01022*
Y-01004*
X01088Y-00996*
X01057Y-00965*
X01049Y-00961*
X01031*
X01029Y-00951*
X01034Y-00949*
X0104Y-00936*
X01034Y-00923*
X01022Y-00918*
X01009Y-00923*
X01008Y-00924*
X00979*
X00975Y-00914*
X01027Y-00862*
X01031Y-00854*
Y-0083*
Y-0083*
X01027Y-00821*
X01007Y-00801*
X01009Y-00796*
X01004Y-00783*
X01008Y-00774*
X01183*
X01196Y-00788*
Y-00827*
X012Y-00836*
X01224Y-00859*
X0122Y-00869*
X01207Y-00874*
X01202Y-00887*
X01207Y-009*
X0122Y-00905*
X0122Y-00905*
X01255Y-0094*
X01264Y-00944*
X01423*
X01522Y-01043*
Y-01207*
X01512Y-01209*
X01509Y-01201*
X01497Y-01196*
X01484Y-01201*
X01479Y-01214*
X01484Y-01226*
X01497Y-01231*
X01509Y-01226*
X01512Y-01218*
X01522Y-0122*
Y-01503*
X01513Y-01507*
X01501Y-01502*
X01488Y-01507*
X01482Y-0152*
X01488Y-01533*
X01501Y-01538*
X01513Y-01533*
X01522Y-01537*
Y-01739*
X01514Y-01745*
X01506Y-01742*
X01496Y-01746*
X01488Y-0174*
Y-01702*
X01453*
X01447Y-01693*
X0145Y-01687*
X01441Y-01665*
X01419Y-01656*
X01397Y-01665*
X01388Y-01687*
X01391Y-01694*
X01384Y-01701*
X01379Y-01699*
X01374Y-01701*
X01366Y-01694*
X0137Y-01687*
X0136Y-01665*
X01339Y-01656*
X01317Y-01665*
X01308Y-01687*
X01311Y-01694*
X01304Y-01701*
X01298Y-01699*
X01293Y-01701*
X01286Y-01694*
X01289Y-01687*
X0128Y-01665*
X01258Y-01656*
X01236Y-01665*
X01227Y-01687*
X0123Y-01694*
X01223Y-01701*
X01218Y-01699*
X01213Y-01701*
X01206Y-01694*
X01209Y-01687*
X012Y-01665*
X01178Y-01656*
X01156Y-01665*
X01147Y-01687*
X01156Y-01709*
X01178Y-01718*
X01183Y-01716*
X0119Y-01723*
X01187Y-0173*
X01196Y-01752*
X01218Y-01761*
X0124Y-01752*
X01249Y-0173*
X01246Y-01723*
X01253Y-01716*
X01258Y-01718*
X01264Y-01716*
X01271Y-01723*
X01267Y-0173*
X01277Y-01752*
X01298Y-01761*
X0132Y-01752*
X01329Y-0173*
X01326Y-01723*
X01333Y-01716*
X01339Y-01718*
X01344Y-01716*
X01351Y-01723*
X01348Y-0173*
X01357Y-01752*
X01379Y-01761*
X01401Y-01752*
X0141Y-0173*
X01407Y-01723*
X01414Y-01716*
X01419Y-01718*
X01422Y-01716*
X0143Y-01722*
Y-01759*
X01472*
X01478Y-01767*
X01475Y-01773*
X01484Y-01795*
X01504Y-01803*
X01502Y-01812*
X01135*
X01134Y-01803*
X01133Y-01803*
X01153Y-01795*
X01162Y-01773*
X01153Y-01751*
X01131Y-01742*
X01109Y-01751*
X011Y-01773*
X01109Y-01795*
X01128Y-01803*
X01127Y-01809*
X01124Y-01812*
X01045*
X01043Y-01803*
X01062Y-01795*
X01071Y-01773*
X01062Y-01751*
X01041Y-01742*
X01031Y-01746*
X00882Y-01597*
Y-01541*
X0089Y-01536*
X00899Y-01539*
X00911Y-01534*
X00916Y-01522*
X00911Y-01509*
X00899Y-01504*
X0089Y-01507*
X00882Y-01502*
Y-01232*
X0089Y-01227*
X00899Y-0123*
X00911Y-01225*
X00916Y-01213*
X00911Y-012*
X00899Y-01195*
X0089Y-01198*
X00882Y-01193*
Y-01157*
X00878Y-01148*
X00819Y-01089*
Y-00729*
X00827Y-00723*
X0083Y-00725*
G37*
G36*
X01701Y-00446D02*
Y-00456D01*
X01661*
Y-00446*
X01681Y-00426*
X01701Y-00446*
G37*
G36*
X0026Y-00041D02*
X0026Y-00042D01*
X00265Y-00054*
X00278Y-0006*
X00288Y-00056*
X00296Y-00061*
Y-00167*
X00286Y-00169*
X00283Y-00162*
X00255Y-00134*
X00246Y-0013*
X00142*
X00137Y-00121*
X00142Y-00114*
X00145Y-001*
X00142Y-00085*
X00133Y-00072*
X0012Y-00063*
X00105Y-0006*
X00094*
X00079Y-00063*
X00066Y-00072*
X00057Y-00085*
X00055Y-00099*
X00045*
X00042Y-00085*
X00033Y-00072*
X0002Y-00063*
X00005Y-0006*
X-00005*
X-00019Y-00063*
X-00044Y-00037*
Y-00028*
X-00035Y-00025*
X-00033Y-00027*
X-0002Y-00036*
X-00005Y-00039*
X00005*
X0002Y-00036*
X00033Y-00027*
X00042Y-00014*
X00045Y0*
X00055*
X00054Y0*
X00055Y00005*
X00144*
X00145Y0*
X00144Y-00003*
X00153Y0*
X00162Y-00003*
X00175Y00002*
X0018Y00014*
X00175Y00027*
X00162Y00032*
X0016Y00037*
X00163Y00044*
X00174*
X0026Y-00041*
G37*
G36*
X00702Y00209D02*
X00733Y00179D01*
Y00162*
X00724*
Y00112*
Y00109*
X00721Y00106*
Y00049*
X00774*
X00784*
X00806*
Y00078*
X00811*
Y00083*
X00837*
Y001*
X00847Y00104*
X00862Y00089*
X00873Y00084*
X0088*
X00881Y00082*
X00881Y00081*
X00887Y00075*
Y00041*
Y00032*
Y0001*
X00944*
Y00032*
Y00041*
Y00095*
X00922*
X0091Y001*
X00904Y00112*
X00904Y00113*
X0092*
X00921Y00112*
X00931*
X00932Y00113*
X00933Y00113*
X00935Y00114*
X00935Y00114*
X00937Y00114*
X00941Y00112*
X00971*
X00972Y00113*
X00987*
X0099Y00109*
X00993Y00104*
X0099Y00097*
Y0009*
X00978*
Y0006*
X00977Y00059*
Y00049*
X00978Y00048*
Y00048*
X00978Y00047*
X00979Y00045*
X00979Y00045*
X00979Y00043*
X00977Y00039*
Y00009*
X00978Y00008*
Y-00001*
X0096Y-00018*
X00944*
Y0*
X00887*
Y-00011*
X00877Y-00014*
X00875Y-0001*
X00875Y-00009*
X0087Y00003*
X00858Y00008*
X00845Y00003*
X0084Y-00009*
X00845Y-00021*
X00854Y-00025*
X00855Y-0003*
X00851Y-00039*
X00832Y-00059*
X00828Y-00068*
Y-00257*
X00807Y-00278*
X00749*
X0074Y-00282*
X00718Y-00303*
X00715Y-00312*
Y-00341*
X00715Y-00341*
X00709Y-00354*
X00715Y-00367*
X00727Y-00372*
X0074Y-00367*
X00745Y-00354*
X0074Y-00341*
X00739Y-00341*
Y-00317*
X00754Y-00303*
X00813*
X00821Y-00299*
X00834Y-00287*
X00843Y-0029*
Y-00518*
X00832Y-00529*
X00832Y-00529*
X00819Y-00535*
X00813Y-00548*
X00819Y-0056*
X00832Y-00566*
X00844Y-0056*
X00849Y-00549*
X00858Y-00545*
X00862Y-00547*
Y-00585*
X00862Y-00585*
X00857Y-00598*
X00862Y-0061*
X00875Y-00615*
X00887Y-0061*
X00892Y-00598*
X00887Y-00585*
X00887Y-00585*
Y-00179*
X00895Y-00174*
X009Y-00175*
X00912Y-0017*
X00914Y-00165*
X00924*
X00928Y-00174*
X00941Y-00179*
X00944Y-00189*
X00944Y-00191*
X00949Y-00203*
X00962Y-00208*
X00974Y-00203*
X00979Y-00191*
X00974Y-00178*
X00962Y-00173*
X00958Y-00163*
X00958Y-00162*
X00953Y-00149*
X00941Y-00144*
X00928Y-00149*
X00926Y-00154*
X00916*
X00912Y-00145*
X009Y-0014*
X00895Y-00141*
X00887Y-00136*
Y-00127*
X00895Y-00121*
X00903Y-00123*
X00906Y-00129*
X00919Y-00134*
X00931Y-00129*
X00936Y-00117*
X00931Y-00104*
X00919Y-00099*
X00942Y-00073*
X01087*
X01095Y-00069*
X0113Y-00035*
X01133Y-00026*
Y-00018*
X01146*
X01155*
X01176*
Y-00045*
X01167Y-00051*
X01164Y-00049*
X01149Y-00055*
X01143Y-0007*
X01149Y-00084*
X01156Y-00087*
X01158Y-00097*
X01107Y-00148*
X01103Y-00157*
Y-00268*
X01107Y-00277*
X01136Y-00306*
X01145Y-0031*
X01341*
X01342Y-0031*
X01355Y-00316*
X01367Y-0031*
X01368Y-0031*
X01476*
X01485Y-00319*
X01481Y-00328*
X01032*
X01007Y-00304*
X01007Y-00304*
X01002Y-00291*
X0099Y-00286*
X00977Y-00291*
X00972Y-00304*
X00977Y-00316*
X0099Y-00321*
X0099Y-00321*
X01018Y-00349*
X01019Y-0035*
X01019Y-00357*
X01014Y-0037*
X01019Y-00382*
X01032Y-00387*
X01044Y-00382*
X01049Y-0037*
X01045Y-00358*
X01044Y-00357*
X01045Y-00353*
X01071*
X01076Y-00361*
X01073Y-0037*
X01078Y-00382*
X01091Y-00387*
X01103Y-00382*
X01108Y-0037*
X01104Y-00358*
X01103Y-00357*
X01104Y-00353*
X01429*
X01435Y-00361*
X0143Y-00373*
X01431Y-00375*
X01425Y-00383*
X01396*
Y-0046*
X01436*
X0144Y-00469*
X01435Y-00482*
X0144Y-00494*
X01453Y-00499*
X01465Y-00494*
X0147Y-00482*
X01465Y-00469*
X01469Y-0046*
X01473*
X01481Y-00457*
X01585Y-0056*
X01594Y-00564*
X01761*
X01765Y-00573*
X01757Y-00585*
X01755Y-00595*
X018*
Y-00605*
X01755*
X01757Y-00614*
X01766Y-00627*
X01766Y-00628*
X01765Y-00633*
X01755Y-00636*
X01723Y-00604*
X01715Y-006*
X01701*
Y-00588*
X01674*
X01673Y-00587*
X01643*
X01636Y-00584*
X01493*
X014Y-00491*
X01391Y-00487*
X01108*
X00991Y-00371*
X00992Y-00369*
X00986Y-00356*
X00974Y-00351*
X00961Y-00356*
X00955Y-00369*
X00961Y-00382*
X00973Y-00387*
X01094Y-00508*
X01102Y-00512*
X01386*
X01479Y-00605*
X01488Y-00609*
X01592*
Y-00638*
Y-00647*
X01583*
X01556*
X01555Y-00646*
X01525*
X01521Y-00648*
X01519Y-00648*
X01519Y-00648*
X01516Y-00647*
X01515Y-00646*
X01505*
X01504Y-00647*
X01474*
Y-00697*
X01482*
Y-00792*
X01475Y-008*
X01471Y-00809*
Y-0082*
X01462Y-00826*
X01449Y-00817*
X01435Y-00814*
X0142Y-00817*
X01407Y-00826*
X01398Y-00839*
X01395Y-00854*
X01398Y-00868*
X01407Y-00881*
X0142Y-0089*
X01435Y-00893*
X01449Y-0089*
X01462Y-00881*
X01471Y-00887*
Y-00931*
X01475Y-00939*
X01563Y-01028*
Y-01193*
X01554Y-01198*
X01547Y-01193*
Y-01038*
X01543Y-01029*
X01437Y-00923*
X01428Y-00919*
X01269*
X01237Y-00887*
X01237Y-00887*
X01232Y-00874*
X01232Y-00874*
X01235Y-00866*
X01296*
Y-00892*
X01373*
Y-00815*
X01296*
Y-00841*
X0124*
X01221Y-00822*
Y-00783*
X01217Y-00774*
X01197Y-00753*
X01188Y-0075*
X01188*
X0107*
X01065Y-00742*
X01059Y-00729*
X0105Y-00725*
X01052Y-00721*
X01064Y-00716*
X01069Y-00703*
X01064Y-00691*
X01052Y-00686*
X01051Y-00686*
X01023Y-00658*
X01015Y-00654*
X00908*
X00899Y-00658*
X00876Y-00681*
X00866Y-0068*
X00862Y-00674*
X00866Y-00664*
X00861Y-00651*
X00848Y-00646*
X00847Y-00646*
X00834Y-00633*
X00826Y-00629*
X00819*
Y-00617*
X00792*
X00791Y-00616*
X00761*
X00757Y-00618*
X00755Y-00618*
X00755Y-00618*
X00752Y-00617*
X00751Y-00616*
X00741*
X0074Y-00617*
X0071*
Y-00619*
X00701Y-00625*
X00699Y-00624*
X00696Y-00625*
X00688Y-00619*
Y-00571*
X00696Y-00565*
X00699Y-00566*
X00712Y-00561*
X00717Y-00548*
X00712Y-00535*
X00699Y-0053*
X00696Y-00531*
X00688Y-00525*
Y-00438*
X00696Y-00433*
X00708Y-00428*
X00713Y-00415*
X00708Y-00402*
X00696Y-00397*
X00688Y-00392*
X00693Y00205*
X00701Y0021*
X00702Y00209*
G37*
G36*
X01141Y00022D02*
Y00012D01*
X01101*
Y00022*
X01121Y00042*
X01141Y00022*
G37*
G36*
X01082Y00022D02*
Y00012D01*
X01042*
Y00022*
X01062Y00042*
X01082Y00022*
G37*
G36*
X012Y00022D02*
Y00012D01*
X0116*
Y00022*
X0118Y00042*
X012Y00022*
G37*
G36*
X017Y-00092D02*
Y-00102D01*
X0166*
Y-00092*
X0168Y-00072*
X017Y-00092*
G37*
G36*
X01701Y-00201D02*
X01681Y-00181D01*
X01661Y-00201*
Y-00171*
X01701*
Y-00201*
G37*
G36*
X017Y-00082D02*
X0168Y-00062D01*
X0166Y-00082*
Y-00052*
X017*
Y-00082*
G37*
G36*
X01549Y00038D02*
X01596Y-00008D01*
X01597Y-00009*
X01601Y-00013*
Y-00039*
X01576Y-00064*
X0157Y-00066*
X01464*
X01425Y-00026*
Y-00019*
X01475*
X01484*
X01534*
X01542*
X01543Y-00021*
X01556Y-00026*
X01568Y-00021*
X01573Y-00009*
X01568Y00003*
X01556Y00008*
X01543Y00003*
X01534Y00007*
Y00008*
X01534Y00009*
Y00035*
X01542Y00041*
X01549Y00038*
G37*
G36*
X-0022Y00063D02*
X-00205Y0006D01*
X-00194*
X-0018Y00063*
X-00165Y00048*
X-00157Y00044*
X-00065*
X-00062Y00035*
X-00065Y00031*
X-00069Y00023*
Y-00043*
X-00065Y-00051*
X-00038Y-00079*
X-00042Y-00085*
X-00045Y-001*
X-00042Y-00114*
X-00033Y-00127*
X-0002Y-00136*
X-00005Y-00139*
X00005*
X00019Y-00136*
X00034Y-00151*
X00042Y-00155*
X00074*
X00077Y-00164*
X00066Y-00172*
X00057Y-00185*
X00055Y-00199*
X00045*
X00042Y-00185*
X00033Y-00172*
X0002Y-00163*
X00005Y-0016*
X-00005*
X-0002Y-00163*
X-00033Y-00172*
X-00042Y-00185*
X-00045Y-002*
X-00042Y-00214*
X-00038Y-0022*
X-00042Y-00229*
X-00047*
X-00055Y-00233*
X-0015Y-00328*
X-00154Y-00337*
Y-00373*
X-00163Y-00376*
X-00166Y-00372*
X-00179Y-00363*
X-00194Y-0036*
X-00205*
X-0022Y-00363*
X-00228Y-00369*
X-00237Y-00364*
Y-00335*
X-00228Y-0033*
X-0022Y-00336*
X-00205Y-00339*
X-00194*
X-00179Y-00336*
X-00166Y-00327*
X-00157Y-00314*
X-00154Y-003*
X-00157Y-00285*
X-00166Y-00272*
X-00179Y-00263*
X-00194Y-0026*
X-00205*
X-0022Y-00263*
X-00228Y-00269*
X-00237Y-00264*
Y-00235*
X-00228Y-0023*
X-0022Y-00236*
X-00205Y-00239*
X-00194*
X-00179Y-00236*
X-00166Y-00227*
X-00157Y-00214*
X-00154Y-002*
X-00157Y-00185*
X-00166Y-00172*
X-00179Y-00163*
X-00194Y-0016*
X-00205*
X-0022Y-00163*
X-00228Y-00169*
X-00237Y-00164*
Y-00135*
X-00228Y-0013*
X-0022Y-00136*
X-00205Y-00139*
X-00194*
X-00179Y-00136*
X-00166Y-00127*
X-00157Y-00114*
X-00154Y-001*
X-00157Y-00085*
X-00166Y-00072*
X-00179Y-00063*
X-00194Y-0006*
X-00205*
X-0022Y-00063*
X-00228Y-00069*
X-00237Y-00064*
Y-00035*
X-00228Y-0003*
X-0022Y-00036*
X-00205Y-00039*
X-00194*
X-00179Y-00036*
X-00166Y-00027*
X-00157Y-00014*
X-00154Y0*
X-00157Y00014*
X-00166Y00027*
X-00179Y00036*
X-00194Y00039*
X-00205*
X-0022Y00036*
X-00228Y0003*
X-00237Y00035*
Y00064*
X-00228Y00069*
X-0022Y00063*
G37*
G36*
X01141Y00032D02*
X01121Y00052D01*
X01101Y00032*
Y00062*
X01141*
Y00032*
G37*
G36*
X01023Y00049D02*
X01003Y00029D01*
X00983Y00049*
Y00059*
X01023*
Y00049*
G37*
G36*
X012Y00032D02*
X0118Y00052D01*
X0116Y00032*
Y00062*
X012*
Y00032*
G37*
G36*
X01958Y00128D02*
Y00076D01*
X01919Y00036*
X01905Y00039*
X01894*
X01879Y00036*
X01866Y00027*
X01857Y00014*
X01855Y0*
X01845*
X01842Y00014*
X01833Y00027*
X0182Y00036*
X01805Y00039*
X01794*
X01779Y00036*
X01767Y00028*
X01758Y00032*
Y00067*
X01767Y00071*
X01779Y00063*
X01794Y0006*
X01805*
X0182Y00063*
X01833Y00072*
X01842Y00085*
X01845Y00099*
X01855*
X01857Y00085*
X01866Y00072*
X01879Y00063*
X01894Y0006*
X01905*
X0192Y00063*
X01933Y00072*
X01942Y00085*
X01945Y001*
X01942Y00114*
X01938Y0012*
X01949Y00131*
X01958Y00128*
G37*
G36*
X01082Y00032D02*
X01062Y00052D01*
X01042Y00032*
Y00062*
X01082*
Y00032*
G37*
G36*
X01529Y00009D02*
X01489D01*
Y00039*
X01509Y00019*
X01529Y00039*
Y00009*
G37*
G36*
X0147D02*
X0143D01*
Y00039*
X0145Y00019*
X0147Y00039*
Y00009*
G37*
G36*
X01023Y00009D02*
X00983D01*
Y00039*
X01003Y00019*
X01023Y00039*
Y00009*
G37*
G36*
X01529Y00049D02*
X01509Y00029D01*
X01489Y00049*
Y00059*
X01529*
Y00049*
G37*
G36*
X0147D02*
X0145Y00029D01*
X0143Y00049*
Y00059*
X0147*
Y00049*
G37*
G36*
X-00021Y-00263D02*
X-00033Y-00272D01*
X-00042Y-00285*
X-00045Y-003*
X-00042Y-00314*
X-00038Y-0032*
X-00042Y-00329*
X-0009*
X-00098Y-00333*
X-0012Y-00355*
X-00129Y-00351*
Y-00342*
X-00041Y-00254*
X-00024*
X-00021Y-00263*
G37*
G36*
X00268Y-004D02*
Y-0042D01*
X00238*
X00258Y-004*
X00238Y-0038*
X00268*
Y-004*
G37*
G36*
X02137Y-00336D02*
Y-00365D01*
X02128Y-00369*
X0212Y-00364*
X02105Y-00361*
X02094*
X02079Y-00364*
X02066Y-00373*
X02057Y-00386*
X02054Y-00401*
X02057Y-00415*
X02061Y-00421*
X02044Y-00438*
X01934*
X01931Y-00429*
X01933Y-00427*
X01942Y-00414*
X01945Y-004*
X01942Y-00385*
X01933Y-00372*
X01921Y-00364*
X0192Y-00363*
X01921Y-00361*
X02052*
X0206Y-00357*
X0208Y-00337*
X02094Y-0034*
X02105*
X0212Y-00337*
X02128Y-00332*
X02137Y-00336*
G37*
G36*
X01642Y-00341D02*
X01602D01*
Y-00311*
X01622Y-00331*
X01642Y-00311*
Y-00341*
G37*
G36*
X01701Y-00329D02*
Y-00339D01*
X01661*
Y-00329*
X01681Y-00309*
X01701Y-00329*
G37*
G36*
X02137Y-00436D02*
Y-00465D01*
X02128Y-00469*
X0212Y-00464*
X02105Y-00461*
X02094*
X02079Y-00464*
X02066Y-00473*
X02057Y-00486*
X02054Y-00501*
X02057Y-00515*
X02066Y-00528*
X02068Y-0053*
X02065Y-00539*
X01932*
X0193Y-0053*
X01933Y-00527*
X01942Y-00514*
X01945Y-005*
X01942Y-00485*
X01933Y-00472*
X0192Y-00463*
X0192Y-00463*
X0205*
X02058Y-00459*
X0208Y-00437*
X02094Y-0044*
X02105*
X0212Y-00437*
X02128Y-00432*
X02137Y-00436*
G37*
G36*
X01642Y-00459D02*
X01602D01*
Y-00429*
X01622Y-00449*
X01642Y-00429*
Y-00459*
G37*
G36*
Y-00419D02*
X01622Y-00439D01*
X01602Y-00419*
Y-00409*
X01642*
Y-00419*
G37*
G36*
X00248Y-004D02*
X00228Y-0042D01*
X00218*
Y-0038*
X00228*
X00248Y-004*
G37*
G36*
X01701Y-00436D02*
X01681Y-00416D01*
X01661Y-00436*
Y-00406*
X01701*
Y-00436*
G37*
G36*
Y-00211D02*
Y-00221D01*
X01661*
Y-00211*
X01681Y-00191*
X01701Y-00211*
G37*
G36*
X02137Y-00236D02*
Y-00265D01*
X02128Y-00269*
X0212Y-00264*
X02105Y-00261*
X02094*
X02079Y-00264*
X02066Y-00273*
X02057Y-00286*
X02054Y-00301*
X02057Y-00315*
X02061Y-00321*
X02046Y-00336*
X01939*
X01933Y-00327*
X01942Y-00314*
X01944Y-00305*
X01899*
Y-00295*
X01944*
X01942Y-00285*
X01933Y-00272*
X0192Y-00263*
X01905Y-0026*
X01907Y-00259*
X02054*
X02062Y-00255*
X0208Y-00237*
X02094Y-0024*
X02105*
X0212Y-00237*
X02128Y-00232*
X02137Y-00236*
G37*
G36*
X01596Y-00183D02*
D01*
X01596Y-00184*
Y-00184*
X01597Y-00186*
X01597Y-00187*
X01598Y-00187*
X01597Y-00189*
X01596Y-00193*
Y-00223*
X01596Y-00224*
Y-00252*
X01597*
Y-0026*
Y-00269*
X01539*
X01511Y-00241*
X01503Y-00237*
X01205*
X01205Y-00237*
X01193Y-00232*
X0118Y-00237*
X01175Y-0025*
X0118Y-00262*
X01193Y-00267*
X01205Y-00262*
X01205Y-00262*
X01498*
X01525Y-0029*
X01534Y-00293*
X01581*
X01596Y-00301*
X01597Y-00302*
X01597Y-00304*
X01598Y-00305*
X01598Y-00305*
X01598Y-00307*
X01596Y-00311*
Y-00341*
X01597Y-00342*
Y-0037*
Y-00378*
Y-00382*
X01587Y-00386*
X0149Y-00289*
X01482Y-00285*
X01368*
X01367Y-00285*
X01355Y-00279*
X01342Y-00285*
X01341Y-00285*
X0115*
X01128Y-00263*
Y-0023*
X01136Y-00225*
X01142Y-00227*
X01154Y-00222*
X01154Y-00222*
X01487*
X01496Y-00218*
X01539Y-00176*
X01581*
X01596Y-00183*
G37*
G36*
X01641D02*
X01621Y-00203D01*
X01601Y-00183*
Y-00173*
X01641*
Y-00183*
G37*
G36*
Y-00223D02*
X01601D01*
Y-00193*
X01621Y-00213*
X01641Y-00193*
Y-00223*
G37*
G36*
X01642Y-00301D02*
X01622Y-00321D01*
X01602Y-00301*
Y-00291*
X01642*
Y-00301*
G37*
G36*
X00312Y-00316D02*
Y-00327D01*
X00299Y-0034*
X00223*
X00214Y-00344*
X00199Y-00359*
X00195Y-00367*
Y-00375*
X00187*
Y-00387*
X00173*
X00144Y-00359*
X00146Y-0035*
X00178Y-00319*
X00187Y-00323*
Y-00325*
X00214*
X00215Y-00325*
X00245*
X00249Y-00323*
X00251Y-00323*
X00251Y-00323*
X00254Y-00325*
X00255Y-00325*
X00265*
X00266Y-00325*
X00296*
Y-00316*
X00305Y-00312*
X00312Y-00316*
G37*
G36*
X00225Y-003D02*
X00245Y-0032D01*
X00215*
Y-003*
Y-0028*
X00245*
X00225Y-003*
G37*
G36*
X01701Y-00319D02*
X01681Y-00299D01*
X01661Y-00319*
Y-00289*
X01701*
Y-00319*
G37*
G36*
X00265Y-0032D02*
X00255D01*
X00235Y-003*
X00255Y-0028*
X00265*
Y-0032*
G37*
G36*
X00408Y01362D02*
X00388Y01342D01*
X00378*
Y01382*
X00388*
X00408Y01362*
G37*
G36*
X00428D02*
Y01342D01*
X00398*
X00418Y01362*
X00398Y01382*
X00428*
Y01362*
G37*
G36*
X00827Y01351D02*
Y01331D01*
X00797*
X00817Y01351*
X00797Y01371*
X00827*
Y01351*
G37*
G36*
X-00055Y01493D02*
D01*
X-00028*
X-00027Y01492*
X00002*
X00003Y01493*
X00007Y0149*
X00011Y01486*
X00011Y01485*
X00007Y01476*
X00013Y01461*
X00028Y01455*
X00028*
X00034Y01457*
X00041Y0145*
X0004Y01449*
Y01438*
X-00044*
Y01361*
X0004*
Y01333*
X00032Y01328*
X0002Y01336*
X00005Y01339*
X-00005*
X-0002Y01336*
X-00033Y01327*
X-00038Y0132*
X-00077*
Y01474*
X-00058Y01493*
X-00055Y01493*
G37*
G36*
X00807Y01351D02*
X00787Y01331D01*
X00777*
Y01371*
X00787*
X00807Y01351*
G37*
G36*
X01632Y01381D02*
X01612Y01361D01*
X01592Y01381*
Y01391*
X01632*
Y01381*
G37*
G36*
X01338Y01362D02*
X01318Y01382D01*
X01298Y01362*
Y01392*
X01338*
Y01362*
G37*
G36*
X01632Y01341D02*
X01592D01*
Y01371*
X01612Y01351*
X01632Y01371*
Y01341*
G37*
G36*
X01338Y01352D02*
Y01342D01*
X01298*
Y01352*
X01318Y01372*
X01338Y01352*
G37*
G36*
X01542D02*
Y01342D01*
X01502*
Y01352*
X01522Y01372*
X01542Y01352*
G37*
G36*
X00933Y01304D02*
X00936Y01295D01*
X00929Y01288*
X00731*
X00724Y01295*
X00727Y01304*
X00933*
X00933Y01304*
G37*
G36*
X02157Y01184D02*
X02166Y01171D01*
X02179Y01162*
X02194Y01159*
X02205*
X0222Y01162*
X02233Y01171*
X02242Y01184*
X02243Y01191*
X02253Y0119*
Y01107*
X02243Y01106*
X02242Y01113*
X02233Y01126*
X0222Y01135*
X02205Y01138*
X02194*
X02179Y01135*
X02166Y01126*
X02157Y01113*
X02155Y01099*
X02145*
X02142Y01113*
X02133Y01126*
X0212Y01135*
X02105Y01138*
X02094*
X0208Y01135*
X02058Y01158*
Y01166*
X02067Y0117*
X02079Y01162*
X02094Y01159*
X02105*
X0212Y01162*
X02133Y01171*
X02142Y01184*
X02145Y01198*
X02155*
X02157Y01184*
G37*
G36*
X00531Y0116D02*
X00511Y0118D01*
X00491Y0116*
Y0119*
X00531*
Y0116*
G37*
G36*
X00767Y01177D02*
X00747Y01157D01*
X00727Y01177*
Y01187*
X00767*
Y01177*
G37*
G36*
X00648D02*
X00628Y01157D01*
X00608Y01177*
Y01187*
X00648*
Y01177*
G37*
G36*
X00708D02*
X00688Y01157D01*
X00668Y01177*
Y01187*
X00708*
Y01177*
G37*
G36*
X02157Y01284D02*
X02166Y01271D01*
X02179Y01262*
X02194Y01259*
X02205*
X0222Y01262*
X02233Y01271*
X02242Y01284*
X02243Y01291*
X02253Y0129*
Y01207*
X02243Y01206*
X02242Y01213*
X02233Y01226*
X0222Y01235*
X02205Y01238*
X02194*
X02179Y01235*
X02166Y01226*
X02157Y01213*
X02155Y01199*
X02145*
X02142Y01213*
X02133Y01226*
X0212Y01235*
X02105Y01238*
X02094*
X02079Y01235*
X02067Y01227*
X02058Y01231*
Y01266*
X02067Y0127*
X02079Y01262*
X02094Y01259*
X02105*
X0212Y01262*
X02133Y01271*
X02142Y01284*
X02145Y01298*
X02155*
X02157Y01284*
G37*
G36*
X01518Y01436D02*
X01513Y0143D01*
X01509Y01422*
Y01421*
X01497*
Y01412*
X01429*
X0142Y01408*
X01373Y01361*
X01369Y01353*
Y01143*
X01172Y00946*
X01168Y00937*
Y00744*
X01168Y00744*
X01163Y00732*
X01168Y00719*
X01181Y00714*
X01193Y00719*
X01198Y00732*
X01193Y00744*
X01193Y00744*
Y00913*
X01201Y00918*
X01208Y00916*
X0122Y00921*
X0122Y00922*
X0123*
X01231Y0092*
X01244Y00915*
X01256Y0092*
X01259Y00927*
X01269*
X01273Y00917*
X01286Y00912*
X01298Y00917*
X01303Y0093*
X01303Y0093*
X01442Y01069*
X01443Y01069*
X01455Y01074*
X0146Y01087*
X0146Y01087*
X01471Y01097*
X01497*
Y01089*
X01547*
Y01105*
X01556Y01107*
X01561Y01097*
X01573Y01092*
X01579Y01094*
X01587Y01089*
Y01089*
X01637*
Y01116*
X01638Y01117*
Y01144*
X01646Y01149*
X01652Y01146*
X01691Y01107*
X017Y01104*
X01739*
X01743Y01094*
X01678Y0103*
X01467*
X01459Y01026*
X01364Y00931*
X0136Y00923*
Y00737*
X0133Y00707*
X0128*
X01276Y00708*
X01272Y0071*
X01271Y00711*
X01276Y00723*
X01277Y00724*
X01278Y00724*
X0129Y00729*
X01295Y00741*
X01294Y00745*
X01297Y00748*
X01301*
X01302Y00748*
X01308Y00745*
X01312Y00735*
X01325Y0073*
X01337Y00735*
X01342Y00748*
X01337Y0076*
X01325Y00765*
X01319Y00763*
X01315Y00767*
X0131Y00779*
X01298Y00784*
X01285Y00779*
X0128Y00767*
X01278Y00759*
X01265Y00754*
X0126Y00741*
X01259Y0074*
X01258Y0074*
X01246Y00735*
X0124Y00723*
X01246Y0071*
X01253Y00707*
X01258Y00705*
X01259Y00704*
X01254Y00693*
X01259Y0068*
X01268Y00676*
X01268Y00676*
X0126Y00672*
X01251Y00663*
X01251Y00663*
X01238Y00658*
X01234Y00649*
X01224Y00647*
X01218Y00653*
X0121Y00657*
X01117*
X01117Y00657*
X01105Y00662*
X01092Y00657*
X01087Y00645*
X01092Y00632*
X01105Y00627*
X01111Y0063*
X01119Y00623*
X01115Y00614*
X01117Y00607*
X01112Y00599*
X01086*
X01031Y00654*
Y00725*
X01039Y0073*
X01046Y00728*
X01049Y00729*
X01055Y00723*
X0106Y00711*
X01073Y00705*
X01081Y00709*
X01088Y00702*
X01087Y00699*
X01092Y00686*
X01105Y00681*
X01117Y00686*
X01122Y00699*
X01117Y00711*
X01105Y00716*
X01096Y00713*
X01089Y0072*
X0109Y00723*
X01085Y00736*
X01073Y00741*
X01069Y0074*
X01063Y00746*
X01058Y00758*
X01046Y00763*
X01049Y00771*
X01054Y00773*
X01059Y00785*
X01054Y00798*
X01041Y00803*
X01039Y00802*
X01031Y00808*
Y00814*
X01031Y00814*
X01036Y00827*
X01041Y00831*
X01044Y0083*
X01056Y00835*
X01061Y00847*
X0107Y00851*
X01071Y00851*
X01084Y00856*
X01089Y00869*
X01084Y00881*
X01071Y00886*
X01058Y00881*
X01053Y00869*
X01044Y00865*
X01044Y00865*
X01031Y0086*
X01026Y00848*
X01016*
X01011Y0086*
X01009Y00869*
X0105Y0091*
X01104*
X01113Y00914*
X01288Y01089*
X01292Y01098*
Y01292*
X01302Y01294*
X01305Y01287*
X01318Y01281*
X0133Y01287*
X01336Y013*
X01334Y01303*
X0134Y01311*
X01343*
Y01341*
X01343Y01342*
Y01352*
X01343Y01353*
X01342Y01355*
X01341Y01356*
X01341Y01356*
X01341Y01358*
X01343Y01362*
Y01392*
X01343Y01393*
Y01421*
X0134*
X01335Y01429*
X01336Y01432*
X0133Y01444*
X01331Y01445*
X01515*
X01518Y01436*
G37*
G36*
X00498Y01265D02*
Y01218D01*
X00486*
Y01191*
X00485Y0119*
Y0116*
X00487Y01156*
X00487Y01154*
X00487Y01154*
X00486Y01151*
Y01151*
X00485Y0115*
X00475Y01145*
X00463*
Y01163*
X00386*
Y01096*
X00463*
Y01114*
X00486*
Y01109*
X00536*
X00545*
X00554*
Y01089*
X00559Y01078*
X00571Y01066*
X00567Y01057*
X00386*
X00378Y01053*
X00375Y01052*
X00343Y01021*
X00334Y01023*
X00332Y01025*
X0032Y01031*
X00307Y01025*
X00301Y01013*
X00307Y01*
X00309Y00998*
X00311Y00989*
X00272Y00949*
X00263Y00953*
Y01005*
X00328Y01071*
X00332Y0108*
Y01239*
X00365Y01271*
X00386*
Y01245*
X00463*
Y01271*
X00492*
X00498Y01265*
G37*
G36*
X0059Y0116D02*
X0057Y0118D01*
X0055Y0116*
Y0119*
X0059*
Y0116*
G37*
G36*
X00587Y01252D02*
X00581Y01243D01*
X0057Y01248*
X00557Y01243*
X00552Y01231*
X00553Y01227*
X00548Y01218*
X00545*
X00536*
X00523*
Y01271*
X00519Y01279*
X00522Y01285*
X00553*
X00587Y01252*
G37*
G36*
X0098Y02252D02*
X0096Y02232D01*
X0095*
Y02272*
X0096*
X0098Y02252*
G37*
G36*
X01D02*
Y02232D01*
X0097*
X0099Y02252*
X0097Y02272*
X01*
Y02252*
G37*
G36*
X01261Y02216D02*
X01251D01*
X01231Y02236*
X01251Y02256*
X01261*
Y02216*
G37*
G36*
X0158Y0206D02*
Y01783D01*
X01572Y01777*
X01563Y01764*
X0156Y0175*
X01563Y01735*
X01572Y01722*
X01585Y01713*
X016Y0171*
X01614Y01713*
X01624Y01719*
X01632Y01715*
Y01704*
X01614Y01686*
X016Y01689*
X01585Y01686*
X01572Y01677*
X01563Y01664*
X0156Y0165*
X01563Y01635*
X01572Y01622*
X01585Y01613*
X016Y0161*
X01614Y01613*
X01627Y01622*
X01636Y01635*
X01639Y0165*
X01636Y01664*
X01658Y01687*
X01663Y01698*
Y01885*
X01665Y01892*
X01663Y01898*
Y02042*
X01672Y02044*
X01674Y02041*
X01698Y02031*
Y02033*
X02315*
Y01507*
X02305Y01505*
X02302Y01514*
X02238Y01578*
X02242Y01584*
X02245Y01599*
X02242Y01613*
X02233Y01626*
X0222Y01635*
X02205Y01638*
X02194*
X02179Y01635*
X02166Y01626*
X02157Y01613*
X02155Y01599*
X02145*
X02142Y01613*
X02133Y01626*
X0212Y01635*
X02105Y01638*
X02094*
X02079Y01635*
X02066Y01626*
X02057Y01613*
X02054Y01599*
X02057Y01584*
X02065Y01572*
X02061Y01563*
X01998*
X01989Y01559*
X01958Y01528*
X01954Y0152*
Y01462*
X01944Y01461*
X01945Y0146*
X01944Y01458*
X01954Y01457*
Y01362*
X01944Y01361*
X01942Y01374*
X01933Y01387*
X0192Y01396*
X01905Y01399*
X01894*
X0188Y01396*
X01861Y01415*
X01853Y01419*
X01831*
X01828Y01428*
X01833Y01432*
X01842Y01445*
X01845Y01459*
X01855*
X01854Y0146*
X01855Y0146*
X01845*
X01842Y01474*
X01833Y01487*
X0182Y01496*
X01805Y01499*
X01794*
X01779Y01496*
X01766Y01487*
X01757Y01474*
X01754Y0146*
X01757Y01445*
X01766Y01432*
X01771Y01428*
X01768Y01419*
X01695*
X01666Y01447*
X01658Y01451*
X01655Y01457*
X01747Y0155*
X01757Y01547*
X01757Y01545*
X01766Y01532*
X01779Y01523*
X01794Y0152*
X01805*
X0182Y01523*
X01833Y01532*
X01842Y01545*
X01845Y01559*
X01855*
X01857Y01545*
X01866Y01532*
X01879Y01523*
X01894Y0152*
X01905*
X0192Y01523*
X01933Y01532*
X01942Y01545*
X01945Y0156*
X01942Y01574*
X01933Y01587*
X0192Y01596*
X01905Y01599*
X01894*
X01879Y01596*
X01866Y01587*
X01857Y01574*
X01855Y0156*
X01845*
X01842Y01574*
X01833Y01587*
X01836Y01595*
X01848*
X01856Y01599*
X0188Y01623*
X01894Y0162*
X01905*
X0192Y01623*
X01933Y01632*
X01942Y01645*
X01945Y0166*
X01942Y01674*
X01933Y01687*
X0192Y01696*
X01905Y01699*
X01894*
X01879Y01696*
X01866Y01687*
X01857Y01674*
X01855Y0166*
X01845*
X01842Y01674*
X01833Y01687*
X01835Y01692*
X01845*
X01853Y01696*
X0188Y01723*
X01894Y0172*
X01905*
X0192Y01723*
X01933Y01732*
X01942Y01745*
X01945Y0176*
X01942Y01774*
X01933Y01787*
X0192Y01796*
X01905Y01799*
X01894*
X01879Y01796*
X01866Y01787*
X01857Y01774*
X01854Y0176*
X01857Y01745*
X01861Y01739*
X01853Y01731*
X01844Y01734*
Y01798*
X01755*
Y01721*
X01751Y01717*
X01726*
X01718Y01713*
X01675Y01671*
X01672Y01662*
Y01589*
X01594Y01512*
X01252*
X01244Y01508*
X01191Y01455*
X01183Y01457*
X01171Y01462*
X01158Y01457*
X01158Y01456*
X01152*
X0114Y01461*
X01127Y01456*
X01122Y01444*
X01127Y01431*
X0114Y01426*
X0115Y0143*
X01157Y01427*
X01158Y01423*
X01145Y01409*
X01141Y014*
Y01059*
X01001Y00918*
X00991Y00921*
X0099Y00929*
X00981Y00942*
X00976Y00946*
X00976Y0095*
X00982Y00963*
X0098Y00966*
X00986Y00974*
X01024*
X01032Y00978*
X01111Y01056*
X01114Y01065*
Y01316*
X01111Y01324*
X01092Y01343*
Y0146*
X01101Y01466*
X01103Y01465*
X01117Y01471*
X01122Y01484*
X01218Y01579*
X01514*
X01522Y01576*
X01535Y01582*
X0154Y01595*
X01535Y01607*
X01523Y01612*
X01522Y01613*
X0152Y01617*
X01527Y01622*
X01536Y01635*
X01539Y0165*
X01536Y01664*
X01527Y01677*
X01514Y01686*
X015Y01689*
X01485Y01686*
X01472Y01677*
X01463Y01664*
X0146Y0165*
X01463Y01635*
X01472Y01622*
X01476Y01619*
X01473Y0161*
X01438*
Y01611*
Y01617*
Y01688*
X01361*
Y01617*
Y01611*
X0136Y0161*
X01212*
X01201Y01605*
X01102Y01506*
X01097Y01508*
X01092Y01511*
Y01712*
X01212Y01832*
X01216Y01841*
Y02039*
X01226Y02041*
X01246Y02033*
X0125Y02031*
X01251Y02033*
X01538*
Y02031*
X01562Y02041*
X0157Y02062*
X0158Y0206*
G37*
G36*
X01221Y02236D02*
X01241Y02216D01*
X01211*
Y02236*
Y02256*
X01241*
X01221Y02236*
G37*
G36*
X00202Y027D02*
Y0268D01*
X00172*
X00192Y027*
X00172Y0272*
X00202*
Y027*
G37*
G36*
X00182D02*
X00162Y0268D01*
X00152*
Y0272*
X00162*
X00182Y027*
G37*
G36*
X0043D02*
X0041Y0268D01*
X004*
Y0272*
X0041*
X0043Y027*
G37*
G36*
X01244Y0246D02*
X01224Y0244D01*
X01214*
Y0248*
X01224*
X01244Y0246*
G37*
G36*
X01264D02*
Y0244D01*
X01234*
X01254Y0246*
X01234Y0248*
X01264*
Y0246*
G37*
G36*
X02281Y015D02*
Y01447D01*
X02272Y01443*
X0226Y01454*
X02252Y01458*
X02231*
X02228Y01467*
X02233Y01471*
X02242Y01484*
X02245Y01499*
X02242Y01513*
X02233Y01526*
X0222Y01535*
X02205Y01538*
X02194*
X02179Y01535*
X02166Y01526*
X02157Y01513*
X02155Y01499*
X02145*
X02142Y01513*
X02133Y01526*
X0213Y01529*
X02132Y01538*
X02152*
X0216Y01542*
X0218Y01562*
X02194Y01559*
X02205*
X02219Y01562*
X02281Y015*
G37*
G36*
X00561Y01466D02*
X00294D01*
X00285Y01463*
X00213Y01391*
X00204Y01394*
Y01398*
X00293Y01487*
X00561*
Y01466*
G37*
G36*
X01037Y01233D02*
X01029Y01228D01*
X01016Y01223*
X0101Y0121*
X01016Y01197*
X01029Y01191*
X01037Y01186*
Y011*
X01008Y01071*
X00998Y01073*
X00996Y01078*
X00983Y01083*
X0097Y01078*
X00969Y01074*
X00959*
X00957Y01079*
X00956Y01079*
Y01091*
X00952Y011*
X00933Y01119*
X00924Y01123*
X00853*
X00844Y01119*
X0084Y01115*
X00831Y01119*
Y01136*
X00831Y01137*
Y01167*
X00829Y01171*
X00829Y01173*
X00829Y01173*
X00831Y01176*
X00831Y01177*
Y01187*
X00831Y01188*
Y01218*
X00818*
Y01226*
X00814Y01234*
X00806Y01243*
X00801Y01255*
X00788Y0126*
X00791Y01263*
X00935*
X00943Y01267*
X00955Y01279*
X00956Y01279*
X00968Y01284*
X00968Y01285*
X00978*
X00979Y01285*
X00992Y01279*
X01004Y01285*
X0101Y01298*
X01004Y0131*
X00992Y01316*
X00991Y01316*
X00981Y01325*
X00973Y01329*
X00971*
X00969Y01339*
X00975Y01341*
X0098Y01354*
X00975Y01366*
X00963Y01372*
X00962Y01371*
X00915Y01418*
X00907Y01422*
X00855*
Y01435*
Y01435*
X00862Y01442*
X00968*
X00974Y01436*
X00974Y01436*
X00979Y01423*
X00992Y01418*
X01004Y01423*
X01009Y01436*
X01004Y01448*
X00992Y01453*
Y01454*
X00995Y01461*
X01037*
Y01233*
G37*
G36*
X00827Y0141D02*
Y0139D01*
X00797*
X00817Y0141*
X00797Y0143*
X00827*
Y0141*
G37*
G36*
X01542Y01362D02*
X01522Y01382D01*
X01502Y01362*
Y01392*
X01542*
Y01362*
G37*
G36*
X00807Y0141D02*
X00787Y0139D01*
X00777*
Y0143*
X00787*
X00807Y0141*
G37*
G36*
X-00017Y01577D02*
X00002Y01557D01*
X-00027*
Y01577*
Y01597*
X00002*
X-00017Y01577*
G37*
G36*
X00022Y01557D02*
X00012D01*
X-00007Y01577*
X00012Y01597*
X00022*
Y01557*
G37*
G36*
Y01498D02*
X00012D01*
X-00007Y01518*
X00012Y01538*
X00022*
Y01498*
G37*
G36*
X00746Y01435D02*
D01*
Y01431*
X00737Y01425*
X00733Y01427*
X0072Y01422*
X00715Y0141*
X0072Y01397*
X00733Y01392*
X00737Y01394*
X00746Y01388*
Y01385*
Y01376*
Y01372*
X00737Y01366*
X00733Y01368*
X0072Y01363*
X00715Y01351*
X0072Y01338*
X00717Y01329*
X00649*
X00553Y01424*
X00545Y01428*
X00339*
X0033Y01424*
X0023Y01324*
X00221Y01328*
Y01363*
X00299Y01442*
X00746*
Y01435*
G37*
G36*
X-00017Y01518D02*
X00002Y01498D01*
X-00027*
Y01518*
Y01538*
X00002*
X-00017Y01518*
G37*
G36*
X01542Y01157D02*
X01522Y01137D01*
X01502Y01157*
Y01167*
X01542*
Y01157*
G37*
G36*
X01726Y0121D02*
X01735Y01206D01*
X0178*
X01781Y01196*
X01779Y01196*
X01766Y01187*
X01757Y01174*
X01754Y0116*
X01757Y01145*
X01762Y01137*
X01758Y01128*
X01705*
X01699Y01136*
X01701Y01145*
X01704Y01146*
X01709Y01159*
X01704Y01171*
X01692Y01176*
X01679Y01171*
X01678Y01168*
X01668Y01166*
X01648Y01186*
X01639Y01189*
X01637*
Y01198*
X01587*
Y01189*
X01547*
Y01198*
X01497*
Y01168*
X01496Y01167*
Y01157*
X01497Y01156*
X01497Y01154*
X01498Y01153*
X01498Y01153*
X01498Y01151*
X01496Y01147*
Y01122*
X01466*
X01457Y01118*
X01444Y01106*
X01436Y01111*
X01437Y01114*
Y0122*
X01455Y01238*
X01697*
X01726Y0121*
G37*
G36*
X01632Y01117D02*
X01592D01*
Y01147*
X01612Y01127*
X01632Y01147*
Y01117*
G37*
G36*
X01765Y00986D02*
X01757Y00974D01*
X01754Y0096*
X01757Y00945*
X01762Y00938*
X01757Y00929*
X01697*
X01694Y00938*
X01751Y00995*
X01761*
X01765Y00986*
G37*
G36*
X00531Y0115D02*
Y0114D01*
X00491*
Y0115*
X00511Y0117*
X00531Y0115*
G37*
G36*
X01632Y01157D02*
X01612Y01137D01*
X01592Y01157*
Y01167*
X01632*
Y01157*
G37*
G36*
X00179Y01159D02*
X0018Y01159D01*
X00193Y01153*
X00205Y01159*
X00215Y01155*
Y01141*
X00152Y01078*
X00148Y01069*
Y01022*
X00139Y01019*
X00133Y01027*
X0012Y01036*
X00105Y01039*
X00094*
X00079Y01036*
X00066Y01027*
X00057Y01014*
X00055Y01*
X0005*
X00043Y01005*
X00042Y01014*
X00033Y01027*
X0002Y01036*
X00005Y01039*
X-00005*
X-0002Y01036*
X-00033Y01027*
X-00042Y01014*
X-00045Y01*
X-00042Y00985*
X-00033Y00972*
X-0002Y00963*
X-00005Y0096*
X00005*
X0002Y00963*
X00033Y00972*
X00042Y00985*
X00045Y00999*
X00049*
X00056Y00994*
X00057Y00985*
X00066Y00972*
X00079Y00963*
X00094Y0096*
X00105*
X0012Y00963*
X00133Y00972*
X00139Y0098*
X00148Y00977*
Y00922*
X00139Y00919*
X00133Y00927*
X0012Y00936*
X00105Y00939*
X00094*
X00079Y00936*
X00066Y00927*
X00057Y00914*
X00055Y009*
X0005*
X00043Y00905*
X00042Y00914*
X00033Y00927*
X0002Y00936*
X00005Y00939*
X00005*
Y00905*
X00044*
X00045Y009*
X00045Y00899*
X00049*
X00056Y00894*
X00057Y00885*
X00066Y00872*
X00079Y00863*
X00094Y0086*
X00105*
X0012Y00863*
X00133Y00872*
X00139Y0088*
X00148Y00877*
Y00866*
X00119Y00836*
X00105Y00839*
X00094*
X00079Y00836*
X00066Y00827*
X00057Y00814*
X00055Y008*
X0005*
X00043Y00805*
X00042Y00814*
X00033Y00827*
X0002Y00836*
X00005Y00839*
X00005*
Y00805*
X00044*
X00045Y008*
X00045Y00799*
X00049*
X00056Y00794*
X00057Y00785*
X00066Y00772*
X00079Y00763*
X00094Y0076*
X00105*
X0012Y00763*
X00133Y00772*
X00142Y00785*
X00145Y008*
X00142Y00814*
X00138Y0082*
X00157Y00839*
X00166Y00836*
Y00784*
X00119Y00736*
X00105Y00739*
X00094*
X00079Y00736*
X00066Y00727*
X00057Y00714*
X00055Y007*
X0005*
X00043Y00705*
X00042Y00714*
X00033Y00727*
X0002Y00736*
X00005Y00739*
X-00005*
X-0002Y00736*
X-00033Y00727*
X-00042Y00714*
X-00045Y007*
X-00042Y00685*
X-00033Y00672*
X-0002Y00663*
X-00005Y0066*
X00005*
X0002Y00663*
X00033Y00672*
X00042Y00685*
X00045Y00699*
X00049*
X00056Y00694*
X00057Y00685*
X00066Y00672*
X00079Y00663*
X00094Y0066*
X00105*
X0012Y00663*
X00133Y00672*
X00142Y00685*
X00145Y007*
X00142Y00714*
X00138Y0072*
X00173Y00756*
X00183Y00752*
Y00607*
X00173Y00603*
X00139Y00637*
X0013Y00641*
X-00024*
X-00141Y00758*
X-0015Y00761*
X-00164*
X-00167Y00771*
X-00166Y00772*
X-00157Y00785*
X-00155Y00795*
X-00244*
X-00245Y008*
X-00245Y008*
X-00255*
X-00257Y00814*
X-00266Y00827*
X-00279Y00836*
X-00294Y00839*
X-00305*
X-0032Y00836*
X-00333Y00827*
X-00342Y00814*
X-00345Y008*
X-00342Y00785*
X-00333Y00772*
X-0032Y00763*
X-00305Y0076*
X-00294*
X-0028Y00763*
X-00258Y0074*
X-00249Y00737*
X-00239*
X-00233Y00727*
X-00242Y00714*
X-00245Y007*
X-00249*
X-00256Y00705*
X-00257Y00714*
X-00266Y00727*
X-00279Y00736*
X-00294Y00739*
X-00305*
X-0032Y00736*
X-00333Y00727*
X-00342Y00714*
X-00345Y007*
X-00342Y00685*
X-00333Y00672*
X-0032Y00663*
X-00305Y0066*
X-00294*
X-00279Y00663*
X-00266Y00672*
X-00257Y00685*
X-00255Y00699*
X-0025*
X-00243Y00694*
X-00242Y00685*
X-00233Y00672*
X-0022Y00663*
X-00205Y0066*
X-00194*
X-00179Y00663*
X-00166Y00672*
X-00157Y00685*
X-00154Y007*
X-00157Y00714*
X-00166Y00727*
X-00179Y00736*
X-00179Y00737*
X-00155*
X-00038Y0062*
X-0003Y00616*
X00125*
X00164Y00577*
Y00538*
X00155Y00535*
X00129Y0056*
X00121Y00564*
X-00161*
X-00165Y00573*
X-00157Y00585*
X-00154Y006*
X-00157Y00614*
X-00166Y00627*
X-00179Y00636*
X-00194Y00639*
X-00205*
X-0022Y00636*
X-00233Y00627*
X-00242Y00614*
X-00245Y006*
X-00255*
X-00257Y00614*
X-00266Y00627*
X-00279Y00636*
X-00294Y00639*
X-00305*
X-0032Y00636*
X-00333Y00627*
X-00342Y00614*
X-00345Y006*
X-00342Y00585*
X-00334Y00573*
X-00338Y00564*
X-00365*
X-00373Y0056*
X-0039Y00544*
X-00399Y00547*
Y01074*
X-00391Y01079*
X-00381Y01075*
X-00368Y01081*
X-00362Y01094*
X-00362Y01094*
X-00355Y01102*
X-00345Y011*
X-00342Y01085*
X-00333Y01072*
X-0032Y01063*
X-00305Y0106*
X-00294*
X-00279Y01063*
X-00266Y01072*
X-00257Y01085*
X-00255Y01099*
X-00245*
X-00242Y01085*
X-00233Y01072*
X-0022Y01063*
X-00205Y0106*
X-00194*
X-00179Y01063*
X-00166Y01072*
X-00161Y01079*
X-00038*
X-00033Y01072*
X-0002Y01063*
X-00005Y0106*
X00005*
X0002Y01063*
X00033Y01072*
X00042Y01085*
X00045Y01099*
X00055*
X00057Y01085*
X00066Y01072*
X00079Y01063*
X00094Y0106*
X00105*
X0012Y01063*
X00133Y01072*
X00142Y01085*
X00145Y011*
X00142Y01114*
X00133Y01127*
X00132Y01128*
X00133Y01129*
X00141Y01133*
X0017Y01161*
X00179Y01159*
G37*
G36*
X01755Y01059D02*
X01757Y01045D01*
X01766Y01032*
X01769Y01029*
X01767Y0102*
X01746*
X01737Y01016*
X01621Y009*
X01611Y00904*
Y00927*
X01583*
Y00893*
X016*
X01604Y00883*
X01565Y00845*
X01556Y00849*
Y00848*
X0154*
Y00828*
X01535*
X01539Y00818*
X01396Y00676*
X01346*
X01344Y00686*
X01344Y00686*
X01381Y00723*
X01385Y00732*
Y00917*
X01393Y00926*
X01403Y00924*
X01408Y00912*
X0142Y00907*
X01425Y00909*
X01434Y00903*
Y00893*
X01454*
Y00878*
X01447*
Y00828*
X01477*
X01478Y00827*
X01488*
X01489Y00828*
X0149Y00828*
X01492Y00829*
X01505Y00842*
X01507Y00841*
X01518Y00853*
X01507Y00864*
X01505Y00863*
X01492Y00876*
X01489Y00878*
X01488Y00878*
X01482Y00889*
Y00893*
X01501*
Y0097*
X0148*
X01475Y00979*
X01475Y00981*
X0147Y00993*
X01468Y01001*
X01473Y01005*
X01683*
X01692Y01009*
X01745Y01062*
X01755Y01059*
G37*
G36*
X00557Y00987D02*
X00566Y00983D01*
X00667*
X00672Y00975*
X00667Y00964*
X00668Y00963*
X00659Y00955*
X00657Y0095*
X00656Y00946*
X00643*
Y00919*
X00643Y00918*
Y00888*
X00644Y00884*
X00645Y00882*
X00644Y00881*
X00643Y00879*
X00643Y00878*
Y00868*
X00643Y00867*
Y00837*
X00671*
X00677Y0083*
Y0044*
X00587Y0035*
X00584Y00341*
Y-01327*
X00414Y-01496*
X00411Y-01506*
Y-01685*
X00388Y-01708*
X00384Y-01717*
Y-01816*
X0038Y-01818*
X00376Y-01828*
X00366Y-01826*
Y-01761*
X00369Y-01755*
X00363Y-01742*
X00357Y-01739*
X00358Y-01731*
X00361Y-01731*
X00366Y-01718*
X00361Y-01705*
X0036Y-01705*
Y-0169*
X00369Y-01685*
X00372Y-01686*
X00384Y-0168*
X0039Y-01668*
X00384Y-01655*
X00372Y-01649*
X00369Y-0165*
X0036Y-01645*
Y-01407*
X00389Y-01379*
X00392Y-0137*
Y-01272*
X00401Y-01266*
X00413Y-01261*
X00413Y-01261*
X0043*
X00438Y-01257*
X00544Y-01151*
X00548Y-01143*
Y-01028*
X00555Y-01023*
X00567Y-01018*
X00572Y-01006*
X00567Y-00993*
X00563Y-00991*
Y00381*
X00662Y00481*
X00666Y00489*
Y00711*
X00662Y00719*
X0061Y00772*
X0061Y00773*
X00604Y00785*
X00592Y00791*
X00579Y00785*
X00578Y00785*
X00571*
X00564Y00792*
Y00793*
X00564Y00794*
X00563Y00795*
X00562Y00797*
X00562Y00797*
X00562Y00799*
X00564Y00803*
Y00828*
X00579*
X0058Y00827*
X0058Y00827*
X00585Y00814*
X00598Y00809*
X0061Y00814*
X00615Y00827*
X0061Y00839*
X00598Y00844*
X00597Y00844*
X00592Y00849*
X00584Y00853*
X00564*
Y00861*
X00514*
Y00853*
X0046*
Y00861*
X0041*
Y00834*
X00409Y00833*
Y00803*
X00411Y00799*
X00411Y00797*
X00411Y00797*
X0041Y00794*
X00409Y00793*
Y00783*
X0041Y00782*
Y00752*
X00422*
Y00736*
X00426Y00727*
X00467Y00685*
Y00651*
X00455*
X0045Y00648*
X00445Y0065*
X00432Y00644*
X00426Y00632*
X00432Y00619*
X00432Y00618*
Y00541*
X00436Y00532*
X00447Y00521*
X00449Y0052*
X00447Y00511*
X00429*
X00428Y00511*
X00398*
X00394Y00509*
X00392Y00509*
X00392Y00509*
X00389Y00511*
X00388Y00511*
X00378*
X00377Y00511*
X00347*
Y00506*
X00338Y00501*
X00333Y00503*
X00332Y00503*
X00324Y00509*
Y00716*
X00377Y00769*
X0038Y00778*
Y00914*
X00424Y00957*
X00425Y00957*
X00437Y00963*
X00442Y00975*
X00437Y00988*
X00425Y00993*
Y00994*
X00432Y01001*
X00542*
X00557Y00987*
G37*
G36*
X01542Y01117D02*
X01502D01*
Y01147*
X01522Y01127*
X01542Y01147*
Y01117*
G37*
G36*
X02065Y01424D02*
X02057Y01413D01*
X02055Y01404*
X021*
Y01394*
X02055*
X02057Y01384*
X02066Y01371*
X02068Y01369*
X02067Y01359*
X02062Y01357*
X02037Y01332*
X02033Y01324*
Y01153*
X02037Y01144*
X02061Y01119*
X02057Y01113*
X02054Y01099*
X02057Y01084*
X02066Y01071*
X02067Y0107*
X02066Y0106*
X02062Y01058*
X01952Y00949*
X01943Y00953*
X01945Y0096*
X01942Y00974*
X01933Y00987*
X01931Y00989*
X01933Y00995*
X01941Y00999*
X0201Y01068*
X02014Y01077*
Y01402*
X02045Y01433*
X0206*
X02065Y01424*
G37*
G36*
X02249Y03037D02*
Y03036D01*
X02274Y03031*
X02295Y03017*
X02309Y02995*
X02314Y0297*
X02315*
Y02097*
X01698*
Y02099*
X01674Y02089*
X01672Y02085*
X01663Y02087*
Y02106*
X01658Y02116*
X01649Y02125*
X01652Y02131*
X01664Y02136*
X01665Y02138*
X01869*
X01878Y02141*
X01902Y02165*
X01903Y02165*
X01915Y02171*
X01921Y02184*
X01915Y02196*
X01907Y022*
Y02201*
Y0221*
X01919Y02215*
X01933Y02209*
X01947Y02215*
X01953Y0223*
X01947Y02243*
X01953Y02257*
X01947Y0227*
X01953Y02284*
X01947Y02298*
X01933Y02304*
X01919Y02298*
X01906Y02304*
X01891Y02298*
X01885Y02284*
X01891Y0227*
X01885Y02257*
X01891Y02243*
X01885Y0223*
X01891Y02215*
X01901Y02211*
Y0221*
Y02201*
X0189Y02196*
X01884Y02184*
X01884Y02183*
X01864Y02162*
X01662*
X01652Y02167*
X01648Y02165*
X0164Y02171*
Y02474*
X01636Y02482*
X01635Y02485*
X01544Y02576*
X01533Y02581*
X01223*
X01201Y02602*
Y02683*
X01204Y02691*
X01199Y02704*
X01186Y02709*
X01173Y02704*
X01168Y02691*
X01171Y02683*
Y02596*
X01175Y02585*
X01182Y02579*
X01178Y02573*
X01171Y02573*
X01164Y02576*
X01151Y0257*
X01145Y02558*
X01151Y02545*
X01164Y02539*
X01176Y02545*
X01182Y02558*
X01176Y0257*
X01185Y02576*
X01206Y02555*
X01217Y0255*
X01527*
X01609Y02468*
X01606Y02459*
X016Y02457*
X01595Y02467*
X01583Y02473*
X0157Y02467*
X01564Y02455*
X0157Y02442*
X01583Y02436*
X01595Y02442*
X016Y02452*
X01609Y0245*
Y02135*
X016Y02131*
X01589Y02142*
Y02234*
X01581Y02252*
X01516Y02318*
X01497Y02325*
X01351*
X01332Y02318*
X01325Y023*
X01332Y02281*
X01351Y02274*
X01486*
X01537Y02223*
Y02132*
X01545Y02113*
X01557Y02101*
X01551Y02093*
X01538Y02099*
Y02097*
X01251*
X0125Y02099*
X01246Y02097*
X01226Y02089*
X01216Y02091*
Y0221*
X01241*
X01245Y02212*
X01247Y02212*
X01247Y02212*
X0125Y02211*
X01251Y0221*
X01261*
X01262Y02211*
X01292*
Y02261*
X01284*
Y0229*
X01284Y0229*
X01289Y02302*
X01284Y02315*
X01271Y0232*
X01259Y02315*
X01254Y02302*
X01259Y0229*
X01259Y0229*
Y02276*
X01251Y02261*
X0125Y02261*
X01249Y0226*
X01247Y02259*
X01247Y02259*
X01245Y02259*
X01241Y02261*
X01211*
X0121Y02261*
X01183*
Y02211*
X01191*
Y01846*
X01071Y01726*
X01062Y0173*
Y01737*
X01167Y01843*
X01171Y01852*
Y02279*
X0128Y02388*
X01284Y02397*
Y02435*
X01292*
Y02485*
X01265*
X01264Y02485*
X01234*
X0123Y02483*
X01228Y02483*
X01228Y02483*
X01225Y02485*
X01225*
X01224Y02485*
X01214*
X01213Y02485*
X01183*
Y02479*
X01174Y02473*
X01164Y02478*
X01151Y02472*
X01145Y0246*
X01151Y02447*
X01151Y02446*
Y02387*
X01084Y0232*
X00962*
X00956Y02328*
X00957Y02331*
X00952Y02343*
X0094Y02348*
X00927Y02343*
X00927Y02343*
X00803*
X00794Y02339*
X00761Y02307*
X0039*
X00345Y02352*
X00336Y02355*
X00342Y02361*
X00369*
X00404Y02327*
X00412Y02323*
X00604*
X00604Y02323*
X00617Y02317*
X0063Y02323*
X00635Y02336*
X0063Y02349*
X00617Y02354*
X00604Y02349*
X00604Y02348*
X00417*
X00383Y02382*
X00376Y02385*
X00375Y02386*
X00376Y02387*
X00423*
X00439Y02372*
X00447Y02368*
X00984*
X00997Y02363*
X01009Y02369*
X01015Y02382*
X01009Y02394*
X00997Y024*
X00984Y02394*
X00983Y02393*
X00453*
X00437Y02408*
X00429Y02412*
X0013*
X00129Y02412*
X00117Y02418*
X00116Y02418*
X00108Y02426*
Y02675*
X00116Y0268*
X00121Y02678*
Y02675*
X00151*
X00152Y02674*
X00162*
X00163Y02675*
X00164Y02675*
X00166Y02676*
X00166Y02676*
X00168Y02676*
X00172Y02674*
X00202*
X00203Y02675*
X0023*
Y02687*
X00263*
X00263Y02685*
X00272Y02672*
X00285Y02663*
X003Y0266*
X00314Y02663*
X00327Y02672*
X00336Y02685*
X00336Y02687*
X00369*
Y02675*
X00399*
X004Y02674*
X0041*
X00411Y02675*
X00411*
X00412Y02675*
X00414Y02676*
X00427Y02689*
X00429Y02688*
X0044Y027*
X00429Y02711*
X00427Y0271*
X00414Y02723*
X00411Y02725*
X00411*
X0041Y02725*
X004*
X00399Y02725*
X00369*
Y02712*
X00336*
X00336Y02714*
X00327Y02727*
X00314Y02736*
X003Y02739*
X00285Y02736*
X00272Y02727*
X00263Y02714*
X00263Y02712*
X0023*
Y02725*
X00203*
X00202Y02725*
X00172*
X00168Y02723*
X00166Y02723*
X00166Y02723*
X00163Y02725*
X00162Y02725*
X00152*
X00151Y02725*
X00121*
Y02712*
X00112*
X00103Y02708*
X00087Y02692*
X00083Y02684*
Y02421*
X00087Y02412*
X00098Y024*
X00098Y024*
X001Y02394*
X00095Y02386*
X00076*
X00046Y02416*
Y02635*
X00042Y02643*
X-00002Y02689*
Y02745*
X-00002Y02746*
X00003Y02759*
X-00002Y02771*
X-00015Y02777*
X-00027Y02771*
X-00033Y02759*
X-00027Y02746*
X-00027Y02745*
Y02684*
X-00023Y02675*
X-0001Y02661*
X-00015Y02654*
X-00017Y02654*
X-00027Y02658*
X-00039Y02652*
X-00045Y02639*
X-00039Y02627*
X-00027Y02621*
X-00014Y02627*
X-00008Y02639*
X-00013Y0265*
X-00004Y02656*
X00021Y02629*
Y02411*
X00025Y02402*
X00062Y02365*
X00071Y02361*
X00155*
X00159Y02352*
X0012Y02312*
X0012Y02313*
X00107Y02307*
X00101Y02294*
X00107Y02282*
X0012Y02276*
X00132Y02282*
X00138Y02294*
X00138Y02295*
X00173Y02331*
X00263*
X00268Y02322*
X00263Y02314*
X0026Y023*
X00263Y02285*
X00268Y02278*
X00263Y02269*
X00177*
X00168Y02265*
X0012Y02218*
X0012Y02218*
X00107Y02212*
X00101Y022*
X00107Y02187*
X0012Y02181*
X00132Y02187*
X00138Y022*
X00138Y022*
X00182Y02244*
X00254*
X00261Y02237*
Y02162*
Y02161*
X00255Y02155*
X-0008*
X-00083Y02164*
X-00072Y02172*
X-00063Y02185*
X-0006Y022*
X-00063Y02214*
X-00072Y02227*
X-00085Y02236*
X-001Y02239*
X-00114Y02236*
X-00127Y02227*
X-00136Y02214*
X-00139Y022*
X-00136Y02185*
X-00127Y02172*
X-00116Y02164*
X-00119Y02155*
X-00153*
X-00195Y02197*
Y02264*
X-00199Y02272*
X-00236Y02309*
X-00245Y02313*
X-00263*
X-00263Y02314*
X-00272Y02327*
X-00285Y02336*
X-003Y02339*
X-00314Y02336*
X-00327Y02327*
X-00336Y02314*
X-00339Y023*
X-00336Y02285*
X-00327Y02272*
X-00314Y02263*
X-003Y0226*
X-00285Y02263*
X-00272Y02272*
X-00263Y02285*
X-00263Y02288*
X-0025*
X-0022Y02258*
Y02192*
X-00216Y02183*
X-00167Y02134*
X-00159Y0213*
X0096*
X00961Y0213*
X00973Y02125*
X00986Y0213*
X00991Y02143*
X00986Y02155*
X00973Y0216*
X00961Y02155*
X0096Y02155*
X00344*
X00338Y02161*
Y02162*
Y02237*
Y02238*
X00344Y02244*
X0063*
X00636Y02236*
X00641Y02224*
X00654Y02218*
X00666Y02224*
X00671Y02236*
X00677Y02244*
X00754*
X00763Y02248*
X00769Y02247*
X00769Y02245*
X00782Y0224*
X00795Y02245*
X00803Y02242*
Y02227*
X00808Y02217*
X0082Y02204*
X00823Y02203*
X00831Y022*
X00846*
X00853Y02197*
X00866Y02202*
X00871Y02215*
X00866Y02228*
X00855Y02232*
X0086Y02242*
X00854Y02255*
X00841Y0226*
X00833Y02265*
Y02276*
X00837Y02285*
X00836Y02287*
X00841Y02295*
X0109*
X01098Y02299*
X01172Y02373*
X01176Y02382*
Y02435*
X01183*
X01213*
X01214Y02434*
X01224*
X01225Y02435*
X01225*
X01226Y02435*
X01228Y02436*
X01228Y02436*
X0123Y02436*
X01234Y02434*
X01259*
Y02402*
X0115Y02293*
X01146Y02284*
Y01857*
X0104Y01751*
X01037Y01742*
Y01538*
X00961*
Y01466*
X00934*
X00929Y01475*
X00936Y01485*
X00939Y015*
X00936Y01514*
X00927Y01527*
X00914Y01536*
X009Y01539*
X00885Y01536*
X00872Y01527*
X00863Y01514*
X0086Y015*
X00863Y01485*
X0087Y01475*
X00865Y01466*
X00734*
X00729Y01475*
X00736Y01485*
X00739Y015*
X00736Y01514*
X00727Y01527*
X00714Y01536*
X007Y01539*
X00685Y01536*
X00672Y01527*
X00663Y01514*
X0066Y015*
X00663Y01485*
X0067Y01475*
X00665Y01466*
X00638*
Y01538*
X00561*
Y01512*
X00288*
X00279Y01508*
X00183Y01412*
X00179Y01404*
Y01272*
X00171Y01266*
X00165Y01269*
X00152Y01263*
X00146Y01251*
X00152Y01238*
X00165Y01232*
X00171Y01235*
X00174Y01233*
X00175Y01223*
X00153Y01201*
X00144Y01204*
X00142Y01214*
X00133Y01227*
X0012Y01236*
X00105Y01239*
X00094*
X00079Y01236*
X00066Y01227*
X00057Y01214*
X00055Y012*
X00045*
X00042Y01214*
X00038Y0122*
X00061Y01244*
X00065Y01253*
Y01262*
X00074Y01266*
X00079Y01263*
X00094Y0126*
X00105*
X0012Y01263*
X00133Y01272*
X00142Y01285*
X00145Y013*
X00142Y01314*
X00133Y01327*
X0012Y01336*
X00105Y01339*
X00094*
X00079Y01336*
X00074Y01333*
X00065Y01337*
Y01362*
X00074Y01366*
X00079Y01363*
X00094Y0136*
X00105*
X0012Y01363*
X00133Y01372*
X00142Y01385*
X00145Y014*
X00142Y01414*
X00133Y01427*
X0012Y01436*
X00105Y01439*
X00094*
X00079Y01436*
X00074Y01433*
X00065Y01437*
Y01444*
X001Y01478*
X00101Y01481*
X0011Y0149*
X00113Y01491*
X00186Y01565*
X0019Y01574*
Y01765*
X00253Y01828*
X0106*
X01068Y01832*
X0113Y01894*
X01134Y01903*
Y02227*
X0113Y02236*
X01106Y0226*
X01097Y02264*
X01028*
Y02277*
X01001*
X01Y02277*
X0097*
X00966Y02275*
X00964Y02275*
X00964Y02275*
X00961Y02277*
X0096Y02277*
X0095*
X00949Y02277*
X00919*
Y02227*
X00924Y02219*
X00922Y02215*
X00927Y02202*
X0094Y02197*
X00952Y02202*
X00957Y02215*
X00956Y02218*
X0096Y02226*
X00961Y02227*
X00962Y02227*
X00964Y02228*
X00964Y02228*
X00966Y02228*
X0097Y02226*
X00999*
X01001Y02223*
X01004Y02216*
X01003Y02215*
X01008Y02202*
X01021Y02197*
X01034Y02202*
X01039Y02215*
X01034Y02228*
X01028Y0223*
Y02239*
X01092*
X01109Y02222*
Y02071*
X01099Y02069*
X01091Y02089*
X01068Y02099*
X01066Y02097*
X0032*
Y02099*
X00296Y02089*
X00286Y02065*
X00296Y02041*
X00318Y02032*
X00319Y02031*
X0032Y02031*
Y02033*
X01068*
Y02031*
X01091Y02041*
X01099Y0206*
X01109Y02058*
Y01908*
X01054Y01853*
X00248*
X00239Y01849*
X00169Y01779*
X00165Y0177*
Y01579*
X00096Y0151*
X00094Y01509*
X00082Y01497*
X00081Y01495*
X00062Y01476*
X00053Y0148*
Y01493*
X00053*
Y01543*
Y01552*
Y01602*
X00053*
Y01764*
X00216Y01928*
X00339*
X00353Y01934*
X00359Y01948*
X00353Y01962*
X00339Y01968*
X00208*
X00194Y01962*
X00018Y01787*
X00012Y01772*
Y01607*
X00003Y01601*
X00002Y01602*
X-00027*
X-00028Y01602*
X-00055*
Y01552*
Y01543*
Y01538*
X-00063*
X-00077Y01532*
X-00112Y01497*
X-00118Y01483*
Y0132*
X-00161*
X-00166Y01327*
X-00179Y01336*
X-00194Y01339*
X-00205*
X-0022Y01336*
X-00233Y01327*
X-00242Y01314*
X-00245Y013*
X-00249*
X-00256Y01305*
X-00257Y01314*
X-00266Y01327*
X-00279Y01336*
X-00294Y01339*
X-00305*
X-0032Y01336*
X-00333Y01327*
X-00342Y01314*
X-00345Y013*
X-00342Y01285*
X-00333Y01272*
X-0032Y01263*
X-00305Y0126*
X-00294*
X-00279Y01263*
X-00266Y01272*
X-00257Y01285*
X-00255Y01299*
X-0025*
X-00243Y01294*
X-00242Y01285*
X-00233Y01272*
X-0022Y01263*
X-00205Y0126*
X-00194*
X-00179Y01263*
X-00166Y01272*
X-00161Y01279*
X-00038*
X-00033Y01272*
X-0002Y01263*
X-00005Y0126*
X00005*
X0002Y01263*
X00032Y01271*
X00038Y01267*
X0004Y01257*
X00019Y01236*
X00005Y01239*
X-00005*
X-0002Y01236*
X-00033Y01227*
X-00042Y01214*
X-00042Y01212*
X-00157*
X-00157Y01214*
X-00166Y01227*
X-00179Y01236*
X-00194Y01239*
X-00205*
X-0022Y01236*
X-00233Y01227*
X-00242Y01214*
X-00245Y012*
X-00255*
X-00257Y01214*
X-00266Y01227*
X-00279Y01236*
X-00294Y01239*
X-00305*
X-0032Y01236*
X-00333Y01227*
X-00342Y01214*
X-00345Y012*
X-00342Y01185*
X-00338Y01179*
X-00342Y0117*
X-00355*
X-00363Y01166*
X-00406Y01124*
X-00415Y01127*
Y02033*
X0018*
X00182Y02031*
X00186Y02033*
X00206Y02041*
X00215Y02065*
X00206Y02089*
X00186Y02097*
X00182Y02099*
X0018Y02097*
X-00415*
Y0297*
X-00414*
X-00409Y02995*
X-00395Y03017*
X-00374Y03031*
X-00349Y03036*
Y03037*
X01329*
Y02996*
X01418*
Y03037*
X01581*
Y02996*
X0167*
Y03037*
X02249*
G37*
G36*
X00708Y01137D02*
X00668D01*
Y01167*
X00688Y01147*
X00708Y01167*
Y01137*
G37*
G36*
X00648D02*
X00608D01*
Y01167*
X00628Y01147*
X00648Y01167*
Y01137*
G37*
G36*
X01228Y01444D02*
X01227Y0144D01*
Y01101*
X01226Y01101*
X01221Y01088*
X01226Y01075*
X01227Y01074*
X01229Y01065*
X01121Y00957*
X01111Y00958*
X01098Y00964*
X01093Y00961*
X01087Y0097*
X01162Y01045*
X01166Y01054*
Y01395*
X0122Y0145*
X01228Y01444*
G37*
G36*
X02069Y01529D02*
X02066Y01526D01*
X02057Y01513*
X02054Y01499*
X02057Y01484*
X02066Y01471*
X02071Y01467*
X02068Y01458*
X0204*
X02031Y01454*
X01993Y01416*
X01989Y01408*
Y01082*
X01951Y01044*
X01942Y01048*
X01945Y0106*
X01942Y01074*
X01933Y01087*
X0193Y0109*
X0193Y01093*
X01975Y01139*
X01979Y01147*
Y01514*
X02003Y01538*
X02067*
X02069Y01529*
G37*
G36*
X00826Y01177D02*
X00806Y01157D01*
X00786Y01177*
Y01187*
X00826*
Y01177*
G37*
G36*
X00767Y01137D02*
X00727D01*
Y01167*
X00747Y01147*
X00767Y01167*
Y01137*
G37*
G36*
X00826D02*
X00786D01*
Y01167*
X00806Y01147*
X00826Y01167*
Y01137*
G37*
G36*
X0059Y0115D02*
Y0114D01*
X0055*
Y0115*
X0057Y0117*
X0059Y0115*
G37*
%LNmb1137-2*%
%LPC*%
G36*
X-00305Y-00605D02*
X-00344D01*
X-00342Y-00614*
X-00333Y-00627*
X-0032Y-00636*
X-00305Y-00639*
X-00305*
Y-00605*
G37*
G36*
X02205Y02838D02*
Y02805D01*
X02238*
X02236Y02814*
X02227Y02827*
X02214Y02836*
X02205Y02838*
G37*
G36*
X02195D02*
X02185Y02836D01*
X02172Y02827*
X02163Y02814*
X02161Y02805*
X02195*
Y02838*
G37*
G36*
X01736Y02824D02*
X01723Y02819D01*
X01718Y02806*
X01723Y02794*
X01736Y02789*
X01748Y02794*
X01753Y02806*
X01748Y02819*
X01736Y02824*
G37*
G36*
X-00305Y02838D02*
X-00314Y02836D01*
X-00327Y02827*
X-00336Y02814*
X-00338Y02805*
X-00305*
Y02838*
G37*
G36*
X00293Y-00641D02*
X0028Y-00646D01*
X00275Y-00659*
X0028Y-00671*
X00293Y-00676*
X00305Y-00671*
X0031Y-00659*
X00305Y-00646*
X00293Y-00641*
G37*
G36*
X-00295Y02838D02*
Y02805D01*
X-00261*
X-00263Y02814*
X-00272Y02827*
X-00285Y02836*
X-00295Y02838*
G37*
G36*
X01186Y02804D02*
X01173Y02799D01*
X01084*
X01078Y02801*
X01065Y02796*
X0106Y02784*
X01065Y02771*
X01078Y02766*
X01084Y02768*
X01183*
X01186Y02767*
X01199Y02773*
X01204Y02786*
X01199Y02798*
X01186Y02804*
G37*
G36*
X-00305Y02895D02*
X-00338D01*
Y02861*
X-00305*
Y02895*
G37*
G36*
X-00261D02*
X-00295D01*
Y02861*
X-00261*
Y02895*
G37*
G36*
X01635Y0288D02*
X01603D01*
Y02847*
X01613Y02849*
X01625Y02858*
X01633Y0287*
X01635Y0288*
G37*
G36*
X00105Y-0066D02*
X00094D01*
X00079Y-00663*
X00066Y-00672*
X00057Y-00685*
X00055Y-00699*
X0005*
X00043Y-00694*
X00042Y-00685*
X00033Y-00672*
X0002Y-00663*
X00005Y-0066*
X-00005*
X-0002Y-00663*
X-00033Y-00672*
X-00042Y-00685*
X-00045Y-007*
X-00042Y-00714*
X-00033Y-00727*
X-0002Y-00736*
X-00005Y-00739*
X00005*
X0002Y-00736*
X00033Y-00727*
X00042Y-00714*
X00045Y-007*
X00049*
X00056Y-00705*
X00057Y-00714*
X00066Y-00727*
X00079Y-00736*
X00094Y-00739*
X00105*
X0012Y-00736*
X00133Y-00727*
X00142Y-00714*
X00145Y-007*
X00142Y-00685*
X00133Y-00672*
X0012Y-00663*
X00105Y-0066*
G37*
G36*
X02195Y02895D02*
X02161D01*
Y02861*
X02195*
Y02895*
G37*
G36*
X01593Y0288D02*
X01561D01*
X01563Y0287*
X01571Y02858*
X01583Y02849*
X01593Y02847*
Y0288*
G37*
G36*
X01401Y02923D02*
X01386Y0292D01*
X01374Y02911*
X01366Y02899*
X01363Y02885*
X01366Y0287*
X01374Y02858*
X01386Y02849*
X01401Y02846*
X01416Y02849*
X01428Y02858*
X01436Y0287*
X01439Y02885*
X01436Y02899*
X01428Y02911*
X01416Y0292*
X01401Y02923*
G37*
G36*
X01884Y-01755D02*
X01871Y-0176D01*
X01865Y-01773*
X01871Y-01786*
X01884Y-01791*
X01896Y-01786*
X01902Y-01773*
X01896Y-0176*
X01884Y-01755*
G37*
G36*
X00474Y-0199D02*
X00456Y-01997D01*
X00448Y-02019*
X00474*
Y-0199*
G37*
G36*
X00579Y-0204D02*
X00566Y-02045D01*
X00561Y-02058*
X00566Y-0207*
X00579Y-02075*
X00591Y-0207*
X00596Y-02058*
X00591Y-02045*
X00579Y-0204*
G37*
G36*
X00585Y-02096D02*
X00562D01*
Y-02137*
X00585*
Y-02096*
G37*
G36*
X00478Y02725D02*
X00462D01*
Y02705*
X00478*
Y02725*
G37*
G36*
X00842Y02801D02*
X00829Y02796D01*
X00824Y02784*
X00826Y02779*
X0082Y0277*
X00818*
Y02754*
X00868*
Y0277*
X00863*
X00857Y02779*
X00859Y02784*
X00854Y02796*
X00842Y02801*
G37*
G36*
X01335Y-00382D02*
X0132Y-00385D01*
X01307Y-00394*
X01298Y-00407*
X01295Y-00422*
X01298Y-00436*
X01307Y-00449*
X0132Y-00458*
X01335Y-00461*
X01349Y-00458*
X01362Y-00449*
X01371Y-00436*
X01374Y-00422*
X01371Y-00407*
X01362Y-00394*
X01349Y-00385*
X01335Y-00382*
G37*
G36*
X00796Y-00324D02*
X00783Y-00329D01*
X00778Y-00342*
X00783Y-00354*
X00796Y-00359*
X00808Y-00354*
X00813Y-00342*
X00808Y-00329*
X00796Y-00324*
G37*
G36*
X-00061Y02738D02*
X-00138D01*
Y02661*
X-00061*
Y02738*
G37*
G36*
X01411Y02783D02*
X01398Y02778D01*
X01393Y02766*
X01398Y02753*
X01411Y02748*
X01423Y02753*
X01423Y02753*
X0166*
X01722Y02691*
X01722Y02691*
X01727Y02679*
X01739Y02673*
X01752Y02679*
X01757Y02691*
X01752Y02704*
X01739Y02709*
X01739Y02709*
X01674Y02774*
X01665Y02778*
X01423*
X01423Y02778*
X01411Y02783*
G37*
G36*
X00478Y02695D02*
X00462D01*
Y02675*
X00478*
Y02695*
G37*
G36*
X00452Y02725D02*
X00436D01*
Y0272*
X0045*
Y027*
Y0268*
X00436*
Y02675*
X00452*
Y02699*
Y02725*
G37*
G36*
X-00305Y02795D02*
X-00338D01*
X-00336Y02785*
X-00327Y02772*
X-00314Y02763*
X-00305Y02761*
Y02795*
G37*
G36*
X00044Y-00605D02*
X00005D01*
Y-00639*
X00005*
X0002Y-00636*
X00033Y-00627*
X00042Y-00614*
X00044Y-00605*
G37*
G36*
X-00305Y-0056D02*
X-00305D01*
X-0032Y-00563*
X-00333Y-00572*
X-00342Y-00585*
X-00344Y-00595*
X-00305*
Y-0056*
G37*
G36*
X00299Y-0199D02*
X00281Y-01997D01*
X00272Y-02019*
X00299*
Y-0199*
G37*
G36*
X-00005Y-00605D02*
X-00044D01*
X-00042Y-00614*
X-00033Y-00627*
X-0002Y-00636*
X-00005Y-00639*
X-00005*
Y-00605*
G37*
G36*
X00309Y-0199D02*
Y-02019D01*
X00335*
X00327Y-01997*
X00309Y-0199*
G37*
G36*
X00941Y-005D02*
X00928Y-00506D01*
X00922Y-00519*
X00928Y-00531*
X00941Y-00537*
X00953Y-00531*
X00959Y-00519*
X00953Y-00506*
X00941Y-005*
G37*
G36*
X-00261Y02795D02*
X-00295D01*
Y02761*
X-00285Y02763*
X-00272Y02772*
X-00263Y02785*
X-00261Y02795*
G37*
G36*
X02195D02*
X02161D01*
X02163Y02785*
X02172Y02772*
X02185Y02763*
X02195Y02761*
Y02795*
G37*
G36*
X-00005Y-0056D02*
X-00005D01*
X-0002Y-00563*
X-00033Y-00572*
X-00042Y-00585*
X-00044Y-00595*
X-00005*
Y-0056*
G37*
G36*
X02238Y02795D02*
X02205D01*
Y02761*
X02214Y02763*
X02227Y02772*
X02236Y02785*
X02238Y02795*
G37*
G36*
X02238Y02895D02*
X02205D01*
Y02861*
X02238*
Y02895*
G37*
G36*
X02144Y-01706D02*
X02105D01*
Y-0174*
X02105*
X0212Y-01737*
X02133Y-01728*
X02142Y-01715*
X02144Y-01706*
G37*
G36*
X02195Y02938D02*
X02161D01*
Y02905*
X02195*
Y02938*
G37*
G36*
X02238D02*
X02205D01*
Y02905*
X02238*
Y02938*
G37*
G36*
X02244Y-01706D02*
X02205D01*
Y-0174*
X02205*
X0222Y-01737*
X02233Y-01728*
X02242Y-01715*
X02244Y-01706*
G37*
G36*
X02195D02*
X02155D01*
X02157Y-01715*
X02166Y-01728*
X02179Y-01737*
X02194Y-0174*
X02195*
Y-01706*
G37*
G36*
X01593Y02922D02*
X01583Y0292D01*
X01571Y02911*
X01563Y02899*
X01561Y0289*
X01593*
Y02922*
G37*
G36*
X00938Y02958D02*
X00861D01*
Y02881*
X00938*
Y02958*
G37*
G36*
X-00305Y02938D02*
X-00338D01*
Y02905*
X-00305*
Y02938*
G37*
G36*
X-00261D02*
X-00295D01*
Y02905*
X-00261*
Y02938*
G37*
G36*
X02095Y-01706D02*
X02055D01*
X02057Y-01715*
X02066Y-01728*
X02079Y-01737*
X02094Y-0174*
X02095*
Y-01706*
G37*
G36*
X-00305Y-01705D02*
X-00344D01*
X-00342Y-01714*
X-00333Y-01727*
X-0032Y-01736*
X-00305Y-01739*
X-00305*
Y-01705*
G37*
G36*
X-00194Y-0166D02*
X-00195D01*
Y-01695*
X-00155*
X-00157Y-01685*
X-00166Y-01672*
X-00179Y-01663*
X-00194Y-0166*
G37*
G36*
X02195Y-01661D02*
X02194D01*
X02179Y-01664*
X02166Y-01673*
X02157Y-01686*
X02155Y-01696*
X02195*
Y-01661*
G37*
G36*
X-00205Y-0166D02*
X-00205D01*
X-0022Y-01663*
X-00233Y-01672*
X-00242Y-01685*
X-00244Y-01695*
X-00205*
Y-0166*
G37*
G36*
X02205Y-01661D02*
X02205D01*
Y-01696*
X02244*
X02242Y-01686*
X02233Y-01673*
X0222Y-01664*
X02205Y-01661*
G37*
G36*
X-00305Y-0166D02*
X-00305D01*
X-0032Y-01663*
X-00333Y-01672*
X-00342Y-01685*
X-00344Y-01695*
X-00305*
Y-0166*
G37*
G36*
X-00294D02*
X-00295D01*
Y-01695*
X-00255*
X-00254Y-017*
X-00255Y-017*
X-0025*
X-00243Y-01705*
X-00242Y-01714*
X-00233Y-01727*
X-0022Y-01736*
X-00205Y-01739*
X-00205*
Y-01705*
X-00244*
X-00245Y-017*
X-00245Y-01699*
X-00249*
X-00256Y-01694*
X-00257Y-01685*
X-00266Y-01672*
X-00279Y-01663*
X-00294Y-0166*
G37*
G36*
X-00255Y-01705D02*
X-00295D01*
Y-01739*
X-00294*
X-00279Y-01736*
X-00266Y-01727*
X-00257Y-01714*
X-00255Y-01705*
G37*
G36*
X-00155D02*
X-00195D01*
Y-01739*
X-00194*
X-00179Y-01736*
X-00166Y-01727*
X-00157Y-01714*
X-00155Y-01705*
G37*
G36*
X02145Y-017D02*
X02145Y-01701D01*
X02145Y-01701*
X02155*
X02154Y-01701*
X02155Y-017*
X02145*
G37*
G36*
X00261Y-01698D02*
X00211D01*
Y-01699*
X00202Y-01705*
X00194Y-01701*
X00184Y-01705*
X00176Y-01699*
Y-01698*
X00126*
Y-01728*
X00125Y-01729*
Y-01739*
X00126Y-0174*
Y-0174*
X00126Y-01741*
X00127Y-01743*
X00127Y-01743*
X00127Y-01745*
X00125Y-01749*
Y-01752*
X00117Y-01757*
X00111Y-01755*
X00098Y-0176*
X00095Y-01768*
X00014Y-01849*
X-00214*
X-0022Y-01846*
X-00233Y-01851*
X-00238Y-01864*
X-00233Y-01876*
X-0022Y-01882*
X-00214Y-01879*
X0002*
X00031Y-01875*
X00116Y-01789*
X00117Y-01789*
X00126Y-01794*
Y-01807*
X00132*
X00137Y-01816*
X00133Y-01827*
X00138Y-01839*
X00151Y-01844*
X00163Y-01839*
X00168Y-01827*
X00163Y-01814*
X00163Y-01814*
Y-01807*
X00176*
Y-0178*
X00176Y-01779*
Y-01749*
X00174Y-01745*
X00174Y-01743*
X00174Y-01743*
X00176Y-0174*
Y-0174*
X00176Y-01739*
X00186Y-01733*
X00194Y-01736*
X002Y-01734*
X0021Y-01739*
X00211Y-0174*
Y-0174*
X00211Y-01741*
X00212Y-01743*
X00212Y-01743*
X00212Y-01745*
X0021Y-01749*
Y-01779*
X00211Y-0178*
Y-01807*
X00223*
Y-01818*
X00223Y-01818*
X00218Y-01831*
X00223Y-01843*
X00236Y-01848*
X00248Y-01843*
X00253Y-01831*
X00248Y-01818*
X00248Y-01818*
Y-01807*
X00261*
Y-0178*
X00261Y-01779*
Y-01749*
X00259Y-01745*
X00259Y-01743*
X00259Y-01743*
X00261Y-0174*
Y-0174*
X00261Y-01739*
Y-01729*
X00261Y-01728*
Y-01698*
G37*
G36*
X02205Y-00961D02*
X02194D01*
X02179Y-00964*
X02166Y-00973*
X02157Y-00986*
X02155Y-01*
X0215*
X02143Y-00995*
X02142Y-00986*
X02133Y-00973*
X0212Y-00964*
X02105Y-00961*
X02094*
X02079Y-00964*
X02066Y-00973*
X02057Y-00986*
X02054Y-01001*
X02057Y-01015*
X02066Y-01028*
X02079Y-01037*
X02094Y-0104*
X02105*
X0212Y-01037*
X02133Y-01028*
X02142Y-01015*
X02145Y-01001*
X02149*
X02156Y-01006*
X02157Y-01015*
X02166Y-01028*
X02179Y-01037*
X02194Y-0104*
X02205*
X0222Y-01037*
X02233Y-01028*
X02242Y-01015*
X02245Y-01001*
X02242Y-00986*
X02233Y-00973*
X0222Y-00964*
X02205Y-00961*
G37*
G36*
X01176Y-00918D02*
X01163Y-00923D01*
X01158Y-00936*
X01163Y-00948*
X01176Y-00953*
X01188Y-00948*
X01193Y-00936*
X01188Y-00923*
X01176Y-00918*
G37*
G36*
X01383Y-01093D02*
X01377D01*
X01009Y-01093*
Y-01503*
X01384*
Y-011*
Y-01093*
X01383*
G37*
G36*
X02205Y-01061D02*
X02194D01*
X02179Y-01064*
X02166Y-01073*
X02157Y-01086*
X02155Y-011*
X0215*
X02143Y-01095*
X02142Y-01086*
X02133Y-01073*
X0212Y-01064*
X02105Y-01061*
X02094*
X02079Y-01064*
X02066Y-01073*
X02057Y-01086*
X02054Y-01101*
X02057Y-01115*
X02066Y-01128*
X02079Y-01137*
X02094Y-0114*
X02105*
X0212Y-01137*
X02133Y-01128*
X02142Y-01115*
X02145Y-01101*
X02149*
X02156Y-01106*
X02157Y-01115*
X02166Y-01128*
X02179Y-01137*
X02194Y-0114*
X02205*
X0222Y-01137*
X02233Y-01128*
X02242Y-01115*
X02245Y-01101*
X02242Y-01086*
X02233Y-01073*
X0222Y-01064*
X02205Y-01061*
G37*
G36*
X-00194Y-0106D02*
X-00195D01*
Y-01095*
X-00155*
X-00157Y-01085*
X-00166Y-01072*
X-00179Y-01063*
X-00194Y-0106*
G37*
G36*
X00858Y-00783D02*
X00845Y-00788D01*
X0084Y-00801*
X00845Y-00813*
X00858Y-00818*
X0087Y-00813*
X00875Y-00801*
X0087Y-00788*
X00858Y-00783*
G37*
G36*
X00105Y-0076D02*
X00094D01*
X00079Y-00763*
X00066Y-00772*
X00057Y-00785*
X00055Y-00799*
X0005*
X00043Y-00794*
X00042Y-00785*
X00033Y-00772*
X0002Y-00763*
X00005Y-0076*
X-00005*
X-0002Y-00763*
X-00033Y-00772*
X-00042Y-00785*
X-00045Y-008*
X-00042Y-00814*
X-00033Y-00827*
X-0002Y-00836*
X-00005Y-00839*
X00005*
X0002Y-00836*
X00033Y-00827*
X00042Y-00814*
X00045Y-008*
X00049*
X00056Y-00805*
X00057Y-00814*
X00066Y-00827*
X00079Y-00836*
X00094Y-00839*
X00105*
X0012Y-00836*
X00133Y-00827*
X00142Y-00814*
X00145Y-008*
X00142Y-00785*
X00133Y-00772*
X0012Y-00763*
X00105Y-0076*
G37*
G36*
X01176Y-00844D02*
X01163Y-00849D01*
X01158Y-00862*
X01163Y-00874*
X01176Y-00879*
X01188Y-00874*
X01193Y-00862*
X01188Y-00849*
X01176Y-00844*
G37*
G36*
X00105Y-0086D02*
X00094D01*
X00079Y-00863*
X00066Y-00872*
X00057Y-00885*
X00055Y-00899*
X0005*
X00043Y-00894*
X00042Y-00885*
X00033Y-00872*
X0002Y-00863*
X00005Y-0086*
X-00005*
X-0002Y-00863*
X-00033Y-00872*
X-00042Y-00885*
X-00045Y-009*
X-00042Y-00914*
X-00033Y-00927*
X-0002Y-00936*
X-00005Y-00939*
X00005*
X0002Y-00936*
X00033Y-00927*
X00042Y-00914*
X00045Y-009*
X00049*
X00056Y-00905*
X00057Y-00914*
X00066Y-00927*
X00079Y-00936*
X00094Y-00939*
X00105*
X0012Y-00936*
X00133Y-00927*
X00142Y-00914*
X00145Y-009*
X00142Y-00885*
X00133Y-00872*
X0012Y-00863*
X00105Y-0086*
G37*
G36*
X00187Y-00863D02*
X00174Y-00868D01*
X00169Y-00881*
X00174Y-00893*
X00187Y-00898*
X00199Y-00893*
X00204Y-00881*
X00199Y-00868*
X00187Y-00863*
G37*
G36*
X0185Y-00976D02*
X01821Y-00982D01*
X01798Y-00998*
X01782Y-01021*
X01776Y-0105*
X01782Y-01078*
X01798Y-01101*
X01821Y-01117*
X0185Y-01123*
X01878Y-01117*
X01901Y-01101*
X01917Y-01078*
X01923Y-0105*
X01917Y-01021*
X01901Y-00998*
X01878Y-00982*
X0185Y-00976*
G37*
G36*
X02105Y-01261D02*
X02105D01*
Y-01296*
X02144*
X02142Y-01286*
X02133Y-01273*
X0212Y-01264*
X02105Y-01261*
G37*
G36*
X01Y02959D02*
X00985Y02956D01*
X00972Y02947*
X00963Y02934*
X0096Y0292*
X00963Y02905*
X00972Y02892*
X00985Y02883*
X01Y0288*
X01014Y02883*
X01027Y02892*
X01036Y02905*
X01039Y0292*
X01036Y02934*
X01027Y02947*
X01014Y02956*
X01Y02959*
G37*
G36*
X00338Y02938D02*
X00261D01*
Y02912*
X0023*
Y02925*
X00203*
X00202Y02925*
X00172*
X00168Y02923*
X00166Y02923*
X00166Y02923*
X00163Y02925*
X00162Y02925*
X00152*
X00151Y02925*
X00121*
Y02875*
X00129*
Y02864*
X00129Y02863*
X00123Y02851*
X00129Y02838*
X00137Y02834*
X00135Y02825*
X00121*
Y02823*
X00112Y02817*
X00111Y02818*
X00098Y02812*
X00092Y028*
X00098Y02787*
X00111Y02781*
X00112Y02782*
X00121Y02776*
Y02775*
X00151*
X00152Y02774*
X00162*
X00163Y02775*
X00164Y02775*
X00166Y02776*
X00166Y02776*
X00168Y02776*
X00172Y02774*
X00202*
X00203Y02775*
X0023*
Y02787*
X00263*
X00263Y02785*
X00272Y02772*
X00285Y02763*
X003Y0276*
X00314Y02763*
X00327Y02772*
X00336Y02785*
X00336Y02787*
X00369*
Y02775*
X00399*
X004Y02774*
X0041*
X00411Y02775*
X00411*
X00412Y02775*
X00414Y02776*
X00414Y02776*
X00416Y02776*
X0042Y02774*
X0045*
X00451Y02775*
X00478*
Y02778*
X00487Y02784*
X00496Y0278*
X00508Y02786*
X00514Y02799*
X00508Y02811*
X00496Y02817*
X00487Y02813*
X00478Y02819*
Y02825*
X00451*
X0045Y02825*
X0042*
X00416Y02823*
X00414Y02823*
X00414Y02823*
X00411Y02825*
X00411*
X0041Y02825*
X004*
X00399Y02825*
X00369*
Y02812*
X00336*
X00336Y02814*
X00327Y02827*
X00315Y02835*
X00314Y02836*
X00315Y02838*
X00893*
X00918Y02814*
Y0256*
X00917Y0256*
X00912Y02547*
X00917Y02534*
X0093Y02529*
X00943Y02534*
X00948Y02547*
X00943Y0256*
X00942Y0256*
Y02819*
X00939Y02828*
X00907Y02859*
X00899Y02863*
X00338*
Y02887*
X00369*
Y02875*
X00399*
X004Y02874*
X0041*
X00411Y02875*
X00411*
X00412Y02875*
X00414Y02876*
X00414Y02876*
X00416Y02876*
X0042Y02874*
X0045*
X00451Y02875*
X00478*
Y02884*
X00489*
X00497Y02881*
X0051Y02887*
X00515Y02899*
X0051Y02912*
X00497Y02918*
X00489Y02914*
X00478*
Y02925*
X00451*
X0045Y02925*
X0042*
X00416Y02923*
X00414Y02923*
X00414Y02923*
X00411Y02925*
X00411*
X0041Y02925*
X004*
X00399Y02925*
X00369*
Y02912*
X00338*
Y02938*
G37*
G36*
X02095Y-01261D02*
X02094D01*
X02079Y-01264*
X02066Y-01273*
X02057Y-01286*
X02055Y-01296*
X02095*
Y-01261*
G37*
G36*
X0167Y02986D02*
X01581D01*
Y02945*
X01603*
X01608Y02936*
X01606Y02931*
X01606Y0293*
X016Y02922*
X01603Y02922*
Y0289*
X01635*
X01633Y02899*
X01626Y0291*
X01627Y0291*
X01641Y02916*
X01648*
X01663Y0291*
X01677Y02916*
X01681*
X01696Y0291*
X0171Y02916*
X01716Y02931*
X0171Y02945*
X01696Y02951*
X01681Y02945*
X01677*
X0167Y02948*
Y02986*
G37*
G36*
X-00155Y-01105D02*
X-00195D01*
Y-01139*
X-00194*
X-00179Y-01136*
X-00166Y-01127*
X-00157Y-01114*
X-00155Y-01105*
G37*
G36*
X0005Y-00976D02*
X00021Y-00982D01*
X-00001Y-00998*
X-00017Y-01021*
X-00023Y-0105*
X-00017Y-01078*
X-00001Y-01101*
X00021Y-01117*
X0005Y-01123*
X00078Y-01117*
X00101Y-01101*
X00117Y-01078*
X00123Y-0105*
X00117Y-01021*
X00101Y-00998*
X00078Y-00982*
X0005Y-00976*
G37*
G36*
X02205Y-01161D02*
X02194D01*
X02179Y-01164*
X02166Y-01173*
X02157Y-01186*
X02155Y-012*
X0215*
X02143Y-01195*
X02142Y-01186*
X02133Y-01173*
X0212Y-01164*
X02105Y-01161*
X02094*
X02079Y-01164*
X02066Y-01173*
X02057Y-01186*
X02054Y-01201*
X02057Y-01215*
X02066Y-01228*
X02079Y-01237*
X02094Y-0124*
X02105*
X0212Y-01237*
X02133Y-01228*
X02142Y-01215*
X02145Y-01201*
X02149*
X02156Y-01206*
X02157Y-01215*
X02166Y-01228*
X02179Y-01237*
X02194Y-0124*
X02205*
X0222Y-01237*
X02233Y-01228*
X02242Y-01215*
X02245Y-01201*
X02242Y-01186*
X02233Y-01173*
X0222Y-01164*
X02205Y-01161*
G37*
G36*
X01357Y02986D02*
X01329D01*
Y02945*
X01357*
Y02986*
G37*
G36*
X01418D02*
X01367D01*
Y02945*
X01418*
Y02986*
G37*
G36*
X00868Y02744D02*
X00818D01*
Y02728*
X00819Y02728*
Y02723*
X00817Y0272*
X00817Y02719*
Y02718*
Y02689*
X00818Y02688*
Y02675*
X00812Y02661*
X00799Y02655*
X00793Y02643*
X00794Y02641*
X00787Y02634*
X00784Y02635*
X00771Y0263*
X00765Y02617*
X00771Y02604*
X00784Y02598*
X00791Y02602*
X00799Y02596*
Y02583*
X00803Y02574*
X00843Y02534*
X00843Y02534*
X00848Y02521*
X0086Y02516*
X00858Y02506*
X00813*
X0071Y02608*
X00702Y02612*
X00478*
Y02625*
X00451*
X0045Y02625*
X0042*
X00416Y02623*
X00414Y02623*
X00414Y02623*
X00411Y02625*
X00411*
X0041Y02625*
X004*
X00399Y02625*
X00369*
Y02612*
X00336*
X00336Y02614*
X00327Y02627*
X00314Y02636*
X003Y02639*
X00285Y02636*
X00272Y02627*
X00263Y02614*
X00263Y02612*
X0023*
Y02625*
X00203*
X00202Y02625*
X00172*
X00168Y02623*
X00166Y02623*
X00166Y02623*
X00163Y02625*
X00162Y02625*
X00152*
X00151Y02625*
X00121*
Y02575*
X00125Y02568*
X00123Y02563*
X00129Y0255*
X00142Y02545*
X00155Y0255*
X0016Y02563*
X00158Y02567*
X00162Y02574*
X00163Y02575*
X00164Y02575*
X00166Y02576*
X00166Y02576*
X00168Y02576*
X00172Y02574*
X00202*
X00203Y02575*
X0023*
Y02587*
X00263*
X00263Y02585*
X00272Y02572*
X00285Y02563*
X003Y0256*
X00314Y02563*
X00327Y02572*
X00336Y02585*
X00336Y02587*
X00369*
Y02575*
X00399*
X004Y02574*
X0041*
X00411Y02575*
X00411*
X00412Y02575*
X00414Y02576*
X00414Y02576*
X00416Y02576*
X0042Y02574*
X0045*
X00451Y02575*
X00478*
Y02587*
X00696*
X00799Y02485*
X00808Y02481*
X01037*
X01037Y02481*
X0105Y02476*
X01062Y02481*
X01067Y02494*
X01062Y02506*
X0105Y02511*
X01037Y02506*
X01037Y02506*
X00864*
X00863Y0251*
X00862Y02516*
X00874Y02521*
X00879Y02534*
X00874Y02546*
X00861Y02552*
X0086Y02552*
X00824Y02588*
Y02629*
X00824Y0263*
X00825Y0263*
X00827*
X00835Y02634*
X00851Y0265*
X00855Y02659*
Y02661*
X00868*
Y02688*
X00868Y02689*
Y02704*
Y02719*
X00868Y0272*
X00866Y02723*
Y02728*
X00868Y02728*
Y02744*
G37*
G36*
X-00194Y01639D02*
X-00205D01*
X-0022Y01636*
X-00233Y01627*
X-00242Y01614*
X-00245Y016*
X-00249*
X-00256Y01605*
X-00257Y01614*
X-00266Y01627*
X-00279Y01636*
X-00294Y01639*
X-00305*
X-0032Y01636*
X-00333Y01627*
X-00342Y01614*
X-00345Y016*
X-00342Y01585*
X-00333Y01572*
X-0032Y01563*
X-00305Y0156*
X-00294*
X-00279Y01563*
X-00266Y01572*
X-00257Y01585*
X-00255Y01599*
X-0025*
X-00243Y01594*
X-00242Y01585*
X-00233Y01572*
X-0022Y01563*
X-00205Y0156*
X-00194*
X-00179Y01563*
X-00166Y01572*
X-00157Y01585*
X-00154Y016*
X-00157Y01614*
X-00166Y01627*
X-00179Y01636*
X-00194Y01639*
G37*
G36*
X00421Y0159D02*
X00406Y01584D01*
X00402*
X00387Y0159*
X00373Y01584*
X00368*
X00354Y0159*
X00339Y01584*
X00333Y0157*
X00339Y01555*
X00354Y01549*
X00368Y01555*
X00373*
X00387Y01549*
X00402Y01555*
X00406*
X00421Y01549*
X00435Y01555*
X00441Y0157*
X00435Y01584*
X00421Y0159*
G37*
G36*
X02205Y01738D02*
X02194D01*
X02179Y01735*
X02166Y01726*
X02157Y01713*
X02155Y01699*
X0215*
X02143Y01704*
X02142Y01713*
X02133Y01726*
X0212Y01735*
X02105Y01738*
X02094*
X02079Y01735*
X02066Y01726*
X02057Y01713*
X02054Y01699*
X02057Y01684*
X02066Y01671*
X02079Y01662*
X02094Y01659*
X02105*
X0212Y01662*
X02133Y01671*
X02142Y01684*
X02145Y01698*
X02149*
X02156Y01693*
X02157Y01684*
X02166Y01671*
X02179Y01662*
X02194Y01659*
X02205*
X0222Y01662*
X02233Y01671*
X02242Y01684*
X02245Y01699*
X02242Y01713*
X02233Y01726*
X0222Y01735*
X02205Y01738*
G37*
G36*
X014Y01789D02*
X01385Y01786D01*
X01372Y01777*
X01363Y01764*
X0136Y0175*
X01363Y01735*
X01372Y01722*
X01385Y01713*
X014Y0171*
X01414Y01713*
X01427Y01722*
X01436Y01735*
X01439Y0175*
X01436Y01764*
X01427Y01777*
X01414Y01786*
X014Y01789*
G37*
G36*
X-00194Y01739D02*
X-00205D01*
X-0022Y01736*
X-00233Y01727*
X-00242Y01714*
X-00245Y017*
X-00249*
X-00256Y01705*
X-00257Y01714*
X-00266Y01727*
X-00279Y01736*
X-00294Y01739*
X-00305*
X-0032Y01736*
X-00333Y01727*
X-00342Y01714*
X-00345Y017*
X-00342Y01685*
X-00333Y01672*
X-0032Y01663*
X-00305Y0166*
X-00294*
X-00279Y01663*
X-00266Y01672*
X-00257Y01685*
X-00255Y01699*
X-0025*
X-00243Y01694*
X-00242Y01685*
X-00233Y01672*
X-0022Y01663*
X-00205Y0166*
X-00194*
X-00179Y01663*
X-00166Y01672*
X-00157Y01685*
X-00154Y017*
X-00157Y01714*
X-00166Y01727*
X-00179Y01736*
X-00194Y01739*
G37*
G36*
X01905Y01499D02*
X01905D01*
Y01465*
X01944*
X01942Y01474*
X01933Y01487*
X0192Y01496*
X01905Y01499*
G37*
G36*
X01895D02*
X01894D01*
X01879Y01496*
X01866Y01487*
X01857Y01474*
X01855Y01465*
X01895*
Y01499*
G37*
G36*
X-00205Y01539D02*
X-00205D01*
X-0022Y01536*
X-00233Y01527*
X-00242Y01514*
X-00244Y01505*
X-00205*
Y01539*
G37*
G36*
X-00005Y00895D02*
X-00044D01*
X-00042Y00885*
X-00033Y00872*
X-0002Y00863*
X-00005Y0086*
X-00005*
Y00895*
G37*
G36*
X-00194Y01539D02*
X-00195D01*
Y01505*
X-00155*
X-00157Y01514*
X-00166Y01527*
X-00179Y01536*
X-00194Y01539*
G37*
G36*
X00702Y0181D02*
X0069Y01805D01*
X00685Y01792*
X0069Y01779*
X00702Y01774*
X00715Y01779*
X0072Y01792*
X00715Y01805*
X00702Y0181*
G37*
G36*
X-00255Y01838D02*
X-00344D01*
Y01761*
X-00255*
Y01838*
G37*
G36*
X00044Y00895D02*
X00005D01*
Y0086*
X00005*
X0002Y00863*
X00033Y00872*
X00042Y00885*
X00044Y00895*
G37*
G36*
X019Y01973D02*
X01871Y01967D01*
X01848Y01951*
X01832Y01928*
X01826Y019*
X01832Y01871*
X01848Y01848*
X01871Y01832*
X019Y01826*
X01928Y01832*
X01951Y01848*
X01967Y01871*
X01973Y019*
X01967Y01928*
X01951Y01951*
X01928Y01967*
X019Y01973*
G37*
G36*
X00832Y0181D02*
X00819Y01805D01*
X00814Y01792*
X00819Y01779*
X00832Y01774*
X00844Y01779*
X00849Y01792*
X00844Y01805*
X00832Y0181*
G37*
G36*
X01201Y01788D02*
X01187Y01782D01*
X01181Y01768*
X01187Y01753*
Y01751*
X01181Y01737*
X01187Y01722*
Y0172*
X01181Y01706*
X01187Y01691*
X01201Y01685*
X01216Y01691*
X01222Y01706*
X01216Y0172*
Y01722*
X01222Y01737*
X01216Y01751*
Y01753*
X01222Y01768*
X01216Y01782*
X01201Y01788*
G37*
G36*
X015Y01789D02*
X01485Y01786D01*
X01472Y01777*
X01463Y01764*
X0146Y0175*
X01463Y01735*
X01472Y01722*
X01485Y01713*
X015Y0171*
X01514Y01713*
X01527Y01722*
X01536Y01735*
X01539Y0175*
X01536Y01764*
X01527Y01777*
X01514Y01786*
X015Y01789*
G37*
G36*
X02205Y01838D02*
X02194D01*
X02179Y01835*
X02166Y01826*
X02157Y01813*
X02154Y01799*
X02157Y01784*
X02166Y01771*
X02179Y01762*
X02194Y01759*
X02205*
X0222Y01762*
X02233Y01771*
X02242Y01784*
X02245Y01799*
X02242Y01813*
X02233Y01826*
X0222Y01835*
X02205Y01838*
G37*
G36*
X-00194Y01839D02*
X-00205D01*
X-0022Y01836*
X-00233Y01827*
X-00242Y01814*
X-00245Y018*
X-00242Y01785*
X-00233Y01772*
X-0022Y01763*
X-00205Y0176*
X-00194*
X-00179Y01763*
X-00166Y01772*
X-00157Y01785*
X-00154Y018*
X-00157Y01814*
X-00166Y01827*
X-00179Y01836*
X-00194Y01839*
G37*
G36*
X02144Y01837D02*
X02055D01*
Y0176*
X02144*
Y01837*
G37*
G36*
X-00155Y01495D02*
X-00195D01*
Y0146*
X-00194*
X-00179Y01463*
X-00166Y01472*
X-00157Y01485*
X-00155Y01495*
G37*
G36*
X-00005Y00839D02*
X-00005D01*
X-0002Y00836*
X-00033Y00827*
X-00042Y00814*
X-00044Y00805*
X-00005*
Y00839*
G37*
G36*
X0153Y00878D02*
X01514D01*
Y00873*
X01528*
Y00853*
Y00833*
X01514*
Y00828*
X0153*
Y00852*
Y00878*
G37*
G36*
X-00194Y00839D02*
X-00195D01*
Y00805*
X-00155*
X-00157Y00814*
X-00166Y00827*
X-00179Y00836*
X-00194Y00839*
G37*
G36*
X00044Y00795D02*
X00005D01*
Y0076*
X00005*
X0002Y00763*
X00033Y00772*
X00042Y00785*
X00044Y00795*
G37*
G36*
X-00205Y00839D02*
X-00205D01*
X-0022Y00836*
X-00233Y00827*
X-00242Y00814*
X-00244Y00805*
X-00205*
Y00839*
G37*
G36*
X-00255Y00895D02*
X-00295D01*
Y0086*
X-00294*
X-00279Y00863*
X-00266Y00872*
X-00257Y00885*
X-00255Y00895*
G37*
G36*
X-00294Y00939D02*
X-00295D01*
Y00905*
X-00255*
X-00254Y009*
X-00255Y00899*
X-0025*
X-00243Y00894*
X-00242Y00885*
X-00233Y00872*
X-0022Y00863*
X-00205Y0086*
X-00205*
Y00895*
X-00244*
X-00245Y009*
X-00245Y009*
X-00249*
X-00256Y00905*
X-00257Y00914*
X-00266Y00927*
X-00279Y00936*
X-00294Y00939*
G37*
G36*
X-00305Y00895D02*
X-00344D01*
X-00342Y00885*
X-00333Y00872*
X-0032Y00863*
X-00305Y0086*
X-00305*
Y00895*
G37*
G36*
X-00194Y01039D02*
X-00205D01*
X-0022Y01036*
X-00233Y01027*
X-00242Y01014*
X-00245Y01*
X-00249*
X-00256Y01005*
X-00257Y01014*
X-00266Y01027*
X-00279Y01036*
X-00294Y01039*
X-00305*
X-0032Y01036*
X-00333Y01027*
X-00342Y01014*
X-00345Y01*
X-00342Y00985*
X-00333Y00972*
X-0032Y00963*
X-00305Y0096*
X-00294*
X-00279Y00963*
X-00266Y00972*
X-00257Y00985*
X-00255Y00999*
X-0025*
X-00243Y00994*
X-00242Y00985*
X-00233Y00972*
X-0022Y00963*
X-00205Y0096*
X-00194*
X-00179Y00963*
X-00166Y00972*
X-00157Y00985*
X-00154Y01*
X-00157Y01014*
X-00166Y01027*
X-00179Y01036*
X-00194Y01039*
G37*
G36*
X01556Y00878D02*
X0154D01*
Y00858*
X01556*
Y00878*
G37*
G36*
X-00194Y01439D02*
X-00205D01*
X-0022Y01436*
X-00233Y01427*
X-00242Y01414*
X-00245Y014*
X-00249*
X-00256Y01405*
X-00257Y01414*
X-00266Y01427*
X-00279Y01436*
X-00294Y01439*
X-00305*
X-0032Y01436*
X-00333Y01427*
X-00342Y01414*
X-00345Y014*
X-00342Y01385*
X-00333Y01372*
X-0032Y01363*
X-00305Y0136*
X-00294*
X-00279Y01363*
X-00266Y01372*
X-00257Y01385*
X-00255Y01399*
X-0025*
X-00243Y01394*
X-00242Y01385*
X-00233Y01372*
X-0022Y01363*
X-00205Y0136*
X-00194*
X-00179Y01363*
X-00166Y01372*
X-00157Y01385*
X-00154Y014*
X-00157Y01414*
X-00166Y01427*
X-00179Y01436*
X-00194Y01439*
G37*
G36*
X00463Y01235D02*
X0043D01*
Y01206*
X00463*
Y01235*
G37*
G36*
X01895Y01455D02*
X01855D01*
X01857Y01445*
X01866Y01432*
X01879Y01423*
X01894Y0142*
X01895*
Y01455*
G37*
G36*
X-00294Y01539D02*
X-00305D01*
X-0032Y01536*
X-00333Y01527*
X-00342Y01514*
X-00345Y015*
X-00342Y01485*
X-00333Y01472*
X-0032Y01463*
X-00305Y0146*
X-00294*
X-00279Y01463*
X-00266Y01472*
X-00257Y01485*
X-00255Y01499*
X-0025*
X-00243Y01494*
X-00242Y01485*
X-00233Y01472*
X-0022Y01463*
X-00205Y0146*
X-00205*
Y01495*
X-00244*
X-00245Y015*
X-00245Y015*
X-00249*
X-00256Y01505*
X-00257Y01514*
X-00266Y01527*
X-00279Y01536*
X-00294Y01539*
G37*
G36*
X01944Y01455D02*
X01905D01*
Y0142*
X01905*
X0192Y01423*
X01933Y01432*
X01942Y01445*
X01944Y01455*
G37*
G36*
X00583Y00726D02*
X0057Y00721D01*
X00565Y00708*
X0057Y00695*
X00583Y00689*
X00596Y00695*
X00601Y00708*
X00596Y00721*
X00583Y00726*
G37*
G36*
X-00005Y00795D02*
X-00044D01*
X-00042Y00785*
X-00033Y00772*
X-0002Y00763*
X-00005Y0076*
X-00005*
Y00795*
G37*
G36*
X01905Y00639D02*
X01894D01*
X01879Y00636*
X01866Y00627*
X01857Y00614*
X01855Y006*
X0185*
X01843Y00605*
X01842Y00614*
X01833Y00627*
X0182Y00636*
X01805Y00639*
X01794*
X01779Y00636*
X01766Y00627*
X01757Y00614*
X01754Y006*
X01757Y00585*
X01766Y00572*
X01779Y00563*
X01794Y0056*
X01805*
X0182Y00563*
X01833Y00572*
X01842Y00585*
X01845Y00599*
X01849*
X01856Y00594*
X01857Y00585*
X01866Y00572*
X01879Y00563*
X01894Y0056*
X01905*
X0192Y00563*
X01933Y00572*
X01942Y00585*
X01945Y006*
X01942Y00614*
X01933Y00627*
X0192Y00636*
X01905Y00639*
G37*
G36*
X0042Y01235D02*
X00386D01*
Y01206*
X0042*
Y01235*
G37*
G36*
X01844Y00495D02*
X01805D01*
Y0046*
X01805*
X0182Y00463*
X01833Y00472*
X01842Y00485*
X01844Y00495*
G37*
G36*
X0Y02023D02*
X-00028Y02017D01*
X-00051Y02001*
X-00067Y01978*
X-00073Y0195*
X-00067Y01921*
X-00051Y01898*
X-00028Y01882*
X0Y01876*
X00028Y01882*
X00051Y01898*
X00067Y01921*
X00073Y0195*
X00067Y01978*
X00051Y02001*
X00028Y02017*
X0Y02023*
G37*
G36*
X-00061Y02495D02*
X-00095D01*
Y02461*
X-00085Y02463*
X-00072Y02472*
X-00063Y02485*
X-00061Y02495*
G37*
G36*
X013Y-00026D02*
X01271Y-00032D01*
X01248Y-00048*
X01232Y-00071*
X01226Y-001*
X01232Y-00128*
X01248Y-00151*
X01271Y-00167*
X013Y-00173*
X01328Y-00167*
X01351Y-00151*
X01367Y-00128*
X01373Y-001*
X01367Y-00071*
X01351Y-00048*
X01328Y-00032*
X013Y-00026*
G37*
G36*
X-003Y02535D02*
X-00312Y0253D01*
X-00317Y02518*
X-00312Y02505*
X-003Y025*
X-00287Y02505*
X-00282Y02518*
X-00287Y0253*
X-003Y02535*
G37*
G36*
X01573Y00927D02*
X01544D01*
Y00893*
X01573*
Y00927*
G37*
G36*
X-00105Y02538D02*
X-00114Y02536D01*
X-00127Y02527*
X-00136Y02514*
X-00138Y02505*
X-00105*
Y02538*
G37*
G36*
Y02495D02*
X-00138D01*
X-00136Y02485*
X-00127Y02472*
X-00114Y02463*
X-00105Y02461*
Y02495*
G37*
G36*
X01611Y0097D02*
X01583D01*
Y00937*
X01611*
Y0097*
G37*
G36*
X01844Y-00105D02*
X01805D01*
Y-00139*
X01805*
X0182Y-00136*
X01833Y-00127*
X01842Y-00114*
X01844Y-00105*
G37*
G36*
X02095Y-00106D02*
X02055D01*
X02057Y-00115*
X02066Y-00128*
X02079Y-00137*
X02094Y-0014*
X02095*
Y-00106*
G37*
G36*
X01795Y-00105D02*
X01755D01*
X01757Y-00114*
X01766Y-00127*
X01779Y-00136*
X01794Y-00139*
X01795*
Y-00105*
G37*
G36*
X-00095Y02538D02*
Y02505D01*
X-00061*
X-00063Y02514*
X-00072Y02527*
X-00085Y02536*
X-00095Y02538*
G37*
G36*
X-00305Y00939D02*
X-00305D01*
X-0032Y00936*
X-00333Y00927*
X-00342Y00914*
X-00344Y00905*
X-00305*
Y00939*
G37*
G36*
X-001Y02639D02*
X-00114Y02636D01*
X-00127Y02627*
X-00136Y02614*
X-00139Y026*
X-00136Y02585*
X-00127Y02572*
X-00114Y02563*
X-001Y0256*
X-00085Y02563*
X-00072Y02572*
X-00063Y02585*
X-0006Y026*
X-00063Y02614*
X-00072Y02627*
X-00085Y02636*
X-001Y02639*
G37*
G36*
X-00205Y00939D02*
X-00205D01*
X-0022Y00936*
X-00233Y00927*
X-00242Y00914*
X-00244Y00905*
X-00205*
Y00939*
G37*
G36*
X01573Y0097D02*
X01544D01*
Y00937*
X01573*
Y0097*
G37*
G36*
X-00005Y00939D02*
X-00005D01*
X-0002Y00936*
X-00033Y00927*
X-00042Y00914*
X-00044Y00905*
X-00005*
Y00939*
G37*
G36*
X-00088Y00977D02*
X-001Y00971D01*
X-00106Y00959*
X-001Y00946*
X-00092Y00942*
Y00932*
X-00095Y0093*
X-00101Y00918*
X-00095Y00905*
X-00083Y00899*
X-0007Y00905*
X-00064Y00918*
X-0007Y0093*
X-00078Y00934*
Y00944*
X-00075Y00946*
X-00069Y00959*
X-00075Y00971*
X-00088Y00977*
G37*
G36*
X-00027Y02551D02*
X-00039Y02545D01*
X-00045Y02532*
X-00039Y0252*
X-00027Y02514*
X-00014Y0252*
X-00008Y02532*
X-00014Y02545*
X-00027Y02551*
G37*
G36*
X02029Y0255D02*
X02016Y02545D01*
X02011Y02533*
X02016Y0252*
X02029Y02515*
X02041Y0252*
X02046Y02533*
X02041Y02545*
X02029Y0255*
G37*
G36*
X01513Y02728D02*
X015Y02723D01*
X01495Y02711*
X015Y02698*
X01513Y02693*
X01519Y02695*
X01588*
X01623Y0266*
X01626Y02654*
X01632Y02651*
X0167Y02614*
X01681Y02609*
X01768*
X018Y02578*
Y02539*
X01797Y02533*
X01803Y0252*
X01815Y02515*
X01828Y0252*
X01833Y02533*
X0183Y02539*
Y02584*
X01827Y02591*
X01826Y02594*
X01785Y02635*
X01775Y0264*
X01687*
X01654Y02673*
X01651Y02679*
X01645Y02682*
X01605Y02721*
X01595Y02726*
X01519*
X01513Y02728*
G37*
G36*
X01239Y02669D02*
X01226Y02663D01*
X01221Y02651*
X01226Y02638*
X01239Y02632*
X01252Y02638*
X01252Y02638*
X01574*
X0168Y02533*
X01679Y02533*
X01685Y0252*
X01697Y02515*
X0171Y0252*
X01715Y02533*
X0171Y02545*
X01697Y0255*
X01697Y0255*
X01588Y02659*
X01579Y02663*
X01252*
X01252Y02663*
X01239Y02669*
G37*
G36*
X-00194Y00939D02*
X-00195D01*
Y00899*
Y0086*
X-00194*
X-00179Y00863*
X-00166Y00872*
X-00166Y00872*
X-00161Y00872*
X-00149Y00866*
X-00136Y00872*
X-0013Y00885*
X-00136Y00897*
X-00149Y00903*
X-00156Y00907*
X-00157Y00914*
X-00166Y00927*
X-00179Y00936*
X-00194Y00939*
G37*
G36*
X-001Y02339D02*
X-00114Y02336D01*
X-00127Y02327*
X-00136Y02314*
X-00139Y023*
X-00136Y02285*
X-00127Y02272*
X-00114Y02263*
X-001Y0226*
X-00085Y02263*
X-00072Y02272*
X-00063Y02285*
X-0006Y023*
X-00063Y02314*
X-00072Y02327*
X-00085Y02336*
X-001Y02339*
G37*
G36*
X01419Y02241D02*
X01404Y02235D01*
X01399*
X01385Y02241*
X01371Y02235*
X01366*
X01352Y02241*
X01337Y02235*
X01331Y02221*
X01337Y02206*
X01352Y022*
X01366Y02206*
Y02206*
X01371*
Y02206*
X01385Y022*
X01399Y02206*
Y02206*
X01404*
Y02206*
X01419Y022*
X01433Y02206*
X01439Y02221*
X01433Y02235*
X01419Y02241*
G37*
G36*
X-001Y02439D02*
X-00114Y02436D01*
X-00127Y02427*
X-00136Y02414*
X-00139Y024*
X-00136Y02385*
X-00127Y02372*
X-00114Y02363*
X-001Y0236*
X-00085Y02363*
X-00072Y02372*
X-00063Y02385*
X-0006Y024*
X-00063Y02414*
X-00072Y02427*
X-00085Y02436*
X-001Y02439*
G37*
G36*
X0206Y02393D02*
X02046Y02387D01*
X02033Y02393*
X02019Y02387*
X02006Y02393*
X01991Y02387*
X01985Y02373*
X01991Y02359*
X01985Y02346*
X01991Y02331*
X02006Y02325*
X02019Y02331*
X02033Y02325*
X02046Y02331*
X0206Y02325*
X02074Y02331*
X0208Y02346*
X02074Y02359*
X0208Y02373*
X02074Y02387*
X0206Y02393*
G37*
G36*
X02131Y02415D02*
X02118Y02409D01*
X02112Y02397*
X02118Y02384*
X02131Y02378*
X02143Y02384*
X02149Y02397*
X02143Y02409*
X02131Y02415*
G37*
G36*
X-00261Y02195D02*
X-00295D01*
Y02161*
X-00261*
Y02195*
G37*
G36*
X-00305D02*
X-00338D01*
Y02161*
X-00305*
Y02195*
G37*
G36*
X00837Y00073D02*
X00816D01*
Y00049*
X00837*
Y00073*
G37*
G36*
X-00261Y02238D02*
X-00295D01*
Y02205*
X-00261*
Y02238*
G37*
G36*
X-00305D02*
X-00338D01*
Y02205*
X-00305*
Y02238*
G37*
G36*
X00144Y-00005D02*
X00105D01*
Y-00039*
X00105*
X0012Y-00036*
X00133Y-00027*
X00142Y-00014*
X00144Y-00005*
G37*
G36*
X01832Y02443D02*
X01817Y02437D01*
Y02437*
X01809*
Y02437*
X01795Y02443*
X0178Y02437*
X01774Y02423*
X0178Y02409*
X01774Y02396*
X0178Y02381*
X01795Y02375*
X01809Y02381*
Y02381*
X01817*
Y02381*
X01832Y02375*
X01846Y02381*
X01852Y02396*
X01846Y02409*
X01852Y02423*
X01846Y02437*
X01832Y02443*
G37*
G36*
X02095Y-00061D02*
X02094D01*
X02079Y-00064*
X02066Y-00073*
X02057Y-00086*
X02055Y-00096*
X02095*
Y-00061*
G37*
G36*
X00095Y-00005D02*
X00055D01*
X00057Y-00014*
X00066Y-00027*
X00079Y-00036*
X00094Y-00039*
X00095*
Y-00005*
G37*
G36*
X01015Y02451D02*
X01002Y02445D01*
X00996Y02432*
X01002Y02419*
X01015Y02414*
X01027Y02419*
X01033Y02432*
X01027Y02445*
X01015Y02451*
G37*
G36*
X01419Y02398D02*
X01404Y02392D01*
X01399*
X01385Y02398*
X01371Y02392*
X01366*
X01352Y02398*
X01337Y02392*
X01331Y02378*
X01337Y02363*
X01352Y02357*
X01366Y02363*
X01371*
X01385Y02357*
X01399Y02363*
X01404*
X01419Y02357*
X01433Y02363*
X01439Y02378*
X01433Y02392*
X01419Y02398*
G37*
G36*
X01495Y02473D02*
X01482Y02467D01*
X01476Y02455*
X01482Y02442*
X01495Y02436*
X01507Y02442*
X01513Y02455*
X01507Y02467*
X01495Y02473*
G37*
%LNmb1137-3*%
%LPD*%
G36*
X00256Y-01779D02*
X00216D01*
Y-01749*
X00236Y-01769*
X00256Y-01749*
Y-01779*
G37*
G36*
X00171D02*
X00131D01*
Y-01749*
X00151Y-01769*
X00171Y-01749*
Y-01779*
G37*
G36*
X00256Y-01739D02*
X00236Y-01759D01*
X00216Y-01739*
Y-01729*
X00256*
Y-01739*
G37*
G36*
X00171D02*
X00151Y-01759D01*
X00131Y-01739*
Y-01729*
X00171*
Y-01739*
G37*
G36*
X00863Y02689D02*
X00823D01*
Y02719*
X00843Y02699*
X00863Y02719*
Y02689*
G37*
G36*
Y02729D02*
X00843Y02709D01*
X00823Y02729*
Y02739*
X00863*
Y02729*
G37*
G36*
X00182Y028D02*
X00162Y0278D01*
X00152*
Y0282*
X00162*
X00182Y028*
G37*
G36*
Y026D02*
X00162Y0258D01*
X00152*
Y0262*
X00162*
X00182Y026*
G37*
G36*
X0045D02*
Y0258D01*
X0042*
X0044Y026*
X0042Y0262*
X0045*
Y026*
G37*
G36*
X0043D02*
X0041Y0258D01*
X004*
Y0262*
X0041*
X0043Y026*
G37*
G36*
X00202D02*
Y0258D01*
X00172*
X00192Y026*
X00172Y0262*
X00202*
Y026*
G37*
G36*
Y029D02*
Y0288D01*
X00172*
X00192Y029*
X00172Y0292*
X00202*
Y029*
G37*
G36*
X0043D02*
X0041Y0288D01*
X004*
Y0292*
X0041*
X0043Y029*
G37*
G36*
X0045D02*
Y0288D01*
X0042*
X0044Y029*
X0042Y0292*
X0045*
Y029*
G37*
G36*
X00182D02*
X00162Y0288D01*
X00152*
Y0292*
X00162*
X00182Y029*
G37*
G36*
X00202Y028D02*
Y0278D01*
X00172*
X00192Y028*
X00172Y0282*
X00202*
Y028*
G37*
G36*
X0043D02*
X0041Y0278D01*
X004*
Y0282*
X0041*
X0043Y028*
G37*
G36*
X0045D02*
Y0278D01*
X0042*
X0044Y028*
X0042Y0282*
X0045*
Y028*
G37*
G54D12*
X00811Y00078D03*
X00748D03*
X01602Y00373D03*
X01665D03*
G54D13*
X00916Y00005D03*
Y00068D03*
G54D16*
X01613Y-00672D03*
X0168D03*
X01495D03*
X01562D03*
X0039Y029D03*
X00457D03*
X0039Y028D03*
X00457D03*
X0039Y027D03*
X00457D03*
X0039Y026D03*
X00457D03*
X00142Y029D03*
X00209D03*
X00142Y028D03*
X00209D03*
X00142Y027D03*
X00209D03*
X00142Y026D03*
X00209D03*
X-00034Y01577D03*
X00032D03*
X-00034Y01518D03*
X00032D03*
X00731Y-00642D03*
X00798D03*
X00368Y00486D03*
X00435D03*
X00767Y01351D03*
X00834D03*
X00767Y0141D03*
X00834D03*
X01138Y00473D03*
X01205D03*
X00368Y01362D03*
X00435D03*
X00275Y-003D03*
X00208D03*
X00276Y-006D03*
X00209D03*
X00208Y-004D03*
X00275D03*
Y-005D03*
X00208D03*
X01456Y00432D03*
X01523D03*
X01456Y00373D03*
X01523D03*
X01613Y-00755D03*
X0168D03*
X01613Y-00613D03*
X0168D03*
X01138Y00414D03*
X01205D03*
X00911Y00138D03*
X00978D03*
X01138Y00354D03*
X01205D03*
Y00276D03*
X01138D03*
X00368Y00309D03*
X00435D03*
X00368Y00368D03*
X00435D03*
X-00041Y-015D03*
X00025D03*
X-00041Y-016D03*
X00025D03*
X00435Y00251D03*
X00368D03*
X00435Y00192D03*
X00368D03*
X01468Y00853D03*
X01535D03*
X00813Y00137D03*
X00745D03*
X01271Y02236D03*
X01204D03*
Y0246D03*
X01271D03*
X0094Y02252D03*
X01007D03*
X00368Y00427D03*
X00436D03*
X016Y00314D03*
X01667D03*
X016Y00432D03*
X01667D03*
G54D17*
X01522Y014D03*
Y01332D03*
X01612Y01334D03*
Y01401D03*
X01522Y01177D03*
Y0111D03*
X01612Y01177D03*
Y0111D03*
X00747Y01197D03*
Y0113D03*
X00688Y01197D03*
Y0113D03*
X00236Y-01719D03*
Y-01786D03*
X00579D03*
Y-01719D03*
X00638Y-01719D03*
Y-01786D03*
X00806Y01197D03*
Y0113D03*
X01121Y00002D03*
Y00069D03*
X01062Y00002D03*
Y00069D03*
X01318Y01332D03*
Y014D03*
X01681Y-00349D03*
Y-00281D03*
Y00101D03*
Y00168D03*
X01622Y00101D03*
Y00168D03*
X01681Y-00231D03*
Y-00163D03*
Y-00466D03*
Y-00399D03*
X00775Y00271D03*
Y00339D03*
X00539Y0063D03*
Y00562D03*
X0048Y0063D03*
Y00562D03*
X00435Y00773D03*
Y0084D03*
X00539Y00773D03*
Y0084D03*
X01621Y-00163D03*
Y-00231D03*
X01622Y-00281D03*
Y-00349D03*
X00893Y00338D03*
Y00271D03*
X0118Y00002D03*
Y00069D03*
X01622Y-00399D03*
Y-00467D03*
X00834Y00338D03*
Y00271D03*
X01003Y00069D03*
Y00002D03*
X01013Y00271D03*
Y00338D03*
X00716Y00271D03*
Y00338D03*
X0057Y0113D03*
Y01197D03*
X00511Y0113D03*
Y01197D03*
X01072Y00338D03*
Y00271D03*
X00668Y00858D03*
Y00925D03*
X00728Y00858D03*
Y00925D03*
X00628Y01197D03*
Y0113D03*
X00843Y02749D03*
Y02682D03*
X0168Y-00045D03*
Y-00112D03*
X01509Y00001D03*
Y00069D03*
X0145Y00001D03*
Y00069D03*
X00151Y-01786D03*
Y-01719D03*
G54D18*
X01506Y-01773D03*
X01178Y-01687D03*
X01218Y-0173D03*
X01258Y-01687D03*
X01298Y-0173D03*
X01339Y-01687D03*
X01379Y-0173D03*
X01419Y-01687D03*
X01596Y-01773D03*
X01131D03*
X01041D03*
G54D43*
X01578Y00932D03*
X01468D03*
G54D44*
X00425Y0124D03*
Y0113D03*
G54D54*
X00883Y-00976D02*
X00939D01*
X00948Y-00967*
X00971Y-0099*
X00943Y-00961D02*
Y-00909D01*
Y-00961D02*
X00948Y-00967D01*
X00943Y-00909D02*
X01004Y-00848D01*
X01059Y-01038D02*
X01063Y-01033D01*
Y-01011*
X00975Y-00815D02*
X00982D01*
X00971Y-0099D02*
X01042D01*
X01063Y-01011*
X00982Y-00815D02*
X01004Y-00836D01*
Y-00848D02*
Y-00836D01*
X00958Y-00954D02*
X00977Y-00973D01*
X00958Y-00936D02*
Y-00915D01*
Y-00954D02*
Y-00936D01*
X00958Y-00936D02*
X01022D01*
X00977Y-00973D02*
X01049D01*
X00958Y-00915D02*
X01019Y-00854D01*
X0108Y-01033D02*
Y-01004D01*
Y-01033D02*
X01085Y-01038D01*
X00992Y-00803D02*
X01019Y-0083D01*
Y-00854D02*
Y-0083D01*
X00992Y-00803D02*
Y-00796D01*
X01049Y-00973D02*
X0108Y-01004D01*
G54D55*
X00555Y-01006D02*
X00558D01*
X00536Y-01143D02*
Y00393D01*
X00639Y00496*
X01488Y-00597D02*
X01636D01*
X01391Y-005D02*
X01488Y-00597D01*
X01102Y-005D02*
X01391D01*
X01402Y00664D02*
X01746Y01008D01*
X01269Y00664D02*
X01402D01*
X01251Y00646D02*
X01269Y00664D01*
X01856Y01116D02*
X019Y0116D01*
X017Y01116D02*
X01856D01*
X01921Y01102D02*
X01967Y01147D01*
X01768Y01102D02*
X01921D01*
X01683Y01017D02*
X01768Y01102D01*
X01639Y01177D02*
X017Y01116D01*
X01467Y01017D02*
X01683D01*
X01612Y01177D02*
X01639D01*
X01735Y01219D02*
X01859D01*
X01703Y01251D02*
X01735Y01219D01*
X01425Y01114D02*
Y01226D01*
X0145Y01251D02*
X01703D01*
X01425Y01226D02*
X0145Y01251D01*
X01484Y-00809D02*
X01495Y-00797D01*
X01484Y-00931D02*
Y-00809D01*
X01495Y-00797D02*
Y-00672D01*
X01562D02*
X01613D01*
X01505Y-00884D02*
Y-0083D01*
X01526Y-00879D02*
Y-00807D01*
Y-00879D02*
X01615Y-00968D01*
X0155Y-00875D02*
Y-00827D01*
Y-00875D02*
X01635Y-00961D01*
X01569Y-00835D02*
Y-00796D01*
X01569Y-00795D02*
X01569Y-00796D01*
X01569Y-00835D02*
X01569Y-00835D01*
X01569Y-00872D02*
Y-00835D01*
Y-00872D02*
X01656Y-0096D01*
X01591Y-00873D02*
X01676Y-00958D01*
X01591Y-00873D02*
Y-00825D01*
X01613Y-00795D02*
Y-00755D01*
X01613Y-00711D02*
X01613Y-0071D01*
Y-00672*
X01484Y-00931D02*
X01576Y-01023D01*
X0168Y-0075D02*
X02241D01*
X01719Y-0067D02*
X01749Y-007D01*
X0168Y-0067D02*
X01719D01*
X01749Y-007D02*
X018D01*
X01752Y-0065D02*
X02233D01*
X01715Y-00613D02*
X01752Y-0065D01*
X0168Y-00613D02*
X01715D01*
X01896Y-01648D02*
X02153D01*
X01592Y-01344D02*
X01896Y-01648D01*
X01592Y-01344D02*
Y-00971D01*
X01576Y-01614D02*
Y-01023D01*
X01535Y-01744D02*
Y-01038D01*
X01505Y-00884D02*
X01592Y-00971D01*
X00551Y-00999D02*
Y00386D01*
Y-00999D02*
X00558Y-01006D01*
X0169Y-01182D02*
Y-00946D01*
X01641Y-00897D02*
X0169Y-00946D01*
X01641Y-00897D02*
Y-00827D01*
X01635Y-01292D02*
Y-00961D01*
X01601Y-00669D02*
X01602Y-0067D01*
X01676Y-01199D02*
Y-00958D01*
X01656Y-01245D02*
Y-0096D01*
X01615Y-01326D02*
Y-00968D01*
X01581Y-005D02*
X018D01*
X00973Y-0037D02*
X01102Y-005D01*
X01612Y01177D02*
X01613Y01177D01*
X01522Y01177D02*
X01612D01*
X01443Y01087D02*
X01466Y0111D01*
X01286Y0093D02*
X01443Y01087D01*
X01466Y0111D02*
X01522D01*
X00738Y00996D02*
X00853Y01111D01*
X00806Y01085D02*
Y0113D01*
X00786Y01066D02*
X00806Y01085D01*
X00747Y01066D02*
X00786D01*
X01573Y0111D02*
X01612D01*
X01373Y00923D02*
X01467Y01017D01*
X01244Y00933D02*
X01425Y01114D01*
X01181Y00734D02*
X01183Y00732D01*
X01429Y014D02*
X01522D01*
X01382Y01138D02*
Y01353D01*
X01429Y014*
X01181Y00937D02*
X01382Y01138D01*
X01651Y01401D02*
X0173Y01323D01*
Y01259D02*
Y01323D01*
X01967Y01147D02*
Y0152D01*
X01683Y00917D02*
X01938D01*
X01411Y00645D02*
X01683Y00917D01*
X01697Y00902D02*
X01943D01*
X01421Y00626D02*
X01697Y00902D01*
X01615Y00724D02*
X01708Y00817D01*
X0166Y0074D02*
X01719Y00799D01*
X0166Y00674D02*
Y0074D01*
X01716Y00776D02*
X01896D01*
X01675Y00735D02*
X01716Y00776D01*
X01675Y00665D02*
Y00735D01*
X01859Y01219D02*
X019Y0126D01*
X01612Y01401D02*
X01651D01*
X0169Y01407D02*
X01853D01*
X01658Y01439D02*
X0169Y01407D01*
X01539Y01439D02*
X01658D01*
X0204Y00769D02*
X02058Y00751D01*
X01935Y00769D02*
X0204D01*
X01974Y00699D02*
X021D01*
X01896Y00776D02*
X01974Y00699D01*
X01479Y00606D02*
X01597Y00724D01*
X01842Y00758D02*
X019Y007D01*
X01719Y00799D02*
X021D01*
X01581Y00571D02*
X01675Y00665D01*
X01061Y00571D02*
X01581D01*
X01573Y00587D02*
X0166Y00674D01*
X0108Y00587D02*
X01573D01*
X01522Y01332D02*
X01611D01*
X01612Y01334*
X01522Y01422D02*
X01539Y01439D01*
X01522Y014D02*
Y01422D01*
X01853Y01407D02*
X019Y0136D01*
X01435Y-00422D02*
X01464D01*
X01409D02*
X01435D01*
X00302Y-01872D02*
X00367Y-01936D01*
Y-01991D02*
Y-01936D01*
X00301Y-01872D02*
X00302D01*
X00301Y-01871D02*
Y-00804D01*
X00835Y0141D02*
X00907D01*
X00963Y01354*
X00644Y01317D02*
X00973D01*
X00726Y01276D02*
X00935D01*
X00368Y00778D02*
Y00919D01*
X00312Y00722D02*
X00368Y00778D01*
X00312Y00459D02*
Y00722D01*
Y00459D02*
X00344Y00427D01*
X00368*
X00331Y-00799D02*
X00424Y-00706D01*
Y-00006*
X00382Y00034D02*
X00424Y-00006D01*
X00318Y00034D02*
X00382D01*
X00973Y01317D02*
X00992Y01298D01*
X00977Y01023D02*
X01049Y01095D01*
X00888Y01023D02*
X00977D01*
X00914Y00987D02*
X01024D01*
X00867Y0094D02*
X00914Y00987D01*
X00867Y00483D02*
Y0094D01*
Y00483D02*
X00953Y00398D01*
X01051*
X00968Y00427D02*
X01039D01*
X01149Y00317D02*
X01221D01*
X01138Y00328D02*
Y00354D01*
Y00328D02*
X01149Y00317D01*
X01207Y00274D02*
X01321D01*
X01322Y00275*
X01205Y00276D02*
X01207Y00274D01*
X01387Y00354D02*
X01422Y00389D01*
X01205Y00354D02*
X01387D01*
X01205Y00414D02*
X01288D01*
X01121Y00069D02*
Y00107D01*
X01084Y00473D02*
X01138D01*
X01039Y00427D02*
X01084Y00473D01*
X01137Y00415D02*
X01138Y00414D01*
X01114Y00415D02*
X01137D01*
X01108Y00409D02*
X01114Y00415D01*
X01108Y00315D02*
Y00409D01*
X00512Y-02076D02*
X00529Y-02059D01*
X-00093Y-02076D02*
X00512D01*
X00529Y-02059D02*
Y-01811D01*
X00553Y-01786*
X00579*
X01635Y-01292D02*
X01894Y-01551D01*
X00348Y-01718D02*
Y-01402D01*
X00737Y-01828D02*
Y-01739D01*
X00717Y-01719D02*
X00737Y-01739D01*
X00638Y-01719D02*
X00717D01*
X00638D02*
Y-01655D01*
X00617Y-01634D02*
X00638Y-01655D01*
X00512Y-01634D02*
X00617D01*
X00579Y-01786D02*
X00638D01*
X00579Y-01786D02*
X00579Y-01786D01*
X00236Y-01831D02*
Y-01786D01*
X-00411Y-01757D02*
Y01101D01*
Y-01757D02*
X-00093Y-02076D01*
X00301Y-00804D02*
X00409Y-00697D01*
X00178Y0177D02*
X00248Y01841D01*
X0106*
X00104Y015D02*
X00178Y01574D01*
X00102Y015D02*
X00104D01*
X00091Y01489D02*
X00102Y015D01*
X00091Y01487D02*
Y01489D01*
X00053Y01449D02*
X00091Y01487D01*
X00178Y01574D02*
Y0177D01*
X00053Y01253D02*
Y01449D01*
X00622Y-01539D02*
Y-01417D01*
X00737Y-01828D02*
X00822Y-01914D01*
X00539Y0084D02*
X00584D01*
X00598Y00827*
X01603Y00242D02*
X01716D01*
X01667Y00314D02*
Y00432D01*
X016Y00375D02*
X01602Y00373D01*
X0158Y00375D02*
X016D01*
X01572Y00382D02*
X0158Y00375D01*
X01558Y00286D02*
X01603Y00242D01*
X01558Y00286D02*
Y0042D01*
X01547Y00432D02*
X01558Y0042D01*
X01572Y00382D02*
Y00448D01*
X01556Y00465D02*
X01572Y00448D01*
X01523Y00432D02*
X01547D01*
X01311Y01458D02*
X01638D01*
X01743Y01563*
X0128Y01426D02*
X01311Y01458D01*
X01629Y01478D02*
X01714Y01563D01*
X01599Y01499D02*
X01684Y01584D01*
X00884Y00784D02*
X01154Y01054D01*
X00747Y0113D02*
X00806D01*
X00747D02*
X00747Y01129D01*
X00747Y0113D02*
D01*
X00806Y01197D02*
Y01226D01*
Y01195D02*
Y01197D01*
X00096Y00629D02*
X0013D01*
X00176Y00582*
Y00393D02*
Y00582D01*
X00176Y00392D02*
X00176Y00393D01*
X-0023Y00149D02*
X00127D01*
X-0025Y-0145D02*
X-002Y-015D01*
X-0025Y00129D02*
X-0023Y00149D01*
X-0025Y-0145D02*
Y00129D01*
X-00248Y-01551D02*
X-002Y-016D01*
X-00358Y-01551D02*
X-00248D01*
X-00398Y-01512D02*
X-00358Y-01551D01*
X-00398Y-01512D02*
Y00519D01*
X-00411Y01101D02*
X-00355Y01157D01*
X-00382Y-00317D02*
Y00413D01*
X-00367Y-00232D02*
Y00332D01*
Y-00232D02*
X-003Y-003D01*
X-00352Y-00147D02*
Y00314D01*
Y-00147D02*
X-003Y-002D01*
X-00336Y00552D02*
X-00315D01*
X-00336D02*
D01*
X-00365D02*
X-00336D01*
X-00398Y00519D02*
X-00365Y00552D01*
X-00315D02*
X00121D01*
X00158Y00515*
X01909Y-01401D02*
X021D01*
X0169Y-01182D02*
X01909Y-01401D01*
X01676Y-01199D02*
X01927Y-0145D01*
X02151*
X01656Y-01245D02*
X01911Y-01501D01*
X01642Y-00349D02*
X01701D01*
X02258Y00374D02*
Y00497D01*
X02272Y00279D02*
Y0049D01*
X02286Y00196D02*
Y00476D01*
X02012Y00821D02*
X02041Y0085D01*
X02131*
X02151Y00869*
Y00948*
X021Y00999D02*
X02151Y00948D01*
X01938Y00917D02*
X02071Y0105D01*
X01943Y00902D02*
X0204Y00999D01*
X021*
X02043Y00199D02*
X021D01*
X02029Y00213D02*
X02043Y00199D01*
X01971Y00071D02*
Y00311D01*
X01956Y00156D02*
Y00226D01*
X01924Y00257D02*
X01956Y00226D01*
X02029Y00213D02*
Y0031D01*
X01981Y00358D02*
X02029Y0031D01*
X02273Y00183D02*
X02286Y00196D01*
X022Y00206D02*
X02272Y00279D01*
X02231Y00347D02*
X02258Y00374D01*
X-00142Y-00442D02*
Y-00337D01*
X-00126Y-00378D02*
X-0009Y-00342D01*
X-00126Y-00526D02*
Y-00378D01*
X01743Y0159D02*
X01761Y01608D01*
X01743Y01563D02*
Y0159D01*
X01714Y01563D02*
Y01618D01*
X01756Y0166*
X018*
X01726Y01705D02*
X01845D01*
X01684Y01584D02*
Y01662D01*
X01726Y01705*
X02217Y00551D02*
X0223D01*
X02252Y00573*
Y00725*
X02226Y00751D02*
X02252Y00725D01*
X022Y00799D02*
X02251Y0085D01*
X02252Y-00631D02*
Y00147D01*
X02233Y-0065D02*
X02252Y-00631D01*
X022Y00199D02*
X02252Y00147D01*
X02241Y-0075D02*
X02273Y-00718D01*
Y00183*
X02149Y00316D02*
X0218Y00347D01*
X02149Y-00526D02*
Y00316D01*
X0218Y00347D02*
X02231D01*
X02124Y-00552D02*
X02149Y-00526D01*
X0Y012D02*
X00053Y01253D01*
X-00355Y01157D02*
X00127D01*
X-00332Y01142D02*
X00133D01*
X00161Y00861D02*
Y01069D01*
X00227Y01135*
X001Y007D02*
X00179Y00779D01*
X001Y008D02*
X00161Y00861D01*
X00311Y00289D02*
X00331Y00309D01*
X00311Y00162D02*
Y00289D01*
Y00162D02*
X00321Y00153D01*
X00297Y00325D02*
X0032Y00348D01*
X00297Y00133D02*
Y00325D01*
Y00133D02*
X00335Y00095D01*
X00747Y01197D02*
Y01224D01*
Y01185D02*
Y01197D01*
X00026Y-00373D02*
X00063D01*
X00078Y-00357*
X0Y-004D02*
X00026Y-00373D01*
X00054Y-00342D02*
X00096Y-003D01*
X-00079Y-00357D02*
X00059D01*
X00074Y-00342*
X00078Y-00357D02*
X00126D01*
X00074Y-00342D02*
X00082D01*
X00096Y-003D02*
X001D01*
X-00047Y-00242D02*
X00057D01*
X-00142Y-00337D02*
X-00047Y-00242D01*
X-002Y-006D02*
X-00126Y-00526D01*
X-002Y-005D02*
X-00142Y-00442D01*
X-00109Y-00387D02*
X-00079Y-00357D01*
X-00109Y-00609D02*
Y-00387D01*
X-002Y-007D02*
X-00109Y-00609D01*
X-0009Y-00342D02*
X00054D01*
X-00093Y-00484D02*
X-00051Y-00442D01*
X-00074Y-00492D02*
X-00039Y-00457D01*
X-00051Y-00442D02*
X00057D01*
X-00039Y-00457D02*
X00195D01*
X01912Y00446D02*
X02003Y00537D01*
X00699Y-00642D02*
X00731D01*
X01464Y-00422D02*
X01594Y-00552D01*
X00826Y-00642D02*
X00848Y-00664D01*
X00798Y-00642D02*
X00826D01*
X00622Y-01417D02*
X00731Y-01307D01*
Y-00642*
X00831Y-00695D02*
X0088D01*
X00908Y-00667*
X01622Y00168D02*
X01681D01*
X01729Y00101D02*
X01746Y00085D01*
X01681Y00101D02*
X01729D01*
X01746Y-00017D02*
Y00085D01*
X00834Y00205D02*
X00865Y00174D01*
X01642Y-00467D02*
D01*
Y-00349D02*
D01*
X01658Y-0001D02*
X01681Y00013D01*
Y00101*
X01622Y00083D02*
Y00101D01*
Y00083D02*
X01642Y00063D01*
X00628Y0113D02*
X00688D01*
Y01083D02*
Y01117D01*
X01288Y00414D02*
X01295Y00407D01*
X00778Y00733D02*
X00789Y00744D01*
X01701Y-00349D02*
D01*
Y-00231D02*
D01*
X01583Y-00399D02*
X01622D01*
X01799Y-00399D02*
X018Y-004D01*
X01701Y-00399D02*
X01799D01*
X01701Y-00281D02*
X01781D01*
X018Y-003*
X01762Y-00247D02*
X02054D01*
X01746Y-00231D02*
X01762Y-00247D01*
X01701Y-00231D02*
X01746D01*
X01763Y-00163D02*
X018Y-002D01*
X01701Y-00163D02*
X01763D01*
X02054Y-00247D02*
X021Y-00201D01*
X01701Y-00349D02*
X02052D01*
X021Y-00301*
X0175Y-00467D02*
X01766Y-00451D01*
X0205*
X021Y-00401*
X01594Y-00552D02*
X02124D01*
X01323Y00474D02*
X01324D01*
Y00473D02*
X01324Y00473D01*
X-00157Y00057D02*
X00179D01*
X-002Y001D02*
X-00157Y00057D01*
X00057Y00342D02*
X001Y003D01*
X-00324Y00342D02*
X00057D01*
X00057Y00357D02*
X001Y004D01*
X-00342Y00357D02*
X00057D01*
X-00367Y00332D02*
X-00342Y00357D01*
X-00382Y-00317D02*
X-003Y-004D01*
X-00382Y00413D02*
X-00344Y00451D01*
X-00352Y00314D02*
X-00324Y00342D01*
X00539Y00773D02*
X00591D01*
X00592Y00773*
X00639Y00496D02*
Y00575D01*
X00654Y00489D02*
Y00711D01*
X00453Y00368D02*
X0047Y00352D01*
X00435Y00368D02*
X00453D01*
X01051Y00398D02*
X01072Y00377D01*
X01939Y00342D02*
X01971Y00311D01*
X01422Y00417D02*
X01441D01*
X01456Y00432*
X01422Y00389D02*
X0144D01*
X01456Y00373*
X00435Y00309D02*
X00441Y00304D01*
X00469*
X00624Y00502D02*
Y00547D01*
X00582Y00589D02*
X00624Y00547D01*
X00584Y0063D02*
X00639Y00575D01*
X00592Y00773D02*
X00654Y00711D01*
X01062Y00069D02*
Y00082D01*
X01019Y00113D02*
X01061D01*
X01003Y00097D02*
X01019Y00113D01*
X01857Y00817D02*
X019Y0086D01*
X00727Y-00312D02*
X00749Y-00291D01*
X00813*
X00727Y-00354D02*
Y-00312D01*
X02154Y-01347D02*
X022Y-01301D01*
X01911Y-01501D02*
X021D01*
X02151Y-0145D02*
X022Y-01401D01*
X01894Y-01551D02*
X0215D01*
X022Y-01501*
X01615Y-01326D02*
X0189Y-01601D01*
X021*
X02153Y-01648D02*
X022Y-01601D01*
X00174Y-00601D02*
X00175Y-006D01*
X00209*
X00241Y-00771D02*
X00242Y-00772D01*
X00241Y-00771D02*
Y-00668D01*
X00209Y-00636D02*
X00241Y-00668D01*
X00209Y-00636D02*
Y-006D01*
X00082Y-00342D02*
X00137D01*
X00198Y-00741D02*
Y-00698D01*
X00276Y-006D02*
Y-00567D01*
X00263Y-00554D02*
X00276Y-00567D01*
X00054Y-00554D02*
X00263D01*
X00394Y-00536D02*
Y-00022D01*
X0033Y-006D02*
X00394Y-00536D01*
X00276Y-006D02*
X0033D01*
X00315Y-00536D02*
X00374Y-00477D01*
X00136Y-00536D02*
X00315D01*
X001Y-005D02*
X00136Y-00536D01*
X00409Y-00697D02*
Y-00012D01*
X00459Y-00724D02*
Y00008D01*
X00475Y-00732D02*
Y00073D01*
X00369Y00003D02*
X00394Y-00022D01*
X00376Y00019D02*
X00409Y-00012D01*
X0038Y-00803D02*
X00459Y-00724D01*
X00396Y00071D02*
X00459Y00008D01*
X00404Y-00803D02*
X00475Y-00732D01*
X00457Y00091D02*
X00475Y00073D01*
X00057Y-00242D02*
X001Y-002D01*
X00082Y-00342D02*
X00082Y-00342D01*
X00137D02*
X0018Y-003D01*
X00275D02*
Y-00273D01*
X0018Y-003D02*
X00208D01*
X00275D02*
X00276Y-00301D01*
X00299*
X00309Y-00291*
X00042Y-00257D02*
X00117D01*
X0Y-003D02*
X00042Y-00257D01*
X00117D02*
X00117Y-00258D01*
X00309Y-00291D02*
Y-0004D01*
X00311Y-005D02*
X00349Y-00462D01*
X00275Y-005D02*
X00311D01*
X00208D02*
Y-0047D01*
X00195Y-00457D02*
X00208Y-0047D01*
X0Y-001D02*
X00042Y-00142D01*
X00057Y-00442D02*
X001Y-004D01*
X01062Y00067D02*
Y00069D01*
X00878Y-00031D02*
X00966D01*
X00841Y-00068D02*
X00878Y-00031D01*
X00841Y-00263D02*
Y-00068D01*
X00813Y-00291D02*
X00841Y-00263D01*
X00937Y-00061D02*
X01087D01*
X00875Y-00122D02*
X00937Y-00061D01*
X00733Y0141D02*
X00767D01*
X00733Y01351D02*
X00767D01*
X00288Y015D02*
X006D01*
X00832Y-00548D02*
X00856Y-00524D01*
Y-00079*
X00889Y-00046*
X01038*
X00875Y-00598D02*
Y-00122D01*
X00966Y-00031D02*
X00999Y00002D01*
X01038Y-00046D02*
X01062Y-00022D01*
X01087Y-00061D02*
X01121Y-00026D01*
X001Y-006D02*
X00198Y-00698D01*
X0Y-005D02*
X00054Y-00554D01*
X00467Y-00765D02*
X00491Y-00741D01*
X00312Y00019D02*
X00376D01*
X00331Y00071D02*
X00396D01*
X00307Y00003D02*
X00369D01*
X00179Y00057D02*
X00278Y-00042D01*
X00404Y-01041D02*
Y-00803D01*
X00401Y-012D02*
X00521Y-0108D01*
X00552Y00512D02*
X00601D01*
X00603Y00511*
X00675Y-0074D02*
X00701Y-00765D01*
X02038Y00451D02*
X0219D01*
X01987Y004D02*
X02038Y00451D01*
X019Y004D02*
X01987D01*
X00127Y00149D02*
X00164Y00186D01*
X-00037Y00042D02*
X00135D01*
X-00057Y-00043D02*
X0Y-001D01*
X-00057Y-00043D02*
Y00023D01*
X-00037Y00042*
X00135D02*
X00162Y00014D01*
X00331Y-01348D02*
Y-00799D01*
X00466Y-00765D02*
X00467D01*
X00426Y-00805D02*
X00466Y-00765D01*
X00426Y-01076D02*
Y-00805D01*
X01116Y-00268D02*
Y-00157D01*
X00402Y-011D02*
X00426Y-01076D01*
X01295Y00407D02*
X01411D01*
X02152Y01551D02*
X022Y01599D01*
X01665Y02766D02*
X01739Y02691D01*
X01188Y-00762D02*
X01209Y-00783D01*
Y-00827D02*
Y-00783D01*
X00886Y-00762D02*
X01188D01*
X00849Y-00725D02*
X00886Y-00762D01*
X01188D02*
D01*
X01188D02*
X01188D01*
X01181Y00732D02*
X01183D01*
X00539Y00526D02*
X00552Y00512D01*
X00539Y00526D02*
Y00562D01*
X01775Y-00047D02*
X01954D01*
X01746Y-00017D02*
X01775Y-00047D01*
X01954D02*
X021Y00099D01*
X00808Y02494D02*
X0105D01*
X00702Y026D02*
X00808Y02494D01*
X-0015Y00749D02*
X-0003Y00629D01*
X00096*
X-00344Y00451D02*
X00051D01*
X001Y005*
X01271Y02397D02*
Y0246D01*
X01269Y02457D02*
X01271Y0246D01*
X00461Y00422D02*
X0047Y00414D01*
X00436Y00427D02*
X00457D01*
X00461Y00422*
X0047Y00393D02*
Y00414D01*
X01411Y00407D02*
X01421Y00417D01*
X01422*
X00904Y00131D02*
X00911Y00138D01*
X00879Y00131D02*
X00904D01*
X00457Y00091D02*
X00457Y00092D01*
X-00249Y00749D02*
X-0015D01*
X-00381Y01094D02*
X-00332Y01142D01*
X-003Y008D02*
X-00249Y00749D01*
X01003Y00069D02*
Y00097D01*
X01121Y-00026D02*
Y00002D01*
X01062Y-00022D02*
Y0D01*
X01121Y00069D02*
X0118D01*
X00893Y00338D02*
X00929D01*
X00716Y00271D02*
X0074Y00247D01*
X00774Y00231D02*
Y0027D01*
X01072Y00338D02*
Y00377D01*
X00539Y0063D02*
X00584D01*
X0048Y00562D02*
X00539D01*
X01042Y00232D02*
X0106D01*
X01072Y00243*
Y00271*
X01013D02*
X01072D01*
X02098Y018D02*
X021Y01799D01*
X02151Y0065D02*
X022Y00699D01*
X02034Y0065D02*
X02151D01*
X02003Y00619D02*
X02034Y0065D01*
X02003Y00537D02*
Y00619D01*
X019Y001D02*
X01956Y00156D01*
X019Y0D02*
X01971Y00071D01*
X01165Y0246D02*
X01204D01*
X021Y00499D02*
Y00501D01*
X-002Y012D02*
X0D01*
X0012Y02294D02*
X00121D01*
X00116D02*
X0012D01*
X-00245Y02301D02*
X-00208Y02264D01*
Y02192D02*
Y02264D01*
X00209Y02599D02*
X003D01*
X0039*
X003Y02699D02*
X0039D01*
X00209D02*
X003D01*
X00209Y02799D02*
X0039D01*
X00209Y02899D02*
X003D01*
X0039*
X00457Y028D02*
X00495D01*
X00496Y02799*
X00843Y02659D02*
Y02682D01*
X00827Y02643D02*
X00843Y02659D01*
X00812Y02643D02*
X00827D01*
X00812Y02583D02*
X00861Y02534D01*
X00812Y02583D02*
Y02643D01*
X00457Y026D02*
X00702D01*
X00899Y02851D02*
X0093Y02819D01*
Y02547D02*
Y02819D01*
X00142Y02851D02*
Y029D01*
Y02851D02*
X00899D01*
X00112Y027D02*
X00142D01*
X01184Y02787D02*
X01186Y02786D01*
X01869Y0215D02*
X01903Y02184D01*
X01655Y0215D02*
X01869D01*
X01042Y00232D02*
X01043Y00232D01*
X018Y003D02*
X01807D01*
X00111Y028D02*
X00142D01*
Y02563D02*
Y026D01*
Y02563D02*
X00143Y02563D01*
X01235Y-00854D02*
X01309D01*
X01209Y-00827D02*
X01235Y-00854D01*
X021Y00599D02*
X02148Y00551D01*
X02217*
X0219Y00451D02*
X02192Y00452D01*
X01845Y01705D02*
X019Y0176D01*
X018Y004D02*
X01846Y00446D01*
X01912*
X01857Y00242D02*
X019Y002D01*
X-00015Y02684D02*
Y02759D01*
Y02684D02*
X00034Y02635D01*
X00096Y02421D02*
X00117Y024D01*
X00096Y02421D02*
Y02684D01*
X00112Y027*
X00969Y00338D02*
X01013D01*
X00775Y00339D02*
X00778Y00342D01*
X00763Y00757D02*
X00786Y0078D01*
X01159Y02284D02*
X01271Y02397D01*
X0038Y-0137D02*
Y-00803D01*
X00051Y-01674D02*
X00145Y-01579D01*
X-00041Y-01674D02*
X00051D01*
X00401Y-01149D02*
X00506Y-01044D01*
X00348Y00348D02*
X00368Y00368D01*
X0032Y00348D02*
X00348D01*
X00331Y00309D02*
X00368D01*
X01579Y02651D02*
X01697Y02533D01*
X01239Y02651D02*
X01579D01*
X0074Y00233D02*
Y00247D01*
X00999Y00002D02*
X01003D01*
X0099Y-00304D02*
X01027Y-00341D01*
X01105Y00645D02*
X0121D01*
X02046Y01153D02*
X021Y01099D01*
X00246Y-00142D02*
X00275Y-00171D01*
X00042Y-00142D02*
X00246D01*
X00275Y-00233D02*
Y-00171D01*
X00349Y-00462D02*
Y-0018D01*
X00374Y-00477D02*
Y-00105D01*
X00126Y-00357D02*
X00168Y-004D01*
X00208*
Y-00367*
X00223Y-00352*
X00304*
X00325Y-00332D02*
Y-00035D01*
X00304Y-00352D02*
X00325Y-00332D01*
X00259Y-00258D02*
X00275Y-00273D01*
X00117Y-00258D02*
X00259D01*
X00275Y-004D02*
X0031D01*
X01207Y00934D02*
X01208D01*
X00794Y00831D02*
X00819Y00856D01*
X01045Y00923D02*
X01104D01*
X00899Y00776D02*
X01045Y00923D01*
X02046Y01153D02*
Y01324D01*
X01967Y0152D02*
X01998Y01551D01*
X02152*
X01933Y01008D02*
X02002Y01077D01*
Y01408*
X0204Y01446*
X02252*
X022Y00199D02*
Y00206D01*
X02046Y01324D02*
X02071Y01349D01*
X02245*
X-00208Y02192D02*
X-00159Y02143D01*
X00973*
X-00301Y02301D02*
X-00245D01*
X00117Y024D02*
X00429D01*
X00447Y02381*
X00997*
X00034Y02411D02*
X00071Y02374D01*
X00034Y02411D02*
Y02635D01*
X01097Y02252D02*
X01122Y02227D01*
X01007Y02252D02*
X01097D01*
X0012Y022D02*
X00177Y02257D01*
X00385Y02294D02*
X00766D01*
X0109Y02308D02*
X01164Y02382D01*
X01164Y02459D02*
X01165Y0246D01*
X0012Y02294D02*
X00168Y02343D01*
X00336*
X00385Y02294*
X00375Y02374D02*
X00412Y02336D01*
X00071Y02374D02*
X00375D01*
X00412Y02336D02*
X00617D01*
X0094Y02215D02*
Y02252D01*
X0094Y02215D02*
X0094Y02215D01*
X00025Y-015D02*
X00062D01*
X00022Y-01596D02*
X00025Y-016D01*
X00022Y-01596D02*
Y-01563D01*
X-002Y-015D02*
X-00041D01*
X-002Y-016D02*
X-00041D01*
X00655Y-00695D02*
Y00233D01*
X00999Y00633D02*
Y00848D01*
X00958Y00615D02*
Y00807D01*
X00926Y00626D02*
Y00751D01*
X00988Y00452D02*
Y00543D01*
X00958Y00478D02*
Y00546D01*
X00899Y00631D02*
Y00776D01*
Y00631D02*
X00988Y00543D01*
X00884Y0062D02*
Y00784D01*
Y0062D02*
X00958Y00546D01*
X00804Y00664D02*
X0082Y00648D01*
Y00488D02*
X00969Y00338D01*
X0082Y00488D02*
Y00648D01*
X00778Y00342D02*
Y00733D01*
X00668Y00925D02*
Y00946D01*
X00686Y00964*
X00728Y00925D02*
Y00949D01*
X00713Y00964D02*
X00728Y00949D01*
X01271Y02236D02*
Y02302D01*
X01411Y02766D02*
X01665D01*
X00521Y00399D02*
X00624Y00502D01*
X00551Y00386D02*
X00654Y00489D01*
X00675Y-0074D02*
Y00312D01*
X00676Y00313*
X00675D02*
X00676D01*
X00763Y0041D02*
Y00757D01*
X00716Y00338D02*
Y00363D01*
X00763Y0041*
X00506Y-01044D02*
Y00414D01*
X00521Y-0108D02*
Y00399D01*
X00348Y-01402D02*
X0038Y-0137D01*
X00958Y-00936D02*
X00958Y-00936D01*
X01122Y01903D02*
Y02227D01*
X01159Y01852D02*
Y02284D01*
X0106Y01841D02*
X01122Y01903D01*
X01049Y01742D02*
X01159Y01852D01*
X01204Y01841D02*
Y02236D01*
X0108Y01717D02*
X01204Y01841D01*
X00368Y00919D02*
X00425Y00975D01*
X0031Y00773D02*
Y00775D01*
X00926Y00626D02*
X01042Y0051D01*
X00958Y00615D02*
X01048Y00525D01*
X01506Y-01773D02*
X01535Y-01744D01*
X01428Y-00932D02*
X01535Y-01038D01*
X01264Y-00932D02*
X01428D01*
X0122Y-00887D02*
X01264Y-00932D01*
X01015Y-00667D02*
X01052Y-00703D01*
X00908Y-00667D02*
X01015D01*
X00807Y-00719D02*
X00831Y-00695D01*
X00807Y-01094D02*
Y-00719D01*
Y-01094D02*
X0087Y-01157D01*
Y-01602D02*
Y-01157D01*
Y-01602D02*
X01041Y-01773D01*
X00435Y0084D02*
X00539D01*
X00435Y00736D02*
Y00773D01*
X00973Y01454D02*
X00992Y01436D01*
X0108Y01338D02*
Y01717D01*
X02058Y00751D02*
X02226D01*
X01318Y013D02*
Y01332D01*
Y013D02*
D01*
Y014D02*
Y01432D01*
X00283Y00118D02*
X00331Y00071D01*
X00251Y00101D02*
X00318Y00034D01*
X00237Y00094D02*
X00312Y00019D01*
X00223Y00087D02*
X00307Y00003D01*
X00209Y00079D02*
X00325Y-00035D01*
X00195Y00072D02*
X00309Y-0004D01*
X00283Y00118D02*
Y00909D01*
X00298Y00436D02*
Y00761D01*
X0031Y00773*
X00298Y00436D02*
X0032Y00414D01*
X00445Y00541D02*
Y00632D01*
Y00541D02*
X00455Y0053D01*
X00479*
X00491Y-00741D02*
Y00519D01*
X00479Y0053D02*
X00491Y00519D01*
X00435Y00486D02*
X0047D01*
X00471Y00485*
X00333Y00486D02*
X00368D01*
X00333Y00485D02*
X00333Y00486D01*
X00789Y01243D02*
X00806Y01226D01*
X00788Y01243D02*
X00789D01*
X00865Y00174D02*
X01323D01*
X01062Y00082D02*
X01114Y00135D01*
X01298Y00131D02*
X01304D01*
X01273Y00695D02*
X01336D01*
X01373Y00732*
Y00923*
X00641Y01268D02*
X00688Y01221D01*
X00294Y01454D02*
X00973D01*
X00545Y01415D02*
X00644Y01317D01*
X00435Y01362D02*
X0048D01*
X00339Y01415D02*
X00545D01*
X00192Y01404D02*
X00288Y015D01*
X00127Y01157D02*
X00192Y01222D01*
Y01404*
X00133Y01142D02*
X00209Y01218D01*
X00688Y01185D02*
Y01197D01*
Y01221*
X00345Y01402D02*
X00517D01*
X00621Y01298*
X00608Y01268D02*
X00641D01*
X00613Y01283D02*
X00688D01*
X00569Y01326D02*
X00613Y01283D01*
X00563Y01313D02*
X00608Y01268D01*
X00348Y01298D02*
X00559D01*
X0034Y01362D02*
X00368D01*
X00209Y01369D02*
X00294Y01454D01*
X00227Y01304D02*
X00339Y01415D01*
X00242Y01299D02*
X00345Y01402D01*
X00328Y01326D02*
X00569D01*
X00338Y01313D02*
X00563D01*
X00209Y01218D02*
Y01369D01*
X00227Y01135D02*
Y01304D01*
X00242Y01129D02*
Y01299D01*
X00259Y01281D02*
X0034Y01362D01*
X00259Y01125D02*
Y01281D01*
X00628Y01185D02*
Y01197D01*
Y01228*
X00559Y01298D02*
X00628Y01228D01*
X00511Y01197D02*
Y01271D01*
X00498Y01284D02*
X00511Y01271D01*
X0036Y01284D02*
X00498D01*
X0032Y01244D02*
X0036Y01284D01*
X00275Y01274D02*
X00328Y01326D01*
X00289Y01264D02*
X00338Y01313D01*
X00303Y01253D02*
X00348Y01298D01*
X00275Y01108D02*
Y01274D01*
X00289Y01095D02*
Y01264D01*
X00303Y01087D02*
Y01253D01*
X0032Y0108D02*
Y01244D01*
X00251Y01011D02*
X0032Y0108D01*
X00179Y01066D02*
X00242Y01129D01*
X00195Y01061D02*
X00259Y01125D01*
X00209Y01042D02*
X00275Y01108D01*
X00223Y01029D02*
X00289Y01095D01*
X00237Y01021D02*
X00303Y01087D01*
X00179Y00779D02*
Y01066D01*
X00195Y00072D02*
Y01061D01*
X00209Y00079D02*
Y01042D01*
X00223Y00087D02*
Y01029D01*
X00237Y00094D02*
Y01021D01*
X00251Y00101D02*
Y01011D01*
X00447Y0063D02*
X0048D01*
X00445Y00632D02*
X00447Y0063D01*
X0048D02*
Y00691D01*
X00435Y00736D02*
X0048Y00691D01*
X00834Y00338D02*
Y00374D01*
Y00376D02*
X00835D01*
X00834Y00205D02*
Y00271D01*
X00978Y00134D02*
X01022D01*
X01042Y00153*
X01482Y-00298D02*
X01583Y-00399D01*
X01355Y-00298D02*
X01482D01*
X01116Y-00268D02*
X01145Y-00298D01*
X01355*
X01503Y-0025D02*
X01534Y-00281D01*
X01622*
X01534Y-00163D02*
X01621D01*
X01193Y-0025D02*
X01503D01*
X01142Y-00209D02*
X01487D01*
X01534Y-00163*
X01042Y00153D02*
X01503D01*
X01304Y00131D02*
X01499D01*
X01639Y-0001D02*
X01658D01*
X01114Y00135D02*
X013D01*
X01304Y00131*
X01622Y00006D02*
Y00007D01*
Y00006D02*
X01639Y-0001D01*
X01737Y00385D02*
X01764Y00358D01*
X01981*
X00892Y0024D02*
X00893Y00239D01*
X01578Y00101D02*
X01622D01*
X01499Y00131D02*
X01622Y00007D01*
X01503Y00153D02*
X01642Y00014D01*
X01485Y00195D02*
X01578Y00101D01*
X01508Y0021D02*
X01548Y0017D01*
X00893Y00239D02*
Y00269D01*
X00834Y00374D02*
X00835Y00376D01*
X01523Y00373D02*
X0153Y00366D01*
Y00336D02*
Y00366D01*
X01771Y00342D02*
X01939D01*
X0176Y00257D02*
X01924D01*
X01681Y00168D02*
Y00189D01*
X01799Y00199D02*
X018Y002D01*
X01681Y00189D02*
X01691Y00199D01*
X01799*
X0163Y00213D02*
X01736D01*
X01766Y00242*
X01857*
X01729Y00227D02*
X0176Y00257D01*
X01716Y00242D02*
X01739Y00264D01*
Y00311D02*
X01771Y00342D01*
X01739Y00264D02*
Y00311D01*
X00865Y00228D02*
X00898Y00195D01*
X00893Y00239D02*
X00922Y0021D01*
X00898Y00195D02*
X01485D01*
X00922Y0021D02*
X01508D01*
X01141Y0023D02*
X01535D01*
X01553Y00213*
X0153Y00286D02*
Y00336D01*
Y00286D02*
X01589Y00227D01*
X01729*
X01621Y00205D02*
X01624D01*
X01707Y00525D02*
X01737Y00494D01*
Y00385D02*
Y00494D01*
X01019Y00649D02*
X0108Y00587D01*
X01019Y00649D02*
Y00827D01*
X0121Y00645D02*
X01228Y00626D01*
X01307Y00606D02*
X01479D01*
X00999Y00633D02*
X01061Y00571D01*
X01621Y00205D02*
X0163Y00213D01*
X01523Y00432D02*
Y00464D01*
X01048Y00525D02*
X01348D01*
X01513Y00474D02*
X01523Y00464D01*
X01517Y00525D02*
X01707D01*
X01348D02*
X01356Y00533D01*
X01509*
X01517Y00525*
X01042Y0051D02*
X01422D01*
X01457Y00474*
X01513*
X01594Y00724D02*
X01597D01*
X01615*
X01708Y00817D02*
X01857D01*
X018Y-009D02*
X01847Y-00853D01*
X02032Y-01347D02*
X02154D01*
X01847Y-00853D02*
X0197D01*
X02003Y-01318D02*
Y-00886D01*
Y-01318D02*
X02032Y-01347D01*
X0197Y-00853D02*
X02003Y-00886D01*
X01761Y01608D02*
X01848D01*
X019Y0166*
Y-008D02*
X01978D01*
X02026Y-00848*
X02302*
X00401Y-01249D02*
X0043D01*
X00536Y-01143*
X00506Y00414D02*
X00584Y00492D01*
X-002Y-012D02*
X-00128Y-01128D01*
X-00093Y-00718D02*
Y-00484D01*
X-00074Y-00733D02*
Y-00492D01*
X-0011Y-01135D02*
Y-00769D01*
X-00128Y-00753D02*
X-00093Y-00718D01*
X-00128Y-01128D02*
Y-00753D01*
X-0011Y-01135D02*
X00145Y-01391D01*
X-0011Y-00769D02*
X-00074Y-00733D01*
X00145Y-01579D02*
Y-01391D01*
X01116Y-00157D02*
X01188Y-00084D01*
Y-00005*
X0118Y00002D02*
X01188Y-00005D01*
X01746Y01008D02*
X01933D01*
X01297Y00645D02*
X01411D01*
X01228Y00626D02*
X01421D01*
X01027Y-00341D02*
X01481D01*
X01545Y-00404*
Y-00464D02*
X01581Y-005D01*
X01545Y-00464D02*
Y-00404D01*
X00819Y00856D02*
Y00954D01*
X00888Y01023*
X00194Y-01719D02*
X00236D01*
X00194D02*
D01*
X00151D02*
X00194D01*
X00151D02*
D01*
Y-01827D02*
Y-01786D01*
X00944Y01066D02*
Y01091D01*
X00924Y01111D02*
X00944Y01091D01*
X00853Y01111D02*
X00924D01*
X02071Y0105D02*
X02215D01*
X02251Y01014*
X00774Y02277D02*
X00775D01*
X00806Y02308D02*
X0109D01*
X00775Y02277D02*
X00806Y02308D01*
X01164Y02382D02*
Y0246D01*
Y0246*
X00177Y02257D02*
X00754D01*
X00774Y02277*
X01164Y0246D02*
X01164Y02459D01*
X00766Y02294D02*
X00803Y02331D01*
X0094*
X00935Y01276D02*
X00956Y01297D01*
X00688Y01283D02*
X00747Y01224D01*
X00704Y01298D02*
X00726Y01276D01*
X00621Y01298D02*
X00704D01*
X00834Y01351D02*
X00843Y01359D01*
X00887*
X00896Y01351*
X01049Y01095D02*
Y01742D01*
X01024Y00987D02*
X01102Y01065D01*
X01104Y00923D02*
X0128Y01098D01*
Y01426*
X01181Y00734D02*
Y00937D01*
X00283Y00909D02*
X00388Y01014D01*
X00547*
X00566Y00996*
X022Y01599D02*
X02293Y01505D01*
X02286Y00476D02*
X02293Y00483D01*
X02252Y01446D02*
X02279Y01418D01*
X02272Y0049D02*
X02279Y00497D01*
X02245Y01349D02*
X02265Y01328D01*
X02258Y00497D02*
X02265Y00504D01*
X02293Y00483D02*
Y01505D01*
X02279Y00497D02*
Y01418D01*
X02265Y00504D02*
Y01328D01*
X02251Y0085D02*
Y01014D01*
X01205Y00473D02*
X01324D01*
X01324Y00473D02*
Y00474D01*
X01642Y-00467D02*
X0175D01*
X01621Y-00231D02*
X01701D01*
X00566Y00996D02*
X00738D01*
X01154Y01054D02*
Y014D01*
X01252Y01499D02*
X01599D01*
X01239Y0144D02*
X01277Y01478D01*
X01239Y01088D02*
Y0144D01*
X01277Y01478D02*
X01629D01*
X01102Y01065D02*
Y01316D01*
X0108Y01338D02*
X01102Y01316D01*
X01154Y014D02*
X01252Y01499D01*
X017Y0056D02*
X01719Y00579D01*
Y00738*
X01738Y00758*
X01842*
X-00427Y-02121D02*
D01*
X-00427Y-02126*
X-00427Y-02132*
X-00426Y-02137*
X-00424Y-02142*
X-00423Y-02148*
X-0042Y-02153*
X-00418Y-02158*
X-00415Y-02162*
X-00412Y-02167*
X-00409Y-02171*
X-00405Y-02175*
X-00401Y-02179*
X-00397Y-02183*
X-00393Y-02186*
X-00388Y-02189*
X-00383Y-02191*
X-00378Y-02194*
X-00373Y-02196*
X-00368Y-02197*
X-00362Y-02198*
X-00357Y-02199*
X-00351Y-02199*
X-00349Y-02199*
X02249Y-02199D02*
D01*
X02254Y-02199*
X0226Y-02199*
X02265Y-02198*
X0227Y-02196*
X02276Y-02195*
X02281Y-02192*
X02286Y-0219*
X0229Y-02187*
X02295Y-02184*
X02299Y-02181*
X02303Y-02177*
X02307Y-02173*
X02311Y-02169*
X02314Y-02165*
X02317Y-0216*
X02319Y-02155*
X02322Y-0215*
X02324Y-02145*
X02325Y-0214*
X02326Y-02134*
X02327Y-02129*
X02327Y-02123*
X02327Y-02121*
X01698Y02085D02*
D01*
X01696Y02084*
X01695Y02084*
X01693Y02084*
X01692Y02084*
X01691Y02083*
X0169Y02083*
X01688Y02082*
X01687Y02082*
X01686Y02081*
X01685Y0208*
X01684Y02079*
X01683Y02078*
X01682Y02077*
X01681Y02076*
X0168Y02075*
X0168Y02073*
X01679Y02072*
X01679Y02071*
X01678Y0207*
X01678Y02068*
X01678Y02067*
X01678Y02066*
Y02064*
X01678Y02063*
X01678Y02061*
X01678Y0206*
X01679Y02059*
X01679Y02057*
X0168Y02056*
X0168Y02055*
X01681Y02054*
X01682Y02053*
X01683Y02052*
X01684Y02051*
X01685Y0205*
X01686Y02049*
X01687Y02048*
X01688Y02047*
X0169Y02047*
X01691Y02046*
X01692Y02046*
X01693Y02046*
X01695Y02045*
X01696Y02045*
X01698Y02045*
X0125Y02085D02*
D01*
X01248Y02084*
X01247Y02084*
X01245Y02084*
X01244Y02084*
X01243Y02083*
X01241Y02083*
X0124Y02082*
X01239Y02082*
X01238Y02081*
X01237Y0208*
X01236Y02079*
X01235Y02078*
X01234Y02077*
X01233Y02076*
X01232Y02075*
X01232Y02073*
X01231Y02072*
X01231Y02071*
X0123Y0207*
X0123Y02068*
X0123Y02067*
X0123Y02066*
Y02064*
X0123Y02063*
X0123Y02061*
X0123Y0206*
X01231Y02059*
X01231Y02057*
X01232Y02056*
X01232Y02055*
X01233Y02054*
X01234Y02053*
X01235Y02052*
X01236Y02051*
X01237Y0205*
X01238Y02049*
X01239Y02048*
X0124Y02047*
X01241Y02047*
X01243Y02046*
X01244Y02046*
X01245Y02046*
X01247Y02045*
X01248Y02045*
X0125Y02045*
X01538D02*
D01*
X01539Y02045*
X01541Y02045*
X01542Y02046*
X01544Y02046*
X01545Y02046*
X01546Y02047*
X01547Y02047*
X01549Y02048*
X0155Y02049*
X01551Y0205*
X01552Y02051*
X01553Y02052*
X01554Y02053*
X01554Y02054*
X01555Y02055*
X01556Y02056*
X01556Y02057*
X01557Y02059*
X01557Y0206*
X01557Y02061*
X01558Y02063*
X01558Y02064*
Y02066*
X01558Y02067*
X01557Y02068*
X01557Y0207*
X01557Y02071*
X01556Y02072*
X01556Y02073*
X01555Y02075*
X01554Y02076*
X01554Y02077*
X01553Y02078*
X01552Y02079*
X01551Y0208*
X0155Y02081*
X01549Y02082*
X01547Y02082*
X01546Y02083*
X01545Y02083*
X01544Y02084*
X01542Y02084*
X01541Y02084*
X01539Y02084*
X01538Y02085*
X00182Y02045D02*
D01*
X00183Y02045*
X00185Y02045*
X00186Y02046*
X00187Y02046*
X00189Y02046*
X0019Y02047*
X00191Y02047*
X00192Y02048*
X00193Y02049*
X00194Y0205*
X00195Y02051*
X00196Y02052*
X00197Y02053*
X00198Y02054*
X00199Y02055*
X00199Y02056*
X002Y02057*
X00201Y02059*
X00201Y0206*
X00201Y02061*
X00201Y02063*
X00201Y02064*
Y02066*
X00201Y02067*
X00201Y02068*
X00201Y0207*
X00201Y02071*
X002Y02072*
X00199Y02073*
X00199Y02075*
X00198Y02076*
X00197Y02077*
X00196Y02078*
X00195Y02079*
X00194Y0208*
X00193Y02081*
X00192Y02082*
X00191Y02082*
X0019Y02083*
X00189Y02083*
X00187Y02084*
X00186Y02084*
X00185Y02084*
X00183Y02084*
X00182Y02085*
X0032D02*
D01*
X00318Y02084*
X00317Y02084*
X00315Y02084*
X00314Y02084*
X00313Y02083*
X00312Y02083*
X0031Y02082*
X00309Y02082*
X00308Y02081*
X00307Y0208*
X00306Y02079*
X00305Y02078*
X00304Y02077*
X00303Y02076*
X00303Y02075*
X00302Y02073*
X00301Y02072*
X00301Y02071*
X003Y0207*
X003Y02068*
X003Y02067*
X003Y02066*
Y02064*
X003Y02063*
X003Y02061*
X003Y0206*
X00301Y02059*
X00301Y02057*
X00302Y02056*
X00303Y02055*
X00303Y02054*
X00304Y02053*
X00305Y02052*
X00306Y02051*
X00307Y0205*
X00308Y02049*
X00309Y02048*
X0031Y02047*
X00312Y02047*
X00313Y02046*
X00314Y02046*
X00315Y02046*
X00317Y02045*
X00318Y02045*
X0032Y02045*
X01068D02*
D01*
X01069Y02045*
X0107Y02045*
X01072Y02046*
X01073Y02046*
X01074Y02046*
X01076Y02047*
X01077Y02047*
X01078Y02048*
X01079Y02049*
X0108Y0205*
X01081Y02051*
X01082Y02052*
X01083Y02053*
X01084Y02054*
X01085Y02055*
X01085Y02056*
X01086Y02057*
X01086Y02059*
X01087Y0206*
X01087Y02061*
X01087Y02063*
X01087Y02064*
Y02066*
X01087Y02067*
X01087Y02068*
X01087Y0207*
X01086Y02071*
X01086Y02072*
X01085Y02073*
X01085Y02075*
X01084Y02076*
X01083Y02077*
X01082Y02078*
X01081Y02079*
X0108Y0208*
X01079Y02081*
X01078Y02082*
X01077Y02082*
X01076Y02083*
X01074Y02083*
X01073Y02084*
X01072Y02084*
X0107Y02084*
X01069Y02084*
X01068Y02085*
X-00349Y03049D02*
D01*
X-00354Y03049*
X-0036Y03048*
X-00365Y03047*
X-0037Y03046*
X-00376Y03044*
X-00381Y03042*
X-00386Y0304*
X-0039Y03037*
X-00395Y03034*
X-00399Y03031*
X-00403Y03027*
X-00407Y03023*
X-00411Y03019*
X-00414Y03014*
X-00417Y0301*
X-00419Y03005*
X-00422Y03*
X-00424Y02995*
X-00425Y02989*
X-00426Y02984*
X-00427Y02979*
X-00427Y02973*
X-00427Y0297*
X02327D02*
D01*
X02327Y02976*
X02327Y02981*
X02326Y02987*
X02324Y02992*
X02323Y02997*
X02321Y03002*
X02318Y03007*
X02315Y03012*
X02312Y03017*
X02309Y03021*
X02305Y03025*
X02301Y03029*
X02297Y03032*
X02293Y03036*
X02288Y03039*
X02283Y03041*
X02278Y03043*
X02273Y03045*
X02268Y03047*
X02262Y03048*
X02257Y03049*
X02251Y03049*
X02249Y03049*
X-00349Y-022D02*
X02249D01*
X0125Y02045D02*
X01538D01*
X0125Y02085D02*
X01538D01*
X-00349Y03049D02*
X02249D01*
X0032Y02045D02*
X01068D01*
X0032Y02085D02*
X01068D01*
X01698Y02045D02*
X02327D01*
X01698Y02085D02*
X02327D01*
X-00427D02*
X00182D01*
X-00427Y02045D02*
X00182D01*
X-00427Y02085D02*
Y0297D01*
X02327Y-02121D02*
Y02045D01*
Y02085D02*
Y0297D01*
D01*
X-00427Y-02121D02*
Y02045D01*
X01043Y-01825D02*
X01594D01*
X01043Y-02297D02*
Y-01825D01*
X01594Y-02297D02*
Y-01825D01*
X01043Y-02297D02*
X01594D01*
X01043Y-02199D02*
X01594D01*
G54D56*
X01468Y00853D02*
Y00926D01*
X01468Y00853D02*
X01468Y00853D01*
X01422Y00926D02*
X01468D01*
X0142Y00924D02*
X01422Y00926D01*
X0158Y-0008D02*
X01615Y-00045D01*
X0168*
X01459Y-0008D02*
X0158D01*
X01361Y00017D02*
X01459Y-0008D01*
X01234Y00017D02*
X01361D01*
X01607Y0D02*
Y0D01*
Y0D02*
X01615Y-00007D01*
Y-00045D02*
Y-00007D01*
X01509Y00069D02*
X01538D01*
X01607Y0*
G54D57*
X00028Y01476D02*
X00028D01*
X00032Y0148*
Y01518*
X-00098Y01301D02*
X-00097Y013D01*
X0*
X-002D02*
X-00097D01*
X-00098Y01301D02*
Y01483D01*
X-00063Y01518*
X-00034*
Y01577*
X00208Y01948D02*
X00339D01*
X00032Y01772D02*
X00208Y01948D01*
X00032Y01577D02*
Y01772D01*
X-002Y011D02*
X0D01*
G54D58*
X0033Y00221D02*
Y00239D01*
X01554Y-0164D02*
X01635Y-01721D01*
X01554Y-0164D02*
Y-01217D01*
X01556Y-01216*
X01635Y-01982D02*
Y-01721D01*
X-0022Y-01864D02*
X0002D01*
X00111Y-01773*
X00351Y-01853D02*
Y-01755D01*
Y-01853D02*
X00369Y-01871D01*
X00495*
X01108Y00276D02*
X01108Y00276D01*
X01138*
X00775Y-01602D02*
X00825Y-01652D01*
X00775Y-01602D02*
Y-01252D01*
X00825Y-01745D02*
Y-01652D01*
Y-01745D02*
X01002Y-01922D01*
X0052Y-01721D02*
X00521Y-01719D01*
X00579*
X00324Y-01727D02*
X00351Y-01755D01*
X00324Y-01727D02*
Y-01395D01*
X00361Y-01358*
X01002Y-01982D02*
Y-01922D01*
X01641Y00264D02*
X01642Y00265D01*
X01616Y00264D02*
X01641D01*
X016Y0028D02*
X01616Y00264D01*
X016Y0028D02*
Y00314D01*
X01479Y00491D02*
X01583D01*
X016Y00473*
Y00432D02*
Y00473D01*
X01103Y01486D02*
X01212Y01595D01*
X01522*
X00692Y01042D02*
X00744Y01094D01*
X00746*
X0057Y01089D02*
Y0113D01*
X00511D02*
X0057D01*
X00457Y02899D02*
X00497D01*
X00748Y00078D02*
Y00185D01*
X00441Y-00715D02*
Y0D01*
X00361Y-00795D02*
X00441Y-00715D01*
X0039Y00052D02*
X00441Y0D01*
X00325Y00052D02*
X0039D01*
X01533Y02566D02*
X01625Y02474D01*
X01217Y02566D02*
X01533D01*
X01186Y02596D02*
X01217Y02566D01*
X01186Y02596D02*
Y02691D01*
X01595Y02711D02*
X01639Y02667D01*
X01681Y02625*
X01815Y02537D02*
Y02584D01*
X01775Y02625D02*
X01815Y02584D01*
X01681Y02625D02*
X01775D01*
X01513Y02711D02*
X01595D01*
X01696Y02931D02*
Y02934D01*
X0033Y00221D02*
X00331D01*
X00342Y00251D02*
X00368D01*
X0033Y00239D02*
X00342Y00251D01*
X00435Y00192D02*
Y00251D01*
X00457Y027D02*
X00496D01*
X00591Y01067D02*
X00648D01*
X0057Y01089D02*
X00591Y01067D01*
X00818Y02284D02*
X00819Y02285D01*
X00818Y02227D02*
X00831Y02215D01*
X00852*
X00361Y-01358D02*
Y-00795D01*
X00873Y001D02*
X00892D01*
X00836Y00137D02*
X00873Y001D01*
X00813Y00137D02*
X00836D01*
X00707Y00226D02*
X00748Y00185D01*
X00892Y00092D02*
Y001D01*
Y00092D02*
X00916Y00068D01*
X00368Y00156D02*
Y00192D01*
X01625Y02129D02*
Y02474D01*
X01078Y02784D02*
X01184D01*
X01186Y02786*
X016Y0165D02*
X01648Y01698D01*
Y01892*
X00818Y02227D02*
Y02284D01*
X01648Y01892D02*
Y02106D01*
X01625Y02129D02*
X01648Y02106D01*
X0057Y01184D02*
Y01197D01*
Y01231*
X00775Y-01252D02*
X00811Y-01215D01*
X0084*
X00267Y0011D02*
X00325Y00052D01*
X01535Y00853D02*
X01554D01*
X01578Y00877*
Y00926*
X00354Y01239D02*
X00355Y0124D01*
X00425Y0113D02*
X0051D01*
X00511Y0113*
X00355Y0124D02*
X00425D01*
X00446*
X0168Y-00112D02*
X01787D01*
X018Y-001*
X01386Y00069D02*
X0145D01*
X01386Y00069D02*
X01386Y00069D01*
X0145Y00001D02*
X01509D01*
X01448Y00003D02*
X0145Y00001D01*
X014Y00003D02*
X01448D01*
X01179Y00109D02*
X01179Y00109D01*
X01294*
X014Y00003*
X01459Y00511D02*
X01479Y00491D01*
X01578Y00932D02*
X01624D01*
X01625Y00933*
X00386Y01042D02*
X00692D01*
X00267Y0011D02*
Y00923D01*
X00386Y01042*
G54D59*
X00397Y-01717D02*
X00424Y-0169D01*
Y-01506*
X00439Y-01697D02*
Y-01512D01*
X00412Y-01723D02*
X00439Y-01697D01*
X0069Y00435D02*
Y00835D01*
X00668Y00858D02*
X0069Y00835D01*
X00597Y00341D02*
X0069Y00435D01*
X00665Y00861D02*
X00668Y00858D01*
X00597Y-01333D02*
Y00341D01*
X00424Y-01506D02*
X00597Y-01333D01*
X00705Y00835D02*
X00728Y00858D01*
X00705Y00429D02*
Y00835D01*
X00612Y00335D02*
X00705Y00429D01*
X00612Y-01339D02*
Y00335D01*
X00439Y-01512D02*
X00612Y-01339D01*
X00397Y-01826D02*
Y-01717D01*
X00412Y-01826D02*
Y-01723D01*
Y-01826D02*
X00416Y-01831D01*
X00392D02*
X00397Y-01826D01*
G54D60*
X01497Y023D02*
X01563Y02234D01*
Y02132D02*
Y02234D01*
X01351Y023D02*
X01384D01*
X01418*
X01497*
X016Y0175D02*
X01606Y01756D01*
Y02089*
X01563Y02132D02*
X01606Y02089D01*
G54D63*
X00435Y00251D02*
X00458Y00275D01*
X0047*
G54D70*
X00155Y-02199D02*
X0028D01*
Y-02125*
X00316*
Y-02199D02*
Y-02125D01*
Y-02199D02*
X00392D01*
X00467*
Y-02125*
X00503*
Y-02199D02*
Y-02125D01*
Y-02199D02*
X00628D01*
X01263Y03047D02*
X01388D01*
Y02973D02*
Y03047D01*
Y02973D02*
X01424D01*
Y03047*
X015*
X01575*
Y02973D02*
Y03047D01*
Y02973D02*
X01611D01*
Y03047*
X01736*
G54D71*
X00612Y-02186D02*
Y-02194D01*
X00615*
X00617Y-02193*
Y-02192*
X00615Y-0219*
X00612*
X00615*
X00617Y-02189*
Y-02188*
X00615Y-02186*
X00612*
X00621Y-02194D02*
X00623D01*
X00625Y-02193*
Y-0219*
X00623Y-02189*
X00621*
X00619Y-0219*
Y-02193*
X00621Y-02194*
X00629Y-02189D02*
X00631D01*
X00632Y-0219*
Y-02194*
X00629*
X00627Y-02193*
X00629Y-02192*
X00632*
X00635Y-02189D02*
Y-02194D01*
Y-02192*
X00636Y-0219*
X00638Y-02189*
X00639*
X00648Y-02186D02*
Y-02194D01*
X00644*
X00643Y-02193*
Y-0219*
X00644Y-02189*
X00648*
X00663Y-02194D02*
X0066D01*
X00659Y-02193*
Y-0219*
X0066Y-02189*
X00663*
X00664Y-0219*
Y-02192*
X00659*
X00672Y-02186D02*
Y-02194D01*
X00668*
X00667Y-02193*
Y-0219*
X00668Y-02189*
X00672*
X00677Y-02197D02*
X00678D01*
X0068Y-02195*
Y-02189*
X00676*
X00674Y-0219*
Y-02193*
X00676Y-02194*
X0068*
X00686D02*
X00684D01*
X00682Y-02193*
Y-0219*
X00684Y-02189*
X00686*
X00688Y-0219*
Y-02192*
X00682*
X0128Y03034D02*
Y03042D01*
X01276*
X01274Y03041*
Y0304*
X01276Y03038*
X0128*
X01276*
X01274Y03037*
Y03036*
X01276Y03034*
X0128*
X0127Y03042D02*
X01268D01*
X01266Y03041*
Y03038*
X01268Y03037*
X0127*
X01272Y03038*
Y03041*
X0127Y03042*
X01262Y03037D02*
X0126D01*
X01259Y03038*
Y03042*
X01262*
X01264Y03041*
X01262Y0304*
X01259*
X01256Y03037D02*
Y03042D01*
Y0304*
X01255Y03038*
X01253Y03037*
X01252*
X01243Y03034D02*
Y03042D01*
X01247*
X01248Y03041*
Y03038*
X01247Y03037*
X01243*
X01228Y03042D02*
X01231D01*
X01232Y03041*
Y03038*
X01231Y03037*
X01228*
X01227Y03038*
Y0304*
X01232*
X01219Y03034D02*
Y03042D01*
X01223*
X01224Y03041*
Y03038*
X01223Y03037*
X01219*
X01214Y03045D02*
X01213D01*
X01211Y03043*
Y03037*
X01215*
X01217Y03038*
Y03041*
X01215Y03042*
X01211*
X01205D02*
X01207D01*
X01209Y03041*
Y03038*
X01207Y03037*
X01205*
X01203Y03038*
Y0304*
X01209*
G54D72*
X013Y-001D03*
X019Y019D03*
X0Y0195D03*
X0005Y-0105D03*
X0185D03*
G54D73*
X019Y-009D03*
X018D03*
Y-008D03*
X019D03*
Y-002D03*
X018D03*
X019Y007D03*
X018Y006D03*
X019D03*
X018Y005D03*
X019D03*
X018Y004D03*
X019D03*
X018Y003D03*
X019D03*
X018Y002D03*
X019D03*
Y0D03*
X018D03*
X019Y001D03*
X018D03*
Y-001D03*
X019D03*
Y-006D03*
X018D03*
Y-004D03*
X019D03*
X018Y-005D03*
X019D03*
Y-003D03*
X018D03*
Y-007D03*
X019D03*
Y0096D03*
X018D03*
Y0116D03*
X019D03*
X018Y0106D03*
X019D03*
Y0126D03*
X018D03*
X019Y0136D03*
X018D03*
X019Y0146D03*
X018D03*
X019Y0156D03*
X018D03*
X019Y0166D03*
X018D03*
X019Y0176D03*
X018Y0086D03*
X019D03*
X001Y-004D03*
X0D03*
X001Y005D03*
X0Y004D03*
X001D03*
X0Y003D03*
X001D03*
X0Y002D03*
X001D03*
X0Y001D03*
X001D03*
X0Y0D03*
X001D03*
Y-002D03*
X0D03*
X001Y-001D03*
X0D03*
Y-003D03*
X001D03*
Y-008D03*
X0D03*
Y-006D03*
X001D03*
X0Y-007D03*
X001D03*
Y-005D03*
X0D03*
Y-009D03*
X001D03*
X0Y008D03*
X001D03*
X0Y007D03*
X001D03*
Y009D03*
X0D03*
X001Y01D03*
X0D03*
X001Y011D03*
X0D03*
X001Y012D03*
X0D03*
X001Y013D03*
X0D03*
X001Y014D03*
X022Y-01701D03*
X021D03*
X022Y01799D03*
X021Y01399D03*
Y01499D03*
Y01599D03*
Y01699D03*
Y01299D03*
Y00799D03*
Y01199D03*
Y01099D03*
Y00999D03*
Y00899D03*
Y00299D03*
Y00699D03*
Y00599D03*
Y00499D03*
Y00399D03*
Y-00201D03*
Y00199D03*
Y00099D03*
Y-00001D03*
Y-00101D03*
Y-00301D03*
Y-00401D03*
Y-00501D03*
Y-00601D03*
Y-01601D03*
Y-01501D03*
Y-01401D03*
Y-01301D03*
Y-01101D03*
Y-01001D03*
Y-00901D03*
Y-00801D03*
Y-01201D03*
Y-00701D03*
X022D03*
Y-01201D03*
Y-00801D03*
Y-00901D03*
Y-01001D03*
Y-01101D03*
Y-01301D03*
Y-01401D03*
Y-01501D03*
Y-01601D03*
Y-00601D03*
Y-00501D03*
Y-00401D03*
Y-00301D03*
Y-00101D03*
Y-00001D03*
Y00099D03*
Y00199D03*
Y-00201D03*
Y00399D03*
Y00499D03*
Y00599D03*
Y00699D03*
Y00299D03*
Y00899D03*
Y00999D03*
Y01099D03*
Y01199D03*
Y00799D03*
Y01299D03*
Y01699D03*
Y01599D03*
Y01499D03*
Y01399D03*
X-002Y-017D03*
X-003D03*
X-002Y018D03*
X-003Y014D03*
Y015D03*
Y016D03*
Y017D03*
Y013D03*
Y008D03*
Y012D03*
Y011D03*
Y01D03*
Y009D03*
Y003D03*
Y007D03*
Y006D03*
Y005D03*
Y004D03*
Y-002D03*
Y002D03*
Y001D03*
Y0D03*
Y-001D03*
Y-003D03*
Y-004D03*
Y-005D03*
Y-006D03*
Y-016D03*
Y-015D03*
Y-014D03*
Y-013D03*
Y-011D03*
Y-01D03*
Y-009D03*
Y-008D03*
Y-012D03*
Y-007D03*
X-002D03*
Y-012D03*
Y-008D03*
Y-009D03*
Y-01D03*
Y-011D03*
Y-013D03*
Y-014D03*
Y-015D03*
Y-016D03*
Y-006D03*
Y-005D03*
Y-004D03*
Y-003D03*
Y-001D03*
Y0D03*
Y001D03*
Y002D03*
Y-002D03*
Y004D03*
Y005D03*
Y006D03*
Y007D03*
Y003D03*
Y009D03*
Y01D03*
Y011D03*
Y012D03*
Y008D03*
Y013D03*
Y017D03*
Y016D03*
Y015D03*
Y014D03*
G54D74*
X018Y007D03*
Y0176D03*
X0Y005D03*
Y014D03*
X021Y01799D03*
X-003Y018D03*
G54D75*
X01435Y-00854D03*
X007Y015D03*
X00954Y00914D03*
X00953Y00285D03*
X01335Y-00422D03*
X009Y015D03*
X-003Y023D03*
X01Y0292D03*
X-003Y028D03*
X022D03*
X00299Y023D03*
X003Y026D03*
Y027D03*
Y028D03*
X-001Y023D03*
Y024D03*
Y025D03*
Y026D03*
Y022D03*
X014Y0175D03*
X015Y0165D03*
Y0175D03*
X016Y0165D03*
Y0175D03*
G54D76*
X01335Y-00854D03*
X006Y015D03*
X01435Y-00422D03*
X01Y015D03*
X009Y0292D03*
X014Y0165D03*
G54D77*
X00479Y-02024D03*
X00304D03*
G54D78*
X00234Y-02142D03*
X00549D03*
G54D79*
X01374Y02991D03*
X01625D03*
G54D80*
X01598Y02885D03*
X01401D03*
G54D81*
X-003Y022D03*
Y029D03*
X022D03*
X00299Y022D03*
X003Y029D03*
X-001Y027D03*
G54D82*
X01635Y-01982D03*
X01002D03*
G54D83*
X01459Y-0173D03*
G54D84*
X00978Y00702D03*
X01549Y-00316D03*
X01133Y00614D03*
X00555Y-01006D03*
X02041Y-01374D03*
X00979Y00664D03*
X01087Y00549D03*
X009Y00566D03*
X00915Y00889D03*
X01685Y00978D03*
X01693Y0119D03*
X01473Y01184D03*
X01345Y01185D03*
X00374Y-01813D03*
X01453Y-00482D03*
X01505Y-0083D03*
X01526Y-00807D03*
X0155Y-00827D03*
X01569Y-00795D03*
X01591Y-00825D03*
X01614Y-00796D03*
X01613Y-00711D03*
X01576Y-01614D03*
X01641Y-00827D03*
X01615Y-00524D03*
X01717Y-00941D03*
X01548Y00648D03*
X01176Y-00936D03*
X01749Y-00963D03*
X01176Y-00862D03*
X01443Y01087D03*
X00902Y01073D03*
X00746Y01094D03*
X01573Y0111D03*
X0173Y01259D03*
X01574Y01081D03*
X01989Y00746D03*
X01935Y00769D03*
X0185Y00534D03*
X017Y00624D03*
Y0056D03*
X01569Y01334D03*
X00495Y-01871D03*
X00301Y-01872D03*
X00313Y-01909D03*
X00495D03*
X00416Y-01831D03*
X00392D03*
X00963Y01354D03*
X01108Y00276D03*
Y00315D03*
X00806Y-02024D03*
X00588Y-01945D03*
X00657Y-0182D03*
X00782Y-01676D03*
X-0022Y-01864D03*
X00348Y-01718D03*
X00842Y-01882D03*
X00512Y-01634D03*
X00236Y-01831D03*
X00478Y-01822D03*
X0052Y-01721D03*
X00367Y-01991D03*
X00351Y-01755D03*
X00886Y-01672D03*
X00785Y-0198D03*
X00579Y-02058D03*
X00747Y-01879D03*
X008Y-01839D03*
X00622Y-01539D03*
X00822Y-01914D03*
X01664Y00485D03*
X-0028Y-00149D03*
X00176Y00392D03*
X00158Y00515D03*
X02012Y00821D03*
X01959Y00824D03*
X01073Y00723D03*
X0224Y00459D03*
X02306Y00469D03*
X01989Y00914D03*
X-00172Y0065D03*
X00157Y01099D03*
X00956Y01297D03*
X00048Y00179D03*
X01851Y-00672D03*
X00699Y-00642D03*
X009Y-00158D03*
X01773Y00147D03*
X0057Y01231D03*
X00696Y-00415D03*
X00832Y01792D03*
X00702D03*
X00799Y01993D03*
X00926Y01992D03*
X01498Y01992D03*
X01053Y01993D03*
X-00311Y-0025D03*
X00162Y-00483D03*
X00149Y-00582D03*
X01744Y00881D03*
X-00282Y-0135D03*
Y-0125D03*
X-00281Y-0115D03*
X-00148Y-01425D03*
X-0028Y-01448D03*
X-00283Y-00951D03*
X-00051Y-00721D03*
X00147Y-00121D03*
X00051Y-00065D03*
X-00009Y-00049D03*
X01692Y01159D03*
X01046Y00746D03*
X00787Y00889D03*
X00727Y00634D03*
X00815Y00726D03*
X00728Y00709D03*
X01044Y00848D03*
X01071Y00869D03*
X02242Y00769D03*
X00926Y00751D03*
X01655Y-00524D03*
X01323Y00474D03*
X00587Y0068D03*
X00603Y00511D03*
X0047Y00511D03*
X01325Y00748D03*
X01458Y00981D03*
X0142Y00924D03*
X01208Y00934D03*
X00877Y01083D03*
X01105Y00645D03*
X01258Y00723D03*
X01278Y00741D03*
X01621Y00767D03*
X00727Y-00354D03*
X00575Y-00476D03*
X00655Y-00695D03*
X00758Y-00764D03*
X00701Y-00765D03*
X00875Y-00598D03*
X00174Y-00601D03*
X00293Y-00659D03*
X00242Y-00772D03*
X00311Y-005D03*
X00733Y0141D03*
X00733Y01351D03*
X00858Y-00009D03*
X00877Y-00087D03*
X00198Y-00741D03*
X00405Y00091D03*
X00698Y01245D03*
X01747Y-01201D03*
X00589Y00739D03*
X0099Y-00304D03*
X00796Y-00342D03*
X00162Y00014D03*
X00575Y-00311D03*
X00762Y-00354D03*
X00709Y-00236D03*
X01148Y-00369D03*
X01016Y-00281D03*
X01091Y-00282D03*
Y-0037D03*
X00575Y-00532D03*
X00804Y00664D03*
X00446Y-00936D03*
X00401Y-01249D03*
Y-012D03*
X00404Y-01041D03*
X00794Y00831D03*
X01457Y-01113D03*
X01411Y02766D03*
X01181Y00732D03*
X01286Y0093D03*
X01142Y-00209D03*
X01639Y02667D03*
X01497Y-01214D03*
X00973Y02143D03*
X0105Y02494D03*
X00111Y0177D03*
X0122Y-00887D03*
X00331Y-01348D03*
X00899Y-01522D03*
X0084Y-01386D03*
X-001Y-01674D03*
X-00041D03*
X00899Y-01213D03*
X00702Y-00817D03*
X00858Y-00801D03*
X01176D03*
Y-00547D03*
Y-00606D03*
X01032Y-0037D03*
X00575Y-00861D03*
Y-00985D03*
Y-00638D03*
Y-00417D03*
Y-00162D03*
Y-00046D03*
X00757D03*
X00758Y-00162D03*
X00649Y-00985D03*
X00776Y-00986D03*
X00486Y-00775D03*
X00638Y-01093D03*
X00574Y-01097D03*
X00048Y-00024D03*
X00347Y00127D03*
X00803Y00426D03*
X00845Y00401D03*
X01013Y00232D03*
X01772Y00047D03*
X01189Y-00444D03*
X01293Y-00657D03*
X01458Y-00654D03*
X01547Y0098D03*
X01125Y01182D03*
X01359Y01334D03*
X01259Y01628D03*
X01354Y01522D03*
X00334Y00512D03*
X00331Y00368D03*
X00368Y00156D03*
X00449Y02508D03*
Y02432D03*
X00654Y02236D03*
X00713D03*
X00853Y02215D03*
X01058Y02119D03*
X01021Y02215D03*
X01208Y02301D03*
X0137Y02168D03*
X01596Y02153D03*
X01652Y02149D03*
X01735Y02127D03*
X01697Y02533D03*
X01756D03*
X01815D03*
X02029D03*
X01736Y02806D03*
X00666Y02784D03*
X00725D03*
X00784D03*
X00901D03*
X00842D03*
X0096D03*
X01019D03*
X01078D03*
X01352Y0263D03*
X-003Y02518D03*
X01353Y0155D03*
X00341Y00634D03*
X0041Y00632D03*
X01266Y0088D03*
X-00391Y01196D03*
X-0025Y01347D03*
X-00249Y01431D03*
X-00391Y01452D03*
Y017D03*
Y02014D03*
X-00199D03*
X-00069D03*
X00125D03*
X00326D03*
X00515D03*
X01087D03*
X01695D03*
X01864D03*
X02046D03*
X02288D03*
Y01891D03*
Y01656D03*
X00326Y01903D03*
X0051D03*
X0071D03*
X01087Y01927D03*
X01262Y01868D03*
X01379D03*
X01561D03*
X01711D03*
X02045D03*
X00125Y01903D03*
X-00248Y01821D03*
X-0008Y01813D03*
X-00001Y01697D03*
X-00091Y01004D03*
X0005Y01071D03*
X00049Y01179D03*
X00164Y01296D03*
X00629Y01366D03*
X00276Y01393D03*
X00478Y0107D03*
X004Y01071D03*
X00334Y00908D03*
X00633Y00827D03*
X00272Y00971D03*
X-00075Y00795D03*
X01531Y02153D03*
X01648Y01892D03*
X00575Y-00581D03*
X00919Y-00117D03*
X00807Y-00236D03*
X00837Y01903D03*
X00275Y-00233D03*
X00349Y-0018D03*
X00374Y-00105D03*
X00311Y-00399D03*
X01105Y00699D03*
X00958Y00807D03*
X00999Y00848D03*
X01019Y00827D03*
X0093Y00777D03*
X01041Y00785D03*
X00308Y-00557D03*
X0089Y02119D03*
X0013Y02123D03*
X0094Y02331D03*
X00782Y02258D03*
X0098Y02332D03*
X01039Y02331D03*
X0094Y02215D03*
X01556Y-01216D03*
X0084Y-01031D03*
Y-01215D03*
X00775Y-01252D03*
X01244Y00933D03*
X00062Y-015D03*
X00022Y-01563D03*
X00823Y-00356D03*
X01176Y-00742D03*
X01748Y-00432D03*
X01962Y00874D03*
X00634Y-00638D03*
X00633Y-00532D03*
Y-0042D03*
Y-00162D03*
Y-00007D03*
X00742Y00585D03*
X01739Y02691D03*
X00899Y-01033D03*
X01271Y02302D03*
X01513Y02711D03*
Y02795D03*
X01639Y02533D03*
X0059Y00383D03*
X00975Y-00815D03*
X00992Y-00796D03*
X00425Y00975D03*
X00598Y00827D03*
X01323Y00722D03*
X01052Y-00703D03*
X01175Y-00686D03*
X01094D03*
X01082Y01074D03*
X01023Y01298D03*
X00992Y01436D03*
X00471Y00485D03*
X00333D03*
X0089Y0123D03*
X00788Y01243D03*
X01215Y-00183D03*
X01298Y00767D03*
X01248Y00688D03*
X01625Y00933D03*
X0048Y01362D03*
X00354Y01239D03*
X00544Y01268D03*
X01054Y-00161D03*
X01161Y-00035D03*
X00962Y-00191D03*
X00979Y-00162D03*
X00941D03*
X00834Y00376D03*
X01179Y00109D03*
X01234Y00017D03*
X0158Y-0008D03*
X01193Y-0025D03*
X01385Y-00183D03*
X01556Y-00009D03*
X01386Y00069D03*
X01319Y0055D03*
X01548Y0017D03*
X0153Y00336D03*
X01553Y00213D03*
X0153Y00255D03*
X01642Y00265D03*
X01556Y00465D03*
X01624Y00205D03*
X01578Y00648D03*
X01251Y00646D03*
X01297Y00645D03*
X01609Y00649D03*
X01272Y00693D03*
X01307Y00606D03*
X01558Y00551D03*
X01459Y00511D03*
X01594Y00724D03*
X0088Y0138D03*
X00896Y01351D03*
X02302Y-00848D03*
X00402Y-011D03*
X00401Y-01149D03*
X0157Y00748D03*
X00194Y-01719D03*
X00151Y-01827D03*
X00889Y01297D03*
X00876Y01338D03*
X01101Y00972D03*
X00402Y00995D03*
X0118Y01297D03*
X01076D03*
X01171Y01445D03*
X0114Y01444D03*
X00592Y00927D03*
X00187Y-00881D03*
G54D85*
X0145Y-00373D03*
X00028Y01476D03*
X00339Y01948D03*
X00387Y0157D03*
X00354D03*
X00421D03*
X01351Y023D03*
X01906Y02257D03*
Y02284D03*
Y0223D03*
X01933D03*
Y02257D03*
Y02284D03*
X01385Y02378D03*
X02006Y02373D03*
X02033D03*
X0206D03*
Y02346D03*
X02006D03*
X02033D03*
X01795Y02396D03*
X01832D03*
Y02423D03*
X01795D03*
X01696Y02931D03*
X01352Y02378D03*
X01419D03*
Y02221D03*
X01352D03*
X01385D03*
X01384Y023D03*
X01418D03*
X01663Y02931D03*
X01627D03*
X01201Y01768D03*
Y01706D03*
Y01737D03*
X01103Y01486D03*
X01164Y-0007D03*
G54D86*
X01383Y-00454D03*
X01556Y-01678D03*
X0161Y-01615D03*
X01018Y-009D03*
X01879Y-00945D03*
X01775Y-0095D03*
X01194Y-00963D03*
X02043Y-00778D03*
X00944Y01066D03*
X00747Y01066D03*
X00429Y-01326D03*
X01118Y00243D03*
X00372Y-01668D03*
X00473Y-01664D03*
X00142Y00576D03*
X-00149Y00016D03*
X02304Y0018D03*
X0219Y00451D03*
X02181Y00246D03*
X02085Y00551D03*
X-00316Y01246D03*
X02151Y-00568D03*
X00151Y-00421D03*
X01029Y0121D03*
X00848Y-00664D03*
X01297Y-01682D03*
X01418Y-01726D03*
X01337D03*
X00282Y-00774D03*
X00693Y01339D03*
X00362Y02172D03*
X00361Y02231D03*
X00411Y02374D03*
X0037Y02344D03*
X00063Y02453D03*
X00131Y02346D03*
X00205Y02194D03*
X00207Y02296D03*
X00605Y02232D03*
X00854Y02355D03*
X00119Y02752D03*
X-00045Y02675D03*
X-00045Y02726D03*
X02218Y-00552D03*
X01257Y-01726D03*
X01219Y-01691D03*
X00922Y-01382D03*
X00832Y-0135D03*
X0099Y-01391D03*
X00991Y-01214D03*
X01399Y-01396D03*
X01402Y-01218D03*
X-00404Y-01814D03*
X00406Y00586D03*
X02119Y01152D03*
X01126Y01136D03*
X00983Y01065D03*
X02181Y0095D03*
X02179Y00846D03*
X01318Y013D03*
X00689Y01083D03*
X00648Y01067D03*
X01713Y-00881D03*
X01662Y-00795D03*
X01687Y-0071D03*
Y-00525D03*
X01582Y-00246D03*
X00686Y00964D03*
X00627Y01091D03*
X00583Y00708D03*
X00584Y0063D03*
X00585Y00533D03*
X00584Y00491D03*
X00774Y00231D03*
X01022Y00135D03*
X0106Y00114D03*
X0137Y00976D03*
X00903Y00931D03*
X00924Y00963D03*
X01422Y00389D03*
X00849Y-00725D03*
X-00141Y-00705D03*
X01214Y-00035D03*
X-00146Y-00583D03*
X00582Y00589D03*
X-00375Y-01566D03*
X01817Y-00852D03*
X00974Y-00369D03*
X-00059Y-00208D03*
X-0028Y00048D03*
X-00316Y-00052D03*
X01141Y0023D03*
X01324Y00432D03*
X00988Y00452D03*
X00958Y00478D03*
X00581Y01017D03*
X00832Y-00548D03*
X01462Y0237D03*
X00331Y00221D03*
X01078Y0254D03*
X00193Y01172D03*
X01239Y01088D03*
X01304Y00294D03*
X00321Y00153D03*
X0047Y00352D03*
X00469Y00304D03*
X0047Y00275D03*
X0047Y00233D03*
X01323Y00174D03*
X00879Y00131D03*
X0047Y00393D03*
X00278Y-00042D03*
X00457Y00091D03*
X00892Y001D03*
X00164Y00186D03*
X-00381Y01094D03*
X00445Y00632D03*
X00841Y00599D03*
X-00088Y00959D03*
X0032Y01013D03*
X00992Y01298D03*
X01259Y01432D03*
X01318Y01432D03*
X00111Y-01773D03*
X01559Y01593D03*
X01522Y01595D03*
X01125Y01084D03*
X01098Y00946D03*
X01422Y00417D03*
X01047Y-00742D03*
X01688Y-01677D03*
X0183Y-01675D03*
X02129Y-02041D03*
X00472Y-02142D03*
X00861Y02577D03*
X00784Y02617D03*
X0012Y02294D03*
X00822Y0242D03*
X00497Y02899D03*
X00872Y03018D03*
X00472D03*
X00072D03*
X-00328D03*
X00725Y02877D03*
X-00392Y02123D03*
X-00199D03*
X-00392Y02323D03*
Y02523D03*
Y02723D03*
Y02924D03*
X-00027Y02532D03*
Y02639D03*
X-00053Y02232D03*
X01015Y02432D03*
X-00053Y02377D03*
Y02334D03*
X01681Y02298D03*
X01903Y02134D03*
Y02184D03*
X02289Y02463D03*
Y02134D03*
X01794Y02345D03*
X02132Y02235D03*
X01953Y02134D03*
X02289Y02363D03*
X02074Y02463D03*
X02186D03*
X01957D03*
X01495Y02455D03*
X00496Y02799D03*
Y027D03*
X00861Y02534D03*
X00812Y02643D03*
X0093Y02547D03*
X00142Y02851D03*
X00071Y02642D03*
X01583Y02455D03*
X01172Y03018D03*
X01186Y02786D03*
Y02691D03*
X01239Y02651D03*
X02018Y029D03*
X02233Y02193D03*
X02232Y02134D03*
X-003Y02723D03*
X00807Y-02149D03*
X00326Y01804D03*
X00997Y02382D03*
X02289Y02235D03*
X02232D03*
X02131Y02397D03*
X01884Y-01773D03*
X01042Y00232D03*
X00841Y02242D03*
X00111Y028D03*
X00142Y02563D03*
X01501Y-0152D03*
X02217Y00551D03*
X00941Y-00519D03*
X01642Y00063D03*
X00968Y00427D03*
X0032Y00414D03*
X-00083Y00918D03*
X-00149Y00885D03*
X00335Y00095D03*
X0034Y00693D03*
X-00015Y02759D03*
X00617Y02336D03*
X00117Y024D03*
X00819Y02285D03*
X00938Y00235D03*
X01322Y00275D03*
X01221Y00317D03*
X01642Y00014D03*
X00789Y00744D03*
X00786Y0078D03*
X00592Y00773D03*
X00865Y00228D03*
X00929Y00338D03*
X00964Y00963D03*
X-00058Y00697D03*
X-00007Y00574D03*
X00048Y00588D03*
X-00222Y00648D03*
X-00276Y0025D03*
X-00149Y00171D03*
X-00059Y-00298D03*
X00282Y-00822D03*
X00276Y-00907D03*
X-00351Y-0125D03*
Y-01356D03*
Y-01462D03*
X-00141Y-01475D03*
X-00156Y-01554D03*
X-00351Y-01626D03*
X-00156Y-0167D03*
X-0038Y-01706D03*
X-00376Y-01859D03*
Y-02029D03*
Y-0215D03*
X-00142D03*
X00179Y-02149D03*
X-00157Y-01768D03*
X00043Y-01955D03*
X00179D03*
Y-0167D03*
Y-01602D03*
X00241Y-01454D03*
X00179Y-0154D03*
X00112Y-0145D03*
X00378D03*
X00048D03*
X00559Y-01448D03*
X004Y-01404D03*
X00499Y-0129D03*
Y-0136D03*
X00574Y-01228D03*
X00484Y-0116D03*
X00474Y-00984D03*
X00479Y-00902D03*
X00264Y-01042D03*
X00002Y-01391D03*
X-00025Y-0201D03*
X00179Y-01886D03*
X00622Y-02149D03*
X00647Y-01447D03*
X00646Y-01509D03*
X-00054Y-00579D03*
X00707Y00226D03*
X-00316Y00748D03*
Y01049D03*
X-00323Y01348D03*
Y01452D03*
X00326Y01753D03*
X00112Y0177D03*
X00111Y01481D03*
X-00028Y0148D03*
X00537Y0158D03*
X00478Y01478D03*
X00709Y01581D03*
X00837D03*
X00509Y01753D03*
X0071D03*
X01262D03*
X01449D03*
X01322Y01632D03*
X00981Y01134D03*
X01719Y01088D03*
X01743Y00978D03*
X02042Y-01069D03*
X02304Y-00256D03*
Y-00515D03*
X02302Y-00886D03*
X02304Y-01292D03*
X01631Y-02161D03*
X0189D03*
X02148D03*
X02039Y-01172D03*
X01254Y-00795D03*
X01213Y-00606D03*
X01431Y-01453D03*
X01423Y-01146D03*
X01251Y-01034D03*
X01408Y-01035D03*
X01351Y-00969D03*
X00993Y-02149D03*
X00111Y01567D03*
X0074Y00233D03*
X01005Y01753D03*
X-00135Y-00297D03*
X-00088Y-00419D03*
X-00059Y-00379D03*
X00148Y-00679D03*
X00291Y-00703D03*
X-00352Y-00765D03*
Y-0096D03*
X-00354Y-01055D03*
X-00042Y-01557D03*
X00945Y-01981D03*
X00994Y-01558D03*
X00936D03*
X01037Y-01722D03*
X01299Y-01788D03*
X01448Y-01789D03*
X0151Y-01662D03*
X01669Y-01861D03*
X01884Y-01741D03*
X01022Y-01039D03*
X01122D03*
X00962Y-01145D03*
X01387Y-00886D03*
X01558Y-00965D03*
X01597Y-01382D03*
X01611Y-01531D03*
X02224Y-01052D03*
X02181Y00149D03*
X00837Y0004D03*
X00309Y-0044D03*
X00163Y001D03*
X00146Y0037D03*
X-00219Y00049D03*
X-0015Y-00122D03*
X-0013Y-00181D03*
X-0032Y-00552D03*
X01002Y01619D03*
X02284Y01565D03*
X01726Y0116D03*
X02117Y00248D03*
X00387Y-00611D03*
X-0034Y-00663D03*
X-00214Y-00251D03*
X00175Y-00377D03*
X00156Y-00285D03*
X00197Y-00208D03*
X00144Y-00049D03*
X00346Y-00021D03*
X00279Y-00077D03*
X00453Y00047D03*
X00433Y00155D03*
X02043Y-00902D03*
X02223Y-00951D03*
X0204Y-01286D03*
X01851Y-0043D03*
X02169Y-00445D03*
X02217Y-0025D03*
X02216Y-00148D03*
X02218Y-00051D03*
X02215Y00049D03*
X0222Y00148D03*
X02304Y-00028D03*
X0221Y0065D03*
X02011Y01029D03*
X0195Y01085D03*
X02176Y01149D03*
X02218Y01246D03*
X02151Y01323D03*
X02034Y01404D03*
X01993Y01443D03*
X02035Y01517D03*
X02258Y01476D03*
X01653Y01632D03*
X01679Y01454D03*
X01958Y01563D03*
X02024Y01321D03*
X01004Y00956D03*
X01178Y01135D03*
X00146Y00229D03*
X00701Y-00309D03*
X01951Y-00427D03*
X01953Y-00474D03*
X01952Y-00522D03*
X02049Y-00481D03*
X02042Y-00684D03*
X01727Y-0113D03*
X0012Y022D03*
X-00053Y02122D03*
X01788Y-02041D03*
X0198Y01127D03*
X02024Y01175D03*
X01196Y01183D03*
X01355Y01417D03*
X01563Y01932D03*
X00763Y022D03*
X-00146Y01693D03*
X01104Y00615D03*
X01047Y00708D03*
X01097Y009D03*
X00699Y-00548D03*
X00742Y00555D03*
X00799Y0054D03*
X00742Y00508D03*
X01164Y0246D03*
X00713Y00964D03*
X01371Y-0154D03*
X01193Y-01803D03*
X01457Y-00788D03*
X01342Y-00523D03*
X00833Y00238D03*
X01164Y02558D03*
Y02519D03*
X00276Y-0167D03*
X01271Y02518D03*
X00655Y00291D03*
Y00233D03*
X00675Y00313D03*
X00883Y-00976D03*
X01059Y-01038D03*
X01085D03*
X01022Y-00936D03*
X0031Y00773D03*
X00951Y01712D03*
X01082Y00131D03*
X01298D03*
X01122Y00108D03*
X00165Y01251D03*
X01355Y-00298D03*
X01323Y-00364D03*
X0158Y-00044D03*
X01361Y-00026D03*
X00892Y0024D03*
X02148Y01619D03*
X01852Y01537D03*
X01849Y01642D03*
X02304Y-00813D03*
X02147Y-00726D03*
X02235Y-01153D03*
X-0014Y-01206D03*
X-00148Y-01279D03*
X0043Y-01212D03*
X01092Y-01805D03*
X00977Y-01832D03*
X02118Y00949D03*
X02235Y01059D03*
X0174Y01434D03*
X01089Y02281D03*
X00994Y02206D03*
X00829Y0252D03*
X00754Y02318D03*
X00683Y02559D03*
X0126Y0269D03*
X01146Y02738D03*
X01077Y02894D03*
X01259Y02897D03*
X00731Y0242D03*
G54D87*
X00926Y-00697D03*
X00973D03*
M02*