%FSTAX23Y23*%
%MOIN*%
%SFA1B1*%

%IPPOS*%
%AMD30*
4,1,4,0.048600,0.020900,0.020900,0.048600,-0.048600,-0.020900,-0.020900,-0.048600,0.048600,0.020900,0.0*
%
%AMD31*
4,1,4,-0.020900,0.048600,-0.048600,0.020900,0.020900,-0.048600,0.048600,-0.020900,-0.020900,0.048600,0.0*
%
%ADD10R,0.039370X0.039370*%
%ADD11R,0.043310X0.023620*%
%ADD12R,0.035430X0.039370*%
%ADD13R,0.039370X0.035430*%
%ADD14R,0.031500X0.035430*%
%ADD15R,0.025200X0.055120*%
%ADD16R,0.032000X0.040000*%
%ADD17R,0.040000X0.032000*%
%ADD18C,0.039370*%
%ADD19R,0.053150X0.015750*%
%ADD20R,0.015750X0.053150*%
%ADD21R,0.114170X0.074800*%
%ADD22R,0.059060X0.074800*%
%ADD23R,0.030000X0.016000*%
%ADD24R,0.007870X0.039370*%
%ADD25R,0.039370X0.007870*%
%ADD26R,0.016000X0.030000*%
%ADD27R,0.059060X0.106300*%
%ADD28R,0.039370X0.070870*%
%ADD29R,0.023620X0.043310*%
G04~CAMADD=30~9~0.0~0.0~393.7~984.3~0.0~0.0~0~0.0~0.0~0.0~0.0~0~0.0~0.0~0.0~0.0~0~0.0~0.0~0.0~315.0~972.0~971.0*
%ADD30D30*%
G04~CAMADD=31~9~0.0~0.0~393.7~984.3~0.0~0.0~0~0.0~0.0~0.0~0.0~0~0.0~0.0~0.0~0.0~0~0.0~0.0~0.0~45.0~972.0~971.0*
%ADD31D31*%
%ADD32R,0.011810X0.064960*%
%ADD33R,0.064960X0.011810*%
%ADD34R,0.086610X0.023620*%
%ADD35R,0.017720X0.019690*%
%ADD36R,0.078740X0.047240*%
%ADD37R,0.080000X0.040000*%
%ADD38R,0.090000X0.120000*%
%ADD39R,0.039370X0.039370*%
%ADD40R,0.043310X0.059060*%
%ADD41R,0.030000X0.030000*%
%ADD42R,0.015750X0.053150*%
%ADD43R,0.050000X0.060000*%
%ADD44R,0.060000X0.050000*%
%ADD45R,0.059060X0.110240*%
%ADD46R,0.106300X0.059060*%
%ADD47R,0.045280X0.070870*%
%ADD48R,0.030000X0.030000*%
%ADD49R,0.011020X0.027170*%
%ADD50R,0.098430X0.098430*%
%ADD51R,0.027170X0.011020*%
%ADD52R,0.090550X0.070870*%
%ADD53R,0.086610X0.070870*%
%ADD55C,0.005000*%
%ADD70C,0.003940*%
%ADD71C,0.001970*%
%LNmb1137-1*%
%LPD*%
G36*
X00275Y-00299D02*
X00295Y-00319D01*
X00265*
Y-00299*
Y-00279*
X00295*
X00275Y-00299*
G37*
G36*
X00315Y-00319D02*
X00305D01*
X00285Y-00299*
X00305Y-00279*
X00315*
Y-00319*
G37*
G36*
X01626Y-003D02*
X01606Y-0032D01*
X01596*
Y-0028*
X01606*
X01626Y-003*
G37*
G36*
X01646D02*
Y-0032D01*
X01616*
X01636Y-003*
X01616Y-0028*
X01646*
Y-003*
G37*
G36*
Y-002D02*
Y-0022D01*
X01616*
X01636Y-002*
X01616Y-0018*
X01646*
Y-002*
G37*
G36*
X01044Y00022D02*
Y00012D01*
X01004*
Y00022*
X01024Y00042*
X01044Y00022*
G37*
G36*
X0146Y-003D02*
X0144Y-0028D01*
X0142Y-003*
Y-0027*
X0146*
Y-003*
G37*
G36*
X01626Y-002D02*
X01606Y-0022D01*
X01596*
Y-0018*
X01606*
X01626Y-002*
G37*
G36*
X0146Y-0031D02*
Y-0032D01*
X0142*
Y-0031*
X0144Y-0029*
X0146Y-0031*
G37*
G36*
X0086Y-01148D02*
X0084Y-01128D01*
X0082Y-01148*
Y-01118*
X0086*
Y-01148*
G37*
G36*
X01576D02*
X01556Y-01128D01*
X01536Y-01148*
Y-01118*
X01576*
Y-01148*
G37*
G36*
X0086Y-01158D02*
Y-01168D01*
X0082*
Y-01158*
X0084Y-01138*
X0086Y-01158*
G37*
G36*
X01576D02*
Y-01168D01*
X01536*
Y-01158*
X01556Y-01138*
X01576Y-01158*
G37*
G36*
X00275Y-00359D02*
X00295Y-00379D01*
X00265*
Y-00359*
Y-00339*
X00295*
X00275Y-00359*
G37*
G36*
X00315Y-00379D02*
X00305D01*
X00285Y-00359*
X00305Y-00339*
X00315*
Y-00379*
G37*
G36*
X01626Y-0045D02*
X01606Y-0047D01*
X01596*
Y-0043*
X01606*
X01626Y-0045*
G37*
G36*
X01646D02*
Y-0047D01*
X01616*
X01636Y-0045*
X01616Y-0043*
X01646*
Y-0045*
G37*
G36*
X0122Y01505D02*
Y01495D01*
X0118*
Y01505*
X012Y01525*
X0122Y01505*
G37*
G36*
X01161Y01493D02*
X01121D01*
Y01523*
X01141Y01503*
X01161Y01523*
Y01493*
G37*
G36*
X01279Y0138D02*
X01259Y0136D01*
X01239Y0138*
Y0139*
X01279*
Y0138*
G37*
G36*
X01102Y01362D02*
X01082Y01382D01*
X01062Y01362*
Y01392*
X01102*
Y01362*
G37*
G36*
X01945Y0236D02*
X01925Y0234D01*
X01915*
Y0238*
X01925*
X01945Y0236*
G37*
G36*
X01965D02*
Y0234D01*
X01935*
X01955Y0236*
X01935Y0238*
X01965*
Y0236*
G37*
G36*
X01161Y01533D02*
X01141Y01513D01*
X01121Y01533*
Y01543*
X01161*
Y01533*
G37*
G36*
X0122Y01515D02*
X012Y01535D01*
X0118Y01515*
Y01545*
X0122*
Y01515*
G37*
G36*
Y0138D02*
X012Y0136D01*
X0118Y0138*
Y0139*
X0122*
Y0138*
G37*
G36*
X01103Y00032D02*
X01083Y00052D01*
X01063Y00032*
Y00062*
X01103*
Y00032*
G37*
G36*
X01102Y01352D02*
Y01342D01*
X01062*
Y01352*
X01082Y01372*
X01102Y01352*
G37*
G36*
X01103Y00022D02*
Y00012D01*
X01063*
Y00022*
X01083Y00042*
X01103Y00022*
G37*
G36*
X01044Y00032D02*
X01024Y00052D01*
X01004Y00032*
Y00062*
X01044*
Y00032*
G37*
G36*
X01279Y0134D02*
X01239D01*
Y0137*
X01259Y0135*
X01279Y0137*
Y0134*
G37*
G36*
X01161Y0138D02*
X01141Y0136D01*
X01121Y0138*
Y0139*
X01161*
Y0138*
G37*
G36*
Y0134D02*
X01121D01*
Y0137*
X01141Y0135*
X01161Y0137*
Y0134*
G37*
G36*
X0122D02*
X0118D01*
Y0137*
X012Y0135*
X0122Y0137*
Y0134*
G37*
G54D10*
X00879Y01926D03*
Y01993D03*
X00751Y01926D03*
Y01993D03*
X01451Y01992D03*
Y01925D03*
X00242Y-01783D03*
Y-01716D03*
X01004Y01926D03*
Y01993D03*
X00719Y-01706D03*
Y-01773D03*
G54D11*
X00451Y-01871D03*
Y-01909D03*
Y-01946D03*
X00356D03*
Y-01909D03*
Y-01871D03*
X00883Y-00936D03*
Y-00899D03*
Y-00861D03*
X00977D03*
Y-00899D03*
Y-00936D03*
G54D12*
X01076Y-00606D03*
X01139D03*
Y-00547D03*
X01076D03*
Y-00742D03*
X01139D03*
X01076Y-00862D03*
X01139D03*
X01076Y-00801D03*
X01139D03*
X00733Y-00666D03*
X00796D03*
X01208Y02361D03*
X01271D03*
X00733Y-00548D03*
X00796D03*
Y-00607D03*
X00733D03*
X0213Y02134D03*
X02193D03*
X01076Y-00936D03*
X01139D03*
X00433Y00373D03*
X0037D03*
X0213Y0236D03*
X02193D03*
X00821Y-00861D03*
X00758D03*
X01208Y0242D03*
X01271D03*
X00018Y022D03*
X00081D03*
X00018Y02295D03*
X00081D03*
X00018Y024D03*
X00081D03*
X00018Y026D03*
X00081D03*
Y02759D03*
X00018D03*
Y027D03*
X00081D03*
X01497Y-00582D03*
X01434D03*
X00702Y-00861D03*
X00639D03*
X01497Y-00732D03*
X01434D03*
X00821Y-00801D03*
X00758D03*
X01522Y00945D03*
X01459D03*
X0037Y00252D03*
X00433D03*
X01522Y00295D03*
X01459D03*
X01522Y00551D03*
X01459D03*
X01522Y00748D03*
X01459D03*
X00375Y00708D03*
X00438D03*
X0037Y00512D03*
X00433D03*
X01176Y00065D03*
X01239D03*
X0213Y02193D03*
X02193D03*
X01208Y02558D03*
X01271D03*
X01469Y02168D03*
X01406D03*
X00485Y02508D03*
X00548D03*
X00485Y02432D03*
X00548D03*
X00821Y-00937D03*
X00758D03*
G54D13*
X00478Y-01721D03*
Y-01784D03*
X00419D03*
Y-01721D03*
X00236Y-01946D03*
Y-01883D03*
X00796Y-00415D03*
Y-00478D03*
X00747Y01195D03*
Y01132D03*
X01655Y02189D03*
Y02252D03*
X00855Y-00478D03*
Y-00415D03*
X00886Y-01773D03*
Y-0171D03*
X00944Y-01773D03*
Y-0171D03*
X01689Y-01773D03*
Y-0171D03*
X0115Y-00478D03*
Y-00415D03*
X00973Y-00478D03*
Y-00415D03*
X00736D03*
Y-00478D03*
X01522Y01397D03*
Y01334D03*
X00625Y-01945D03*
Y-01882D03*
X00684Y-01945D03*
Y-01882D03*
X00783Y-01773D03*
Y-0171D03*
X01091Y-00415D03*
Y-00478D03*
X00944Y-01944D03*
Y-01881D03*
X0161Y01397D03*
Y01334D03*
X00886Y-01882D03*
Y-01945D03*
X00311Y-01784D03*
Y-01721D03*
X00788Y00003D03*
Y00066D03*
X00729Y00003D03*
Y00066D03*
X-001Y-01773D03*
Y-0171D03*
X-00041Y-01773D03*
Y-0171D03*
X00077Y-01773D03*
Y-0171D03*
X01648Y01993D03*
Y0193D03*
X01352Y02729D03*
Y02666D03*
X01411D03*
Y02729D03*
X01756Y02569D03*
Y02632D03*
X01697D03*
Y02569D03*
X01815Y02632D03*
Y02569D03*
X-003Y02481D03*
Y02418D03*
X02029Y02632D03*
Y02569D03*
X0191D03*
Y02632D03*
X01969Y02569D03*
Y02632D03*
X01117Y02215D03*
Y02152D03*
X00713Y02273D03*
Y02336D03*
X00654Y02273D03*
Y02336D03*
X00842Y02684D03*
Y02747D03*
X00666D03*
Y02684D03*
X00725Y02747D03*
Y02684D03*
X0096Y02747D03*
Y02684D03*
X01019D03*
Y02747D03*
X01078D03*
Y02684D03*
X01004Y01792D03*
Y01855D03*
X01639Y02632D03*
Y02569D03*
X00914Y-00478D03*
Y-00415D03*
X01497Y-01176D03*
Y-01113D03*
X00573Y01182D03*
Y01119D03*
X01082Y01171D03*
Y01108D03*
X00891Y01182D03*
Y01119D03*
X01324Y-00328D03*
Y-00265D03*
X0183Y-01773D03*
Y-0171D03*
X01091Y-00245D03*
Y-00182D03*
X01016Y-00244D03*
Y-00181D03*
X00807Y-00199D03*
Y-00136D03*
X00709Y-00199D03*
Y-00136D03*
X00018Y-01773D03*
Y-0171D03*
X01259Y01487D03*
Y0155D03*
X01396Y01397D03*
Y01334D03*
X01318Y0155D03*
Y01487D03*
X01455Y01334D03*
Y01397D03*
X01058Y02215D03*
Y02152D03*
X0089Y02215D03*
Y02152D03*
X00784Y02684D03*
Y02747D03*
X01696Y02408D03*
Y02345D03*
X01596Y02252D03*
Y02189D03*
X01755Y02345D03*
Y02408D03*
X01537Y02252D03*
Y02189D03*
X00901Y02684D03*
Y02747D03*
X01032Y-00415D03*
Y-00478D03*
X00899Y-01113D03*
Y-01176D03*
Y-01422D03*
Y-01485D03*
X01501Y-01422D03*
Y-01485D03*
X00781D03*
Y-01422D03*
X0084Y-01485D03*
Y-01422D03*
X00878Y01792D03*
Y01855D03*
X0075Y01792D03*
Y01855D03*
X01023Y01397D03*
Y01334D03*
G54D14*
X00619Y-01709D03*
X00657Y-01788D03*
X0058D03*
X01736Y0277D03*
X01774Y02691D03*
X01697D03*
G54D15*
X01372Y-0112D03*
X01322D03*
X01272D03*
X01222D03*
X01172D03*
X01122D03*
X01072D03*
X01022D03*
X01372Y-01475D03*
X01322D03*
X01272D03*
X01222D03*
X01172D03*
X01122D03*
X01072D03*
X01022D03*
G54D16*
X01586Y-003D03*
X01653D03*
X00325Y-00299D03*
X00258D03*
X01586Y-002D03*
X01653D03*
X01586Y-0045D03*
X01653D03*
X00325Y-00359D03*
X00258D03*
X01905Y0236D03*
X01972D03*
G54D17*
X01082Y01332D03*
Y014D03*
X0144Y-0033D03*
Y-00262D03*
X01259Y014D03*
Y01332D03*
X0084Y-01178D03*
Y-01111D03*
X012Y01485D03*
Y01552D03*
Y014D03*
Y01332D03*
X01141Y014D03*
Y01332D03*
X01556Y-01178D03*
Y-01111D03*
X01141Y01486D03*
Y01553D03*
X01024Y00069D03*
Y00002D03*
X01083Y00069D03*
Y00002D03*
G54D18*
X00522Y01361D03*
G54D19*
X01373Y0233D03*
X01468D03*
X01374Y02251D03*
X01469D03*
X01374Y02408D03*
X01469D03*
X-00013Y0283D03*
X00081D03*
G54D20*
X00443Y-02037D03*
X00417D03*
X00392D03*
X00366D03*
X0034D03*
X01551Y02885D03*
X01525D03*
X015D03*
X01474D03*
X01448D03*
G54D21*
X00392Y-02142D03*
G54D22*
X0146Y02991D03*
X01539D03*
G54D23*
X01638Y02408D03*
Y02333D03*
X01531Y02371D03*
Y02333D03*
Y02408D03*
G54D24*
X00959Y02617D03*
X00979D03*
X01038D03*
X01018D03*
X00999D03*
X00959Y02282D03*
X00861Y02617D03*
X00979Y02282D03*
X01038D03*
X00861D03*
X0092Y02617D03*
X01058D03*
X00881Y02282D03*
X0092D03*
X009D03*
X00841D03*
X0094D03*
X00841Y02617D03*
X00881D03*
X00999Y02282D03*
X0094Y02617D03*
X009D03*
X01018Y02282D03*
X01058D03*
G54D25*
X00782Y02381D03*
Y0242D03*
X01117Y02538D03*
X00782Y02499D03*
Y02361D03*
X01117Y0244D03*
X00782Y02518D03*
Y02538D03*
X01117Y0242D03*
X00782Y02479D03*
Y02459D03*
X01117Y02518D03*
X00782Y0244D03*
X01117Y02361D03*
Y02381D03*
Y02341D03*
X00782D03*
X01117Y02479D03*
Y02499D03*
Y024D03*
Y02459D03*
X00782Y02558D03*
Y024D03*
X01117Y02558D03*
G54D26*
X01522Y01559D03*
X01596D03*
X01559Y01452D03*
X01596D03*
X01522D03*
X00747Y-01945D03*
X00822D03*
X00785D03*
X00822Y-01838D03*
X00747D03*
G54D27*
X01015Y-00088D03*
X0109D03*
G54D28*
X00807Y-00065D03*
X00708D03*
G54D29*
X0155Y02666D03*
X01513D03*
X01475D03*
Y02761D03*
X01513D03*
X0155D03*
G54D30*
X01385Y00168D03*
X00522Y01031D03*
G54D31*
X01385Y01031D03*
X00522Y00168D03*
G54D32*
X00609Y00181D03*
X00629D03*
X00648D03*
X00668D03*
X00688D03*
X00707D03*
X00727D03*
X00747D03*
X00766D03*
X00786D03*
X00806D03*
X00826D03*
X00845D03*
X00865D03*
X00885D03*
X00904D03*
X00924D03*
X00944D03*
X00963D03*
X00983D03*
X01003D03*
X01022D03*
X01042D03*
X01062D03*
X01081D03*
X01101D03*
X01121D03*
X01141D03*
X0116D03*
X0118D03*
X012D03*
X01219D03*
X01239D03*
X01259D03*
X01278D03*
X01298D03*
Y01018D03*
X01278D03*
X01259D03*
X01239D03*
X01219D03*
X012D03*
X0118D03*
X0116D03*
X01141D03*
X01121D03*
X01101D03*
X01081D03*
X01062D03*
X01042D03*
X01022D03*
X01003D03*
X00983D03*
X00963D03*
X00944D03*
X00924D03*
X00904D03*
X00885D03*
X00865D03*
X00845D03*
X00826D03*
X00806D03*
X00786D03*
X00766D03*
X00747D03*
X00727D03*
X00707D03*
X00688D03*
X00668D03*
X00648D03*
X00629D03*
X00609D03*
G54D33*
X01372Y00255D03*
Y00275D03*
Y00294D03*
Y00314D03*
Y00334D03*
Y00353D03*
Y00373D03*
Y00393D03*
Y00412D03*
Y00432D03*
Y00452D03*
Y00472D03*
Y00491D03*
Y00511D03*
Y00531D03*
Y0055D03*
Y0057D03*
Y0059D03*
Y00609D03*
Y00629D03*
Y00649D03*
Y00668D03*
Y00688D03*
Y00708D03*
Y00727D03*
Y00747D03*
Y00767D03*
Y00787D03*
Y00806D03*
Y00826D03*
Y00846D03*
Y00865D03*
Y00885D03*
Y00905D03*
Y00924D03*
Y00944D03*
X00535D03*
Y00924D03*
Y00905D03*
Y00885D03*
Y00865D03*
Y00846D03*
Y00826D03*
Y00806D03*
Y00787D03*
Y00767D03*
Y00747D03*
Y00727D03*
Y00708D03*
Y00688D03*
Y00668D03*
Y00649D03*
Y00629D03*
Y00609D03*
Y0059D03*
Y0057D03*
Y0055D03*
Y00531D03*
Y00511D03*
Y00491D03*
Y00472D03*
Y00452D03*
Y00432D03*
Y00412D03*
Y00393D03*
Y00373D03*
Y00353D03*
Y00334D03*
Y00314D03*
Y00294D03*
Y00275D03*
Y00255D03*
G54D34*
X02028Y02134D03*
Y02184D03*
Y02234D03*
Y02284D03*
X01837Y02134D03*
Y02184D03*
Y02234D03*
Y02284D03*
G54D35*
X01379Y01452D03*
X01417D03*
X01379Y01555D03*
X01454D03*
X01417D03*
X01454Y01452D03*
G54D36*
X01417Y01504D03*
G54D37*
X00385Y01711D03*
Y01618D03*
Y01804D03*
G54D38*
X00635Y01711D03*
G54D39*
X02126Y02294D03*
X02193D03*
G54D40*
X0191Y029D03*
Y02781D03*
X01969D03*
Y029D03*
G54D41*
X01382Y-0027D03*
Y-00325D03*
G54D42*
X01147Y0269D03*
Y02785D03*
G54D43*
X00544Y-00785D03*
X00654D03*
X00758Y-02024D03*
X00648D03*
X00903Y01712D03*
X00793D03*
G54D44*
X01735Y02164D03*
Y02274D03*
G54D45*
X00111Y01651D03*
X00234D03*
G54D46*
X00642Y02432D03*
Y02507D03*
G54D47*
X00893Y-01306D03*
X00774D03*
G54D48*
X00699Y-00936D03*
X00644D03*
G54D49*
X0092Y-00749D03*
X0094D03*
X00999D03*
X00979D03*
X00959D03*
X009D03*
Y-00599D03*
X0092D03*
X0094D03*
X00959D03*
X00979D03*
X00999D03*
G54D50*
X0095Y-00674D03*
G54D51*
X00875Y-00723D03*
Y-00703D03*
Y-00684D03*
Y-00664D03*
Y-00644D03*
Y-00625D03*
X01024D03*
Y-00644D03*
Y-00664D03*
Y-00684D03*
Y-00703D03*
Y-00723D03*
G54D52*
X02199Y-02041D03*
X01858D03*
Y-01864D03*
X02199D03*
X00048D03*
X-00292D03*
Y-02041D03*
X00048D03*
G54D53*
X01342Y-00731D03*
Y-00582D03*
G54D55*
X-00427Y-02121D02*
D01*
X-00427Y-02126*
X-00427Y-02132*
X-00426Y-02137*
X-00424Y-02142*
X-00423Y-02148*
X-0042Y-02153*
X-00418Y-02158*
X-00415Y-02162*
X-00412Y-02167*
X-00409Y-02171*
X-00405Y-02175*
X-00401Y-02179*
X-00397Y-02183*
X-00393Y-02186*
X-00388Y-02189*
X-00383Y-02191*
X-00378Y-02194*
X-00373Y-02196*
X-00368Y-02197*
X-00362Y-02198*
X-00357Y-02199*
X-00351Y-02199*
X-00349Y-02199*
X02249Y-02199D02*
D01*
X02254Y-02199*
X0226Y-02199*
X02265Y-02198*
X0227Y-02196*
X02276Y-02195*
X02281Y-02192*
X02286Y-0219*
X0229Y-02187*
X02295Y-02184*
X02299Y-02181*
X02303Y-02177*
X02307Y-02173*
X02311Y-02169*
X02314Y-02165*
X02317Y-0216*
X02319Y-02155*
X02322Y-0215*
X02324Y-02145*
X02325Y-0214*
X02326Y-02134*
X02327Y-02129*
X02327Y-02123*
X02327Y-02121*
X01698Y02085D02*
D01*
X01696Y02084*
X01695Y02084*
X01693Y02084*
X01692Y02084*
X01691Y02083*
X0169Y02083*
X01688Y02082*
X01687Y02082*
X01686Y02081*
X01685Y0208*
X01684Y02079*
X01683Y02078*
X01682Y02077*
X01681Y02076*
X0168Y02075*
X0168Y02073*
X01679Y02072*
X01679Y02071*
X01678Y0207*
X01678Y02068*
X01678Y02067*
X01678Y02066*
Y02064*
X01678Y02063*
X01678Y02061*
X01678Y0206*
X01679Y02059*
X01679Y02057*
X0168Y02056*
X0168Y02055*
X01681Y02054*
X01682Y02053*
X01683Y02052*
X01684Y02051*
X01685Y0205*
X01686Y02049*
X01687Y02048*
X01688Y02047*
X0169Y02047*
X01691Y02046*
X01692Y02046*
X01693Y02046*
X01695Y02045*
X01696Y02045*
X01698Y02045*
X0125Y02085D02*
D01*
X01248Y02084*
X01247Y02084*
X01245Y02084*
X01244Y02084*
X01243Y02083*
X01241Y02083*
X0124Y02082*
X01239Y02082*
X01238Y02081*
X01237Y0208*
X01236Y02079*
X01235Y02078*
X01234Y02077*
X01233Y02076*
X01232Y02075*
X01232Y02073*
X01231Y02072*
X01231Y02071*
X0123Y0207*
X0123Y02068*
X0123Y02067*
X0123Y02066*
Y02064*
X0123Y02063*
X0123Y02061*
X0123Y0206*
X01231Y02059*
X01231Y02057*
X01232Y02056*
X01232Y02055*
X01233Y02054*
X01234Y02053*
X01235Y02052*
X01236Y02051*
X01237Y0205*
X01238Y02049*
X01239Y02048*
X0124Y02047*
X01241Y02047*
X01243Y02046*
X01244Y02046*
X01245Y02046*
X01247Y02045*
X01248Y02045*
X0125Y02045*
X01538D02*
D01*
X01539Y02045*
X01541Y02045*
X01542Y02046*
X01544Y02046*
X01545Y02046*
X01546Y02047*
X01547Y02047*
X01549Y02048*
X0155Y02049*
X01551Y0205*
X01552Y02051*
X01553Y02052*
X01554Y02053*
X01554Y02054*
X01555Y02055*
X01556Y02056*
X01556Y02057*
X01557Y02059*
X01557Y0206*
X01557Y02061*
X01558Y02063*
X01558Y02064*
Y02066*
X01558Y02067*
X01557Y02068*
X01557Y0207*
X01557Y02071*
X01556Y02072*
X01556Y02073*
X01555Y02075*
X01554Y02076*
X01554Y02077*
X01553Y02078*
X01552Y02079*
X01551Y0208*
X0155Y02081*
X01549Y02082*
X01547Y02082*
X01546Y02083*
X01545Y02083*
X01544Y02084*
X01542Y02084*
X01541Y02084*
X01539Y02084*
X01538Y02085*
X00182Y02045D02*
D01*
X00183Y02045*
X00185Y02045*
X00186Y02046*
X00187Y02046*
X00189Y02046*
X0019Y02047*
X00191Y02047*
X00192Y02048*
X00193Y02049*
X00194Y0205*
X00195Y02051*
X00196Y02052*
X00197Y02053*
X00198Y02054*
X00199Y02055*
X00199Y02056*
X002Y02057*
X00201Y02059*
X00201Y0206*
X00201Y02061*
X00201Y02063*
X00201Y02064*
Y02066*
X00201Y02067*
X00201Y02068*
X00201Y0207*
X00201Y02071*
X002Y02072*
X00199Y02073*
X00199Y02075*
X00198Y02076*
X00197Y02077*
X00196Y02078*
X00195Y02079*
X00194Y0208*
X00193Y02081*
X00192Y02082*
X00191Y02082*
X0019Y02083*
X00189Y02083*
X00187Y02084*
X00186Y02084*
X00185Y02084*
X00183Y02084*
X00182Y02085*
X0032D02*
D01*
X00318Y02084*
X00317Y02084*
X00315Y02084*
X00314Y02084*
X00313Y02083*
X00312Y02083*
X0031Y02082*
X00309Y02082*
X00308Y02081*
X00307Y0208*
X00306Y02079*
X00305Y02078*
X00304Y02077*
X00303Y02076*
X00303Y02075*
X00302Y02073*
X00301Y02072*
X00301Y02071*
X003Y0207*
X003Y02068*
X003Y02067*
X003Y02066*
Y02064*
X003Y02063*
X003Y02061*
X003Y0206*
X00301Y02059*
X00301Y02057*
X00302Y02056*
X00303Y02055*
X00303Y02054*
X00304Y02053*
X00305Y02052*
X00306Y02051*
X00307Y0205*
X00308Y02049*
X00309Y02048*
X0031Y02047*
X00312Y02047*
X00313Y02046*
X00314Y02046*
X00315Y02046*
X00317Y02045*
X00318Y02045*
X0032Y02045*
X01068D02*
D01*
X01069Y02045*
X0107Y02045*
X01072Y02046*
X01073Y02046*
X01074Y02046*
X01076Y02047*
X01077Y02047*
X01078Y02048*
X01079Y02049*
X0108Y0205*
X01081Y02051*
X01082Y02052*
X01083Y02053*
X01084Y02054*
X01085Y02055*
X01085Y02056*
X01086Y02057*
X01086Y02059*
X01087Y0206*
X01087Y02061*
X01087Y02063*
X01087Y02064*
Y02066*
X01087Y02067*
X01087Y02068*
X01087Y0207*
X01086Y02071*
X01086Y02072*
X01085Y02073*
X01085Y02075*
X01084Y02076*
X01083Y02077*
X01082Y02078*
X01081Y02079*
X0108Y0208*
X01079Y02081*
X01078Y02082*
X01077Y02082*
X01076Y02083*
X01074Y02083*
X01073Y02084*
X01072Y02084*
X0107Y02084*
X01069Y02084*
X01068Y02085*
X-00349Y03049D02*
D01*
X-00354Y03049*
X-0036Y03048*
X-00365Y03047*
X-0037Y03046*
X-00376Y03044*
X-00381Y03042*
X-00386Y0304*
X-0039Y03037*
X-00395Y03034*
X-00399Y03031*
X-00403Y03027*
X-00407Y03023*
X-00411Y03019*
X-00414Y03014*
X-00417Y0301*
X-00419Y03005*
X-00422Y03*
X-00424Y02995*
X-00425Y02989*
X-00426Y02984*
X-00427Y02979*
X-00427Y02973*
X-00427Y0297*
X02327D02*
D01*
X02327Y02976*
X02327Y02981*
X02326Y02987*
X02324Y02992*
X02323Y02997*
X02321Y03002*
X02318Y03007*
X02315Y03012*
X02312Y03017*
X02309Y03021*
X02305Y03025*
X02301Y03029*
X02297Y03032*
X02293Y03036*
X02288Y03039*
X02283Y03041*
X02278Y03043*
X02273Y03045*
X02268Y03047*
X02262Y03048*
X02257Y03049*
X02251Y03049*
X02249Y03049*
X-00349Y-022D02*
X02249D01*
X0125Y02045D02*
X01538D01*
X0125Y02085D02*
X01538D01*
X-00349Y03049D02*
X02249D01*
X0032Y02045D02*
X01068D01*
X0032Y02085D02*
X01068D01*
X01698Y02045D02*
X02327D01*
X01698Y02085D02*
X02327D01*
X-00427D02*
X00182D01*
X-00427Y02045D02*
X00182D01*
X-00427Y02085D02*
Y0297D01*
X02327Y-02121D02*
Y02045D01*
Y02085D02*
Y0297D01*
D01*
X-00427Y-02121D02*
Y02045D01*
X01043Y-01825D02*
X01594D01*
X01043Y-02297D02*
Y-01825D01*
X01594Y-02297D02*
Y-01825D01*
X01043Y-02297D02*
X01594D01*
X01043Y-02199D02*
X01594D01*
G54D70*
X00155Y-02199D02*
X0028D01*
Y-02125*
X00316*
Y-02199D02*
Y-02125D01*
Y-02199D02*
X00392D01*
X00467*
Y-02125*
X00503*
Y-02199D02*
Y-02125D01*
Y-02199D02*
X00628D01*
X01263Y03047D02*
X01388D01*
Y02973D02*
Y03047D01*
Y02973D02*
X01424D01*
Y03047*
X015*
X01575*
Y02973D02*
Y03047D01*
Y02973D02*
X01611D01*
Y03047*
X01736*
G54D71*
X00612Y-02186D02*
Y-02194D01*
X00615*
X00617Y-02193*
Y-02192*
X00615Y-0219*
X00612*
X00615*
X00617Y-02189*
Y-02188*
X00615Y-02186*
X00612*
X00621Y-02194D02*
X00623D01*
X00625Y-02193*
Y-0219*
X00623Y-02189*
X00621*
X00619Y-0219*
Y-02193*
X00621Y-02194*
X00629Y-02189D02*
X00631D01*
X00632Y-0219*
Y-02194*
X00629*
X00627Y-02193*
X00629Y-02192*
X00632*
X00635Y-02189D02*
Y-02194D01*
Y-02192*
X00636Y-0219*
X00638Y-02189*
X00639*
X00648Y-02186D02*
Y-02194D01*
X00644*
X00643Y-02193*
Y-0219*
X00644Y-02189*
X00648*
X00663Y-02194D02*
X0066D01*
X00659Y-02193*
Y-0219*
X0066Y-02189*
X00663*
X00664Y-0219*
Y-02192*
X00659*
X00672Y-02186D02*
Y-02194D01*
X00668*
X00667Y-02193*
Y-0219*
X00668Y-02189*
X00672*
X00677Y-02197D02*
X00678D01*
X0068Y-02195*
Y-02189*
X00676*
X00674Y-0219*
Y-02193*
X00676Y-02194*
X0068*
X00686D02*
X00684D01*
X00682Y-02193*
Y-0219*
X00684Y-02189*
X00686*
X00688Y-0219*
Y-02192*
X00682*
X0128Y03034D02*
Y03042D01*
X01276*
X01274Y03041*
Y0304*
X01276Y03038*
X0128*
X01276*
X01274Y03037*
Y03036*
X01276Y03034*
X0128*
X0127Y03042D02*
X01268D01*
X01266Y03041*
Y03038*
X01268Y03037*
X0127*
X01272Y03038*
Y03041*
X0127Y03042*
X01262Y03037D02*
X0126D01*
X01259Y03038*
Y03042*
X01262*
X01264Y03041*
X01262Y0304*
X01259*
X01256Y03037D02*
Y03042D01*
Y0304*
X01255Y03038*
X01253Y03037*
X01252*
X01243Y03034D02*
Y03042D01*
X01247*
X01248Y03041*
Y03038*
X01247Y03037*
X01243*
X01228Y03042D02*
X01231D01*
X01232Y03041*
Y03038*
X01231Y03037*
X01228*
X01227Y03038*
Y0304*
X01232*
X01219Y03034D02*
Y03042D01*
X01223*
X01224Y03041*
Y03038*
X01223Y03037*
X01219*
X01214Y03045D02*
X01213D01*
X01211Y03043*
Y03037*
X01215*
X01217Y03038*
Y03041*
X01215Y03042*
X01211*
X01205D02*
X01207D01*
X01209Y03041*
Y03038*
X01207Y03037*
X01205*
X01203Y03038*
Y0304*
X01209*
M02*